<svg width="65" height="73" viewBox="0 0 65 73" fill="none" xmlns="http://www.w3.org/2000/svg">
<path d="M15.1776 56.8164H14.3295C13.8481 56.8164 13.457 57.2069 13.457 57.6889C13.457 58.1708 13.8481 58.5613 14.3295 58.5613H15.1776C15.6595 58.5613 16.05 58.1708 16.05 57.6889C16.05 57.2069 15.6595 56.8164 15.1776 56.8164Z" fill="#E84C3D"/>
<path d="M17.0547 57.6889C17.0547 58.1708 17.4452 58.5613 17.9272 58.5613H26.438C26.9199 58.5613 27.3104 58.1708 27.3104 57.6889C27.3104 57.2069 26.9199 56.8164 26.438 56.8164H17.9272C17.4452 56.8164 17.0547 57.2069 17.0547 57.6889V57.6889Z" fill="#E84C3D"/>
<path d="M53.0079 51.8027C52.8511 51.5352 52.5649 51.3711 52.2549 51.3711C51.9453 51.3711 51.6587 51.5352 51.5023 51.8027L47.2251 59.1023C46.5302 60.2879 46.2773 61.6812 46.51 63.0357C46.7432 64.3906 47.4474 65.6189 48.4985 66.5049C49.5496 67.3903 50.8796 67.8758 52.2538 67.8758C53.6285 67.8758 54.9585 67.3903 56.0096 66.5049C57.0607 65.6189 57.7649 64.3907 57.9976 63.0357C58.2307 61.6812 57.9773 60.2879 57.283 59.1023L53.0079 51.8027ZM55.1413 64.9359H55.1408C54.1967 65.8806 52.8505 66.3038 51.5356 66.0691C50.2212 65.8344 49.1041 64.9718 48.5454 63.7586C47.986 62.546 48.0556 61.1359 48.7313 59.9841L52.2549 53.9698L55.7775 59.9841H55.777C56.2335 60.7636 56.4189 61.6724 56.3036 62.5683C56.1889 63.4647 55.7801 64.2972 55.1414 64.936L55.1413 64.9359Z" fill="#935EF1"/>
<path d="M55.1307 61.121C54.6581 61.0255 54.198 61.3308 54.1024 61.8029C53.9689 62.4578 53.5 62.9937 52.8685 63.2133C52.6478 63.2871 52.466 63.446 52.3632 63.6548C52.2603 63.8635 52.2453 64.105 52.3211 64.3247C52.3969 64.5449 52.5574 64.7251 52.7672 64.8264C52.9765 64.9271 53.218 64.9406 53.4372 64.8627C54.6534 64.4421 55.5565 63.4101 55.8126 62.1493C55.8583 61.9223 55.8126 61.6865 55.6843 61.4939C55.5565 61.3007 55.3571 61.1667 55.1307 61.121L55.1307 61.121Z" fill="#935EF1"/>
<path d="M52.2556 47.0688C50.0037 47.0641 47.7931 47.6691 45.8575 48.8195C44.945 46.8574 43.3928 45.2636 41.4546 44.3008C41.4313 44.2894 41.4079 44.2785 41.3835 44.2691L36.803 42.4691C38.4826 40.1883 39.0179 36.6905 38.227 32.8039L36.7952 25.7291H36.7957C37.4802 24.8494 37.7248 23.7047 37.4589 22.6225C37.2351 21.6841 36.5646 20.9154 35.6651 20.5659L35.7451 19.4068H35.8931C36.6898 19.4078 37.4387 19.0282 37.9081 18.3852C38.3781 17.7418 38.5121 16.913 38.269 16.1548C38.0255 15.3966 37.4345 14.8003 36.6783 14.5501C36.5973 12.7916 36.2119 11.0613 35.5389 9.43463C34.7781 7.6518 33.6236 6.06413 32.1627 4.79075V4.47292C32.1627 3.8518 31.9336 3.25198 31.5197 2.78873C31.1053 2.32497 30.5351 2.03104 29.9171 1.96144C29.2996 1.89237 28.6785 2.05284 28.1716 2.41273C27.4019 2.12242 26.6068 1.90483 25.7967 1.76253C25.5952 1.32007 25.2712 0.944596 24.863 0.679736C24.4548 0.415395 23.9791 0.273619 23.4929 0.270508C23.0053 0.271027 22.5285 0.411765 22.1193 0.677143C21.7101 0.942003 21.3865 1.31955 21.1871 1.76462C20.3775 1.90743 19.5824 2.12555 18.8133 2.41534C18.307 2.05493 17.6859 1.89393 17.0684 1.96249C16.4504 2.03156 15.8802 2.3255 15.4657 2.78873C15.0513 3.25198 14.8223 3.8518 14.8223 4.47292V4.79958C13.3619 6.07245 12.209 7.66009 11.4498 9.44187C10.7772 11.0664 10.3908 12.7942 10.3067 14.55C9.55108 14.8003 8.96007 15.397 8.71704 16.1552C8.474 16.9134 8.60798 17.7418 9.07745 18.3848C9.54692 19.0277 10.2958 19.4078 11.0919 19.4068H11.1833L11.2633 20.5628C10.3607 20.9103 9.68662 21.6799 9.46274 22.6209C9.15841 23.8595 9.52194 25.1676 10.4225 26.0713L8.5467 32.7405C8.54099 32.7613 8.53579 32.782 8.53216 32.8033C8.01595 35.347 7.56101 39.7551 9.67573 42.6674L5.6006 44.2685C5.57671 44.2784 5.55282 44.2888 5.52945 44.3002H5.52997C2.53863 45.8078 0.541747 48.757 0.253116 52.0943C0.251039 52.1182 0.25 52.1426 0.25 52.167V65.8594H0.250519C0.250519 66.3413 0.641055 66.7318 1.12299 66.7318H41.9049C44.3946 70.3573 48.5995 72.4159 52.9905 72.1582C57.3809 71.9007 61.3164 69.3642 63.3651 65.4724C65.4139 61.581 65.2768 56.9008 63.0037 53.1357C60.7311 49.3706 56.6538 47.0689 52.2556 47.0689L52.2556 47.0688ZM35.104 41.8007L30.8564 40.1316V35.4571C33.4702 33.358 35.0682 30.2467 35.2519 26.8991L36.517 33.1503C37.095 35.9885 36.9974 39.6606 35.1039 41.8007H35.104ZM35.9193 43.9965V52.2673L33.9376 52.2679V43.217L35.9193 43.9965ZM28.8496 4.4723C28.8481 4.29312 28.9099 4.11863 29.0241 3.98049C29.0413 3.95972 29.0595 3.93895 29.0797 3.91869C29.3041 3.69486 29.6406 3.62839 29.9335 3.7494C30.2259 3.8704 30.417 4.15551 30.4175 4.4723V7.87498C30.4175 8.30343 30.0737 8.65242 29.6453 8.65865L29.6053 8.65709V8.65761C29.1831 8.64462 28.8481 8.29772 28.8496 7.87498V4.4723ZM22.709 2.79848C22.7085 2.75953 22.7116 2.7211 22.7173 2.68215V2.68007C22.7776 2.29836 23.1058 2.01688 23.4922 2.01585C23.8796 2.01844 24.2073 2.30147 24.2665 2.6837C24.2722 2.72213 24.2753 2.76108 24.2748 2.80003V7.87493C24.2748 8.30338 23.9305 8.65237 23.502 8.6586L23.4626 8.65704V8.65756C23.0409 8.64405 22.7064 8.29715 22.7085 7.87493L22.709 2.79848ZM16.567 4.4723C16.567 4.0397 16.9175 3.68863 17.3506 3.68863C17.7832 3.68863 18.1343 4.0397 18.1343 4.4723V7.87497C18.1343 8.30343 17.79 8.65242 17.362 8.65864L17.3226 8.65708L17.3221 8.6576C16.8998 8.64462 16.5644 8.29771 16.5659 7.87497L16.567 4.4723ZM11.0921 17.6612C10.6793 17.6612 10.3443 17.3267 10.3443 16.9139C10.3443 16.501 10.6793 16.1665 11.0921 16.1665H14.3286H14.3281C14.8101 16.1665 15.2006 15.776 15.2006 15.2941C15.2006 14.8121 14.8101 14.4216 14.3281 14.4216H12.0623C12.1542 12.9436 12.4897 11.4915 13.0558 10.1231C13.4956 9.08861 14.0913 8.12728 14.822 7.27296V7.87485C14.8189 8.53388 15.0739 9.16747 15.533 9.63948C15.992 10.1121 16.6178 10.3858 17.2763 10.4019H17.2877C17.309 10.4029 17.3313 10.4034 17.3511 10.4034C18.0215 10.4029 18.6645 10.136 19.138 9.66233C19.6122 9.18819 19.8786 8.54526 19.8791 7.87484V4.47217C19.8786 4.28313 19.8563 4.09462 19.8132 3.91025C20.1907 3.78301 20.575 3.67551 20.964 3.58774V7.87479C20.9609 8.5333 21.2159 9.16689 21.675 9.63941C22.1335 10.112 22.7593 10.3857 23.4178 10.4018H23.4292C23.4505 10.4028 23.4728 10.4034 23.4926 10.4034C24.163 10.4023 24.8054 10.1359 25.2791 9.66175C25.7533 9.18761 26.0197 8.54468 26.0197 7.87479V3.58615C26.4087 3.67288 26.793 3.78037 27.171 3.90762C27.1274 4.09301 27.1056 4.28205 27.1046 4.47213V7.87481C27.1015 8.53383 27.357 9.16742 27.8161 9.63996C28.2751 10.1126 28.9015 10.3857 29.5599 10.4018H29.5714C29.5927 10.4029 29.6139 10.4034 29.6347 10.4034C30.3052 10.4023 30.9476 10.1359 31.4217 9.66178C31.8953 9.18763 32.1617 8.54471 32.1622 7.87482V7.26408C32.8945 8.1189 33.4917 9.08122 33.9326 10.1173C34.4992 11.4873 34.8336 12.9419 34.9224 14.4215H17.8439C17.3619 14.4215 16.9714 14.812 16.9714 15.294C16.9714 15.7759 17.3619 16.1664 17.8439 16.1664H35.8943C36.3071 16.1664 36.6421 16.5009 36.6421 16.9138C36.6421 17.3266 36.3071 17.6611 35.8943 17.6611L11.0921 17.6612ZM33.9965 19.4061L33.8801 21.0908C33.8801 21.096 33.8786 21.1038 33.8781 21.109V21.1095C33.8724 21.1495 33.8568 21.1879 33.8329 21.2207L33.1515 19.4062L33.9965 19.4061ZM13.5836 19.4061L13.3006 21.1718L13.0591 21.0477H13.0596C13.0528 21.044 13.0476 21.0378 13.0456 21.0305L13.043 21.0202L12.9313 19.406L13.5836 19.4061ZM11.1568 23.0357C11.2347 22.6893 11.4652 22.3964 11.7836 22.2391C11.9217 22.3861 12.0838 22.5081 12.2634 22.6005L13.5737 23.2736C13.8225 23.4013 14.1169 23.4024 14.3662 23.2762C14.616 23.15 14.7895 22.9116 14.8341 22.6353L15.3514 19.4056H31.2892L32.6607 23.0596L32.6602 23.0601C32.763 23.3327 32.9946 23.5363 33.2782 23.6028C33.5617 23.6693 33.8598 23.5898 34.0728 23.3914L34.992 22.5335C35.074 22.4566 35.1499 22.3735 35.2179 22.2837C35.4957 22.4494 35.6941 22.722 35.7653 23.0378C35.8016 23.1868 35.8198 23.3395 35.8198 23.4927C35.8224 23.9445 35.6619 24.3823 35.368 24.7256C35.3295 24.7713 35.287 24.817 35.2454 24.8585L35.2449 24.8591C34.9722 25.1281 34.6243 25.3078 34.2467 25.3742C33.8292 25.4475 33.5254 25.8099 33.5254 26.2337V26.2514V26.2509C33.5254 29.8456 31.6075 33.1668 28.4946 34.9642C25.3818 36.7616 21.5465 36.7616 18.4336 34.9642C15.3208 33.1667 13.4029 29.8456 13.4029 26.2509V26.2348V26.2353C13.4029 25.812 13.0996 25.4501 12.6831 25.3758C12.4068 25.3275 12.1445 25.2184 11.9155 25.0574V25.0559C11.5998 24.8352 11.3588 24.5236 11.2238 24.1632C11.0882 23.8028 11.0654 23.4096 11.1573 23.0357L11.1568 23.0357ZM29.1114 36.6204V40.2079C25.1115 42.0702 21.8725 42.0702 17.8726 40.2079L17.8721 36.6499C21.3833 38.5382 25.6096 38.5273 29.1109 36.6208L29.1114 36.6204ZM10.2354 33.1809L11.757 27.7715C12.0852 30.3583 13.2672 32.7612 15.1161 34.5996C15.4355 34.9195 15.773 35.2202 16.1272 35.5011V40.1309L11.3743 41.999C9.24662 39.5888 9.84848 35.1028 10.2354 33.1808L10.2354 33.1809ZM13.0481 43.2158V52.2667H11.0642V43.9953L13.0481 43.2158ZM9.31928 52.2667H8.65039C8.16897 52.2667 7.77792 52.6572 7.77792 53.1392V64.986L1.9952 64.9855V52.2037C2.24137 49.5001 3.85754 47.1122 6.276 45.8783L9.31932 44.6823L9.31928 52.2667ZM37.4618 64.9861L9.52269 64.9856V54.0116H16.9128C17.3947 54.0116 17.7852 53.6206 17.7852 53.1392C17.7852 52.6572 17.3947 52.2667 16.9128 52.2667H14.7929V42.5304L16.9274 41.6922C19.2457 42.7988 21.3692 43.3535 23.4922 43.3535C25.6153 43.3535 27.7383 42.7988 30.0571 41.6916L32.193 42.5309L32.1925 52.2667H20.4609C19.979 52.2667 19.5884 52.6572 19.5884 53.1391C19.5884 53.6206 19.979 54.0116 20.4609 54.0116H37.4623L37.4618 64.9861ZM39.2067 64.9861L39.2072 53.1392C39.2072 52.6573 38.8162 52.2667 38.3348 52.2667H37.6643V44.6814L40.7076 45.8774C42.369 46.7135 43.6777 48.1152 44.3975 49.8305C42.1965 51.5962 40.6547 54.0521 40.02 56.8015C39.3854 59.5509 39.696 62.4341 40.9003 64.9857L39.2067 64.9861ZM52.2544 70.4349L52.2549 70.4343C49.3878 70.4343 46.6379 69.2954 44.6104 67.268C42.5829 65.2411 41.4436 62.4912 41.4436 59.6241C41.4436 56.7569 42.5825 54.007 44.6099 51.9795C46.6373 49.9521 49.3872 48.8127 52.2544 48.8132C55.1216 48.8132 57.8715 49.9521 59.8989 51.9795C61.9264 54.0069 63.0652 56.7574 63.0647 59.6246C63.0771 62.4949 61.9419 65.2515 59.9123 67.2816C57.8822 69.3117 55.1257 70.4464 52.2548 70.4345L52.2544 70.4349Z" fill="#3D5A9B"/>
</svg>
