<svg width="48" height="74" viewBox="0 0 48 74" fill="none" xmlns="http://www.w3.org/2000/svg">
<path d="M6.89402 28.5693H41.7092C42.2031 28.5693 42.6032 28.1691 42.6032 27.6753C42.6032 27.1814 42.2031 26.7812 41.7092 26.7812H6.89402C6.40018 26.7812 6 27.1814 6 27.6753C6 28.1691 6.40018 28.5693 6.89402 28.5693Z" fill="#3D5A9B"/>
<path d="M42.6032 33.6352C42.6032 33.1414 42.2031 32.7412 41.7092 32.7412H6.89402C6.40018 32.7412 6 33.1414 6 33.6352C6 34.1291 6.40018 34.5292 6.89402 34.5292H41.7092C42.2031 34.5292 42.6032 34.1291 42.6032 33.6352Z" fill="#3D5A9B"/>
<path d="M13.254 24.5178C14.9239 24.5178 16.5401 23.9276 17.8167 22.8517C19.0938 21.7751 19.9495 20.2825 20.2326 18.6369C20.5157 16.991 20.2081 15.2982 19.3641 13.8571L14.0255 4.74398C13.8648 4.47045 13.571 4.30176 13.2539 4.30176C12.9367 4.30176 12.643 4.47045 12.4822 4.74398L7.14363 13.8571C6.89936 14.2829 7.04358 14.8257 7.46717 15.0742C7.89024 15.3222 8.43463 15.1822 8.68633 14.7607L13.2537 6.96465L17.8212 14.7607C18.654 16.1837 18.7764 17.9133 18.1522 19.4389C17.528 20.9651 16.229 22.113 14.6378 22.544C13.0466 22.9756 11.3454 22.6409 10.0358 21.6388C8.7267 20.6368 7.95936 19.0823 7.95991 17.4338C7.95991 16.94 7.5592 16.5398 7.06589 16.5398C6.57205 16.5398 6.17188 16.94 6.17188 17.4338C6.17134 19.3123 6.91743 21.1137 8.24572 22.4425C9.57397 23.7707 11.3754 24.5173 13.2538 24.5178L13.254 24.5178Z" fill="#935EF1"/>
<path d="M14.3752 20.8134C14.4748 20.8134 14.5737 20.7969 14.6674 20.7639C16.1201 20.261 17.1988 19.0286 17.5042 17.522C17.5543 17.2884 17.509 17.0447 17.3781 16.8446C17.2472 16.645 17.0418 16.5056 16.8077 16.4582C16.5735 16.4109 16.3303 16.4588 16.1318 16.5923C15.9339 16.7254 15.7971 16.9324 15.7519 17.1671C15.572 18.0531 14.9377 18.7779 14.0831 19.0743C13.6701 19.2164 13.4205 19.6363 13.4929 20.0673C13.5653 20.4983 13.9383 20.8139 14.3752 20.8134H14.3752Z" fill="#935EF1"/>
<path d="M23.2846 22.6093H41.7099C42.2037 22.6093 42.6039 22.2091 42.6039 21.7153C42.6039 21.2215 42.2037 20.8213 41.7099 20.8213H23.2846C22.7908 20.8213 22.3906 21.2215 22.3906 21.7153C22.3906 22.2091 22.7908 22.6093 23.2846 22.6093Z" fill="#3D5A9B"/>
<path d="M23.2846 16.6484H41.7099C42.2037 16.6484 42.6039 16.2482 42.6039 15.7544C42.6039 15.2605 42.2037 14.8604 41.7099 14.8604H23.2846C22.7908 14.8604 22.3906 15.2605 22.3906 15.7544C22.3906 16.2482 22.7908 16.6484 23.2846 16.6484Z" fill="#3D5A9B"/>
<path d="M23.2846 10.6894H41.7099C42.2037 10.6894 42.6039 10.2892 42.6039 9.79538C42.6039 9.30155 42.2037 8.90137 41.7099 8.90137H23.2846C22.7908 8.90137 22.3906 9.30155 22.3906 9.79538C22.3906 10.2892 22.7908 10.6894 23.2846 10.6894Z" fill="#E84C3D"/>
<path d="M46.8738 54.5946L46.6136 1.45225C46.6115 0.960008 46.2118 0.5625 45.7196 0.5625H2.74142C2.24759 0.5625 1.84741 0.962679 1.84741 1.45652V52.2175L0.333472 55.0885C-0.156115 56.0038 0.182868 57.142 1.09338 57.6406L4.18256 59.3669C4.4678 59.5266 4.78921 59.6107 5.11596 59.6112C5.30275 59.6107 5.48847 59.5835 5.66727 59.5303C6.16164 59.3861 6.57619 59.0471 6.81619 58.5916L7.1291 58.0015L8.17956 58.8705L6.24468 61.5317C5.80725 62.1347 5.60769 62.8775 5.68591 63.6183C5.76414 64.359 6.11376 65.045 6.66719 65.5431C7.22116 66.0412 7.93957 66.3168 8.68464 66.3168C8.84801 66.3163 9.01085 66.303 9.17209 66.2769C9.29023 66.9788 9.65369 67.6163 10.1981 68.0756C10.7419 68.5353 11.4311 68.7865 12.143 68.786C12.3069 68.7854 12.4708 68.7721 12.6321 68.7461C12.7497 69.4485 13.1126 70.086 13.6565 70.5464C14.2003 71.0061 14.89 71.2579 15.602 71.2568C15.7659 71.2563 15.9298 71.2429 16.0916 71.2163C16.2273 72.0018 16.6674 72.7021 17.3161 73.1651C17.9648 73.6276 18.7705 73.8159 19.5569 73.6882C20.344 73.5605 21.048 73.1273 21.5174 72.4829L22.1134 71.6618L23.2427 72.5558C23.893 73.1044 24.7333 73.3769 25.582 73.3125C26.4308 73.2487 27.2205 72.8538 27.7815 72.2136C28.187 71.7501 28.4493 71.1791 28.5361 70.5699C29.1273 70.7391 29.7542 70.7364 30.3439 70.5619C30.9335 70.3873 31.4614 70.0489 31.8653 69.5854C32.2697 69.1214 32.5305 68.5498 32.6156 67.94C33.2074 68.1103 33.8353 68.1081 34.4254 67.9341C35.0161 67.7596 35.5446 67.4206 35.9496 66.9566C36.329 66.5234 36.5834 65.9944 36.685 65.4271C37.3029 65.6559 37.975 65.6921 38.613 65.5314C39.2516 65.3707 39.8257 65.02 40.2611 64.5262L40.2999 64.4831L40.3101 64.4719C40.8603 63.8413 41.1349 63.0169 41.0732 62.1831C41.012 61.3486 40.6187 60.5739 39.9823 60.0316L39.3133 59.4595C39.7689 59.1466 40.1855 58.7784 40.5522 58.3649C40.913 58.8422 41.4771 59.1232 42.0758 59.1227C42.3387 59.1227 42.5984 59.0689 42.84 58.9646L46.0908 57.5677C46.5677 57.3655 46.9418 56.9775 47.1259 56.4933C47.3106 56.009 47.2893 55.4705 47.0679 55.0017L46.8738 54.5946ZM3.63547 2.35001H44.8304L45.0672 50.7747L39.1869 38.3425C38.7521 37.4331 37.6895 37.0127 36.7496 37.3783L33.4077 38.6836C32.9139 38.8747 32.5222 39.2626 32.3264 39.7548C32.1306 40.2466 32.1486 40.7979 32.3753 41.2763L32.7079 41.975L32.6404 42.0032C31.3754 42.2629 30.49 42.2246 29.176 41.859L25.8367 40.9293C24.8405 40.651 23.7852 40.668 22.7981 40.9777L19.5754 41.9878C18.9368 42.1889 18.3413 42.5087 17.8209 42.9297C16.9886 42.6806 16.1158 42.5944 15.2506 42.6764L15.4512 42.2975C15.9195 41.4029 15.6119 40.2987 14.7482 39.7761L11.6799 37.9264C11.2271 37.6528 10.6821 37.5778 10.1729 37.7188C9.66312 37.8593 9.23421 38.2042 8.98676 38.6714L3.63601 48.8243L3.63547 2.35001ZM9.69026 64.0218C9.29008 64.5694 8.52431 64.6934 7.97143 64.3001C7.70589 64.1101 7.52655 63.8217 7.47387 63.4992C7.42119 63.1762 7.49995 62.8463 7.69153 62.5812L10.901 58.1676C11.2139 57.7345 11.77 57.5525 12.2787 57.7164C12.7874 57.8797 13.1328 58.3523 13.1344 58.8866C13.1349 59.1452 13.0524 59.398 12.8997 59.6071L9.69026 64.0218ZM13.1669 66.4686C13.1616 66.4761 13.1557 66.4835 13.1504 66.492C12.7491 67.0391 11.9828 67.1631 11.4299 66.7698C11.1644 66.5804 10.9856 66.2925 10.9334 65.97C10.8807 65.6481 10.9595 65.3187 11.1516 65.0547L13.4776 61.8544C13.7905 61.4217 14.3466 61.2403 14.8548 61.4047C15.363 61.5686 15.7073 62.0417 15.7078 62.5754C15.7084 62.8346 15.6264 63.0868 15.4737 63.2954L13.1669 66.4686ZM16.6254 68.9405C16.6201 68.9475 16.6147 68.9554 16.6094 68.9629C16.2082 69.5089 15.4435 69.6323 14.8911 69.2407C14.343 68.8485 14.2142 68.087 14.6027 67.5356L14.6192 67.5117L16.2119 65.3213C16.5248 64.8876 17.0819 64.7046 17.5907 64.8685C18.0999 65.0319 18.4458 65.5049 18.4474 66.0398C18.448 66.2984 18.3655 66.5506 18.2122 66.7587L16.6254 68.9405ZM21.0736 70.0112L20.0721 71.431C19.6708 71.9797 18.9029 72.1042 18.3485 71.7104C17.8014 71.3188 17.6727 70.5588 18.0601 70.0081L18.075 69.9873L18.9493 68.7868C19.3186 68.2727 20.0173 68.1227 20.5654 68.4388C21.1135 68.7548 21.3333 69.4344 21.0736 70.0112ZM38.9662 63.2934L38.9236 63.3408C38.3973 63.9448 37.4836 64.0139 36.8721 63.4956L32.3073 59.5865C32.1231 59.4295 31.8842 59.3534 31.6431 59.3757C31.4026 59.3981 31.1807 59.5173 31.0296 59.7057C30.7305 60.0979 30.7938 60.655 31.1733 60.9701L34.4635 63.7894C34.7477 64.0342 34.9228 64.3822 34.9483 64.7568C34.9744 65.1309 34.8493 65.5002 34.6013 65.7817C34.3252 66.0978 33.9255 66.2788 33.5056 66.2777C33.1587 66.2798 32.8229 66.1564 32.56 65.9297L29.2771 63.1183C28.9078 62.7926 28.3474 62.8155 28.0063 63.171C27.8435 63.3498 27.7599 63.5871 27.7754 63.8287C27.7903 64.0703 27.9026 64.2954 28.0861 64.4524L30.3638 66.4012C30.3723 66.4091 30.3808 66.4171 30.3899 66.4246C30.9673 66.9408 31.0242 67.8241 30.5176 68.41C30.1541 68.824 29.5884 68.9986 29.0553 68.8602C28.8318 68.8001 28.6253 68.6889 28.4518 68.5361L26.1934 66.6023C25.9981 66.4347 25.74 66.3591 25.4851 66.3953C25.2302 66.432 25.0035 66.5763 24.863 66.7918C24.6203 67.1792 24.7012 67.6863 25.0524 67.979L26.2854 69.0369C26.5733 69.2807 26.7511 69.6303 26.7793 70.0065C26.8069 70.3833 26.683 70.7552 26.4345 71.0394C25.9076 71.6365 24.9993 71.7014 24.3932 71.1852C24.3846 71.1778 24.3761 71.1703 24.3671 71.1639L22.9255 70.0225C23.0724 69.1881 22.86 68.3302 22.3412 67.6608C21.8223 66.9913 21.0443 66.5715 20.1998 66.506C20.286 65.9536 20.2168 65.3885 20.0002 64.8734C19.7836 64.3583 19.4282 63.9134 18.9737 63.5883C18.5293 63.2711 18.0068 63.0816 17.4623 63.0401C17.5485 62.4878 17.4794 61.9221 17.2628 61.4065C17.0462 60.8908 16.6907 60.4454 16.2357 60.1197C15.8244 59.826 15.3449 59.6408 14.8425 59.5817C15.0575 58.6685 14.8361 57.708 14.2433 56.9811C13.6505 56.2536 12.7537 55.8433 11.8162 55.8699C10.8791 55.8965 10.0069 56.3574 9.45613 57.1168L9.23476 57.4212L7.98579 56.3877L8.53337 55.3548C8.75368 54.9541 8.64406 54.4523 8.27688 54.1798C8.06667 54.0308 7.80272 53.9792 7.55209 54.0383C7.30198 54.0979 7.08912 54.2623 6.96831 54.4901L5.23776 57.7548C5.22127 57.7852 5.19413 57.807 5.16113 57.816C5.12548 57.8272 5.08716 57.823 5.0547 57.8054L1.96553 56.0785C1.90912 56.0487 1.88677 55.979 1.91604 55.9221L10.5678 39.5063C10.5843 39.4749 10.6141 39.452 10.6487 39.4429C10.6849 39.4328 10.7237 39.4381 10.7557 39.4578L13.824 41.3076C13.8783 41.3384 13.899 41.4076 13.8703 41.464L8.14966 52.2592C7.92988 52.6605 8.04004 53.1612 8.40722 53.4332C8.61743 53.5827 8.88138 53.6343 9.13201 53.5747C9.38212 53.5151 9.59498 53.3507 9.71579 53.1229L14.1955 44.6691C14.9517 44.4605 15.7398 44.3961 16.5199 44.4786C16.4299 44.6404 16.3485 44.8064 16.2761 44.9762L15.2911 47.3538C15.0399 47.9605 14.8063 48.5873 14.5977 49.2185L13.6143 52.1927C13.469 52.6312 13.6819 53.108 14.1049 53.2927L14.3135 53.3837C15.9217 54.1127 17.7906 53.9701 19.2695 53.0053C20.5408 52.1752 21.3668 50.8134 21.5151 49.3026C21.5199 49.2536 21.5242 49.2047 21.5279 49.1552C21.5683 48.9657 21.7918 48.0403 22.3612 47.7269C22.5081 47.6492 22.6784 47.6322 22.8375 47.679L24.0274 48.0111C24.5319 48.1516 24.9922 48.4182 25.3668 48.7843L38.8202 61.3899C39.0937 61.6219 39.2624 61.9534 39.2901 62.3111C39.3178 62.6681 39.2009 63.0226 38.9662 63.2934ZM45.4558 55.8555C45.4436 55.8874 45.4186 55.9124 45.3866 55.9246L42.1341 57.3221C42.0697 57.3503 41.9942 57.3242 41.9622 57.2609L37.8008 48.5156C37.589 48.0696 37.0552 47.8807 36.6093 48.093C36.1634 48.3048 35.9739 48.8386 36.1862 49.2845L39.6623 56.5883C39.2148 57.2753 38.606 57.842 37.8891 58.2401L26.6182 47.5077C26.0286 46.9308 25.3032 46.5115 24.5082 46.2896L22.9974 45.8681C22.9181 45.8463 22.8367 45.8346 22.7542 45.8346C21.7176 45.8383 20.8342 46.4141 20.2658 47.4565C20.0253 47.9046 19.854 48.3862 19.7582 48.8853L19.7347 49.1291C19.6374 50.1029 19.1031 50.9793 18.2825 51.5131C17.4816 52.0271 16.5009 52.1809 15.5808 51.9367L16.2939 49.7804C16.4892 49.1913 16.7068 48.6049 16.9415 48.0387L17.9233 45.6686C18.0941 45.2663 18.3395 44.9001 18.647 44.5894C19.0541 44.1759 19.5565 43.8688 20.1099 43.6953L23.3326 42.6853C23.9898 42.4794 24.6933 42.4677 25.3568 42.6529L28.6961 43.5825C30.3133 44.0327 31.5053 44.0742 33.0943 43.7358L33.4764 43.5916L35.0389 46.875C35.2507 47.3204 35.7844 47.5104 36.2304 47.2986C36.6758 47.0863 36.8652 46.553 36.6534 46.1071L33.9894 40.5077C33.9756 40.4801 33.974 40.4471 33.9857 40.4183C33.999 40.3859 34.0245 40.3609 34.0575 40.3486L37.3994 39.0433C37.4644 39.0167 37.5383 39.0449 37.5697 39.1071L45.4519 55.7668C45.4652 55.7945 45.467 55.8267 45.4558 55.8555Z" fill="#3D5A9B"/>
</svg>
