<svg width="69" height="72" viewBox="0 0 69 72" fill="none" xmlns="http://www.w3.org/2000/svg">
<path d="M40.617 26.1309C40.617 19.2315 35.1402 13.6182 28.4081 13.6182C21.676 13.6182 16.1992 19.2311 16.1992 26.1309C16.1992 33.0306 21.676 38.6451 28.4081 38.6451C35.1402 38.6451 40.617 33.0311 40.617 26.1309V26.1309ZM28.4081 36.9002C22.6384 36.9002 17.9442 32.0694 17.9442 26.1309C17.9442 20.1929 22.6384 15.3631 28.4081 15.3631C34.1778 15.3631 38.8721 20.1934 38.8721 26.1309C38.8721 32.0683 34.1784 36.9002 28.4081 36.9002Z" fill="#3D5A9B"/>
<path d="M21.9108 5.86603C21.7311 5.41941 21.2227 5.20285 20.7756 5.38254C17.7271 6.61076 14.9612 8.4482 12.647 10.782C10.0077 13.4254 7.97411 16.611 6.68717 20.1175C6.51995 20.5698 6.75157 21.0715 7.20338 21.2382C7.65571 21.4049 8.15739 21.1738 8.3241 20.722C9.52478 17.4512 11.4214 14.4802 13.8829 12.0144C16.0308 9.84773 18.5979 8.14227 21.4272 7.00184C21.6422 6.91563 21.8136 6.74736 21.9045 6.53445C21.9948 6.32152 21.9974 6.08106 21.9107 5.86607L21.9108 5.86603Z" fill="#E84C3D"/>
<path d="M25.1257 5.8564C25.1849 5.8564 25.2436 5.85017 25.3018 5.83874C26.8026 5.53285 28.331 5.37966 29.8631 5.38069C30.345 5.38069 30.7355 4.99016 30.7355 4.50822C30.7355 4.02628 30.345 3.63575 29.8631 3.63575C28.2137 3.63471 26.5685 3.79986 24.9522 4.12911C24.5134 4.21843 24.2132 4.62611 24.2584 5.07168C24.3036 5.51727 24.6785 5.85638 25.1267 5.85638L25.1257 5.8564Z" fill="#E84C3D"/>
<path d="M54.9257 35.5234C55.7738 32.5591 56.1056 29.4707 55.9062 26.3942C55.4492 19.446 52.4926 12.8972 47.583 7.95954C44.2208 4.58704 40.0289 2.16073 35.4296 0.925774C30.8299 -0.308678 25.9867 -0.308678 21.3876 0.926293C16.7879 2.16126 12.5959 4.58756 9.23428 7.96059C4.32343 12.8974 1.36693 19.4451 0.911046 26.3925C0.667484 30.193 1.22628 34.0017 2.55163 37.5722C3.84995 41.1296 5.96362 44.4844 8.83344 47.5433L27.7719 67.7155C27.9371 67.8911 28.1672 67.9903 28.4081 67.9903C28.6491 67.9903 28.8792 67.8906 29.0443 67.715L33.8933 62.5502C36.9865 67.8178 42.4887 71.2112 48.5841 71.6089C54.6796 72.0067 60.5765 69.3581 64.3279 64.5373C68.0796 59.7163 69.1987 53.35 67.3156 47.5385C65.432 41.7272 60.7921 37.2274 54.9257 35.5234ZM49.7849 69.9026C45.3602 69.9046 41.1157 68.1478 37.9868 65.0188C34.8578 61.8899 33.1009 57.6459 33.1036 53.2207C33.1036 52.7388 32.7125 52.3483 32.2311 52.3483C31.7492 52.3483 31.3586 52.7388 31.3586 53.2207C31.3508 55.8761 31.9237 58.5008 33.0371 60.9115L28.4078 65.8431L10.1062 46.3502C7.3984 43.4643 5.40829 40.3099 4.19102 36.9752C2.94982 33.6333 2.42533 30.0682 2.6528 26.5107C3.08074 19.9827 5.85752 13.8313 10.4708 9.1929C13.6159 6.03804 17.5378 3.76794 21.8406 2.61249C26.1432 1.45698 30.6749 1.45698 34.9775 2.61197C39.2801 3.76748 43.2021 6.03699 46.3476 9.19238C50.9597 13.8316 53.7372 19.9835 54.1662 26.5116C54.3531 29.413 54.0364 32.3245 53.2288 35.1178C48.3871 34.1986 43.3786 35.2565 39.3211 38.0552C35.2645 40.8539 32.4971 45.1601 31.637 50.0127C31.5534 50.4874 31.8707 50.9397 32.3454 51.0233C32.8201 51.1064 33.2724 50.7896 33.3555 50.315C34.0971 46.1235 36.4123 42.374 39.8274 39.8338C43.2426 37.2933 47.4995 36.1544 51.7268 36.6499C55.9542 37.1454 59.8326 39.2382 62.5673 42.4991C65.3026 45.7604 66.6882 49.9436 66.44 54.1928C66.1917 58.442 64.3289 62.4356 61.2332 65.3563C58.137 68.2771 54.0415 69.9041 49.7851 69.9041L49.7849 69.9026Z" fill="#3D5A9B"/>
<path d="M50.5382 41.8739C50.3814 41.6065 50.0952 41.4424 49.7852 41.4424C49.4757 41.4424 49.189 41.6065 49.0327 41.8739L42.7141 52.661C41.3622 54.9736 41.2257 57.8007 42.3485 60.2327C43.4712 62.6648 45.7111 64.3952 48.3483 64.8666C50.9849 65.3377 53.6859 64.4912 55.5814 62.5992C56.8631 61.3165 57.6832 59.6458 57.9143 57.8474C58.1449 56.049 57.7735 54.2251 56.8574 52.6608L50.5382 41.8739ZM54.348 61.3655C52.8564 62.8575 50.7293 63.5259 48.6525 63.1551C46.5757 62.7848 44.811 61.4221 43.9276 59.5063C43.0443 57.5905 43.1533 55.3637 44.2195 53.5433L49.7851 44.0417L55.3518 53.5433C56.0731 54.7747 56.3655 56.2101 56.1837 57.6252C56.002 59.0409 55.3564 60.3559 54.3479 61.3655H54.348Z" fill="#9A68F2"/>
<path d="M53.9536 55.8394C53.481 55.7449 53.0214 56.0508 52.9263 56.5228C52.7503 57.3906 52.2242 58.1468 51.4721 58.6137C51.2706 58.7389 51.0556 58.8412 50.8308 58.9175C50.6101 58.9913 50.4278 59.1502 50.3244 59.359C50.2216 59.5677 50.206 59.8087 50.2818 60.0289C50.3572 60.2491 50.5176 60.4303 50.7274 60.5311C50.9372 60.6324 51.1787 60.6459 51.3979 60.568C51.7469 60.4485 52.0813 60.2896 52.3945 60.0948C53.5547 59.3735 54.3658 58.2055 54.6364 56.8667C54.7314 56.3941 54.4255 55.9345 53.9535 55.8395L53.9536 55.8394Z" fill="#9A68F2"/>
</svg>
