<svg width="68" height="68" viewBox="0 0 68 68" fill="none" xmlns="http://www.w3.org/2000/svg">
<path d="M32.5551 54.0681H35.6554H35.6549C36.1427 54.0681 36.5381 53.6722 36.5381 53.1848V48.7329C36.5381 48.2455 36.1427 47.8496 35.6549 47.8496H32.5551C32.0672 47.8496 31.6719 48.2455 31.6719 48.7329V53.1848C31.6719 53.6722 32.0672 54.0681 32.5551 54.0681H32.5551ZM33.4384 49.6166H34.7722V52.3016H33.4384V49.6166Z" fill="#E84C3D"/>
<path d="M24.9219 48.7329V53.1848C24.9219 53.6722 25.3172 54.0681 25.8051 54.0681H28.907H28.9065C29.3944 54.0681 29.7897 53.6722 29.7897 53.1848V48.7329C29.7897 48.2455 29.3944 47.8496 28.9065 47.8496H25.8051C25.3172 47.8496 24.9219 48.2455 24.9219 48.7329H24.9219ZM26.6884 49.6161H28.0237V52.301H26.6884V49.6161Z" fill="#E84C3D"/>
<path d="M39.3051 54.0681H42.407H42.4065C42.8944 54.0681 43.2897 53.6722 43.2897 53.1848V48.7329C43.2897 48.2455 42.8944 47.8496 42.4065 47.8496H39.3051C38.8172 47.8496 38.4219 48.2455 38.4219 48.7329V53.1848C38.4219 53.6722 38.8172 54.0681 39.3051 54.0681H39.3051ZM40.1884 49.6166H41.5237V52.3016H40.1884V49.6166Z" fill="#E84C3D"/>
<path d="M34.9724 18.3916C34.8883 17.981 34.5266 17.6855 34.107 17.6855C33.6875 17.6855 33.3258 17.981 33.2417 18.3916L29.7108 35.6581C29.2771 37.055 29.5337 38.575 30.4011 39.7526C31.2691 40.9303 32.645 41.6253 34.1076 41.6253C35.5702 41.6248 36.9461 40.9297 37.8135 39.7515C38.681 38.5739 38.937 37.054 38.5033 35.6571L34.9724 18.3916ZM34.107 22.9766L36.1322 32.8778C34.8546 32.2527 33.3599 32.2527 32.0824 32.8778L34.107 22.9766ZM34.107 39.8487V39.8492C33.4062 39.8492 32.7302 39.59 32.209 39.1211C31.6886 38.6526 31.3595 38.0076 31.2853 37.311C31.2117 36.6139 31.3989 35.9146 31.81 35.3468C32.2217 34.7795 32.8284 34.3847 33.5134 34.2385C34.1989 34.0918 34.9139 34.2043 35.5212 34.5534C36.1289 34.9031 36.5853 35.4651 36.8029 36.1312V36.1333C37.0847 36.9971 36.9359 37.9434 36.4023 38.6784C35.8687 39.4139 35.0154 39.8492 34.1069 39.8492L34.107 39.8487Z" fill="#935EF1"/>
<path d="M24.3663 16.5983C20.8827 18.7139 18.0637 21.7663 16.2316 25.4065C16.0118 25.8424 16.1869 26.3734 16.6227 26.5931C17.0586 26.8124 17.5896 26.6373 17.8093 26.2014C19.4933 22.8562 22.0831 20.0519 25.2843 18.1076C25.7012 17.8542 25.8332 17.3111 25.5797 16.8942C25.3263 16.4773 24.7832 16.3448 24.3663 16.5988L24.3663 16.5983Z" fill="#3D5A9B"/>
<path d="M31.6876 14.6928C31.634 14.4647 31.492 14.2675 31.2928 14.144C31.094 14.0209 30.8538 13.9815 30.6256 14.0351C29.4422 14.3138 28.284 14.6918 27.1641 15.1655C26.7151 15.3553 26.5048 15.8736 26.6951 16.3231C26.8855 16.7721 27.4033 16.9824 27.8528 16.7921C28.8807 16.3573 29.9437 16.0103 31.0304 15.7548C31.5051 15.6434 31.7995 15.1676 31.6875 14.6928L31.6876 14.6928Z" fill="#3D5A9B"/>
<path d="M34.1053 -0.0226762C25.1656 -0.0226762 16.5925 3.52874 10.2709 9.84974C3.94986 16.1713 0.398438 24.7448 0.398438 33.6842C0.398438 42.6237 3.94932 51.197 10.2709 57.5187C16.5935 63.835 25.1659 67.3821 34.1027 67.3801C43.0397 67.378 51.6101 63.8272 57.9304 57.5077C64.2498 51.1877 67.8007 42.618 67.8028 33.6799C67.8049 24.7429 64.2577 16.1711 57.9415 9.84813C54.8186 6.70842 51.1042 4.21905 47.0129 2.52457C42.9216 0.829545 38.5348 -0.0362699 34.1064 -0.0242915L34.1053 -0.0226762ZM56.6908 56.2708C50.7005 62.2611 42.5764 65.6264 34.1053 65.6264C25.6343 65.6264 17.5104 62.2611 11.5199 56.2708C5.52927 50.2805 2.16425 42.1564 2.16425 33.6853C2.16425 25.2142 5.52954 17.0904 11.5199 11.0998C17.5102 5.10923 25.6343 1.74422 34.1053 1.74422C42.5764 1.74422 50.7003 5.1095 56.6908 11.0998C62.6814 17.0901 66.0464 25.2142 66.0464 33.6853C66.0464 42.1564 62.6812 50.2802 56.6908 56.2708Z" fill="#3D5A9B"/>
<path d="M34.104 4.48242C26.3682 4.48347 18.9492 7.55322 13.4741 13.0189C7.99952 18.4839 4.91661 25.8985 4.90234 33.634V33.684C4.90234 49.7863 18.0022 62.8859 34.1043 62.8859C50.2063 62.8859 63.3062 49.786 63.3062 33.684V33.6324C63.3115 29.0911 62.2463 24.6122 60.1965 20.5593C59.9752 20.1277 59.4468 19.9553 59.0136 20.174C58.5798 20.3921 58.4037 20.9195 58.6193 21.3542C60.41 24.8946 61.4015 28.7851 61.5235 32.7508H58.675C58.48 26.8404 56.144 21.2023 52.1022 16.8853L54.0921 14.8954C55.0952 15.9616 56.0116 17.1051 56.8333 18.3159C56.9637 18.5125 57.1671 18.6487 57.3984 18.6944C57.6298 18.7402 57.87 18.6913 58.0651 18.5593C58.2601 18.4268 58.3947 18.2218 58.4378 17.9899C58.4809 17.7581 58.4299 17.5189 58.2954 17.3249C57.2454 15.7771 56.0504 14.3329 54.7266 13.0117C52.0227 10.2989 48.8077 8.14854 45.2685 6.68433C41.7292 5.22067 37.9345 4.47195 34.1045 4.48258L34.104 4.48242ZM33.2208 6.26466V9.0648C27.3104 9.25985 21.6723 11.5952 17.3553 15.6365L15.367 13.6477C20.2159 9.08687 26.5675 6.46035 33.2217 6.26479L33.2208 6.26466ZM58.6744 34.5177H61.525C61.0834 49.262 48.953 61.1194 34.1037 61.1194C19.2544 61.1194 7.12382 49.2608 6.68236 34.5177H9.53243C9.76008 40.8603 12.4314 46.869 16.9875 51.2876C21.5436 55.7059 27.6322 58.1906 33.9794 58.2226C40.3256 58.2542 46.4389 55.8305 51.0387 51.4584C55.7236 47.0432 58.469 40.9521 58.6745 34.5176L58.6744 34.5177ZM56.9252 33.6345H56.9247C56.9479 39.5591 54.643 45.2555 50.5064 49.4972L46.8683 44.8175V44.8181C46.7011 44.6025 46.4435 44.4769 46.1712 44.4769H29.2452C28.7573 44.4769 28.3619 44.8722 28.3619 45.3601C28.3619 45.848 28.7573 46.2433 29.2452 46.2433H45.7391L49.2238 50.7248H49.2233C45.0615 54.4097 39.6974 56.4475 34.1385 56.4564C28.5803 56.4654 23.2099 54.4444 19.0361 50.7727L22.4734 46.2435H25.6142C26.1016 46.2435 26.4975 45.8481 26.4975 45.3602C26.4975 44.8723 26.1016 44.477 25.6142 44.477H22.0349C21.7584 44.477 21.4982 44.6063 21.331 44.8261L17.7481 49.5483C13.5805 45.3029 11.2568 39.5845 11.2814 33.6358C11.2809 31.8588 11.4865 30.087 11.895 28.3573C11.9502 28.1291 11.9118 27.8883 11.7888 27.688C11.6657 27.4882 11.4686 27.3452 11.2399 27.2911C11.0112 27.2369 10.7704 27.2758 10.5711 27.3999C10.3714 27.5235 10.2294 27.7217 10.1758 27.9504C9.80409 29.526 9.58853 31.1347 9.53229 32.7525H6.68491C6.89258 26.0919 9.53606 19.7389 14.1147 14.8965L16.1051 16.8869C14.0363 19.1008 12.397 21.6801 11.2709 24.4934C11.0895 24.9461 11.3093 25.4603 11.762 25.6416C12.2151 25.823 12.7293 25.6033 12.9107 25.1506C14.8827 20.227 18.5078 16.1441 23.1627 13.6032C27.8176 11.0617 33.2122 10.2211 38.4198 11.2253C43.6277 12.2289 48.3231 15.0148 51.7 19.1046C55.0769 23.1943 56.9237 28.3319 56.9242 33.6349L56.9252 33.6345ZM50.8524 15.6372C46.535 11.5958 40.8969 9.26042 34.987 9.0654V6.26526C41.6408 6.45979 47.9928 9.0864 52.8416 13.6482L50.8524 15.6372Z" fill="#3D5A9B"/>
</svg>
