<svg width="167" height="117" viewBox="0 0 167 117" fill="none" xmlns="http://www.w3.org/2000/svg">
<path d="M30.789 92.4951C28.6578 92.4951 26.6136 93.3417 25.1076 94.8489C23.6005 96.3548 22.7539 98.3988 22.7539 100.53C22.7539 102.66 23.6005 104.704 25.1076 106.211C26.6136 107.717 28.6576 108.564 30.789 108.564C32.919 108.564 34.9632 107.717 36.4703 106.211C37.9763 104.704 38.8229 102.66 38.8229 100.53C38.8205 98.4002 37.9727 96.3572 36.4668 94.8513C34.9608 93.3453 32.919 92.4975 30.7891 92.4952L30.789 92.4951ZM30.789 104.608C29.1393 104.608 27.6523 103.614 27.0211 102.09C26.39 100.567 26.7385 98.8123 27.9042 97.6454C29.0711 96.4798 30.8255 96.1312 32.3491 96.7623C33.8727 97.3935 34.8665 98.8806 34.8665 100.53C34.863 102.78 33.0391 104.604 30.7891 104.608L30.789 104.608Z" fill="#935EF1"/>
<path d="M138.849 92.4951C136.719 92.4963 134.676 93.3429 133.17 94.85C131.663 96.3572 130.817 98.4012 130.818 100.531C130.818 102.663 131.665 104.706 133.172 106.213C134.679 107.719 136.723 108.564 138.853 108.564C140.985 108.564 143.028 107.717 144.535 106.21C146.041 104.704 146.887 102.66 146.887 100.53C146.885 98.399 146.037 96.356 144.53 94.8501C143.023 93.3442 140.98 92.4964 138.849 92.4952L138.849 92.4951ZM138.849 104.608C137.2 104.607 135.714 103.612 135.083 102.088C134.453 100.564 134.803 98.8099 135.97 97.6443C137.137 96.4786 138.89 96.1313 140.413 96.7624C141.937 97.3935 142.931 98.8806 142.931 100.53C142.929 102.783 141.101 104.608 138.849 104.608V104.608Z" fill="#935EF1"/>
<path d="M13.7574 18.4043C12.6647 18.4043 11.7793 19.2897 11.7793 20.3824V22.304C11.7793 23.3967 12.6647 24.2822 13.7574 24.2822C14.8501 24.2822 15.7356 23.3967 15.7356 22.304V20.3824C15.7356 19.2897 14.8501 18.4043 13.7574 18.4043Z" fill="#E84C3D"/>
<path d="M13.7574 25.9004C12.6647 25.9004 11.7793 26.7858 11.7793 27.8785V43.2185C11.7793 44.3112 12.6647 45.1966 13.7574 45.1966C14.8501 45.1966 15.7356 44.3112 15.7356 43.2185V27.8785C15.7356 26.7858 14.8501 25.9004 13.7574 25.9004Z" fill="#E84C3D"/>
<path d="M155.499 68.4923L146.834 37.0322H150.531C151.623 37.0322 152.51 36.1456 152.51 35.0541V33.1254C152.51 26.1006 145.68 20.3864 137.285 20.3864L117.695 20.3853C114.547 20.3888 111.531 21.6404 109.305 23.8659C107.081 26.0912 105.829 29.108 105.826 32.254V67.8135H90.0855V61.4799C93.9193 60.2766 97.2703 57.8839 99.6546 54.6507C102.039 51.4164 103.333 47.5072 103.35 43.4898V27.2422C103.344 22.324 101.414 17.6013 97.972 14.0863C94.5315 10.5704 89.8522 8.53941 84.934 8.42758C84.6173 7.25837 83.9238 6.22574 82.9606 5.48983C81.9986 4.75392 80.82 4.35595 79.6084 4.35595C78.4004 4.3583 77.2253 4.75627 76.2644 5.48983C75.3048 6.22339 74.6112 7.2525 74.291 8.41697H72.1833V2.56504C72.1833 1.47354 71.2979 0.586914 70.2052 0.586914H53.5537C52.461 0.586914 51.5755 1.47354 51.5755 2.56504V8.41697H29.643C29.3239 7.25129 28.6304 6.22221 27.6696 5.48745C26.7076 4.75389 25.5325 4.35592 24.3231 4.35592C23.1115 4.35709 21.9352 4.75742 20.9733 5.49333C20.0114 6.22806 19.3178 7.25952 18.9999 8.42755C14.0818 8.53941 9.40123 10.5705 5.95952 14.0854C2.51901 17.6012 0.589266 22.3228 0.582031 27.2421V43.4897C0.598515 47.5072 1.89255 51.4152 4.27694 54.6486C6.6613 57.8829 10.0122 60.2745 13.8449 61.4778V67.8138H7.17578C5.35542 67.8162 3.88117 69.2915 3.87875 71.1108V77.4514C3.87875 77.9047 3.97295 78.3545 4.15546 78.7701C3.97295 79.1858 3.87875 79.6344 3.87875 80.0889V97.4141C3.88111 99.2333 5.35527 100.709 7.17578 100.711H14.6385C14.701 106.438 17.793 111.704 22.7642 114.549C27.7353 117.394 33.8417 117.394 38.8116 114.549C43.7828 111.704 46.8748 106.438 46.9384 100.711H122.696C122.76 106.438 125.852 111.704 130.823 114.549C135.793 117.394 141.9 117.394 146.871 114.549C151.842 111.704 154.934 106.438 154.996 100.711H163.118C164.939 100.709 166.413 99.2334 166.415 97.4141V85.8184C166.415 82.3755 165.191 78.4995 163.056 75.1813C161.014 72.0094 158.363 69.6733 155.499 68.4911L155.499 68.4923ZM151.154 67.6139H146.806L141.212 43.6057C141.003 42.7108 140.205 42.0774 139.285 42.0774H117.408C117.468 40.721 118.049 39.4399 119.029 38.5003C120.009 37.5607 121.314 37.0356 122.673 37.0332H142.73L151.154 67.6139ZM142.744 67.6139H117.398V46.0334H137.716L142.744 67.6139ZM109.782 32.2563C109.785 30.1593 110.618 28.1482 112.102 26.6645C113.586 25.1809 115.597 24.3461 117.695 24.3438H137.285C143.478 24.3438 148.52 28.2575 148.554 33.0771H122.673L122.672 33.0782C120.226 33.0806 117.879 34.0544 116.148 35.7852C114.417 37.5149 113.444 39.8614 113.441 42.3096V67.818H109.781L109.782 32.2563ZM85.1313 12.3916V12.3928C88.9652 12.5529 92.5881 14.1872 95.2458 16.9543C97.9033 19.7225 99.3892 23.4091 99.394 27.2454V43.493C99.4046 47.3338 97.9234 51.0299 95.2635 53.8015C92.6025 56.5721 88.97 58.203 85.1316 58.3489L85.1313 12.3916ZM84.8582 62.3112C85.2832 62.3041 85.7071 62.2817 86.1298 62.2452V67.8168L73.0906 67.818V62.3218H74.3646C74.7261 63.4274 75.4279 64.3906 76.3698 65.0735C77.3118 65.7564 78.4457 66.125 79.609 66.1261C80.7747 66.125 81.9097 65.7552 82.8518 65.07C83.7949 64.3859 84.4967 63.4203 84.8581 62.3124L84.8582 62.3112ZM55.5325 4.5454H68.2289V8.41936H55.5325V4.5454ZM51.3914 12.3756H74.0905V19.4908C74.0905 20.5835 74.976 21.469 76.0687 21.469C77.1613 21.469 78.0468 20.5835 78.0468 19.4908V9.87676C78.0468 9.24328 78.4283 8.67222 79.0146 8.43202C79.5998 8.19064 80.2733 8.32722 80.7196 8.777C81.0128 9.06783 81.1764 9.46344 81.1752 9.87673V60.6072C81.1729 61.4702 80.4723 62.1696 79.6092 62.1696C78.7473 62.1661 78.0491 61.4691 78.0467 60.6072V27.8811C78.0467 26.7884 77.1613 25.9029 76.0686 25.9029C74.9759 25.9029 74.0905 26.7884 74.0905 27.8811V58.3645H51.3914L51.3914 12.3756ZM69.1356 62.3193V67.8156H34.7999V62.3205L69.1356 62.3193ZM40.3999 12.3756H47.4352V18.7846L40.3999 18.7858V12.3756ZM40.3999 22.7408H47.4352V28.5069L40.3999 28.508V22.7408ZM40.3999 32.4631H47.4352V38.2328L40.3999 38.2339V32.4631ZM40.3999 42.189H47.4352V47.9562H40.3999V42.189ZM40.3999 51.9113H47.4352V58.3637L40.3999 58.3648V51.9113ZM29.8429 12.3759H36.4436V58.3649H29.8429V12.3759ZM22.7581 9.87734C22.7593 9.01426 23.4599 8.31485 24.3242 8.31485C25.1861 8.31721 25.8843 9.01543 25.8866 9.87734V60.6078C25.8866 61.2412 25.504 61.8111 24.9188 62.0525C24.3324 62.2939 23.6589 62.1573 23.2138 61.7075C22.9207 61.4167 22.7558 61.0199 22.7582 60.6078L22.7581 9.87734ZM19.0726 62.3108C19.4341 63.4188 20.1358 64.3843 21.0789 65.0696C22.0221 65.7549 23.1583 66.1246 24.3241 66.1246C25.4863 66.1222 26.619 65.7537 27.5609 65.0708C28.5017 64.3879 29.2034 63.4247 29.5661 62.3202H30.8448V67.8165L17.802 67.8153V62.2437C18.2247 62.2802 18.6474 62.3026 19.0724 62.3108L19.0726 62.3108ZM4.5392 43.4914V27.2438C4.54391 23.4076 6.03103 19.7211 8.68746 16.954C11.345 14.1858 14.968 12.5516 18.8019 12.3913V58.347C17.9412 58.3129 17.0852 58.2046 16.2433 58.0221C12.9336 57.2873 9.97085 55.4482 7.84458 52.8083C5.71691 50.1672 4.55237 46.8822 4.53941 43.4911L4.5392 43.4914ZM30.7894 112.73C27.5551 112.725 24.4546 111.439 22.167 109.153C19.8804 106.866 18.5945 103.765 18.5912 100.531C18.59 100.021 18.623 99.5126 18.6877 99.0063C19.187 95.044 21.5961 91.5776 25.1344 89.7256C28.6726 87.8735 32.8938 87.8711 36.4344 89.7197C39.9749 91.5671 42.3864 95.0312 42.8916 98.9934V99.0005C42.9551 99.508 42.9881 100.019 42.9869 100.531C42.9834 103.765 41.6976 106.865 39.4099 109.153C37.1233 111.439 34.0231 112.725 30.7896 112.73L30.7894 112.73ZM138.849 112.73H138.847C135.614 112.725 132.513 111.439 130.226 109.153C127.939 106.866 126.653 103.765 126.649 100.531C126.65 100.015 126.682 99.5008 126.745 98.9898C127.252 95.0323 129.661 91.5719 133.197 89.7245C136.734 87.877 140.95 87.8747 144.487 89.7209C148.024 91.566 150.437 95.0243 150.944 98.9817V98.9853C151.392 102.462 150.319 105.963 148.003 108.593C145.687 111.225 142.35 112.731 138.845 112.73L138.849 112.73ZM162.461 96.7563H154.554C153.415 92.0181 150.199 88.0465 145.8 85.9486C141.403 83.8515 136.292 83.8515 131.893 85.9486C127.496 88.0468 124.279 92.0184 123.141 96.7563H117.399V89.9576C117.399 88.8649 116.512 87.9794 115.421 87.9794C114.328 87.9794 113.443 88.8649 113.443 89.9576V96.7563H46.4953C45.3568 92.0181 42.1412 88.0465 37.7422 85.9486C33.3443 83.8515 28.2342 83.8515 23.8351 85.9486C19.4373 88.0468 16.2217 92.0184 15.0832 96.7563H7.83592V80.7498H29.5529C30.6445 80.7498 31.5311 79.8632 31.5311 78.7717C31.5311 77.679 30.6445 76.7936 29.5529 76.7936H7.83592V71.7718H113.441V76.7924L38.44 76.7936C37.3485 76.7936 36.4618 77.679 36.4618 78.7717C36.4618 79.8632 37.3485 80.7498 38.44 80.7498H113.441V82.3747C113.441 83.4674 114.327 84.3528 115.42 84.3528C116.511 84.3528 117.398 83.4674 117.398 82.3747V71.5703H151.194C151.891 71.5726 152.583 71.6774 153.249 71.8811C157.597 73.1963 162.46 79.4367 162.46 85.8198L162.461 96.7563Z" fill="#3D5A9B"/>
</svg>
