<svg width="101" height="127" viewBox="0 0 101 127" fill="none" xmlns="http://www.w3.org/2000/svg">
<path d="M20.125 84.0678C20.9795 84.0678 21.6719 83.3754 21.6719 82.521V81.0183C21.6719 80.1638 20.9795 79.4714 20.125 79.4714C19.2705 79.4714 18.5781 80.1638 18.5781 81.0183V82.521C18.5781 83.3754 19.2705 84.0678 20.125 84.0678Z" fill="#E84C3D"/>
<path d="M20.125 111.766C20.9795 111.766 21.6719 111.074 21.6719 110.219V87.3958C21.6719 86.5413 20.9795 85.8489 20.125 85.8489C19.2705 85.8489 18.5781 86.5413 18.5781 87.3958V110.219C18.5781 111.074 19.2705 111.766 20.125 111.766Z" fill="#E84C3D"/>
<path d="M75.7695 8.71584C75.4924 8.24165 74.9841 7.95068 74.4344 7.95068C73.8857 7.95068 73.3774 8.24165 73.1003 8.71584L63.646 24.855C61.5826 28.3834 61.3736 32.6972 63.0871 36.4087C64.7997 40.1193 68.2176 42.7601 72.2413 43.4792C76.2649 44.1983 80.3864 42.9065 83.2784 40.018C85.2332 38.0614 86.4836 35.5118 86.8362 32.7688C87.1889 30.0249 86.6226 27.2425 85.2258 24.855L75.7695 8.71584ZM81.0906 37.8313V37.8303C78.9157 40.0107 75.8117 40.9877 72.7797 40.448C69.7478 39.9075 67.1723 37.9187 65.8832 35.1213C64.5941 32.3241 64.7562 29.0738 66.315 26.4182L74.4342 12.5571L82.5553 26.4173C83.6059 28.2146 84.0322 30.3094 83.767 32.3738C83.5018 34.4381 82.5608 36.3569 81.0905 37.8301L81.0906 37.8313Z" fill="#935EF1"/>
<path d="M80.7203 29.4979C80.3189 29.4169 79.9008 29.4979 79.5583 29.7244C79.2167 29.9519 78.9783 30.3045 78.8972 30.7069C78.7195 31.5862 78.2849 32.3937 77.6496 33.0272C77.1643 33.5161 76.5723 33.8872 75.9195 34.1101C75.112 34.3872 74.682 35.2675 74.9591 36.0759C75.2372 36.8834 76.1175 37.3134 76.9249 37.0362C79.4865 36.1504 81.3896 33.9773 81.9292 31.322C82.0111 30.9197 81.9292 30.5016 81.7027 30.16C81.4761 29.8175 81.1226 29.5799 80.7202 29.498L80.7203 29.4979Z" fill="#935EF1"/>
<path d="M74.4351 0.0383358C66.1049 0.0328113 58.2813 4.03911 53.4178 10.802H6.00156C3.85803 10.802 1.87656 11.9456 0.803827 13.8026C-0.267942 15.6598 -0.267942 17.947 0.803827 19.8042C1.87651 21.6613 3.85798 22.8048 6.00156 22.8048H7.58712V62.6169H6.00156C3.85803 62.6169 1.8775 63.7605 0.805711 65.6169C-0.266977 67.474 -0.266977 69.7612 0.805711 71.6184C1.87748 73.4746 3.85798 74.6183 6.00156 74.6183H7.58712V114.43H6.00156C3.85803 114.43 1.87656 115.574 0.803827 117.431C-0.267942 119.288 -0.267942 121.575 0.803827 123.433C1.87651 125.29 3.85798 126.433 6.00156 126.433H78.7359C80.8804 126.433 82.8618 125.29 83.9336 123.433C85.0063 121.575 85.0063 119.288 83.9336 117.431C82.8619 115.574 80.8804 114.43 78.7359 114.43H77.1476V74.6183H78.7359C80.8794 74.6183 82.8609 73.4747 83.9327 71.6184C85.0045 69.7612 85.0045 67.4741 83.9327 65.6169C82.8609 63.7606 80.8795 62.6169 78.7359 62.6169H77.1476V51.705C86.0312 50.7705 93.806 45.3252 97.72 37.296C101.635 29.2678 101.138 19.7888 96.4033 12.2137C91.6697 4.63948 83.3672 0.0376287 74.436 0.0385716L74.4351 0.0383358ZM6.00015 19.7113C4.39434 19.7113 3.09238 18.4093 3.09238 16.8035C3.09238 15.1977 4.39432 13.8957 6.00015 13.8957H51.4977C50.5263 15.7363 49.7842 17.6903 49.2879 19.7113H6.00015ZM78.7345 117.523C80.3403 117.523 81.6423 118.825 81.6423 120.431C81.6423 122.037 80.3403 123.339 78.7345 123.339H6.00015C4.82433 123.339 3.76362 122.63 3.31348 121.542C2.86333 120.455 3.11275 119.205 3.94604 118.372C4.48929 117.825 5.22958 117.519 6.00024 117.522H12.6141C13.4686 117.522 14.161 116.829 14.161 115.975C14.161 115.121 13.4686 114.428 12.6141 114.428H10.6806V74.618H74.0523V114.43H18.8881C18.0337 114.43 17.3413 115.123 17.3413 115.977C17.3413 116.831 18.0337 117.524 18.8881 117.524L78.7345 117.523ZM78.7345 65.7109C80.3403 65.7109 81.6413 67.012 81.6413 68.6178C81.6413 70.2236 80.3403 71.5246 78.7345 71.5246H6.00015C4.39526 71.5227 3.09426 70.2217 3.09238 68.6168C3.09238 67.8452 3.39899 67.1058 3.945 66.5617C4.49009 66.0166 5.22945 65.7109 6.00015 65.7109H57.301C58.1555 65.7109 58.8479 65.0185 58.8479 64.164C58.8479 63.3095 58.1555 62.6171 57.301 62.6171H10.6791V22.805H48.721C47.8361 30.1001 50.0892 37.4285 54.9196 42.9659C59.7508 48.5033 66.7053 51.7307 74.053 51.8429V62.6167H64.5211C63.6667 62.6167 62.9743 63.3091 62.9743 64.1635C62.9743 65.018 63.6667 65.7104 64.5211 65.7104L78.7345 65.7109ZM75.5219 48.7284C75.1398 48.7459 74.7835 48.7542 74.4345 48.7542C67.62 48.7505 61.1636 45.7019 56.8314 40.4424C52.4992 35.1822 50.7443 28.2617 52.0461 21.5733C52.6161 18.6148 53.7726 15.8002 55.4494 13.2966C59.8414 6.70301 67.34 2.86087 75.2576 3.14703C83.1753 3.43245 90.3766 7.80615 94.2814 14.6999C98.1863 21.5926 98.236 30.0185 94.4112 36.9565C90.5863 43.8945 83.4359 48.3509 75.5218 48.7292L75.5219 48.7284Z" fill="#3D5A9B"/>
</svg>
