<svg width="32" height="32" viewBox="0 0 32 32" fill="none" xmlns="http://www.w3.org/2000/svg">
<path d="M26.6542 16.3782C26.6542 16.7197 26.5337 17.0412 26.2926 17.2822L24.4645 19.1104L17.1922 26.3827C16.9511 26.6237 16.6297 26.7443 16.2881 26.7443C15.9466 26.7443 15.6252 26.6237 15.3841 26.3827L13.556 24.5545C13.3149 24.3135 13.1743 23.992 13.1743 23.6505C13.1743 23.309 13.3149 22.9876 13.556 22.7465L17.3529 18.9496H7.26806C6.56493 18.9496 5.98234 18.367 5.98234 17.6639V15.0925C5.98234 14.3894 6.56493 13.8068 7.26806 13.8068H17.3529L13.556 10.0099C13.3149 9.76883 13.1944 9.4474 13.1944 9.10589C13.1944 8.76437 13.3149 8.44294 13.556 8.20187L15.3841 6.37374C15.6252 6.13267 15.9466 6.01214 16.2881 6.01214C16.6297 6.01214 16.9511 6.13267 17.1922 6.37374L24.4645 13.6461L26.2926 15.4742C26.5337 15.7153 26.6542 16.0367 26.6542 16.3782ZM31.6966 16.3782C31.6966 7.86035 24.7859 0.949636 16.2681 0.949636C7.7502 0.949636 0.839485 7.86035 0.839485 16.3782C0.839485 24.8961 7.7502 31.8068 16.2681 31.8068C24.7859 31.8068 31.6966 24.8961 31.6966 16.3782Z" fill="#E84C3D"/>
</svg>
