<svg width="350" height="421" viewBox="0 0 350 421" fill="none" xmlns="http://www.w3.org/2000/svg">
<path d="M28.3512 411.372C48.3058 406.341 60.4035 386.086 55.3721 366.131C50.3408 346.176 30.0856 334.079 10.131 339.11C-9.82359 344.141 -21.9213 364.397 -16.8899 384.351C-11.8586 404.306 8.39655 416.404 28.3512 411.372Z" fill="#F1D332"/>
<path d="M42.3202 136.723C42.2292 135.993 42.8663 135.264 43.5944 135.264C44.3225 135.172 45.0506 135.72 45.0506 136.541C45.1416 137.27 44.5045 138 43.7764 138H43.6854C43.0483 138 42.4112 137.453 42.3202 136.723ZM36.3135 137.909C35.5854 137.818 35.0393 137.179 35.1303 136.449C35.2214 135.72 35.8584 135.172 36.5865 135.264C37.3146 135.355 37.8607 135.993 37.7697 136.723C37.6787 137.453 37.1326 138 36.4045 138C36.4045 137.909 36.4045 137.909 36.3135 137.909ZM49.6011 135.72C49.4191 134.99 49.7831 134.26 50.5112 133.986C51.2393 133.804 51.9674 134.169 52.1494 134.899C52.3315 135.628 51.9674 136.358 51.2393 136.632C51.1483 136.632 50.9663 136.632 50.8753 136.632C50.2382 136.723 49.6921 136.267 49.6011 135.72ZM28.9416 136.449C28.2135 136.267 27.8494 135.446 28.0315 134.716C28.2135 133.986 29.0326 133.622 29.7607 133.804C30.4887 133.986 30.8528 134.807 30.6708 135.537C30.4887 136.176 29.9427 136.541 29.3966 136.541C29.2146 136.541 29.0326 136.449 28.9416 136.449ZM56.427 133.348C56.0629 132.709 56.3359 131.889 57.064 131.524C57.7011 131.159 58.5202 131.432 58.8843 132.162C59.2483 132.801 58.9753 133.622 58.2472 133.986C58.0652 134.078 57.8831 134.078 57.6101 134.078C57.155 134.169 56.7 133.804 56.427 133.348ZM21.9337 133.622C21.2966 133.257 21.0236 132.436 21.3876 131.797C21.7517 131.159 22.5708 130.885 23.2079 131.25C23.8449 131.615 24.118 132.436 23.7539 133.074C23.4809 133.53 23.0258 133.804 22.5708 133.804C22.3888 133.804 22.1157 133.713 21.9337 133.622ZM62.7978 129.791C62.3427 129.152 62.4337 128.331 63.0708 127.875C63.7079 127.419 64.527 127.51 64.982 128.149C65.4371 128.787 65.3461 129.608 64.709 130.064C64.436 130.247 64.1629 130.338 63.8899 130.338C63.4348 130.338 63.0708 130.155 62.7978 129.791ZM15.6539 129.608C15.0168 129.152 14.9258 128.331 15.3809 127.693C15.8359 127.145 16.7461 126.963 17.2921 127.419C17.9292 127.875 18.0202 128.696 17.5652 129.334C17.2921 129.699 16.9281 129.882 16.473 129.882C16.2 129.882 15.8359 129.791 15.6539 129.608ZM68.3494 125.047C67.8034 124.5 67.8034 123.679 68.2584 123.132C68.8045 122.584 69.6236 122.584 70.1697 123.041C70.7157 123.588 70.7157 124.409 70.2607 124.956C69.9876 125.23 69.6236 125.412 69.2596 125.412C68.9865 125.412 68.6225 125.321 68.3494 125.047ZM10.1023 124.409C9.55619 123.861 9.64717 122.949 10.1932 122.493C10.7393 122.037 11.6494 122.037 12.1045 122.584C12.6506 123.132 12.5595 124.044 12.0135 124.5C11.7404 124.682 11.4674 124.865 11.1034 124.865C10.7393 124.865 10.3753 124.682 10.1023 124.409ZM72.991 119.483C72.3539 119.118 72.1719 118.206 72.5359 117.568C72.9 116.929 73.8101 116.747 74.4472 117.111C75.0843 117.476 75.2663 118.389 74.9022 119.027C74.6292 119.483 74.1742 119.666 73.7191 119.666C73.4461 119.666 73.173 119.574 72.991 119.483ZM5.7337 118.297C5.36965 117.659 5.55167 116.838 6.18875 116.382C6.82583 116.017 7.64494 116.199 8.09999 116.838C8.46404 117.476 8.28202 118.297 7.64494 118.753C7.46292 118.845 7.18989 118.936 6.91686 118.936C6.37079 119.027 5.91572 118.753 5.7337 118.297ZM76.4494 113.007C75.7214 112.733 75.4483 111.912 75.6303 111.274C75.9034 110.544 76.7225 110.27 77.3596 110.453C78.0876 110.726 78.4517 111.547 78.1786 112.186C77.9966 112.733 77.4506 113.098 76.9045 113.098C76.8135 113.189 76.6315 113.098 76.4494 113.007ZM2.45729 111.547C2.18425 110.818 2.54832 110.088 3.27641 109.814C4.0045 109.541 4.73258 109.905 5.00562 110.635C5.27865 111.365 4.91461 112.095 4.18652 112.368C4.0045 112.459 3.91349 112.459 3.73147 112.459C3.1854 112.368 2.63931 112.095 2.45729 111.547ZM78.7247 106.074C77.9966 105.983 77.4506 105.253 77.6326 104.432C77.7236 103.703 78.4517 103.247 79.2708 103.338C79.9989 103.52 80.5449 104.159 80.3629 104.98C80.2719 105.618 79.6348 106.074 78.9977 106.074C78.9067 106.166 78.8157 106.166 78.7247 106.074ZM0.546073 104.25C0.455062 103.52 0.910101 102.791 1.63819 102.699C2.36628 102.608 3.09438 103.064 3.18539 103.794C3.2764 104.524 2.82134 105.253 2.09325 105.345C2.00224 105.345 1.91124 105.345 1.91124 105.345C1.18315 105.345 0.637084 104.889 0.546073 104.25ZM78.2697 97.5C78.2697 96.7703 78.9067 96.1318 79.6348 96.1318C80.3629 96.1318 81 96.7703 81 97.5C81 98.2297 80.3629 98.8682 79.6348 98.8682C78.8157 98.8682 78.2697 98.3209 78.2697 97.5ZM1.36517 98.1385C0.637079 98.1385 0 97.5 0 96.7703C0 96.0405 0.637079 95.402 1.36517 95.402C2.09326 95.402 2.73034 96.0405 2.73034 96.7703C2.73034 97.5 2.09326 98.1385 1.36517 98.1385ZM77.8146 92.027C77.7236 91.2973 78.1786 90.5676 78.9977 90.4763C79.7258 90.3851 80.4539 90.9324 80.5449 91.6622C80.636 92.3919 80.1809 93.1216 79.3618 93.2128C79.2708 93.2128 79.2708 93.2128 79.1798 93.2128C78.5427 93.2128 77.9056 92.6655 77.8146 92.027ZM1.91124 90.8412C1.18315 90.6588 0.728084 89.9291 0.819096 89.1993C1.00112 88.4696 1.7292 88.0135 2.45729 88.1047C3.18538 88.2872 3.64044 89.0169 3.54943 89.7466C3.45842 90.3851 2.82134 90.8412 2.18426 90.8412C2.09325 90.8412 2.00225 90.8412 1.91124 90.8412ZM76.1764 85.1858C75.9034 84.4561 76.2674 83.7264 76.9955 83.4527C77.7236 83.1791 78.4517 83.5439 78.7247 84.2736C78.9978 85.0034 78.6337 85.7331 77.9056 86.0068C77.7236 86.098 77.6326 86.098 77.4506 86.098C76.9045 86.098 76.3584 85.7331 76.1764 85.1858ZM3.73147 83.8176C3.00338 83.5439 2.73033 82.723 3.00336 81.9932C3.27639 81.2635 4.09549 80.9899 4.82358 81.2635C5.55167 81.5372 5.82472 82.3581 5.55169 83.0878C5.36967 83.6351 4.82358 83.9088 4.27751 83.9088C4.09549 83.9088 3.91349 83.9088 3.73147 83.8176ZM73.264 78.8007C72.9 78.1622 73.082 77.3412 73.8101 76.8851C74.4472 76.5203 75.2663 76.7027 75.6303 77.4324C75.9944 78.0709 75.8124 78.8919 75.0843 79.348C74.9023 79.4392 74.6292 79.5304 74.4472 79.5304C73.9921 79.4392 73.5371 79.2568 73.264 78.8007ZM6.91686 77.25C6.27978 76.7939 6.09774 75.973 6.55279 75.3345C6.91684 74.6959 7.82696 74.5135 8.46403 74.9696C9.10111 75.4257 9.28313 76.2466 8.82807 76.8851C8.55504 77.25 8.09999 77.5236 7.64494 77.5236C7.46292 77.4324 7.18989 77.4324 6.91686 77.25ZM69.2596 73.0541C68.8045 72.5068 68.8045 71.5946 69.4416 71.1385C69.9876 70.6824 70.8978 70.6824 71.3528 71.3209C71.8079 71.8682 71.8079 72.7804 71.1708 73.2365C70.8977 73.4189 70.6247 73.6014 70.2607 73.6014C69.8966 73.5101 69.5326 73.3277 69.2596 73.0541ZM11.2854 71.4122C10.7393 70.8649 10.7393 70.0439 11.1944 69.4966C11.7404 68.9493 12.5595 68.9493 13.1056 69.4966C13.6517 70.0439 13.6517 70.8649 13.1056 71.4122C12.8326 71.6858 12.4685 71.8682 12.1045 71.8682C11.8314 71.777 11.5584 71.5946 11.2854 71.4122ZM64.2539 68.1284C63.7079 67.6723 63.6168 66.7601 64.0719 66.2128C64.527 65.6655 65.4371 65.5743 65.9831 66.0304C66.5292 66.4865 66.6202 67.3986 66.1652 67.9459C65.8921 68.3108 65.5281 68.402 65.073 68.402C64.8 68.402 64.527 68.3108 64.2539 68.1284ZM16.564 66.3953C16.109 65.7568 16.291 64.9358 16.9281 64.4797C17.5652 64.0236 18.3843 64.2061 18.8393 64.7534C19.2944 65.3919 19.1123 66.2128 18.4753 66.6689C18.2022 66.8514 17.9292 66.9426 17.6562 66.9426C17.2921 66.9426 16.8371 66.7601 16.564 66.3953ZM58.4292 64.2061C57.7921 63.8412 57.5191 63.0203 57.8832 62.3818C58.2472 61.7432 59.0663 61.4696 59.7034 61.8345C60.3405 62.1993 60.6135 63.0203 60.2494 63.6588C59.9764 64.1149 59.5213 64.3885 59.0663 64.3885C58.8843 64.3885 58.6112 64.2973 58.4292 64.2061ZM22.7528 62.473C22.3888 61.7432 22.7528 61.0135 23.3899 60.6486C24.118 60.375 24.8461 60.6486 25.2101 61.2872C25.4831 62.0169 25.2101 62.7466 24.573 63.1115C24.391 63.2027 24.209 63.2027 24.027 63.2027C23.4809 63.2939 22.9348 63.0203 22.7528 62.473ZM51.9674 61.4696C51.2393 61.2872 50.8753 60.4662 51.0573 59.7365C51.2393 59.0068 52.0584 58.6419 52.7865 58.8243C53.5146 59.0068 53.8787 59.8277 53.6966 60.5574C53.5146 61.1047 52.9685 61.4696 52.4225 61.4696C52.2405 61.4696 52.0584 61.4696 51.9674 61.4696ZM29.4876 59.8277C29.3056 59.098 29.7607 58.3682 30.4888 58.1858C31.2169 58.0034 31.9449 58.4595 32.127 59.1892C32.309 59.9189 31.8539 60.6486 31.1258 60.8311C31.0348 60.8311 30.9438 60.8311 30.7618 60.8311C30.2157 60.8311 29.6697 60.4662 29.4876 59.8277ZM45.1416 59.9189C44.4135 59.8277 43.8674 59.1892 43.9584 58.3682C44.0494 57.6385 44.7775 57.0912 45.5056 57.1824C46.2337 57.2736 46.7798 58.0034 46.6888 58.7331C46.5977 59.4628 46.0517 59.9189 45.3236 59.9189C45.2326 59.9189 45.1416 59.9189 45.1416 59.9189ZM36.6775 58.4595C36.6775 57.7297 37.2236 57.0912 37.9517 57C38.6798 57 39.3168 57.5473 39.4079 58.277C39.4989 59.0068 38.8618 59.6453 38.1337 59.7365H38.0427C37.3146 59.7365 36.6775 59.1892 36.6775 58.4595Z" fill="#C94D3F"/>
<path d="M31.2222 376.666L15.3389 365.215C12.7713 363.403 12.2339 359.84 14.1447 357.386C15.9957 354.873 19.6381 354.348 22.146 356.217L31.1028 362.702C33.133 364.163 35.9394 364.163 37.9696 362.644L51.4047 352.653C53.4349 351.134 56.2413 351.134 58.2715 352.595L71.8858 362.293C73.916 363.754 76.7224 363.754 78.7526 362.235L92.128 352.244C94.1582 350.725 96.9646 350.725 98.9948 352.186L112.609 362.001C114.639 363.462 117.446 363.462 119.476 361.943L132.911 351.894C134.941 350.375 137.748 350.375 139.778 351.835L155.661 363.287C158.229 365.098 158.766 368.662 156.855 371.115C155.004 373.628 151.362 374.154 148.854 372.284L139.897 365.799C137.867 364.338 135.061 364.338 133.03 365.857L119.595 375.906C117.565 377.425 114.759 377.425 112.728 375.965L99.1142 366.149C97.084 364.689 94.2776 364.689 92.2474 366.208L78.8123 376.198C76.7821 377.717 73.9757 377.717 71.9455 376.257L58.3909 366.5C56.3608 365.039 53.5543 365.039 51.5241 366.558L38.089 376.549C36.0588 378.126 33.2524 378.126 31.2222 376.666Z" stroke="#C4C4C4" stroke-miterlimit="10"/>
<g clip-path="url(#clip0_2894_36)">
<path d="M201.356 113.638C202.431 98.448 214.908 86.5127 230.253 86.5127C245.526 86.5127 258.074 98.448 259.15 113.638H277.076C276 88.4658 255.421 68.429 230.253 68.429C205.084 68.429 184.505 88.4658 183.43 113.638H201.356Z" stroke="#C4C4C4" stroke-miterlimit="10"/>
<path d="M339.961 26.33C334.439 26.33 329.922 21.7729 329.922 16.2031C329.922 10.6333 334.439 6.07617 339.961 6.07617C345.482 6.07617 349.999 10.6333 349.999 16.2031C349.999 21.7729 345.482 26.33 339.961 26.33ZM339.961 6.79952C334.798 6.79952 330.639 10.995 330.639 16.2031C330.639 21.4112 334.798 25.6066 339.961 25.6066C345.123 25.6066 349.282 21.4112 349.282 16.2031C349.282 10.995 345.123 6.79952 339.961 6.79952Z" fill="#C4C4C4"/>
<path d="M244.378 7.2335C242.37 7.2335 240.793 5.64213 240.793 3.61675C240.793 1.59137 242.37 0 244.378 0C246.386 0 247.963 1.59137 247.963 3.61675C247.963 5.64213 246.314 7.2335 244.378 7.2335ZM244.378 0.72335C242.801 0.72335 241.51 2.02538 241.51 3.61675C241.51 5.20812 242.801 6.51015 244.378 6.51015C245.956 6.51015 247.246 5.20812 247.246 3.61675C247.246 2.02538 245.956 0.72335 244.378 0.72335Z" fill="#C4C4C4"/>
<path d="M285.322 21.7004C285.178 21.7004 285.035 21.7004 284.892 21.7004C274.494 21.7004 266.033 30.236 266.033 40.7245C266.033 51.2131 274.494 59.7487 284.892 59.7487C285.035 59.7487 285.178 59.7487 285.322 59.7487V21.7004Z" fill="#F1D332"/>
</g>
<defs>
<clipPath id="clip0_2894_36">
<rect width="167" height="114" fill="white" transform="translate(183)"/>
</clipPath>
</defs>
</svg>
