<svg width="1342" height="220" viewBox="0 0 1342 220" fill="none" xmlns="http://www.w3.org/2000/svg">
<path d="M90.5853 204.712C123.843 196.327 144.006 162.568 135.62 129.31C127.235 96.0528 93.4761 75.8899 60.2184 84.2755C26.9607 92.6611 6.79786 126.42 15.1834 159.677C23.569 192.935 57.3276 213.098 90.5853 204.712Z" fill="#F1D332"/>
<path d="M359.994 159.4C359.894 158.6 360.594 157.8 361.394 157.8C362.194 157.7 362.994 158.3 362.994 159.2C363.094 160 362.394 160.8 361.594 160.8H361.494C360.794 160.8 360.094 160.2 359.994 159.4ZM353.394 160.7C352.594 160.6 351.994 159.9 352.094 159.1C352.194 158.3 352.894 157.7 353.694 157.8C354.494 157.9 355.094 158.6 354.994 159.4C354.894 160.2 354.294 160.8 353.494 160.8C353.494 160.7 353.494 160.7 353.394 160.7ZM367.994 158.3C367.794 157.5 368.194 156.7 368.994 156.4C369.794 156.2 370.594 156.6 370.794 157.4C370.994 158.2 370.594 159 369.794 159.3C369.694 159.3 369.494 159.3 369.394 159.3C368.694 159.4 368.094 158.9 367.994 158.3ZM345.294 159.1C344.494 158.9 344.094 158 344.294 157.2C344.494 156.4 345.394 156 346.194 156.2C346.994 156.4 347.394 157.3 347.194 158.1C346.994 158.8 346.394 159.2 345.794 159.2C345.594 159.2 345.394 159.1 345.294 159.1ZM375.494 155.7C375.094 155 375.394 154.1 376.194 153.7C376.894 153.3 377.794 153.6 378.194 154.4C378.594 155.1 378.294 156 377.494 156.4C377.294 156.5 377.094 156.5 376.794 156.5C376.294 156.6 375.794 156.2 375.494 155.7ZM337.594 156C336.894 155.6 336.594 154.7 336.994 154C337.394 153.3 338.294 153 338.994 153.4C339.694 153.8 339.994 154.7 339.594 155.4C339.294 155.9 338.794 156.2 338.294 156.2C338.094 156.2 337.794 156.1 337.594 156ZM382.494 151.8C381.994 151.1 382.094 150.2 382.794 149.7C383.494 149.2 384.394 149.3 384.894 150C385.394 150.7 385.294 151.6 384.594 152.1C384.294 152.3 383.994 152.4 383.694 152.4C383.194 152.4 382.794 152.2 382.494 151.8ZM330.694 151.6C329.994 151.1 329.894 150.2 330.394 149.5C330.894 148.9 331.894 148.7 332.494 149.2C333.194 149.7 333.294 150.6 332.794 151.3C332.494 151.7 332.094 151.9 331.594 151.9C331.294 151.9 330.894 151.8 330.694 151.6ZM388.594 146.6C387.994 146 387.994 145.1 388.494 144.5C389.094 143.9 389.994 143.9 390.594 144.4C391.194 145 391.194 145.9 390.694 146.5C390.394 146.8 389.994 147 389.594 147C389.294 147 388.894 146.9 388.594 146.6ZM324.594 145.9C323.994 145.3 324.094 144.3 324.694 143.8C325.294 143.3 326.294 143.3 326.794 143.9C327.394 144.5 327.294 145.5 326.694 146C326.394 146.2 326.094 146.4 325.694 146.4C325.294 146.4 324.894 146.2 324.594 145.9ZM393.694 140.5C392.994 140.1 392.794 139.1 393.194 138.4C393.594 137.7 394.594 137.5 395.294 137.9C395.994 138.3 396.194 139.3 395.794 140C395.494 140.5 394.994 140.7 394.494 140.7C394.194 140.7 393.894 140.6 393.694 140.5ZM319.794 139.2C319.394 138.5 319.594 137.6 320.294 137.1C320.994 136.7 321.894 136.9 322.394 137.6C322.794 138.3 322.594 139.2 321.894 139.7C321.694 139.8 321.394 139.9 321.094 139.9C320.494 140 319.994 139.7 319.794 139.2ZM397.494 133.4C396.694 133.1 396.394 132.2 396.594 131.5C396.894 130.7 397.794 130.4 398.494 130.6C399.294 130.9 399.694 131.8 399.394 132.5C399.194 133.1 398.594 133.5 397.994 133.5C397.894 133.6 397.694 133.5 397.494 133.4ZM316.194 131.8C315.894 131 316.294 130.2 317.094 129.9C317.894 129.6 318.694 130 318.994 130.8C319.294 131.6 318.894 132.4 318.094 132.7C317.894 132.8 317.794 132.8 317.594 132.8C316.994 132.7 316.394 132.4 316.194 131.8ZM399.994 125.8C399.194 125.7 398.594 124.9 398.794 124C398.894 123.2 399.694 122.7 400.594 122.8C401.394 123 401.994 123.7 401.794 124.6C401.694 125.3 400.994 125.8 400.294 125.8C400.194 125.9 400.094 125.9 399.994 125.8ZM314.094 123.8C313.994 123 314.494 122.2 315.294 122.1C316.094 122 316.894 122.5 316.994 123.3C317.094 124.1 316.594 124.9 315.794 125C315.694 125 315.594 125 315.594 125C314.794 125 314.194 124.5 314.094 123.8ZM399.494 116.4C399.494 115.6 400.194 114.9 400.994 114.9C401.794 114.9 402.494 115.6 402.494 116.4C402.494 117.2 401.794 117.9 400.994 117.9C400.094 117.9 399.494 117.3 399.494 116.4ZM314.994 117.1C314.194 117.1 313.494 116.4 313.494 115.6C313.494 114.8 314.194 114.1 314.994 114.1C315.794 114.1 316.494 114.8 316.494 115.6C316.494 116.4 315.794 117.1 314.994 117.1ZM398.994 110.4C398.894 109.6 399.394 108.8 400.294 108.7C401.094 108.6 401.894 109.2 401.994 110C402.094 110.8 401.594 111.6 400.694 111.7C400.594 111.7 400.594 111.7 400.494 111.7C399.794 111.7 399.094 111.1 398.994 110.4ZM315.594 109.1C314.794 108.9 314.294 108.1 314.394 107.3C314.594 106.5 315.394 106 316.194 106.1C316.994 106.3 317.494 107.1 317.394 107.9C317.294 108.6 316.594 109.1 315.894 109.1C315.794 109.1 315.694 109.1 315.594 109.1ZM397.194 102.9C396.894 102.1 397.294 101.3 398.094 101C398.894 100.7 399.694 101.1 399.994 101.9C400.294 102.7 399.894 103.5 399.094 103.8C398.894 103.9 398.794 103.9 398.594 103.9C397.994 103.9 397.394 103.5 397.194 102.9ZM317.594 101.4C316.794 101.1 316.494 100.2 316.794 99.4C317.094 98.6 317.994 98.3 318.794 98.6C319.594 98.9 319.894 99.8 319.594 100.6C319.394 101.2 318.794 101.5 318.194 101.5C317.994 101.5 317.794 101.5 317.594 101.4ZM393.994 95.9C393.594 95.2 393.794 94.3 394.594 93.8C395.294 93.4 396.194 93.6 396.594 94.4C396.994 95.1 396.794 96 395.994 96.5C395.794 96.6 395.494 96.7 395.294 96.7C394.794 96.6 394.294 96.4 393.994 95.9ZM321.094 94.2C320.394 93.7 320.194 92.8 320.694 92.1C321.094 91.4 322.094 91.2 322.794 91.7C323.494 92.2 323.694 93.1 323.194 93.8C322.894 94.2 322.394 94.5 321.894 94.5C321.694 94.4 321.394 94.4 321.094 94.2ZM389.594 89.6C389.094 89 389.094 88 389.794 87.5C390.394 87 391.394 87 391.894 87.7C392.394 88.3 392.394 89.3 391.694 89.8C391.394 90 391.094 90.2 390.694 90.2C390.294 90.1 389.894 89.9 389.594 89.6ZM325.894 87.8C325.294 87.2 325.294 86.3 325.794 85.7C326.394 85.1 327.294 85.1 327.894 85.7C328.494 86.3 328.494 87.2 327.894 87.8C327.594 88.1 327.194 88.3 326.794 88.3C326.494 88.2 326.194 88 325.894 87.8ZM384.094 84.2C383.494 83.7 383.394 82.7 383.894 82.1C384.394 81.5 385.394 81.4 385.994 81.9C386.594 82.4 386.694 83.4 386.194 84C385.894 84.4 385.494 84.5 384.994 84.5C384.694 84.5 384.394 84.4 384.094 84.2ZM331.694 82.3C331.194 81.6 331.394 80.7 332.094 80.2C332.794 79.7 333.694 79.9 334.194 80.5C334.694 81.2 334.494 82.1 333.794 82.6C333.494 82.8 333.194 82.9 332.894 82.9C332.494 82.9 331.994 82.7 331.694 82.3ZM377.694 79.9C376.994 79.5 376.694 78.6 377.094 77.9C377.494 77.2 378.394 76.9 379.094 77.3C379.794 77.7 380.094 78.6 379.694 79.3C379.394 79.8 378.894 80.1 378.394 80.1C378.194 80.1 377.894 80 377.694 79.9ZM338.494 78C338.094 77.2 338.494 76.4 339.194 76C339.994 75.7 340.794 76 341.194 76.7C341.494 77.5 341.194 78.3 340.494 78.7C340.294 78.8 340.094 78.8 339.894 78.8C339.294 78.9 338.694 78.6 338.494 78ZM370.594 76.9C369.794 76.7 369.394 75.8 369.594 75C369.794 74.2 370.694 73.8 371.494 74C372.294 74.2 372.694 75.1 372.494 75.9C372.294 76.5 371.694 76.9 371.094 76.9C370.894 76.9 370.694 76.9 370.594 76.9ZM345.894 75.1C345.694 74.3 346.194 73.5 346.994 73.3C347.794 73.1 348.594 73.6 348.794 74.4C348.994 75.2 348.494 76 347.694 76.2C347.594 76.2 347.494 76.2 347.294 76.2C346.694 76.2 346.094 75.8 345.894 75.1ZM363.094 75.2C362.294 75.1 361.694 74.4 361.794 73.5C361.894 72.7 362.694 72.1 363.494 72.2C364.294 72.3 364.894 73.1 364.794 73.9C364.694 74.7 364.094 75.2 363.294 75.2C363.194 75.2 363.094 75.2 363.094 75.2ZM353.794 73.6C353.794 72.8 354.394 72.1 355.194 72C355.994 72 356.694 72.6 356.794 73.4C356.894 74.2 356.194 74.9 355.394 75H355.294C354.494 75 353.794 74.4 353.794 73.6Z" fill="#C94D3F"/>
<path d="M71.4115 147.363L44.8115 127.763C40.5115 124.663 39.6115 118.563 42.8115 114.363C45.9115 110.063 52.0115 109.163 56.2115 112.363L71.2115 123.463C74.6115 125.963 79.3115 125.963 82.7115 123.363L105.212 106.263C108.612 103.663 113.312 103.663 116.712 106.163L139.512 122.763C142.912 125.263 147.612 125.263 151.012 122.663L173.412 105.563C176.812 102.963 181.512 102.963 184.912 105.463L207.712 122.263C211.112 124.763 215.812 124.763 219.212 122.163L241.712 104.963C245.112 102.363 249.812 102.363 253.212 104.863L279.812 124.463C284.112 127.563 285.012 133.663 281.812 137.863C278.712 142.163 272.612 143.063 268.412 139.863L253.412 128.763C250.012 126.263 245.312 126.263 241.912 128.863L219.412 146.063C216.012 148.663 211.312 148.663 207.912 146.163L185.112 129.363C181.712 126.863 177.012 126.863 173.612 129.463L151.112 146.563C147.712 149.163 143.012 149.163 139.612 146.663L116.912 129.963C113.512 127.463 108.812 127.463 105.412 130.063L82.9115 147.163C79.5115 149.863 74.8115 149.863 71.4115 147.363Z" stroke="#C4C4C4" stroke-miterlimit="10"/>
<g clip-path="url(#clip0_5983_8323)">
<path d="M1134.49 157.1C1135.99 136.1 1153.39 119.6 1174.79 119.6C1196.09 119.6 1213.59 136.1 1215.09 157.1H1240.09C1238.59 122.3 1209.89 94.6001 1174.79 94.6001C1139.69 94.6001 1110.99 122.3 1109.49 157.1H1134.49Z" stroke="#C4C4C4" stroke-miterlimit="10"/>
<path d="M1327.79 36.3999C1320.09 36.3999 1313.79 30.0999 1313.79 22.3999C1313.79 14.6999 1320.09 8.3999 1327.79 8.3999C1335.49 8.3999 1341.79 14.6999 1341.79 22.3999C1341.79 30.0999 1335.49 36.3999 1327.79 36.3999ZM1327.79 9.3999C1320.59 9.3999 1314.79 15.1999 1314.79 22.3999C1314.79 29.5999 1320.59 35.3999 1327.79 35.3999C1334.99 35.3999 1340.79 29.5999 1340.79 22.3999C1340.79 15.1999 1334.99 9.3999 1327.79 9.3999Z" fill="#C4C4C4"/>
<path d="M1194.49 10C1191.69 10 1189.49 7.8 1189.49 5C1189.49 2.2 1191.69 0 1194.49 0C1197.29 0 1199.49 2.2 1199.49 5C1199.49 7.8 1197.19 10 1194.49 10ZM1194.49 1C1192.29 1 1190.49 2.8 1190.49 5C1190.49 7.2 1192.29 9 1194.49 9C1196.69 9 1198.49 7.2 1198.49 5C1198.49 2.8 1196.69 1 1194.49 1Z" fill="#C4C4C4"/>
<path d="M1251.6 30C1251.4 30 1251.2 30 1251 30C1236.5 30 1224.7 41.8 1224.7 56.3C1224.7 70.8 1236.5 82.6 1251 82.6C1251.2 82.6 1251.4 82.6 1251.6 82.6V30Z" fill="#F1D332"/>
</g>
<defs>
<clipPath id="clip0_5983_8323">
<rect width="232.9" height="157.6" fill="white" transform="translate(1108.89)"/>
</clipPath>
</defs>
</svg>
