<svg width="34" height="37" viewBox="0 0 34 37" fill="none" xmlns="http://www.w3.org/2000/svg">
<path d="M31.7656 6.40625L18.2656 0.78125C17.8438 0.640625 17.4219 0.570312 17 0.570312C16.5078 0.570312 16.0859 0.640625 15.6641 0.78125L2.16406 6.40625C0.898438 6.96875 0.125 8.16406 0.125 9.5C0.125 23.4922 8.14062 33.125 15.6641 36.2891C16.5078 36.6406 17.4219 36.6406 18.2656 36.2891C24.3125 33.7578 33.875 25.1094 33.875 9.5C33.875 8.16406 33.0312 6.96875 31.7656 6.40625ZM17 31.9297V5.14062L29.3047 10.2734C29.0938 20.8906 23.5391 28.625 17 31.9297Z" fill="#E84C3D"/>
</svg>
