<svg width="28" height="48" viewBox="0 0 28 48" fill="none" xmlns="http://www.w3.org/2000/svg">
<g clip-path="url(#clip0_6255_8607)">
<path d="M16.1953 40.3593V48.0001L18.4036 45.649L20.6118 48.0001V40.3593C19.8757 40.7511 19.1396 40.7511 18.4036 40.7511C17.6675 40.7511 16.9314 40.5552 16.1953 40.3593Z" fill="#E84C3D"/>
<path d="M22.0835 35.2653C22.0835 37.4204 20.4273 39.1837 18.4031 39.1837C16.3788 39.1837 14.7227 37.4204 14.7227 35.2653C14.7227 33.1102 16.3788 31.3469 18.4031 31.3469C20.4273 31.3469 22.0835 33.1102 22.0835 35.2653Z" fill="#E84C3D"/>
<path d="M20.6089 10.9714H27.9697L19.1367 0V9.40408C19.1367 10.3837 19.8728 10.9714 20.6089 10.9714Z" fill="#E84C3D"/>
<path d="M17.6659 0V9.40408C17.6659 11.1673 18.954 12.5388 20.6102 12.5388H27.971V39.1837C27.971 40.9469 26.6829 42.3184 25.0267 42.3184H22.0824V38.9878C23.0025 38.0082 23.5545 36.8327 23.5545 35.2653C23.5545 32.3265 21.1623 29.7796 18.402 29.7796C15.6417 29.7796 13.2494 32.3265 13.2494 35.2653C13.2494 36.6367 13.8015 38.0082 14.7216 38.9878V42.3184H2.94432C1.28814 42.3184 0 40.9469 0 39.1837V3.13469C0 1.37143 1.28814 0 2.94432 0H17.6659Z" fill="#E84C3D"/>
</g>
<defs>
<clipPath id="clip0_6255_8607">
<rect width="27.971" height="48" fill="white"/>
</clipPath>
</defs>
</svg>
