<svg width="36" height="35" viewBox="0 0 36 35" fill="none" xmlns="http://www.w3.org/2000/svg">
<path d="M18 34.9375C27.6328 34.9375 35.4375 27.1328 35.4375 17.5C35.4375 7.86719 27.6328 0.0625 18 0.0625C8.36719 0.0625 0.5625 7.86719 0.5625 17.5C0.5625 27.1328 8.36719 34.9375 18 34.9375ZM19.9688 24.8828C20.6719 25.5156 20.6719 26.6406 20.0391 27.2734L19.2656 28.0469C18.6328 28.6797 17.5078 28.6797 16.875 28.0469L7.52344 18.6953C6.89062 18.0625 6.89062 17.0078 7.52344 16.3047L16.875 7.02344C17.5078 6.32031 18.5625 6.32031 19.2656 7.02344L20.0391 7.79688C20.6719 8.42969 20.6719 9.55469 19.9688 10.1875L14.6953 15.25H27.5625C28.4766 15.25 29.25 16.0234 29.25 16.9375V18.0625C29.25 19.0469 28.4766 19.75 27.5625 19.75H14.6953L19.9688 24.8828Z" fill="#E84C3D"/>
</svg>
