<svg width="36" height="35" viewBox="0 0 36 35" fill="none" xmlns="http://www.w3.org/2000/svg">
<path d="M18 0.0624984C8.36719 0.0624976 0.562502 7.86718 0.562502 17.5C0.562501 27.1328 8.36719 34.9375 18 34.9375C27.6328 34.9375 35.4375 27.1328 35.4375 17.5C35.4375 7.86719 27.6328 0.0624993 18 0.0624984ZM16.0313 10.1172C15.3281 9.48437 15.3281 8.35937 15.9609 7.72656L16.7344 6.95312C17.3672 6.32031 18.4922 6.32031 19.125 6.95312L28.4766 16.3047C29.1094 16.9375 29.1094 17.9922 28.4766 18.6953L19.125 27.9766C18.4922 28.6797 17.4375 28.6797 16.7344 27.9766L15.9609 27.2031C15.3281 26.5703 15.3281 25.4453 16.0313 24.8125L21.3047 19.75L8.4375 19.75C7.52344 19.75 6.75 18.9766 6.75 18.0625L6.75 16.9375C6.75 15.9531 7.52344 15.25 8.4375 15.25L21.3047 15.25L16.0313 10.1172Z" fill="#E84C3D"/>
</svg>
