<svg width="403" height="151" viewBox="0 0 403 151" fill="none" xmlns="http://www.w3.org/2000/svg">
<path d="M90.5853 135.62C123.843 127.234 144.006 93.4759 135.62 60.2182C127.235 26.9605 93.4761 6.79766 60.2184 15.1832C26.9607 23.5688 6.79786 57.3274 15.1834 90.5851C23.569 123.843 57.3276 144.006 90.5853 135.62Z" fill="#F1D332"/>
<path d="M359.992 90.3077C359.892 89.5077 360.592 88.7077 361.392 88.7077C362.192 88.6077 362.992 89.2077 362.992 90.1077C363.092 90.9077 362.392 91.7077 361.592 91.7077H361.492C360.792 91.7077 360.092 91.1077 359.992 90.3077ZM353.392 91.6077C352.592 91.5077 351.992 90.8077 352.092 90.0077C352.192 89.2077 352.892 88.6077 353.692 88.7077C354.492 88.8077 355.092 89.5077 354.992 90.3077C354.892 91.1077 354.292 91.7077 353.492 91.7077C353.492 91.6077 353.492 91.6077 353.392 91.6077ZM367.992 89.2077C367.792 88.4077 368.192 87.6077 368.992 87.3077C369.792 87.1077 370.592 87.5077 370.792 88.3077C370.992 89.1077 370.592 89.9077 369.792 90.2077C369.692 90.2077 369.492 90.2077 369.392 90.2077C368.692 90.3077 368.092 89.8077 367.992 89.2077ZM345.292 90.0077C344.492 89.8077 344.092 88.9077 344.292 88.1077C344.492 87.3077 345.392 86.9077 346.192 87.1077C346.992 87.3077 347.392 88.2077 347.192 89.0077C346.992 89.7077 346.392 90.1077 345.792 90.1077C345.592 90.1077 345.392 90.0077 345.292 90.0077ZM375.492 86.6077C375.092 85.9077 375.392 85.0077 376.192 84.6077C376.892 84.2077 377.792 84.5077 378.192 85.3077C378.592 86.0077 378.292 86.9077 377.492 87.3077C377.292 87.4077 377.092 87.4077 376.792 87.4077C376.292 87.5077 375.792 87.1077 375.492 86.6077ZM337.592 86.9077C336.892 86.5077 336.592 85.6077 336.992 84.9077C337.392 84.2077 338.292 83.9077 338.992 84.3077C339.692 84.7077 339.992 85.6077 339.592 86.3077C339.292 86.8077 338.792 87.1077 338.292 87.1077C338.092 87.1077 337.792 87.0077 337.592 86.9077ZM382.492 82.7077C381.992 82.0077 382.092 81.1077 382.792 80.6077C383.492 80.1077 384.392 80.2077 384.892 80.9077C385.392 81.6077 385.292 82.5077 384.592 83.0077C384.292 83.2077 383.992 83.3077 383.692 83.3077C383.192 83.3077 382.792 83.1077 382.492 82.7077ZM330.692 82.5077C329.992 82.0077 329.892 81.1077 330.392 80.4077C330.892 79.8077 331.892 79.6077 332.492 80.1077C333.192 80.6077 333.292 81.5077 332.792 82.2077C332.492 82.6077 332.092 82.8077 331.592 82.8077C331.292 82.8077 330.892 82.7077 330.692 82.5077ZM388.592 77.5077C387.992 76.9077 387.992 76.0077 388.492 75.4077C389.092 74.8077 389.992 74.8077 390.592 75.3077C391.192 75.9077 391.192 76.8077 390.692 77.4077C390.392 77.7077 389.992 77.9077 389.592 77.9077C389.292 77.9077 388.892 77.8077 388.592 77.5077ZM324.592 76.8077C323.992 76.2077 324.092 75.2077 324.692 74.7077C325.292 74.2077 326.292 74.2077 326.792 74.8077C327.392 75.4077 327.292 76.4077 326.692 76.9077C326.392 77.1077 326.092 77.3077 325.692 77.3077C325.292 77.3077 324.892 77.1077 324.592 76.8077ZM393.692 71.4077C392.992 71.0077 392.792 70.0077 393.192 69.3077C393.592 68.6077 394.592 68.4077 395.292 68.8077C395.992 69.2077 396.192 70.2077 395.792 70.9077C395.492 71.4077 394.992 71.6077 394.492 71.6077C394.192 71.6077 393.892 71.5077 393.692 71.4077ZM319.792 70.1077C319.392 69.4077 319.592 68.5077 320.292 68.0077C320.992 67.6077 321.892 67.8077 322.392 68.5077C322.792 69.2077 322.592 70.1077 321.892 70.6077C321.692 70.7077 321.392 70.8077 321.092 70.8077C320.492 70.9077 319.992 70.6077 319.792 70.1077ZM397.492 64.3077C396.692 64.0077 396.392 63.1077 396.592 62.4077C396.892 61.6077 397.792 61.3077 398.492 61.5077C399.292 61.8077 399.692 62.7077 399.392 63.4077C399.192 64.0077 398.592 64.4077 397.992 64.4077C397.892 64.5077 397.692 64.4077 397.492 64.3077ZM316.192 62.7077C315.892 61.9077 316.292 61.1077 317.092 60.8077C317.892 60.5077 318.692 60.9077 318.992 61.7077C319.292 62.5077 318.892 63.3077 318.092 63.6077C317.892 63.7077 317.792 63.7077 317.592 63.7077C316.992 63.6077 316.392 63.3077 316.192 62.7077ZM399.992 56.7077C399.192 56.6077 398.592 55.8077 398.792 54.9077C398.892 54.1077 399.692 53.6077 400.592 53.7077C401.392 53.9077 401.992 54.6077 401.792 55.5077C401.692 56.2077 400.992 56.7077 400.292 56.7077C400.192 56.8077 400.092 56.8077 399.992 56.7077ZM314.092 54.7077C313.992 53.9077 314.492 53.1077 315.292 53.0077C316.092 52.9077 316.892 53.4077 316.992 54.2077C317.092 55.0077 316.592 55.8077 315.792 55.9077C315.692 55.9077 315.592 55.9077 315.592 55.9077C314.792 55.9077 314.192 55.4077 314.092 54.7077ZM399.492 47.3077C399.492 46.5077 400.192 45.8077 400.992 45.8077C401.792 45.8077 402.492 46.5077 402.492 47.3077C402.492 48.1077 401.792 48.8077 400.992 48.8077C400.092 48.8077 399.492 48.2077 399.492 47.3077ZM314.992 48.0077C314.192 48.0077 313.492 47.3077 313.492 46.5077C313.492 45.7077 314.192 45.0077 314.992 45.0077C315.792 45.0077 316.492 45.7077 316.492 46.5077C316.492 47.3077 315.792 48.0077 314.992 48.0077ZM398.992 41.3077C398.892 40.5077 399.392 39.7077 400.292 39.6077C401.092 39.5077 401.892 40.1077 401.992 40.9077C402.092 41.7077 401.592 42.5077 400.692 42.6077C400.592 42.6077 400.592 42.6077 400.492 42.6077C399.792 42.6077 399.092 42.0077 398.992 41.3077ZM315.592 40.0077C314.792 39.8077 314.292 39.0077 314.392 38.2077C314.592 37.4077 315.392 36.9077 316.192 37.0077C316.992 37.2077 317.492 38.0077 317.392 38.8077C317.292 39.5077 316.592 40.0077 315.892 40.0077C315.792 40.0077 315.692 40.0077 315.592 40.0077ZM397.192 33.8077C396.892 33.0077 397.292 32.2077 398.092 31.9077C398.892 31.6077 399.692 32.0077 399.992 32.8077C400.292 33.6077 399.892 34.4077 399.092 34.7077C398.892 34.8077 398.792 34.8077 398.592 34.8077C397.992 34.8077 397.392 34.4077 397.192 33.8077ZM317.592 32.3077C316.792 32.0077 316.492 31.1077 316.792 30.3077C317.092 29.5077 317.992 29.2077 318.792 29.5077C319.592 29.8077 319.892 30.7077 319.592 31.5077C319.392 32.1077 318.792 32.4077 318.192 32.4077C317.992 32.4077 317.792 32.4077 317.592 32.3077ZM393.992 26.8077C393.592 26.1077 393.792 25.2077 394.592 24.7077C395.292 24.3077 396.192 24.5077 396.592 25.3077C396.992 26.0077 396.792 26.9077 395.992 27.4077C395.792 27.5077 395.492 27.6077 395.292 27.6077C394.792 27.5077 394.292 27.3077 393.992 26.8077ZM321.092 25.1077C320.392 24.6077 320.192 23.7077 320.692 23.0077C321.092 22.3077 322.092 22.1077 322.792 22.6077C323.492 23.1077 323.692 24.0077 323.192 24.7077C322.892 25.1077 322.392 25.4077 321.892 25.4077C321.692 25.3077 321.392 25.3077 321.092 25.1077ZM389.592 20.5077C389.092 19.9077 389.092 18.9077 389.792 18.4077C390.392 17.9077 391.392 17.9077 391.892 18.6077C392.392 19.2077 392.392 20.2077 391.692 20.7077C391.392 20.9077 391.092 21.1077 390.692 21.1077C390.292 21.0077 389.892 20.8077 389.592 20.5077ZM325.892 18.7077C325.292 18.1077 325.292 17.2077 325.792 16.6077C326.392 16.0077 327.292 16.0077 327.892 16.6077C328.492 17.2077 328.492 18.1077 327.892 18.7077C327.592 19.0077 327.192 19.2077 326.792 19.2077C326.492 19.1077 326.192 18.9077 325.892 18.7077ZM384.092 15.1077C383.492 14.6077 383.392 13.6077 383.892 13.0077C384.392 12.4077 385.392 12.3077 385.992 12.8077C386.592 13.3077 386.692 14.3077 386.192 14.9077C385.892 15.3077 385.492 15.4077 384.992 15.4077C384.692 15.4077 384.392 15.3077 384.092 15.1077ZM331.692 13.2077C331.192 12.5077 331.392 11.6077 332.092 11.1077C332.792 10.6077 333.692 10.8077 334.192 11.4077C334.692 12.1077 334.492 13.0077 333.792 13.5077C333.492 13.7077 333.192 13.8077 332.892 13.8077C332.492 13.8077 331.992 13.6077 331.692 13.2077ZM377.692 10.8077C376.992 10.4077 376.692 9.50771 377.092 8.80771C377.492 8.10771 378.392 7.80772 379.092 8.20772C379.792 8.60772 380.092 9.50772 379.692 10.2077C379.392 10.7077 378.892 11.0077 378.392 11.0077C378.192 11.0077 377.892 10.9077 377.692 10.8077ZM338.492 8.90771C338.092 8.10771 338.492 7.30771 339.192 6.90771C339.992 6.60771 340.792 6.90771 341.192 7.60771C341.492 8.40771 341.192 9.20771 340.492 9.60771C340.292 9.70771 340.092 9.70772 339.892 9.70772C339.292 9.80772 338.692 9.50771 338.492 8.90771ZM370.592 7.80771C369.792 7.60771 369.392 6.70771 369.592 5.90771C369.792 5.10771 370.692 4.70771 371.492 4.90771C372.292 5.10771 372.692 6.00771 372.492 6.80771C372.292 7.40771 371.692 7.80771 371.092 7.80771C370.892 7.80771 370.692 7.80771 370.592 7.80771ZM345.892 6.00771C345.692 5.20771 346.192 4.40771 346.992 4.20771C347.792 4.00771 348.592 4.50771 348.792 5.30771C348.992 6.10771 348.492 6.90771 347.692 7.10771C347.592 7.10771 347.492 7.10771 347.292 7.10771C346.692 7.10771 346.092 6.70771 345.892 6.00771ZM363.092 6.10771C362.292 6.00771 361.692 5.30771 361.792 4.40771C361.892 3.60771 362.692 3.00771 363.492 3.10771C364.292 3.20771 364.892 4.00771 364.792 4.80771C364.692 5.60771 364.092 6.10771 363.292 6.10771C363.192 6.10771 363.092 6.10771 363.092 6.10771ZM353.792 4.50771C353.792 3.70771 354.392 3.00771 355.192 2.90771C355.992 2.90771 356.692 3.50771 356.792 4.30771C356.892 5.10771 356.192 5.80771 355.392 5.90771H355.292C354.492 5.90771 353.792 5.30771 353.792 4.50771Z" fill="#C94D3F"/>
<path d="M71.4115 78.2704L44.8115 58.6704C40.5115 55.5704 39.6115 49.4704 42.8115 45.2704C45.9115 40.9704 52.0115 40.0704 56.2115 43.2704L71.2115 54.3704C74.6115 56.8704 79.3115 56.8704 82.7115 54.2704L105.212 37.1704C108.612 34.5704 113.312 34.5704 116.712 37.0704L139.512 53.6704C142.912 56.1704 147.612 56.1704 151.012 53.5704L173.412 36.4704C176.812 33.8704 181.512 33.8704 184.912 36.3704L207.712 53.1704C211.112 55.6704 215.812 55.6704 219.212 53.0704L241.712 35.8704C245.112 33.2704 249.812 33.2704 253.212 35.7704L279.812 55.3704C284.112 58.4704 285.012 64.5704 281.812 68.7704C278.712 73.0704 272.612 73.9704 268.412 70.7704L253.412 59.6704C250.012 57.1704 245.312 57.1704 241.912 59.7704L219.412 76.9704C216.012 79.5704 211.312 79.5704 207.912 77.0704L185.112 60.2704C181.712 57.7704 177.012 57.7704 173.612 60.3704L151.112 77.4704C147.712 80.0704 143.012 80.0704 139.612 77.5704L116.912 60.8704C113.512 58.3704 108.812 58.3704 105.412 60.9704L82.9115 78.0704C79.5115 80.7704 74.8115 80.7704 71.4115 78.2704Z" stroke="#C4C4C4" stroke-miterlimit="10"/>
</svg>
