<svg width="43" height="38" viewBox="0 0 43 38" fill="none" xmlns="http://www.w3.org/2000/svg">
<path d="M41.3038 32.5078L24.4288 3.1875C23.1631 1.00781 19.8584 0.9375 18.5928 3.1875L1.71782 32.5078C0.452194 34.6875 2.06938 37.5 4.67094 37.5H38.3506C40.9522 37.5 42.5694 34.7578 41.3038 32.5078ZM21.5459 26.3906C23.3038 26.3906 24.7803 27.8672 24.7803 29.625C24.7803 31.4531 23.3038 32.8594 21.5459 32.8594C19.7178 32.8594 18.3116 31.4531 18.3116 29.625C18.3116 27.8672 19.7178 26.3906 21.5459 26.3906ZM18.4522 14.7891C18.3819 14.2969 18.8038 13.875 19.2959 13.875H23.7256C24.2178 13.875 24.6397 14.2969 24.5694 14.7891L24.0772 24.3516C24.0069 24.8438 23.6553 25.125 23.2334 25.125H19.7881C19.3663 25.125 19.0147 24.8438 18.9444 24.3516L18.4522 14.7891Z" fill="#F1D332"/>
</svg>
