<svg width="18" height="25" viewBox="0 0 18 25" fill="none" xmlns="http://www.w3.org/2000/svg">
<path d="M10.5 6.61035V0.235352H1.125C0.46875 0.235352 0 0.750977 0 1.36035V23.1104C0 23.7666 0.46875 24.2354 1.125 24.2354H16.875C17.4844 24.2354 18 23.7666 18 23.1104V7.73535H11.625C10.9688 7.73535 10.5 7.2666 10.5 6.61035ZM14.0625 16.5479L9.5625 21.0479C9.23438 21.3291 8.71875 21.3291 8.39062 21.0479L3.89062 16.5479C3.42188 16.0791 3.75 15.2354 4.40625 15.2354H7.5V11.4854C7.5 11.1104 7.82812 10.7354 8.25 10.7354H9.75C10.125 10.7354 10.5 11.1104 10.5 11.4854V15.2354H13.5469C14.2031 15.2354 14.5312 16.0791 14.0625 16.5479ZM17.6719 5.15723L13.0781 0.563477C12.8438 0.375977 12.5625 0.235352 12.2812 0.235352H12V6.23535H18V5.9541C18 5.67285 17.8594 5.3916 17.6719 5.15723Z" fill="#E84C3D"/>
</svg>
