<svg width="19" height="19" viewBox="0 0 19 19" fill="none" xmlns="http://www.w3.org/2000/svg">
<path fill-rule="evenodd" clip-rule="evenodd" d="M16.8068 2.65234H2.60352V16.8556H3.48438L12.4607 9.00133L13.0707 8.46755L13.7192 8.95391L16.8068 11.2696V2.65234ZM16.8068 16.8556H6.52156L13.1677 11.0403L16.8068 13.7696V16.8556ZM2.60352 0.652344H0.603516V2.65234V16.8556V18.8556H2.60352H16.8068H18.8068V16.8556V2.65234V0.652344H16.8068H2.60352ZM7.70415 6.91067C7.70415 7.37694 7.32616 7.75493 6.85989 7.75493C6.39361 7.75493 6.01562 7.37694 6.01562 6.91067C6.01562 6.4444 6.39361 6.06641 6.85989 6.06641C7.32616 6.06641 7.70415 6.4444 7.70415 6.91067ZM9.70415 6.91067C9.70415 8.48151 8.43073 9.75493 6.85989 9.75493C5.28904 9.75493 4.01562 8.48151 4.01562 6.91067C4.01562 5.33983 5.28904 4.06641 6.85989 4.06641C8.43073 4.06641 9.70415 5.33983 9.70415 6.91067Z" fill="#E84C3D"/>
</svg>
