<svg width="14" height="19" viewBox="0 0 14 19" fill="none" xmlns="http://www.w3.org/2000/svg">
<path d="M12.9727 3.69531L10.0547 0.742188C9.73828 0.425781 9.28125 0.25 8.85938 0.25H1.6875C0.738281 0.25 0 1.02344 0 1.9375V16.5625C0 17.5117 0.738281 18.25 1.6875 18.25H11.8125C12.7266 18.25 13.5 17.5117 13.5 16.5625V4.89062C13.5 4.46875 13.2891 4.01172 12.9727 3.69531ZM11.6719 4.75H9V2.07812L11.6719 4.75ZM1.6875 16.5625V1.9375H7.3125V5.59375C7.3125 6.08594 7.66406 6.4375 8.15625 6.4375H11.8125V16.5625H1.6875ZM2.8125 14.875H10.6875V10.375L9.84375 9.56641C9.66797 9.39062 9.42188 9.39062 9.24609 9.56641L6.1875 12.625L4.78125 11.2539C4.60547 11.0781 4.35938 11.0781 4.18359 11.2539L2.8125 12.625V14.875ZM4.5 6.4375C3.55078 6.4375 2.8125 7.21094 2.8125 8.125C2.8125 9.07422 3.55078 9.8125 4.5 9.8125C5.41406 9.8125 6.1875 9.07422 6.1875 8.125C6.1875 7.21094 5.41406 6.4375 4.5 6.4375Z" fill="#E84C3D"/>
</svg>
