<svg width="15" height="15" viewBox="0 0 15 15" fill="none" xmlns="http://www.w3.org/2000/svg">
<path d="M13.5664 14.4805L14.2227 11.6367C14.3047 11.3359 14.1406 11.0078 13.8398 10.8711L10.7773 9.55859C10.5039 9.44922 10.2031 9.53125 10.0117 9.75L8.64453 11.418C6.56641 10.4336 4.81641 8.71094 3.80469 6.57812L5.47266 5.21094C5.69141 5.01953 5.77344 4.71875 5.66406 4.44531L4.35156 1.38281C4.21484 1.08203 3.88672 0.945312 3.58594 1L0.742187 1.65625C0.441406 1.73828 0.25 1.98437 0.25 2.3125C0.25 9.3125 5.91016 15 12.9375 15C13.2383 15 13.4844 14.7812 13.5664 14.4805Z" fill="#E84C3D"/>
</svg>
