<svg xmlns="http://www.w3.org/2000/svg" xmlns:xlink="http://www.w3.org/1999/xlink">
   <symbol viewBox="0 0 9 13" width="9" height="13" fill="none" id="link">
      <path d="M5.25 3.6875V0.5H0.5625C0.234375 0.5 0 0.757812 0 1.0625V11.9375C0 12.2656 0.234375 12.5 0.5625 12.5H8.4375C8.74219 12.5 9 12.2656 9 11.9375V4.25H5.8125C5.48438 4.25 5.25 4.01562 5.25 3.6875ZM7.03125 8.65625L4.78125 10.9062C4.61719 11.0469 4.35938 11.0469 4.19531 10.9062L1.94531 8.65625C1.71094 8.42188 1.875 8 2.20312 8H3.75V6.125C3.75 5.9375 3.91406 5.75 4.125 5.75H4.875C5.0625 5.75 5.25 5.9375 5.25 6.125V8H6.77344C7.10156 8 7.26562 8.42188 7.03125 8.65625ZM8.83594 2.96094L6.53906 0.664062C6.42188 0.570312 6.28125 0.5 6.14062 0.5H6V3.5H9V3.35938C9 3.21875 8.92969 3.07812 8.83594 2.96094Z" fill="#E84C3D"/>
   </symbol>
   <symbol width="15" height="15" viewBox="0 0 15 15" fill="none" id="phone">
      <path d="M13.5664 14.4805L14.2227 11.6367C14.3047 11.3359 14.1406 11.0078 13.8398 10.8711L10.7773 9.55859C10.5039 9.44922 10.2031 9.53125 10.0117 9.75L8.64453 11.418C6.56641 10.4336 4.81641 8.71094 3.80469 6.57812L5.47266 5.21094C5.69141 5.01953 5.77344 4.71875 5.66406 4.44531L4.35156 1.38281C4.21484 1.08203 3.88672 0.945312 3.58594 1L0.742187 1.65625C0.441406 1.73828 0.25 1.98437 0.25 2.3125C0.25 9.3125 5.91016 15 12.9375 15C13.2383 15 13.4844 14.7812 13.5664 14.4805Z" fill="#E84C3D"/>
   </symbol>
   <sybmol width="14" height="19" viewBox="0 0 14 19" fill="none" id="image">
      <path d="M12.9727 3.69531L10.0547 0.742188C9.73828 0.425781 9.28125 0.25 8.85938 0.25H1.6875C0.738281 0.25 0 1.02344 0 1.9375V16.5625C0 17.5117 0.738281 18.25 1.6875 18.25H11.8125C12.7266 18.25 13.5 17.5117 13.5 16.5625V4.89062C13.5 4.46875 13.2891 4.01172 12.9727 3.69531ZM11.6719 4.75H9V2.07812L11.6719 4.75ZM1.6875 16.5625V1.9375H7.3125V5.59375C7.3125 6.08594 7.66406 6.4375 8.15625 6.4375H11.8125V16.5625H1.6875ZM2.8125 14.875H10.6875V10.375L9.84375 9.56641C9.66797 9.39062 9.42188 9.39062 9.24609 9.56641L6.1875 12.625L4.78125 11.2539C4.60547 11.0781 4.35938 11.0781 4.18359 11.2539L2.8125 12.625V14.875ZM4.5 6.4375C3.55078 6.4375 2.8125 7.21094 2.8125 8.125C2.8125 9.07422 3.55078 9.8125 4.5 9.8125C5.41406 9.8125 6.1875 9.07422 6.1875 8.125C6.1875 7.21094 5.41406 6.4375 4.5 6.4375Z" fill="#E84C3D"/>
   </sybmol>
   <sybmol width="14" height="19" viewBox="0 0 14 19" fill="none" id="document">
      <path d="M7.875 5.03125V0.25H0.84375C0.351562 0.25 0 0.636719 0 1.09375V17.4062C0 17.8984 0.351562 18.25 0.84375 18.25H12.6562C13.1133 18.25 13.5 17.8984 13.5 17.4062V5.875H8.71875C8.22656 5.875 7.875 5.52344 7.875 5.03125ZM10.125 13.3281C10.125 13.5742 9.91406 13.75 9.70312 13.75H3.79688C3.55078 13.75 3.375 13.5742 3.375 13.3281V13.0469C3.375 12.8359 3.55078 12.625 3.79688 12.625H9.70312C9.91406 12.625 10.125 12.8359 10.125 13.0469V13.3281ZM10.125 11.0781C10.125 11.3242 9.91406 11.5 9.70312 11.5H3.79688C3.55078 11.5 3.375 11.3242 3.375 11.0781V10.7969C3.375 10.5859 3.55078 10.375 3.79688 10.375H9.70312C9.91406 10.375 10.125 10.5859 10.125 10.7969V11.0781ZM10.125 8.54688V8.82812C10.125 9.07422 9.91406 9.25 9.70312 9.25H3.79688C3.55078 9.25 3.375 9.07422 3.375 8.82812V8.54688C3.375 8.33594 3.55078 8.125 3.79688 8.125H9.70312C9.91406 8.125 10.125 8.33594 10.125 8.54688ZM13.5 4.53906C13.5 4.32812 13.3945 4.11719 13.2539 3.94141L9.80859 0.496094C9.63281 0.355469 9.42188 0.25 9.21094 0.25H9V4.75H13.5V4.53906Z" fill="#E84C3D"/>
   </sybmol>
   <sybmol width="10" height="17" viewBox="0 0 10 17" fill="none" id="symbol">
      <path d="M5 0L9.33013 7.5H0.669873L5 0Z" fill="#E84C3D"/>
      <path d="M5 17L0.669873 9.5L9.33013 9.5L5 17Z" fill="#459537"/>
   </sybmol>





   <sybmol viewBox="0 0 18 25" id="footer">
      <path d="M10.5 6.61035V0.235352H1.125C0.46875 0.235352 0 0.750977 0 1.36035V23.1104C0 23.7666 0.46875 24.2354 1.125 24.2354H16.875C17.4844 24.2354 18 23.7666 18 23.1104V7.73535H11.625C10.9688 7.73535 10.5 7.2666 10.5 6.61035ZM14.0625 16.5479L9.5625 21.0479C9.23438 21.3291 8.71875 21.3291 8.39062 21.0479L3.89062 16.5479C3.42188 16.0791 3.75 15.2354 4.40625 15.2354H7.5V11.4854C7.5 11.1104 7.82812 10.7354 8.25 10.7354H9.75C10.125 10.7354 10.5 11.1104 10.5 11.4854V15.2354H13.5469C14.2031 15.2354 14.5312 16.0791 14.0625 16.5479ZM17.6719 5.15723L13.0781 0.563477C12.8438 0.375977 12.5625 0.235352 12.2812 0.235352H12V6.23535H18V5.9541C18 5.67285 17.8594 5.3916 17.6719 5.15723Z" fill="#E84C3D"/>
   </sybmol>


   <sybmol id="advantage" viewBox="0 0 47 74">
      <path d="M6.89206 28.5692H41.7073C42.2011 28.5692 42.6013 28.169 42.6013 27.6752C42.6013 27.1813 42.2011 26.7812 41.7073 26.7812H6.89206C6.39823 26.7812 5.99805 27.1813 5.99805 27.6752C5.99805 28.169 6.39823 28.5692 6.89206 28.5692Z" fill="#3D5A9B"/>
      <path d="M42.6013 33.6351C42.6013 33.1413 42.2011 32.7411 41.7073 32.7411H6.89206C6.39823 32.7411 5.99805 33.1413 5.99805 33.6351C5.99805 34.129 6.39823 34.5291 6.89206 34.5291H41.7073C42.2011 34.5291 42.6013 34.129 42.6013 33.6351Z" fill="#3D5A9B"/>
      <path d="M13.2501 24.5177C14.92 24.5177 16.5361 23.9275 17.8128 22.8516C19.0899 21.775 19.9456 20.2824 20.2287 18.6369C20.5118 16.9909 20.2042 15.2981 19.3602 13.8571L14.0216 4.74389C13.8609 4.47036 13.5671 4.30167 13.25 4.30167C12.9328 4.30167 12.6391 4.47036 12.4783 4.74389L7.13972 13.8571C6.89546 14.2828 7.03967 14.8256 7.46327 15.0741C7.88633 15.3221 8.43072 15.1821 8.68243 14.7606L13.2498 6.96456L17.8173 14.7606C18.6501 16.1836 18.7725 17.9132 18.1483 19.4388C17.5241 20.965 16.2251 22.1129 14.6339 22.5439C13.0427 22.9755 11.3415 22.6408 10.0319 21.6388C8.72279 20.6367 7.95546 19.0822 7.956 17.4337C7.956 16.9399 7.55529 16.5397 7.06199 16.5397C6.56815 16.5397 6.16797 16.9399 6.16797 17.4337C6.16744 19.3122 6.91352 21.1136 8.24181 22.4424C9.57007 23.7706 11.3714 24.5172 13.2499 24.5177L13.2501 24.5177Z" fill="#935EF1"/>
      <path d="M14.3733 20.8133C14.4728 20.8133 14.5718 20.7968 14.6654 20.7638C16.1182 20.2609 17.1969 19.0285 17.5023 17.5219C17.5523 17.2883 17.5071 17.0446 17.3762 16.8445C17.2453 16.6449 17.0398 16.5055 16.8057 16.4581C16.5716 16.4108 16.3284 16.4587 16.1299 16.5922C15.9319 16.7253 15.7952 16.9323 15.7499 17.167C15.5701 18.053 14.9357 18.7778 14.0811 19.0742C13.6682 19.2163 13.4186 19.6362 13.491 20.0672C13.5633 20.4983 13.9364 20.8138 14.3733 20.8133H14.3733Z" fill="#935EF1"/>
      <path d="M23.2807 22.6092H41.706C42.1998 22.6092 42.6 22.209 42.6 21.7152C42.6 21.2214 42.1998 20.8212 41.706 20.8212H23.2807C22.7869 20.8212 22.3867 21.2214 22.3867 21.7152C22.3867 22.209 22.7869 22.6092 23.2807 22.6092Z" fill="#3D5A9B"/>
      <path d="M23.2807 16.6483H41.706C42.1998 16.6483 42.6 16.2481 42.6 15.7543C42.6 15.2604 42.1998 14.8603 41.706 14.8603H23.2807C22.7869 14.8603 22.3867 15.2604 22.3867 15.7543C22.3867 16.2481 22.7869 16.6483 23.2807 16.6483Z" fill="#3D5A9B"/>
      <path d="M23.2807 10.6893H41.706C42.1998 10.6893 42.6 10.2891 42.6 9.79529C42.6 9.30145 42.1998 8.90128 41.706 8.90128H23.2807C22.7869 8.90128 22.3867 9.30145 22.3867 9.79529C22.3867 10.2891 22.7869 10.6893 23.2807 10.6893Z" fill="#E84C3D"/>
      <path d="M46.8719 54.5945L46.6117 1.45216C46.6095 0.959917 46.2099 0.562408 45.7177 0.562408H2.73947C2.24563 0.562408 1.84545 0.962587 1.84545 1.45642V52.2175L0.331519 55.0884C-0.158068 56.0037 0.180915 57.1419 1.09143 57.6405L4.18061 59.3669C4.46585 59.5265 4.78726 59.6106 5.11401 59.6111C5.30079 59.6106 5.48652 59.5834 5.66532 59.5302C6.15969 59.386 6.57424 59.047 6.81424 58.5915L7.12715 58.0014L8.17761 58.8704L6.24272 61.5316C5.8053 62.1346 5.60573 62.8775 5.68396 63.6182C5.76218 64.3589 6.1118 65.0449 6.66524 65.543C7.21921 66.0411 7.93761 66.3167 8.68269 66.3167C8.84606 66.3162 9.00889 66.3029 9.17014 66.2768C9.28827 66.9787 9.65174 67.6162 10.1961 68.0755C10.74 68.5352 11.4291 68.7864 12.1411 68.7859C12.305 68.7854 12.4689 68.7721 12.6301 68.746C12.7477 69.4484 13.1107 70.0859 13.6545 70.5463C14.1984 71.0061 14.8881 71.2578 15.6 71.2567C15.7639 71.2562 15.9278 71.2429 16.0896 71.2162C16.2253 72.0017 16.6654 72.702 17.3141 73.165C17.9628 73.6275 18.7685 73.8158 19.555 73.6881C20.342 73.5604 21.046 73.1272 21.5155 72.4828L22.1115 71.6617L23.2407 72.5557C23.891 73.1043 24.7313 73.3768 25.5801 73.3124C26.4289 73.2486 27.2185 72.8537 27.7795 72.2135C28.185 71.75 28.4474 71.179 28.5341 70.5698C29.1253 70.739 29.7522 70.7363 30.3419 70.5618C30.9315 70.3873 31.4594 70.0488 31.8633 69.5853C32.2678 69.1213 32.5285 68.5497 32.6137 67.9399C33.2054 68.1102 33.8334 68.1081 34.4235 67.934C35.0142 67.7595 35.5426 67.4205 35.9477 66.9565C36.3271 66.5233 36.5814 65.9943 36.6831 65.427C37.3009 65.6558 37.973 65.692 38.611 65.5313C39.2496 65.3706 39.8238 65.0199 40.2591 64.5261L40.298 64.483L40.3081 64.4718C40.8584 63.8412 41.1329 63.0168 41.0712 62.183C41.01 61.3486 40.6168 60.5738 39.9803 60.0315L39.3114 59.4594C39.7669 59.1465 40.1836 58.7783 40.5502 58.3648C40.911 58.8421 41.4751 59.1231 42.0738 59.1226C42.3367 59.1226 42.5964 59.0688 42.838 58.9645L46.0889 57.5676C46.5657 57.3654 46.9398 56.9775 47.1239 56.4932C47.3086 56.0089 47.2873 55.4704 47.0659 55.0016L46.8719 54.5945ZM3.63352 2.34992H44.8284L45.0652 50.7746L39.185 38.3424C38.7502 37.433 37.6875 37.0126 36.7477 37.3782L33.4058 38.6835C32.9119 38.8746 32.5203 39.2625 32.3244 39.7548C32.1286 40.2465 32.1467 40.7978 32.3734 41.2762L32.706 41.9749L32.6384 42.0031C31.3735 42.2628 30.488 42.2245 29.174 41.8589L25.8348 40.9292C24.8386 40.6509 23.7832 40.6679 22.7961 40.9776L19.5734 41.9877C18.9349 42.1888 18.3394 42.5087 17.8189 42.9296C16.9866 42.6805 16.1138 42.5943 15.2486 42.6763L15.4493 42.2974C15.9176 41.4029 15.61 40.2986 14.7463 39.776L11.678 37.9263C11.2251 37.6528 10.6802 37.5777 10.171 37.7187C9.66117 37.8592 9.23226 38.2041 8.98481 38.6713L3.63406 48.8242L3.63352 2.34992ZM9.68831 64.0217C9.28813 64.5693 8.52236 64.6933 7.96948 64.3C7.70394 64.11 7.5246 63.8216 7.47192 63.4991C7.41924 63.1761 7.498 62.8462 7.68958 62.5812L10.899 58.1675C11.212 57.7344 11.7681 57.5524 12.2768 57.7163C12.7855 57.8797 13.1309 58.3522 13.1324 58.8865C13.133 59.1451 13.0505 59.3979 12.8978 59.607L9.68831 64.0217ZM13.1649 66.4685C13.1596 66.476 13.1537 66.4834 13.1484 66.492C12.7472 67.039 11.9809 67.163 11.428 66.7697C11.1624 66.5803 10.9836 66.2924 10.9315 65.9699C10.8788 65.648 10.9575 65.3186 11.1497 65.0546L13.4757 61.8543C13.7886 61.4216 14.3447 61.2402 14.8528 61.4046C15.361 61.5685 15.7053 62.0416 15.7059 62.5753C15.7064 62.8345 15.6244 63.0867 15.4717 63.2953L13.1649 66.4685ZM16.6234 68.9404C16.6181 68.9474 16.6128 68.9554 16.6075 68.9628C16.2062 69.5088 15.4415 69.6322 14.8892 69.2406C14.3411 68.8484 14.2123 68.0869 14.6007 67.5355L14.6172 67.5116L16.2099 65.3213C16.5228 64.8875 17.08 64.7045 17.5887 64.8684C18.098 65.0318 18.4439 65.5049 18.4455 66.0397C18.446 66.2983 18.3635 66.5505 18.2103 66.7586L16.6234 68.9404ZM21.0716 70.0111L20.0701 71.4309C19.6689 71.9796 18.901 72.1041 18.3465 71.7103C17.7995 71.3187 17.6707 70.5587 18.0581 70.008L18.073 69.9872L18.9473 68.7867C19.3167 68.2726 20.0154 68.1226 20.5635 68.4387C21.1116 68.7548 21.3313 69.4343 21.0716 70.0111ZM38.9642 63.2933L38.9217 63.3407C38.3954 63.9447 37.4817 64.0139 36.8702 63.4955L32.3053 59.5864C32.1212 59.4294 31.8823 59.3533 31.6412 59.3756C31.4007 59.398 31.1788 59.5172 31.0276 59.7056C30.7286 60.0978 30.7919 60.655 31.1713 60.97L34.4616 63.7893C34.7457 64.0341 34.9208 64.3821 34.9464 64.7567C34.9724 65.1308 34.8474 65.5001 34.5994 65.7817C34.3232 66.0977 33.9236 66.2787 33.5037 66.2776C33.1567 66.2797 32.8209 66.1563 32.558 65.9296L29.2751 63.1182C28.9058 62.7925 28.3455 62.8154 28.0044 63.1709C27.8415 63.3497 27.758 63.587 27.7734 63.8286C27.7883 64.0702 27.9006 64.2953 28.0842 64.4523L30.3618 66.4011C30.3703 66.409 30.3789 66.417 30.3879 66.4245C30.9653 66.9407 31.0222 67.824 30.5156 68.4099C30.1522 68.8239 29.5865 68.9985 29.0533 68.8601C28.8298 68.8 28.6234 68.6888 28.4499 68.536L26.1914 66.6022C25.9961 66.4346 25.738 66.359 25.4831 66.3952C25.2282 66.432 25.0015 66.5762 24.861 66.7917C24.6184 67.1791 24.6993 67.6862 25.0505 67.9789L26.2835 69.0368C26.5714 69.2806 26.7491 69.6302 26.7773 70.0064C26.805 70.3832 26.681 70.7552 26.4325 71.0393C25.9057 71.6364 24.9973 71.7013 24.3912 71.1851C24.3827 71.1777 24.3742 71.1702 24.3651 71.1638L22.9235 70.0224C23.0704 69.188 22.8581 68.3301 22.3392 67.6607C21.8204 66.9912 21.0424 66.5714 20.1978 66.5059C20.284 65.9535 20.2148 65.3884 19.9983 64.8733C19.7817 64.3582 19.4262 63.9133 18.9717 63.5882C18.5274 63.271 18.0048 63.0815 17.4604 63.0401C17.5466 62.4877 17.4774 61.922 17.2608 61.4064C17.0443 60.8907 16.6888 60.4453 16.2338 60.1196C15.8224 59.8259 15.3429 59.6407 14.8405 59.5816C15.0555 58.6685 14.8342 57.7079 14.2413 56.981C13.6485 56.2535 12.7518 55.8432 11.8142 55.8698C10.8771 55.8965 10.005 56.3573 9.45418 57.1167L9.2328 57.4211L7.98384 56.3876L8.53142 55.3547C8.75173 54.954 8.64211 54.4522 8.27492 54.1797C8.06472 54.0307 7.80077 53.9791 7.55013 54.0382C7.30003 54.0978 7.08716 54.2622 6.96635 54.49L5.23581 57.7547C5.21931 57.7851 5.19217 57.8069 5.15918 57.8159C5.12353 57.8271 5.08521 57.8229 5.05275 57.8053L1.96358 56.0784C1.90717 56.0486 1.88482 55.9789 1.91408 55.922L10.5658 39.5062C10.5823 39.4748 10.6121 39.4519 10.6467 39.4428C10.6829 39.4327 10.7218 39.438 10.7537 39.4577L13.822 41.3075C13.8763 41.3383 13.8971 41.4075 13.8683 41.4639L8.14771 52.2591C7.92793 52.6604 8.03809 53.1611 8.40527 53.4331C8.61547 53.5826 8.87942 53.6342 9.13006 53.5746C9.38017 53.515 9.59303 53.3506 9.71384 53.1228L14.1935 44.669C14.9497 44.4604 15.7378 44.396 16.5179 44.4785C16.428 44.6403 16.3465 44.8063 16.2742 44.9761L15.2891 47.3537C15.038 47.9604 14.8044 48.5872 14.5958 49.2184L13.6123 52.1926C13.4671 52.6311 13.6799 53.1079 14.103 53.2926L14.3116 53.3836C15.9198 54.1126 17.7886 53.97 19.2675 53.0052C20.5388 52.1751 21.3648 50.8133 21.5132 49.3025C21.518 49.2535 21.5222 49.2046 21.5259 49.1551C21.5664 48.9656 21.7899 48.0402 22.3593 47.7268C22.5062 47.6491 22.6764 47.6321 22.8356 47.6789L24.0255 48.011C24.5299 48.1515 24.9903 48.4181 25.3649 48.7842L38.8183 61.3898C39.0918 61.6218 39.2605 61.9534 39.2881 62.311C39.3158 62.668 39.1989 63.0225 38.9642 63.2933ZM45.4539 55.8554C45.4416 55.8873 45.4166 55.9123 45.3847 55.9246L42.1322 57.322C42.0678 57.3502 41.9922 57.3241 41.9603 57.2608L37.7988 48.5155C37.587 48.0695 37.0533 47.8806 36.6073 48.0929C36.1614 48.3047 35.972 48.8385 36.1843 49.2844L39.6604 56.5882C39.2128 57.2752 38.604 57.8419 37.8872 58.24L26.6162 47.5076C26.0266 46.9307 25.3013 46.5114 24.5063 46.2895L22.9955 45.868C22.9162 45.8462 22.8348 45.8345 22.7523 45.8345C21.7156 45.8382 20.8322 46.414 20.2639 47.4564C20.0233 47.9045 19.852 48.3861 19.7562 48.8852L19.7328 49.129C19.6354 50.1028 19.1011 50.9793 18.2806 51.513C17.4797 52.0271 16.4989 52.1808 15.5788 51.9366L16.2919 49.7803C16.4872 49.1912 16.7049 48.6048 16.9395 48.0386L17.9214 45.6685C18.0922 45.2662 18.3375 44.9001 18.6451 44.5893C19.0522 44.1758 19.5545 43.8687 20.1079 43.6953L23.3306 42.6852C23.9878 42.4793 24.6913 42.4676 25.3549 42.6528L28.6942 43.5824C30.3114 44.0326 31.5034 44.0741 33.0924 43.7357L33.4745 43.5915L35.0369 46.8749C35.2487 47.3203 35.7825 47.5103 36.2284 47.2985C36.6738 47.0862 36.8633 46.553 36.6515 46.107L33.9875 40.5077C33.9736 40.48 33.972 40.447 33.9838 40.4183C33.9971 40.3858 34.0226 40.3608 34.0556 40.3485L37.3975 39.0432C37.4624 39.0166 37.5364 39.0448 37.5678 39.107L45.45 55.7667C45.4633 55.7944 45.465 55.8266 45.4539 55.8554Z" fill="#3D5A9B"/>
   </sybmol>

   <sybmol id="adv-2" viewBox="0 0 75 76" fill="none">
      <path d="M74.7694 28.7762C74.7688 27.4956 74.2593 26.2675 73.3541 25.3624C72.4484 24.4566 71.2209 23.9477 69.9403 23.9471H66.7903V7.23305C67.4886 7.06003 68.1097 6.65872 68.5539 6.0923C68.998 5.52643 69.2398 4.82755 69.2409 4.10837C69.2404 3.25393 68.9005 2.43437 68.2963 1.83024C67.6921 1.22612 66.8732 0.886746 66.0188 0.88562H55.1264C54.2719 0.886747 53.4529 1.22661 52.8488 1.83081C52.2446 2.43444 51.9047 3.25394 51.9042 4.10836C51.9036 4.8281 52.1448 5.52754 52.5884 6.09402C53.0325 6.66102 53.6542 7.06231 54.353 7.23421V13.3664H45.5093C42.2235 13.3664 39.97 14.7782 38.6236 17.6831V17.6837C38.0735 18.8701 37.281 19.928 36.2964 20.7887C34.53 22.3386 32.2609 23.1942 29.9112 23.197H28.8318V21.9215C28.8307 21.0011 28.4644 20.1185 27.8134 19.4675C27.163 18.8171 26.2804 18.4507 25.36 18.4496H18.3576C17.4372 18.4507 16.5546 18.8171 15.9036 19.4675C15.2526 20.1185 14.8868 21.0011 14.8857 21.9215V40.9326C10.153 41.7431 5.95631 44.4513 3.26841 48.4298C0.581093 52.4084 -0.365277 57.3123 0.649917 62.0057C1.665 66.6983 4.55299 70.7733 8.64479 73.2859C12.7366 75.7985 17.6768 76.53 22.3215 75.3121C26.9658 74.0942 30.9115 71.032 33.2438 66.8348C35.576 62.6381 36.0923 57.6703 34.6737 53.083C37.6271 53.539 40.4592 54.5839 43.0005 56.1553C44.7719 57.2549 46.8016 57.9752 49.2042 58.358C51.4108 58.7097 53.7087 58.739 55.6892 58.739H67.7799C69.1258 58.7373 70.417 58.2019 71.369 57.25C72.321 56.2981 72.8564 55.0073 72.858 53.6608C72.862 52.3555 72.3581 51.0998 71.4535 50.1586C72.6213 49.7235 73.589 48.8758 74.1735 47.775C74.7586 46.6748 74.9198 45.3982 74.6273 44.187C74.3347 42.9758 73.6082 41.914 72.5853 41.2021C72.8181 41.0352 73.0368 40.8498 73.2391 40.648C74.3134 39.5743 74.8668 38.087 74.7558 36.5731C74.6448 35.0587 73.88 33.6676 72.6608 32.7631C73.9797 31.8641 74.7687 30.3711 74.7693 28.7755L74.7694 28.7762ZM54.1856 5.04548C53.9359 4.79748 53.7967 4.45988 53.7984 4.10818C53.7989 3.37436 54.3936 2.78031 55.1268 2.77918H66.0192C66.7519 2.78144 67.346 3.37492 67.3477 4.10818C67.3471 4.84144 66.7525 5.43606 66.0192 5.43662H55.1268C54.7734 5.43775 54.4341 5.29685 54.1856 5.04548ZM63.6978 18.3772H64.8971V23.9463L56.2474 23.9469V18.3772H60.5714C61.0945 18.3772 61.5183 17.9533 61.5183 17.4303C61.5183 16.9078 61.0945 16.4834 60.5714 16.4834H56.2474V7.33023H64.8971V16.4834H63.6978C63.1747 16.4834 62.7509 16.9078 62.7509 17.4303C62.7509 17.9533 63.1747 18.3772 63.6978 18.3772V18.3772ZM17.8466 74.0195C12.2302 74.0195 7.04037 71.0233 4.232 66.1593C1.42405 61.2953 1.42405 55.3024 4.232 50.4379C7.04052 45.5745 12.2303 42.5777 17.8466 42.5777C21.2566 42.567 24.5763 43.6762 27.2951 45.7339C29.5534 47.4322 31.3125 49.7068 32.3891 52.3193C34.3792 57.1691 33.8218 62.6915 30.9034 67.0465C27.9849 71.4011 23.0883 74.0157 17.8461 74.0184L17.8466 74.0195ZM69.941 31.7121L63.8302 31.7312V31.7307C63.3072 31.7307 62.8833 32.1545 62.8833 32.6776C62.8833 33.2006 63.3072 33.6244 63.8302 33.6244H69.5446C70.7344 33.6244 71.834 34.2596 72.4292 35.2899C73.0238 36.3202 73.0238 37.59 72.4292 38.6203C71.834 39.6512 70.7344 40.2858 69.5446 40.2858H63.8302C63.3072 40.2858 62.8833 40.7097 62.8833 41.2327C62.8833 41.7557 63.3072 42.1796 63.8302 42.1796H69.6726C70.5344 42.1604 71.3674 42.4896 71.9835 43.0921C72.6001 43.6946 72.9473 44.5203 72.9473 45.3826C72.9473 46.2444 72.6001 47.07 71.9835 47.6726C71.3675 48.2756 70.5344 48.6042 69.6726 48.585H61.2482C60.7257 48.585 60.3013 49.0089 60.3013 49.5319C60.3013 50.055 60.7257 50.4788 61.2482 50.4788H67.7805C68.9178 50.4788 69.969 51.0858 70.5376 52.071C71.1063 53.0562 71.1063 54.2696 70.5376 55.2548C69.9689 56.24 68.9177 56.8464 67.7805 56.8464H55.6903C53.7824 56.8464 51.5731 56.8188 49.5029 56.4891C47.3534 56.147 45.5531 55.5118 43.9997 54.548C40.9381 52.6543 37.4922 51.4678 33.9139 51.0745C32.7635 48.5219 31.0214 46.2793 28.8323 44.5331V33.6655C28.8323 33.1425 28.4084 32.7187 27.8854 32.7187C27.3624 32.7187 26.9385 33.1425 26.9385 33.6655V43.2132C24.1977 41.551 21.0521 40.6764 17.8468 40.6849C17.4923 40.6849 17.1366 40.6956 16.7799 40.7176V21.9229C16.781 21.0521 17.4872 20.3459 18.3581 20.3447H25.3604C26.2318 20.3458 26.9374 21.052 26.9386 21.9229V30.1939C26.9386 30.717 27.3624 31.1408 27.8855 31.1408C28.4085 31.1408 28.8323 30.717 28.8323 30.1939V25.0921H29.9117C32.7214 25.0893 35.4345 24.0664 37.5464 22.2132C38.7289 21.179 39.6814 19.9075 40.3414 18.4821C41.0369 16.9829 42.2526 15.2628 45.5091 15.2628H54.3528V23.8682C53.9166 23.7487 53.526 23.5007 53.2318 23.1569C52.9381 22.8125 52.755 22.3876 52.7059 21.9378C52.6806 21.6864 52.556 21.4553 52.3599 21.2964C52.1637 21.1374 51.9118 21.0636 51.661 21.0912C51.4096 21.1183 51.1797 21.2451 51.023 21.4429C50.8657 21.6408 50.7941 21.8933 50.8235 22.1441C50.9339 23.1608 51.4164 24.1009 52.1784 24.7835C52.9398 25.466 53.9273 25.8431 54.9503 25.842H69.9401C70.9884 25.842 71.9578 26.4011 72.482 27.3096C73.0061 28.2176 73.0061 29.3364 72.482 30.245C71.9578 31.153 70.9883 31.7127 69.9401 31.7127L69.941 31.7121Z" fill="#3D5A9B"/>
      <path d="M41.2818 21.8923C41.0896 21.7305 40.8416 21.6516 40.5914 21.6725C40.3411 21.6939 40.1095 21.8139 39.9477 22.0056C38.373 23.8718 36.3096 25.2615 33.9886 26.0196C33.4915 26.1825 33.2204 26.7174 33.3833 27.2139C33.5456 27.711 34.0805 27.9821 34.5776 27.8198C37.2327 26.9524 39.5938 25.3625 41.3951 23.2275C41.5574 23.0353 41.6363 22.7867 41.6154 22.5365C41.594 22.2857 41.474 22.054 41.2818 21.8923L41.2818 21.8923Z" fill="#E84C3D"/>
      <path d="M43.0304 18.6848C42.8027 18.5794 42.5418 18.5687 42.3062 18.6555C42.0706 18.7417 41.8784 18.9187 41.773 19.1464C41.6609 19.3882 41.5397 19.6294 41.4117 19.8639H41.4123C41.1621 20.3232 41.3323 20.8981 41.7916 21.1484C42.251 21.398 42.8259 21.2278 43.0761 20.7685C43.2226 20.4985 43.3624 20.2206 43.4915 19.9428C43.5969 19.7151 43.6081 19.4541 43.5213 19.2185C43.4351 18.9824 43.2581 18.7908 43.0304 18.6848L43.0304 18.6848Z" fill="#E84C3D"/>
      <path d="M18.6628 46.5666C18.4932 46.2769 18.1821 46.0982 17.8462 46.0982C17.5097 46.0982 17.1991 46.2769 17.0289 46.5666L10.5586 57.6106C9.55193 59.3291 9.18503 61.3479 9.52263 63.3105C9.86023 65.2731 10.881 67.0534 12.4039 68.3363C13.9262 69.6196 15.8537 70.3235 17.8456 70.3235C19.8369 70.3235 21.7644 69.6195 23.2873 68.3363C24.8097 67.0535 25.8304 65.2731 26.168 63.3105C26.5056 61.3479 26.1387 59.3291 25.1321 57.6106L18.6628 46.5666ZM22.4775 66.5112H22.478C20.963 68.0256 18.8032 68.703 16.6948 68.3266C14.5863 67.9501 12.7952 66.5664 11.8984 64.6219C11.0011 62.6769 11.1111 60.4163 12.1932 58.5675L17.8463 48.9184L23.4983 58.5675C24.231 59.8182 24.528 61.2762 24.3437 62.7134C24.1588 64.1512 23.5028 65.4865 22.4781 66.511L22.4775 66.5112Z" fill="#935EF1"/>
      <path d="M22.1235 60.8393C21.8777 60.7897 21.6218 60.8399 21.4127 60.9791C21.2036 61.1183 21.0582 61.3347 21.0086 61.581C20.7832 62.7015 19.9806 63.6185 18.9002 63.991C18.4053 64.1607 18.1416 64.6989 18.3112 65.1938C18.4803 65.6887 19.0191 65.9524 19.5134 65.7828C21.2313 65.1921 22.5073 63.7346 22.8657 61.9536C22.9683 61.4412 22.6363 60.9419 22.1235 60.8393L22.1235 60.8393Z" fill="#935EF1"/>
   </sybmol>

   <sybmol id="adv_1" viewBox="0 0 61 79">
      <path d="M6.6394 37.4698H6.27305C5.75001 37.4698 5.32617 37.8936 5.32617 38.4167C5.32617 38.9391 5.75001 39.3635 6.27305 39.3635H6.6394C7.16244 39.3635 7.58628 38.9391 7.58628 38.4167C7.58628 37.8936 7.16244 37.4698 6.6394 37.4698Z" fill="#3D5A9B"/>
      <path d="M13.0697 37.4698H10.2984C9.7754 37.4698 9.35156 37.8936 9.35156 38.4167C9.35156 38.9391 9.7754 39.3635 10.2984 39.3635H13.0697C13.5922 39.3635 14.0166 38.9391 14.0166 38.4167C14.0166 37.8936 13.5922 37.4698 13.0697 37.4698Z" fill="#3D5A9B"/>
      <path d="M36.6544 37.4697H16.7906C16.2676 37.4697 15.8438 37.8936 15.8438 38.4166C15.8438 38.9391 16.2676 39.3635 16.7906 39.3635H36.6544C37.1775 39.3635 37.6013 38.9391 37.6013 38.4166C37.6013 37.8936 37.1775 37.4697 36.6544 37.4697Z" fill="#3D5A9B"/>
      <path d="M6.63745 31.1592H6.27109C5.74806 31.1592 5.32422 31.583 5.32422 32.1061C5.32422 32.6285 5.74806 33.0529 6.27109 33.0529H6.63745C7.16048 33.0529 7.58432 32.6285 7.58432 32.1061C7.58432 31.583 7.16048 31.1592 6.63745 31.1592Z" fill="#3D5A9B"/>
      <path d="M13.0697 31.1592H10.2984C9.7754 31.1592 9.35156 31.583 9.35156 32.1061C9.35156 32.6285 9.7754 33.0529 10.2984 33.0529H13.0697C13.5922 33.0529 14.0166 32.6285 14.0166 32.1061C14.0166 31.583 13.5922 31.1592 13.0697 31.1592Z" fill="#3D5A9B"/>
      <path d="M15.8418 32.1051C15.8418 32.6276 16.2656 33.052 16.7887 33.052H36.6525C37.1755 33.052 37.5994 32.6276 37.5994 32.1051C37.5994 31.582 37.1755 31.1582 36.6525 31.1582H16.7887C16.2656 31.1582 15.8418 31.582 15.8418 32.1051Z" fill="#3D5A9B"/>
      <path d="M6.63745 43.7842H6.27109C5.74806 43.7842 5.32422 44.208 5.32422 44.7311C5.32422 45.2535 5.74806 45.6779 6.27109 45.6779H6.63745C7.16048 45.6779 7.58432 45.2535 7.58432 44.7311C7.58432 44.208 7.16048 43.7842 6.63745 43.7842Z" fill="#3D5A9B"/>
      <path d="M13.0697 43.7842H10.2984C9.7754 43.7842 9.35156 44.208 9.35156 44.7311C9.35156 45.2535 9.7754 45.6779 10.2984 45.6779H13.0697C13.5922 45.6779 14.0166 45.2535 14.0166 44.7311C14.0166 44.208 13.5922 43.7842 13.0697 43.7842Z" fill="#3D5A9B"/>
      <path d="M6.6394 50.0948H6.27305C5.75001 50.0948 5.32617 50.5186 5.32617 51.0417C5.32617 51.5641 5.75001 51.9885 6.27305 51.9885H6.6394C7.16244 51.9885 7.58628 51.5641 7.58628 51.0417C7.58628 50.5186 7.16244 50.0948 6.6394 50.0948Z" fill="#3D5A9B"/>
      <path d="M13.0697 50.0948H10.2984C9.7754 50.0948 9.35156 50.5186 9.35156 51.0417C9.35156 51.5641 9.7754 51.9885 10.2984 51.9885H13.0697C13.5922 51.9885 14.0166 51.5641 14.0166 51.0417C14.0166 50.5186 13.5922 50.0948 13.0697 50.0948Z" fill="#3D5A9B"/>
      <path d="M9.54896 25.3485C10.5607 25.043 11.3626 24.2686 11.7037 23.2682C12.0442 22.2672 11.8813 21.1642 11.2664 20.3047C10.6509 19.4452 9.65888 18.9357 8.60213 18.9357C8.04246 18.9357 7.53802 18.5992 7.32385 18.0824C7.1091 17.5656 7.22747 16.9704 7.62256 16.5747C8.01822 16.1791 8.61284 16.0602 9.12963 16.2738C9.64702 16.488 9.98407 16.9918 9.98463 17.5515C9.98463 18.0745 10.4085 18.4984 10.9315 18.4984C11.454 18.4984 11.8784 18.0745 11.8784 17.5515C11.8773 16.8481 11.6501 16.1639 11.2308 15.5992C10.8115 15.035 10.2219 14.6202 9.54899 14.4161V13.941C9.54899 13.418 9.12515 12.9941 8.60212 12.9941C8.07908 12.9941 7.65524 13.418 7.65524 13.941V14.4161C6.64299 14.7211 5.83984 15.496 5.49947 16.4965C5.15848 17.4974 5.32136 18.601 5.93683 19.4605C6.55229 20.32 7.54489 20.8295 8.60222 20.8295C9.36028 20.8346 9.97293 21.4501 9.97518 22.2081C9.97743 22.9662 9.36873 23.5851 8.61067 23.5952H8.59376C7.83345 23.5907 7.21967 22.9735 7.21797 22.2132C7.21797 21.6902 6.79413 21.2664 6.27109 21.2664C5.74806 21.2664 5.32422 21.6902 5.32422 22.2132C5.32535 22.9166 5.55248 23.6014 5.97238 24.1656C6.3917 24.7303 6.98182 25.1451 7.65533 25.3491V25.9302V25.9297C7.65533 26.4527 8.07917 26.8765 8.6022 26.8765C9.12524 26.8765 9.54908 26.4527 9.54908 25.9297L9.54896 25.3485Z" fill="#3D5A9B"/>
      <path d="M16.0968 25.9296C16.0968 26.4527 16.5206 26.8765 17.0437 26.8765C17.5667 26.8765 17.9905 26.4527 17.9905 25.9296V25.3485V25.3491C19.0028 25.0436 19.8054 24.2692 20.1463 23.2682C20.4873 22.2672 20.3244 21.1637 19.709 20.3042C19.0935 19.4447 18.1009 18.9351 17.0436 18.9357C16.4845 18.9351 15.98 18.5981 15.7664 18.0813C15.5522 17.5644 15.6706 16.9698 16.0662 16.5742C16.4619 16.1785 17.0565 16.0602 17.5733 16.2743C18.0901 16.488 18.4272 16.9924 18.4278 17.5515C18.4278 18.0745 18.8516 18.4984 19.3746 18.4984C19.8971 18.4984 20.3215 18.0745 20.3215 17.5515C20.3204 16.8481 20.0932 16.1633 19.6733 15.5992C19.2534 15.0344 18.6639 14.6196 17.9904 14.4161V13.941C17.9904 13.418 17.5666 12.9941 17.0435 12.9941C16.5205 12.9941 16.0966 13.418 16.0966 13.941V14.4161C15.0844 14.7211 14.2818 15.496 13.9409 16.4965C13.5999 17.4974 13.7628 18.601 14.3782 19.4605C14.9937 20.32 15.9863 20.8295 17.0436 20.8295C17.8017 20.8346 18.4143 21.4501 18.4166 22.2082C18.4188 22.9662 17.8101 23.5851 17.0521 23.5952H17.0352C16.2749 23.5907 15.6611 22.9735 15.6594 22.2132C15.6594 21.6902 15.2355 21.2664 14.7125 21.2664C14.19 21.2664 13.7656 21.6902 13.7656 22.2132C13.7668 22.9166 13.9939 23.6014 14.4138 24.1656C14.8337 24.7303 15.4232 25.1451 16.0967 25.3492L16.0968 25.9296Z" fill="#3D5A9B"/>
      <path d="M36.9234 12.2253C37.4465 12.2253 37.8703 11.8015 37.8703 11.2784V10.2008C37.8703 9.67775 37.4465 9.25391 36.9234 9.25391C36.4004 9.25391 35.9766 9.67775 35.9766 10.2008V11.2784C35.9766 11.8015 36.4004 12.2253 36.9234 12.2253Z" fill="#E84C3D"/>
      <path d="M36.9234 24.2876C37.4465 24.2876 37.8703 23.8637 37.8703 23.3407V14.1041C37.8703 13.5811 37.4465 13.1572 36.9234 13.1572C36.4004 13.1572 35.9766 13.5811 35.9766 14.1041V23.3407C35.9766 23.8637 36.4004 24.2876 36.9234 24.2876Z" fill="#E84C3D"/>
      <path d="M42.9249 39.0165V0.992924C42.9249 0.629396 42.7163 0.297423 42.3883 0.139603C42.0603 -0.0182164 41.6708 0.026316 41.3867 0.253453L36.8479 3.88311L32.3103 0.253453C31.9642 -0.0232866 31.4722 -0.0232866 31.1267 0.253453L26.5891 3.88311L22.0514 0.253453H22.052C21.7059 -0.0232866 21.2139 -0.0232866 20.8684 0.253453L16.3308 3.88311L11.7931 0.253453C11.4476 -0.0232866 10.9556 -0.0232866 10.6095 0.253453L6.07189 3.88311L1.53641 0.253453C1.25234 0.0274443 0.863449 -0.0165196 0.535992 0.141294C0.209099 0.298537 0.000562714 0.629947 0 0.992912V68.295C0 68.6591 0.208536 68.9911 0.536569 69.1483C0.864588 69.3061 1.25406 69.2622 1.53811 69.0345L6.07691 65.4048L10.6146 69.0345C10.9606 69.3112 11.4527 69.3112 11.7981 69.0345L16.3358 65.4048L20.8734 69.0345H20.8729C21.1851 69.2841 21.6202 69.3112 21.9606 69.1015L24.0596 67.8097V67.8103C26.1624 71.9872 29.6704 75.2901 33.9668 77.1371C38.2638 78.9846 43.0737 79.2579 47.5522 77.9104C52.0301 76.5622 55.8903 73.6787 58.4531 69.7667C61.0165 65.8547 62.1182 61.1648 61.5659 56.5206C61.0136 51.8763 58.8414 47.576 55.4326 44.3746C52.0233 41.1728 47.5944 39.2755 42.9248 39.0157L42.9249 39.0165ZM41.8202 76.8598C37.5469 76.8621 33.4122 75.3419 30.1573 72.5729C26.9023 69.8034 24.7404 65.9651 24.0583 61.7465C23.971 61.2347 23.4874 60.8886 22.975 60.9709C22.4622 61.0532 22.1116 61.5328 22.1882 62.0463C22.4103 63.4209 22.7767 64.768 23.2817 66.0654L21.5355 67.1396L16.9273 63.453H16.9267C16.5807 63.1762 16.0892 63.1762 15.7432 63.453L11.2055 67.0826L6.66787 63.453H6.66844C6.32238 63.1762 5.8309 63.1762 5.48485 63.453L1.89343 66.3257V2.96407L5.48196 5.83622C5.82802 6.11352 6.32006 6.11352 6.66555 5.83622L11.2032 2.20657L15.7408 5.83622C16.0863 6.11352 16.5784 6.11352 16.9244 5.83622L21.4621 2.20657L25.9997 5.83622H25.9991C26.3446 6.11352 26.8367 6.11352 27.1827 5.83622L31.7204 2.20657L36.258 5.83622H36.2575C36.6035 6.11352 37.095 6.11352 37.441 5.83622L41.033 2.96407V39.0023C36.554 39.1708 32.2648 40.8567 28.8702 43.7835H16.7891C16.2661 43.7835 15.8423 44.2074 15.8423 44.7304C15.8423 45.2529 16.2661 45.6773 16.7891 45.6773H26.9427C25.7574 47.0097 24.757 48.4959 23.9691 50.096H16.7891C16.2661 50.096 15.8423 50.5199 15.8423 51.0429C15.8423 51.5654 16.2661 51.9898 16.7891 51.9898H23.1557C22.436 53.9471 22.0291 56.0067 21.9507 58.0909C21.9327 58.6122 22.3391 59.0496 22.8604 59.0699C23.3812 59.0896 23.8208 58.6849 23.8428 58.1642C24.0254 53.5183 25.9991 49.1238 29.3505 45.9016C32.7022 42.6794 37.1706 40.8792 41.8199 40.8797C41.8628 40.8797 41.9067 40.8797 41.9496 40.8809H41.9704C48.3613 40.9609 54.2296 44.426 57.3873 49.9833C60.5442 55.5406 60.516 62.3558 57.3124 67.8863C54.1087 73.4167 48.2117 76.8331 41.8204 76.8601L41.8202 76.8598Z" fill="#3D5A9B"/>
      <path d="M42.6381 46.5557C42.4679 46.266 42.1568 46.0879 41.8209 46.0879C41.485 46.0879 41.1739 46.266 41.0036 46.5557L34.145 58.2632C32.6785 60.773 32.5303 63.8407 33.7488 66.4801C34.9673 69.1195 37.3982 70.997 40.2597 71.5088C43.1212 72.0205 46.0525 71.1018 48.1103 69.0485C49.5007 67.657 50.3907 65.8432 50.6415 63.8921C50.8923 61.9409 50.4899 59.9614 49.4962 58.2632L42.6381 46.5557ZM46.7716 67.7094H46.7711C45.1523 69.3282 42.8443 70.0523 40.591 69.6499C38.3371 69.2475 36.423 67.7692 35.4638 65.6906C34.5051 63.612 34.6229 61.1958 35.7795 59.2202L41.8208 48.9083L47.8622 59.2202C48.6445 60.5571 48.9613 62.1149 48.764 63.6508C48.5662 65.1867 47.8656 66.6143 46.7711 67.7094H46.7716Z" fill="#935EF1"/>
      <path d="M46.3448 61.7112C45.8319 61.608 45.3331 61.94 45.2294 62.4529C45.0947 63.123 44.7638 63.7391 44.2797 64.2215C44.0914 64.4104 43.8823 64.5766 43.6569 64.7181C43.4342 64.8551 43.1981 64.9672 42.9518 65.0529C42.4581 65.2253 42.1971 65.7653 42.3696 66.259C42.5415 66.7528 43.0814 67.0137 43.5752 66.8413C43.9533 66.7094 44.3157 66.5369 44.6562 66.3267C45.0045 66.1086 45.3274 65.8515 45.6188 65.5607C46.3673 64.8145 46.8779 63.8625 47.0865 62.8261C47.1361 62.5798 47.0854 62.3239 46.9462 62.1148C46.8075 61.9057 46.5911 61.7603 46.3448 61.7112L46.3448 61.7112Z" fill="#935EF1"/>
   </sybmol>

   <sybmol version="1.1" id="arrow" viewBox="0 0 487 487">
      <g>
         <path d="M482,234.841l-116.5-67.262c-3.094-1.787-6.906-1.787-10,0c-3.094,1.786-5,5.088-5,8.66v57.28H10c-5.523,0-10,4.478-10,10
            c0,5.522,4.477,10,10,10h340.5v57.242c0,3.571,1.906,6.874,5,8.66c1.547,0.893,3.272,1.34,5,1.34c1.727,0,3.453-0.446,5-1.34
            L482,252.16c3.094-1.786,5-5.088,5-8.66C487,239.929,485.094,236.627,482,234.841z M370.5,293.441v-99.882L457,243.5L370.5,293.441
            z"/>
      </g>
   </sybmol>
</svg>