<?xml version="1.0" encoding="utf-8"?>
<!-- Generator: Adobe Illustrator 24.3.0, SVG Export Plug-In . SVG Version: 6.00 Build 0)  -->
<svg version="1.1" id="Слой_1" xmlns="http://www.w3.org/2000/svg" xmlns:xlink="http://www.w3.org/1999/xlink" x="0px" y="0px"
	 viewBox="0 0 666 146.2" style="enable-background:new 0 0 666 146.2;" xml:space="preserve">
<style type="text/css">
	.st0{fill:#020E25;}
	.st1{fill:#E84C3D;}
</style>
<g>
	<path class="st0" d="M232.9,145c39.7,0,72-32.2,72-72s-32.2-72-72-72c-39.7,0-72,32.2-72,72C161,112.8,193.2,145,232.9,145
		 M232.9,1.1c0,13.6,19.2,38.3,27.4,48.6c5.3,6.3,8.6,14.4,8.6,23.3c0,19.9-16.1,36-36,36c-19.9,0-36-16.1-36-36
		c0-8.9,3.2-17,8.6-23.3C213.8,39.4,232.9,14.7,232.9,1.1 M232.9,98.2c15.4-8,20.6-27.5,12.7-50.3C269.7,73.7,255.5,99.4,232.9,98.2
		"/>
	<path class="st1" d="M53.1,37.1c-8,0-14.4,6.4-14.4,14.4V127c0,9.9-8.1,18-18,18s-18-8.1-18-18V51.5c0-27.8,22.5-50.4,50.4-50.4
		c12.3,0,23.6,4.4,32.4,11.8c8.8-7.3,20.1-11.8,32.4-11.8c27.8,0,50.4,22.5,50.4,50.4V127c0,9.9-8.1,18-18,18c-9.9,0-18-8.1-18-18
		V51.5c0-8-6.4-14.4-14.4-14.4c-7.9,0-14.4,6.4-14.4,14.4V127c0,9.9-8.1,18-18,18s-18-8.1-18-18V51.5C67.5,43.6,61,37.1,53.1,37.1"
		/>
	<path class="st0" d="M466.6,117.8c0,7.3-2.1,9-5.6,9c-1.5,0-2.4,0-3.5-0.2v10.7c1.5,0.2,2.9,0.3,5.2,0.4c10-0.1,15.5-6.8,15.5-18.5
		v-23h15.1v40.6h11.6V85.1h-38.3V117.8z M414.8,136.7l25.2-31.9v31.9h11.5V85.1h-10L416.5,117V85.1h-11.6v51.6H414.8z M371.2,137.6
		c14.7,0,26.7-12,26.7-26.7s-12-26.7-26.7-26.7c-14.8,0-26.7,12-26.7,26.7C344.5,125.6,356.4,137.6,371.2,137.6 M371.2,126.4
		c-8.4,0-15.1-7.1-15.1-15.5c0-8.4,6.6-15.5,15.1-15.5c8.4,0,15,7.1,15,15.5C386.2,119.3,379.6,126.4,371.2,126.4"/>
	<path class="st1" d="M609.9,7.2v51.6h11.5V27l15.1,20.9l15.1-20.8v31.8h11.6V7.2h-10.5l-16.2,22.2L620.4,7.2H609.9z M560.8,59.2
		c2.1,0.4,3.3,0.5,6.5,0.5c8.4,0,13.5-4.1,18.5-14L605,7.2h-13.2L579,33.1L565.7,7.2h-13.2l20,38.7c-2,2.6-4.2,2.8-6.8,2.8
		c-1.7,0-3.4-0.1-4.8-0.3L560.8,59.2L560.8,59.2z M502.7,58.8h11.5V38.4h20.8v20.4h11.5V7.2h-11.5v20.2h-20.8V7.2h-11.5V58.8z
		 M496.8,7.2h-30.9v51.6h11.6V18.3h19.3L496.8,7.2L496.8,7.2z M433.3,22.4l6.5,15.5h-13L433.3,22.4z M406,58.8h12.1l4.6-10.9H444
		l4.6,10.9h12.1L438.6,7.2h-10.5L406,58.8z M347.4,7.2v51.6H359V27l15.1,20.9l15.1-20.8v31.8h11.6V7.2h-10.5l-16.2,22.2L358,7.2
		L347.4,7.2L347.4,7.2z"/>
</g>
</svg>
