<?xml version="1.0" encoding="UTF-8"?>
<!-- Generator: Adobe Illustrator 15.0.0, SVG Export Plug-In . SVG Version: 6.00 Build 0)  -->
<!DOCTYPE svg PUBLIC "-//W3C//DTD SVG 1.1//EN" "http://www.w3.org/Graphics/SVG/1.1/DTD/svg11.dtd">
<svg version="1.1" id="Слой_1" xmlns="http://www.w3.org/2000/svg" xmlns:xlink="http://www.w3.org/1999/xlink" x="0px" y="0px" width="119.06px" height="56.694px" viewBox="238.109 388.878 119.06 56.694" enable-background="new 238.109 388.878 119.06 56.694" xml:space="preserve">
<g>
	<g>
		<path fill="#020E25" d="M328.822,445.572c15.655,0,28.347-12.691,28.347-28.347s-12.691-28.347-28.347-28.347    c-15.656,0-28.347,12.691-28.347,28.347S313.165,445.572,328.822,445.572 M328.822,388.878c0,5.343,7.553,15.09,10.793,19.161    c2.105,2.474,3.378,5.681,3.378,9.186c0,7.828-6.347,14.175-14.171,14.175c-7.828,0-14.175-6.348-14.175-14.175    c0-3.505,1.271-6.712,3.378-9.186C321.269,403.968,328.822,394.221,328.822,388.878 M328.822,427.128    c6.075-3.141,8.11-10.83,4.989-19.827C343.283,417.474,337.717,427.609,328.822,427.128"/>
		<path fill="#E84C3D" d="M257.953,403.049c-3.133,0-5.67,2.538-5.67,5.67v29.765c0,3.914-3.174,7.088-7.088,7.088    s-7.087-3.174-7.087-7.088V408.72c0-10.957,8.885-19.842,19.841-19.842c4.855,0,9.306,1.745,12.758,4.643    c3.449-2.898,7.898-4.643,12.758-4.643c10.961,0,19.841,8.885,19.841,19.842v29.764c0,3.914-3.173,7.088-7.087,7.088    s-7.088-3.174-7.088-7.088V408.72c0-3.133-2.537-5.67-5.67-5.67s-5.67,2.538-5.67,5.67v29.764c0,3.914-3.174,7.088-7.088,7.088    s-7.087-3.174-7.087-7.088V408.72C263.623,405.59,261.086,403.049,257.953,403.049"/>
	</g>
</g>
</svg>