<svg width="19" height="12" viewBox="0 0 19 12" fill="none" xmlns="http://www.w3.org/2000/svg">
<path d="M16.8393 5.79925C15.1217 8.45103 12.3493 10.2992 9.125 10.2992C5.90067 10.2992 3.12835 8.45103 1.41071 5.79925C2.36496 4.32268 3.67076 3.05706 5.23772 2.25349C4.83594 2.93652 4.625 3.72001 4.625 4.51353C4.625 6.99456 6.64397 9.01353 9.125 9.01353C11.606 9.01353 13.625 6.99456 13.625 4.51353C13.625 3.72001 13.4141 2.93652 13.0123 2.25349C14.5792 3.05706 15.885 4.32268 16.8393 5.79925ZM9.60714 1.9421C9.60714 2.20326 9.38616 2.42425 9.125 2.42425C7.97991 2.42425 7.03571 3.36844 7.03571 4.51353C7.03571 4.77469 6.81473 4.99568 6.55357 4.99568C6.29241 4.99568 6.07143 4.77469 6.07143 4.51353C6.07143 2.83608 7.44754 1.45996 9.125 1.45996C9.38616 1.45996 9.60714 1.68094 9.60714 1.9421ZM18.125 5.79925C18.125 5.54813 18.0446 5.3171 17.9241 5.10617C16.0759 2.07268 12.6908 0.0135314 9.125 0.0135314C5.55915 0.0135314 2.17411 2.07268 0.325893 5.10617C0.205357 5.3171 0.125 5.54813 0.125 5.79925C0.125 6.05036 0.205357 6.28139 0.325893 6.49233C2.17411 9.52581 5.55915 11.585 9.125 11.585C12.6908 11.585 16.0759 9.53585 17.9241 6.49233C18.0446 6.28139 18.125 6.05036 18.125 5.79925Z" fill="#BFBFBF"/>
</svg>
