<?xml version="1.0" encoding="UTF-8"?>
<!DOCTYPE svg PUBLIC "-//W3C//DTD SVG 1.1//EN" "http://www.w3.org/Graphics/SVG/1.1/DTD/svg11.dtd">
<!-- Creator: CorelDRAW 2021 (64-Bit) -->
<svg xmlns="http://www.w3.org/2000/svg" xml:space="preserve" width="234.609mm" height="242.241mm" version="1.1" style="shape-rendering:geometricPrecision; text-rendering:geometricPrecision; image-rendering:optimizeQuality; fill-rule:evenodd; clip-rule:evenodd"
viewBox="0 0 21507.55 22207.2"
 xmlns:xlink="http://www.w3.org/1999/xlink"
 xmlns:xodm="http://www.corel.com/coreldraw/odm/2003">
 <defs>
  <style type="text/css">
   <![CDATA[
    .fil6 {fill:#042D7B}
    .fil13 {fill:#052A79}
    .fil3 {fill:#052A7E}
    .fil11 {fill:#052D82}
    .fil14 {fill:#0A2D78}
    .fil26 {fill:#5879B4}
    .fil19 {fill:#627DB6}
    .fil25 {fill:#6483BC}
    .fil29 {fill:#6787C4}
    .fil18 {fill:#7895C9}
    .fil16 {fill:#789CD7}
    .fil23 {fill:#7B92BC}
    .fil28 {fill:#7C9AD2}
    .fil24 {fill:#819ED3}
    .fil27 {fill:#93AEE2}
    .fil20 {fill:#94A7CC}
    .fil12 {fill:#E1F3FF}
    .fil8 {fill:#EAF0FE}
    .fil0 {fill:#EBF2FD}
    .fil17 {fill:#ECCE56}
    .fil9 {fill:#F5C924}
    .fil10 {fill:#F5FDFF}
    .fil4 {fill:#F7C81A}
    .fil22 {fill:#F9DD76}
    .fil7 {fill:#FAFDFE}
    .fil5 {fill:#FCFDFF}
    .fil21 {fill:#FEE987}
    .fil1 {fill:#FEFEFE}
    .fil15 {fill:#FFEC96}
    .fil2 {fill:#FFF7DA}
   ]]>
  </style>
 </defs>
 <g id="Layer_x0020_1">
  <metadata id="CorelCorpID_0Corel-Layer"/>
  <g id="_2748358628960">
   <path class="fil0" d="M17604.43 17104.41c11.2,-126.88 16.29,-83.88 153.94,-165.27 279.8,-165.43 676.29,-506.5 879.26,-737.72 260.82,-297.11 182.4,-276.74 326.36,-293.92 -1.24,211.45 -461.73,597.91 -602.25,729.91 -94.24,88.54 -614.19,521.84 -757.31,467zm-2903.53 -1408.94c130.18,15.88 277.65,288.77 279.28,404.78 -137.81,-14.15 -311.39,-275.59 -279.28,-404.78zm2436.52 988.51c40.37,-82.9 21.35,-58.68 116.97,-120.36 317.26,-204.63 487.32,-262.73 936.27,-582.4 147.91,-105.32 370.68,-290.62 474.68,-398.3 217.27,-224.93 261.86,-404.39 425.14,-423.33 -18.64,276.97 -643.54,778.46 -854.39,932.11 -174.6,127.24 -334.49,235.62 -527.78,345.42 -258.47,146.82 -444.74,318.56 -570.88,246.85zm-2441.12 -1334.66c-137.17,-206.37 -48.56,-140.95 -40,-158.61 106.6,-28.79 183.88,171.91 247.67,276.14 76.96,125.75 162.27,244.69 151.88,385.36 -149.73,-36.32 -158.44,-178.77 -249.06,-321.34 -48.79,-76.77 -58.85,-103.85 -110.49,-181.55zm-128.11 -3295.24c-96.45,164.37 -681.17,5481.29 -795.58,6360.55 -51.24,393.77 -4.89,333.13 -153.18,294.15l-38.94 35.81 162.21 83.75c502.81,220.86 915.74,678.69 1056.14,740.15 54.72,-51.25 -33.05,-69.02 123.2,-6.36 27.66,-150.24 87.27,-128.93 226.77,-188 1611.34,-682.32 2261.18,-858.18 4097.75,-1245.06l776.9 -6425.37c-133.07,107.09 -145.75,81.66 -319.25,100.67 -113.94,12.49 -189.92,33.51 -310.06,46.5 -830.73,89.8 -4492.05,500.68 -4769.69,415.84 -69.78,-47.04 -15.02,11.29 -38.96,-80.76 -2.1,-8.09 -2.32,-70.56 -17.32,-131.87z"/>
   <path class="fil1" d="M10872.96 7944.52c93.24,47.49 68.97,-57.76 85.17,325.56 4.9,115.9 33.86,228.1 -20.49,323.57 -54.87,-18.77 -61.57,40.24 -85.82,-93.45 -6.28,-34.58 -5.25,-149.11 -6.94,-192.12 -2.46,-62.62 -10.55,-135.96 -11.32,-195.96l39.4 -167.6zm-422.5 -1706.53c0,-253.59 526.66,-181.41 524.51,65.09 -2.56,294.68 -524.51,130.37 -524.51,-65.09zm-165.54 -582.79c206.5,38.24 158.17,235.2 447.5,183.73 160.52,-28.55 295.34,-182.62 343.95,-324.41l-752.87 84.99c-124.59,-12 -36.38,14.13 -110.75,-40.68 70.85,-109.18 207.82,-84.79 480.26,-122.41 156.37,-21.59 364.97,-73.79 518.05,-21.75 54.96,540.22 -939.47,767.04 -926.14,240.52zm1947.23 -939.13c68.45,363.9 30.99,488.26 -163.11,681.38 -644.21,640.98 -866.16,-157.02 -285.87,-644.24 166.53,-139.81 299.75,-96.25 448.97,-37.14zm-874.08 -175.76c-49.21,-60.6 -38.05,62.11 -52.9,-113.24 -14.39,-170.05 57.41,-211.95 150.18,-221.36 55.9,111.56 52.18,266.12 -97.28,334.59zm-1342.99 -193.66c-43.98,-96.56 -46.48,-118.65 -4.79,-234.22 36.81,-102 15.04,-77.09 113.73,-96.27 55.33,101.09 64.18,319.21 -108.95,330.48zm1050.85 -578.74c259.51,-120.44 977.39,-76.43 924.31,224.21 -171.78,-2.98 -231.37,-250.19 -736.47,-150.59 -12.17,2.39 -124.55,20.17 -124.77,20.11 -111.04,-27.5 -35.69,4.88 -63.07,-93.73zm-1000.13 -245.62c101.13,-9.19 210,-12.13 305.93,14.87 713.63,200.83 -21.81,1149.08 -15.47,1374.86 106.98,83 236.17,123.91 193.18,222.34 -60.08,67.05 -259.35,-130.75 -318.85,-184.04 -10.76,-316.44 323.96,-616.84 340.26,-947.51 10.03,-203.4 -85.72,-318.84 -268.73,-361.53 -299.2,-69.78 -402.31,131.57 -497.36,-22.86 41.98,-58.08 10.37,-73.33 261.06,-96.11zm-382.45 -186.17c-34.75,289.55 -167.46,617.38 -124.63,903.58 45.66,170.84 2.61,185.32 -31.39,355.18 245.04,41.67 529.34,245.79 559.75,487.32 38.82,308.41 -369.88,361.78 -549.55,140.7 12.22,137.45 21.9,205.61 -12.97,335.64 -87.42,555.2 520.52,1845.5 1827.81,1287.19 133.86,-57.17 217.96,-149.34 362.37,-157.18 -24.17,235.86 -369.57,552 -587.51,677.47 -311.41,179.28 -656.83,230.29 -1058.09,172.07 -18.42,250 17.39,616.93 -43.82,827.18 -149.76,16.79 -844.99,-213.37 -1045.59,-266.31 -394.46,-104.11 -763.44,-167.75 -1186.69,-189.33 130.92,518.01 612.6,1201.74 1105.02,1499.06 572.03,345.39 1265.69,447.48 2007.04,578.33 1836.94,324.23 2181.66,577.64 4070.71,-623.17 118.53,-15.39 68.8,43.3 69.23,-63.05l-2120.96 -524.1c-175.68,-40.24 -598.23,-77.76 -681.59,-210.21 90.88,-86.43 211.07,-14.18 352.87,6.92l-140.45 -951.71c-63.38,-42.12 -416.12,-198.6 -482.54,-57.91 -57.35,60.17 21.74,80.57 -136.18,40.91 -102,-25.61 30.33,12 -62.77,-32.17 -34.68,-16.45 28.71,-17.81 -76.05,-32.42l-81.73 -40.87c6.3,-115.01 303.28,-717.74 362.74,-894.64 307.94,-916.1 436.83,-2453.23 111.67,-3232.48 -140.91,-50.8 -234.61,-51.66 -388.35,-128.88 -472.3,-237.25 -502.64,-488.15 -699.38,-759.41 -100.47,84.07 -161.6,201.27 -256,296.44 -77.57,78.22 -204.52,180.75 -304.61,246.17 -250.33,163.6 -449.5,226.83 -758.35,309.66z"/>
   <path class="fil2" d="M14089.38 5152.01c287.21,-47.05 225.66,640.04 186.06,801.94 -148.24,605.95 -650.27,991.44 -318.03,425.76 66.92,-113.93 135.65,-250.6 172.24,-377.49 39.71,-137.71 76.36,-288.78 62.81,-438.47 -14.77,-163.12 -95.03,-290.65 -103.08,-411.74zm-1211.31 -1674.21c6.19,7.64 12.93,10.52 14.75,25.55 6.33,52.06 38.93,-29.57 24.76,244.12 -38.82,750.19 607.2,1131.15 212.42,1675.07 -190.24,262.12 -477.34,361.21 -181.88,746.25 110.89,144.51 168.03,255.26 107.91,469.37 -41.44,147.57 -123.32,319.84 -273.22,344.35 -12.33,-202.65 129.63,-219.97 162.76,-425.03 33.75,-208.95 -106.02,-307.19 -182.92,-430.96 -225.16,-362.41 126.47,-582.57 262.56,-775.87 222.81,-316.51 38.39,-607.91 -89.54,-888.72 -85.26,-187.15 -284.57,-796.22 -57.61,-984.12zm582.13 -276.71c165.01,114.54 -33.84,380.32 314.88,846.76 346.75,463.81 987.03,626.27 1015.3,1348.08 10.83,276.4 -43.8,481.58 -169.84,708.06 -66.32,119.15 -54.89,133.7 -194.03,134.89 23.5,-196.46 288.6,-397.82 234.53,-907.59 -66.73,-629.15 -691.32,-745.18 -1029.7,-1270.61 -91.08,-141.42 -372.33,-707.79 -171.14,-859.6zm-2117.82 -1756.26c67.63,80.75 -148.22,75.95 134.17,69.3 -43.74,-11.54 -38.93,-4.42 -84.15,-11.95l-146.39 -29.18c90.51,577.67 -308.15,658.2 -22.93,1149.98 150.48,259.46 439.59,537.26 815.99,600.71 -11.14,-157.87 -87.34,-334.38 -142.57,-470.26 -51.42,-126.47 -181.21,-311.83 -118.02,-433.45 209.35,67.02 437.16,963.36 476.55,1143.57 260.89,1193.55 175.82,2366.61 -275.91,3490.95 -85.68,213.24 -203.99,398.31 -281.76,585.63 104.77,14.6 41.37,15.97 76.05,32.42 93.09,44.17 -39.23,6.55 62.77,32.17 157.92,39.66 78.83,19.25 136.18,-40.91 -131.85,0.38 -49.33,40.05 -123.49,-32.2 173.85,-449.5 767.7,251.76 1189.52,-98.36 128.82,-106.92 276.36,-266.95 477.08,-329.78 267.74,-83.81 491.05,22.87 742.27,-8.19 226.73,-211.75 163.68,-440.82 625.26,-333.73 -45.35,-85.21 55.95,-70.41 -52.13,-70.8 7.39,-107 102.4,-216.76 141.21,-362.41 45.59,-171.1 49.48,-314.37 43.1,-511.32 -43.59,-1346.95 -865.93,-1276.85 -1262.96,-2038.06 -225.62,-432.56 -263.2,-1080.1 -594.94,-1572.59 -260.05,-386.08 -795.87,-790.85 -1408.25,-756.63l516.52 -17.01 -46.93 -24.51c-162.39,-60.38 154.76,31.77 -53.37,-17.82 -266.46,-63.48 -669.6,56.67 -822.88,54.44z"/>
   <path class="fil3" d="M2367.4 11901.47c-133.56,-188.89 88.95,-506.9 184.26,-611.62 7.37,125.91 -6.04,241.79 -39.69,364.36 -78.98,287.68 -100.68,226.78 -144.56,247.26zm3814.26 -238.84l-50.92 61.06c-9.07,-122.45 0.5,-49.1 26.59,-76.14 13.51,-174.31 104.05,-316.71 207.86,-385.37 -18.29,189.42 -93.92,281.14 -183.52,400.45zm-2656.09 -1477.2c-10.19,-164.95 -54.1,-451.56 1.23,-590.29 184.84,-463.49 695.87,79.47 359.27,328.04 -113.45,83.78 -231.57,200.8 -360.5,262.25zm6038 -6819.03c-151.57,787.75 -315.5,1882.06 -84.05,2681.44 109.6,378.52 219.49,446.2 322.33,647.79 154.37,154.92 131.62,333.66 141.34,706.46 7.4,283.25 1.4,558.98 -4.98,841.8 -259.05,-50.26 -545.27,-160.06 -809.77,-227.15 -1621.39,-411.29 -2617.03,-323.04 -3914.15,744.82 -201.66,166.01 -948.89,855.68 -1110.81,949.36 -114.88,-467.99 -378.15,-506.72 -578.58,-310.11 -223.53,219.27 -124.74,514.46 -117.65,847.42 -43.97,131.09 -244.3,246.8 -359.59,356.11 -114.12,108.2 -266.04,193.55 -342.6,322.74 -47.62,26.88 61.13,86.07 -62.12,14.43l-17.89 -177.58c8.86,-436.36 -528.22,-3143.8 -635.85,-3947.77 -30.44,-227.36 -51.9,-480.23 -67.94,-706.65 -27.25,-384.68 37.91,-583.04 -100.71,-638.54 -236.89,369.11 562.17,4141.92 673.95,5070.96 75.99,631.59 83.58,457.22 -118.53,782.49 -475.21,764.82 230.29,1051.91 288.96,88.99 14.3,-234.65 -39.22,-250.52 90.25,-388.96 176.51,-188.76 1100.68,-962.52 1293.75,-1067.39 192.95,1281.64 148.59,1968.11 -42.01,3223.44 -41.14,270.96 -7.1,236.73 -221.83,360.69 -117.55,67.88 -256.08,169.78 -390.91,184.43 -118.49,152.69 -569.67,291.1 -793.26,345.04 -357.26,86.19 -637.04,97 -986.41,-29.46 -470.87,-170.45 -903.54,-734.59 -1019.59,-1302.58 -103.34,-171.74 -257.21,-1111.94 -265.61,-1377.26 -60.63,-111.94 -56.97,-267.03 -58.6,-423.09 11.62,-369.15 -61.77,-928.99 -74.92,-1336.84 -14.93,-463.21 -14.11,-927.27 -5.88,-1390.65 6.05,-339.96 128.62,-2573.26 75.34,-2680.14 -94.79,22.75 -85.1,-59.63 -100.33,319.88 -5.3,132.19 -14.67,254.33 -21.57,386.22 -98.8,1887.17 -125.69,3724.16 127.17,5595.17 137.13,1014.61 439.26,1821.41 1102.89,2224.21 401.72,243.83 956.05,232.21 1421.62,81.71 566.1,-183 834.05,-420.66 1132.57,-535.27l-193.89 958.21c-58.77,240.2 -38.24,224.78 24.31,269.39 109.1,-116.09 192.77,-710.46 227.98,-895.54 65.37,-343.52 0.05,-446.58 425.28,-635.48l69.53 -46.19 -46.3 102.89c-7.89,150.75 -123.55,401.02 -62.01,511.18 89.89,-23.65 56.21,31.1 104.47,-118.7 154.47,-479.44 -26.21,-492.57 310.23,-724.22 345.3,-237.74 595.42,-470.08 899.32,-717.32 90.65,-73.74 104.21,-77.61 200.5,-176.99l91.85 -68.87c-10.89,105.6 -21.87,243.98 -67.28,310.38 26.01,385.64 -25.21,870.99 -7.94,1293.49 95.32,2332.44 913.98,4946.03 482.06,7232.65 -23.85,126.29 -236.14,906.57 -223.17,985.26l21.02 52.58c180.29,-107.49 311.35,-986.19 349.55,-1219.55 75.03,-458.29 90.7,-969.25 86.94,-1444.48 -18.93,-2395.42 -817.99,-4667.46 -561,-7081.04 41.33,-388.13 86.49,-273 257.23,-516.64 109.85,-156.76 209.74,-349.04 156.84,-578.46 -416.85,20.71 -430.38,685.94 -534.23,817.28 -119.8,151.51 -560.96,509 -720.91,636.78 -177.12,141.49 -329.22,250.32 -503.95,390.54 -74.82,54.65 98.66,19.21 -100.01,54.4 8.34,-59.81 8.2,-96.41 25.91,-156.41 18.31,-62 11.56,-27.53 37.42,-60l8.61 -263.43 34.15 -1183.25c-7.14,-334.25 -70.56,-883.1 -141.86,-1176.62l-98.45 29.15c5.66,234.56 81.4,568.15 104.11,833.07 52.79,615.38 25.9,1185.47 -44.84,1793.58 -21.75,187 -3.31,246.91 -137.44,345.25 -84.87,62.23 -194.65,128.36 -297.01,176.88 109.2,-963.48 287.04,-1899.06 135.44,-2918.66 -66.93,-450.16 -184.38,-594.8 117.61,-717.4l593.68 -551.2c672.6,-576.74 1185.16,-1025.6 2189.45,-1209.4l498.08 -24c213.18,295.94 327.41,1019.65 1137,1555.04 549.41,363.33 1310.94,498.72 2059.96,623.6 764.21,127.42 1534.36,400.03 2346.24,232.82 356.11,-73.34 695.68,-212.21 989.16,-366.05l845.38 -476.14c-21.39,-79.54 -5.59,-59.46 -40.83,-117.06 -1889.05,1200.81 -2233.76,947.4 -4070.71,623.17 -741.35,-130.86 -1435.01,-232.94 -2007.04,-578.33 -492.42,-297.33 -974.1,-981.05 -1105.02,-1499.06 423.25,21.58 792.23,85.21 1186.69,189.33 200.6,52.94 895.83,283.11 1045.59,266.31 61.21,-210.25 25.4,-577.18 43.82,-827.18 401.26,58.21 746.68,7.21 1058.09,-172.07 217.95,-125.47 563.34,-441.61 587.51,-677.47 -144.4,7.84 -228.51,100.01 -362.37,157.18 -1307.29,558.3 -1915.23,-732 -1827.81,-1287.19 -86.52,-146.7 -63.88,-1173.94 34.16,-1318.84 -42.83,-286.2 89.88,-614.02 124.63,-903.58l-90.65 -16.41 -29.15 46.69z"/>
   <path class="fil3" d="M15045.06 9300.82c59.22,11.5 119.27,20.28 169.11,37.79 103.29,36.29 41.82,10.96 87.05,48.39 255.68,-10.91 975.14,255.82 1167.2,376.09 270.74,169.53 538.87,524.94 717.06,840.88 -124.17,77.35 -2023.07,215.39 -2140.42,224.95 -360.4,29.39 -706.47,63.69 -1066.9,95.89 -330.76,29.56 -749.94,42.87 -1061.25,106.81 -126.63,552.23 -181.4,1418.49 -252.76,2014.1 -102.08,851.92 -754.39,5894.35 -691.62,6025.78 86.83,-17.6 52.99,5.77 85.07,-68.94l226.07 -1850.43c233.6,-1916.05 540.17,-4111.2 724.14,-5977.56l1437.74 712.18 -826.14 6822.06c148.29,38.98 101.94,99.61 153.18,-294.15 114.42,-879.26 699.13,-6196.18 795.58,-6360.55l-13.39 -135.98 5501.68 -487.34 -33.01 272.94 -776.9 6425.37c-1836.58,386.88 -2486.41,562.74 -4097.75,1245.06 -139.5,59.07 -199.12,37.76 -226.77,188l-8.99 -13.47c164.11,25.38 928.88,-340.68 1149.18,-425.08 1004.64,-384.89 2109.78,-679.53 3169.09,-876.26 297.37,-55.22 579.37,-40.02 619.4,-172.7 -116.63,-72.62 -346.59,13.3 -480.06,29.27 4.6,-246.39 216.69,-2089.96 280.74,-2180.36l5.89 -100.65c216.25,338.32 425.72,674.22 629.64,1019.39 318.98,539.93 1083.09,1548.86 1116.73,2142.26 55.86,985.7 -1247.89,1128.2 -1954.84,1292.09 -451.47,104.66 -869.07,199.25 -1316.23,303.32 -441.72,102.79 -874.79,197.44 -1314.85,303.67 -226.91,54.78 -427.07,98.3 -656.02,151.92 -304.99,71.43 -540.12,68.22 -593.82,211.24 150.44,57.54 2354.55,-504.6 2711.95,-584.07 2331.31,-518.33 4187.26,-583.66 2686.51,-2947.14l-1299.71 -2066.49c83.93,-726.25 170.6,-1444.42 261.12,-2169.68 46.3,-371 255.23,-1930.98 243.66,-2175.61 -186.02,-49.05 -998.84,-487.77 -1257.75,-623.91 -252.26,-132.65 -300.4,-202.7 -417.24,-140.61 28.79,80.44 37.61,78.67 159.97,140.84l1189.12 612.9c58.45,37.49 39.91,-48.82 50.74,51.56l-107.64 2.84c-269.81,-24.74 -2994.01,258.46 -3531.03,302.83 -2583.55,213.47 -1291.2,261.75 -3044.37,-502.48 -49.72,-41.77 -31.81,51.09 -43.61,-56.12l109.12 -0.53c216.48,23.12 3941.87,-346.77 4576.15,-401.36 109.11,-9.4 215.61,-20.48 327.95,-28.65 215.89,-15.69 194.4,-15.36 234.86,-89.48 -7.82,-5.22 -18.84,-9.67 -25.58,-11.86 -6.78,-2.21 -17.8,-8.19 -26.36,-10.48 -8.67,-2.33 -17.79,-5.96 -27.67,-7.91l-786.57 49.97c-55.88,51.28 -193.49,51.63 -288.11,50.99l4.67 -98.49c-93.65,-297.91 -512.48,-729.94 -736.05,-877.67 -472.96,-312.53 -3106.98,-880 -3796.63,-1055.33 -89.38,-262.1 -140.55,-654.87 -153.79,-948.08l-126.66 -41.04 140.45 951.71c-141.8,-21.1 -262,-93.35 -352.87,-6.92 83.36,132.45 505.9,169.97 681.59,210.21l2120.96 524.1z"/>
   <path class="fil0" d="M14142.82 10222.47c45.75,-161.18 522.58,-305.81 607.69,-300.92 -27.7,169.34 -523.09,330.22 -607.69,300.92zm-5676.6 -556.39l48.93 -14.31c5.18,-0.3 17.82,-3.34 24.17,-3.23l116.65 32.19c68.75,29.84 106.21,51.36 180.77,80.93 1065.52,422.62 1445.21,310.98 2223.63,493.94 195.97,46.06 413.69,124.7 574.52,234.74 108,73.89 113.82,70.75 87,159.08 -112.63,17.43 -255.8,-195.26 -733.52,-293.36 -974.27,-200.06 -1214.98,-74.52 -2352.5,-553.64 -155.82,-65.63 -109.64,-52.28 -169.63,-136.35zm-707.28 -991.44c31.97,48.75 37.89,67.52 30.8,138.97 -136.83,-10.68 -170.27,-92.58 -178.33,-210.38 99.12,-3.19 104.07,5.12 147.53,71.41zm-618.11 -738.98c20.91,803.32 567.9,1671.95 1178.21,2148.63 760.33,593.84 1426.73,530.99 2364.92,936.75 1039.72,449.66 1645.32,-114.89 2673.5,-231.86 767.49,-87.31 1896.22,-192.31 1924.6,-1388.89l19.16 -13.29c-45.23,-37.42 16.24,-12.09 -87.05,-48.39 -49.84,-17.51 -109.89,-26.29 -169.11,-37.79 -0.43,106.35 49.3,47.66 -69.23,63.05 35.24,57.6 19.44,37.52 40.83,117.06l-845.38 476.14c-293.49,153.84 -633.05,292.71 -989.16,366.05 -811.88,167.21 -1582.03,-105.4 -2346.24,-232.82 -749.02,-124.89 -1510.55,-260.27 -2059.96,-623.6 -809.59,-535.39 -923.83,-1259.1 -1137,-1555.04l-498.08 24z"/>
   <path class="fil2" d="M9061.89 6619.47c-110.23,-183.36 120.88,-14.63 -90.85,-584.9 -33.94,-91.42 -65.53,-185.58 -66.24,-283.37 -0.4,-54.1 1.09,-115.73 28.14,-162.25 46.43,-79.88 32.32,-59.83 128.95,-65.35 74.92,177.59 -138.67,43.19 64.82,551.98 72.54,181.39 156.29,494.83 -64.82,543.9zm-532.85 -298.86c-1.49,-169.5 189,-104.71 137.37,-432.44 -37.87,-240.47 -320.92,-562.36 -86.02,-938.24 40.2,-64.33 95.41,-123.39 137.15,-158.16 171.14,-142.5 191.6,-41.9 192.51,-41.45 -42.14,193.9 -459.94,235.35 -215.25,821.77 146.26,350.52 166.01,809.26 -165.76,748.51zm2107.25 -4282.1c52.45,-83.25 -32.71,-51.42 107.32,-66.67 29.45,34.64 51.55,18.86 53.96,95.41 5.43,172.63 -42,91.7 -60.55,111.95 -240.93,547.93 -846.53,893.07 -1022.78,760.07 67,-175.42 212.37,-37.09 578.55,-353.82 120.54,-104.26 327.4,-332.24 343.49,-546.94zm-2492.66 4569.66c135.28,31.28 5.1,-19.87 59.24,59.74l58.53 101.12c-8.44,-149.57 61.13,-179.04 218.64,-186.24 459.93,-21.05 471.52,469.18 678.88,529.99 172.73,7.88 264.74,-55.29 436.06,12.34 109.47,43.22 187.36,124.8 195.49,236.09l-128.15 1.28c62.34,87.08 -138.3,71.95 111.06,71.95 100.64,-106.55 100.22,-232.3 89.02,-363.08 -21.82,-254.98 -46.74,-237.6 -62.23,-331.85l1.68 -43.87c-102.84,-201.59 -212.74,-269.26 -322.33,-647.79 -231.45,-799.38 -67.53,-1893.68 84.05,-2681.44 -111.16,2.87 -103.24,1.03 -162.76,-39.06 34.94,-124.99 -0.17,-89.32 160.4,-105.43 820.84,-72.96 1591.22,-812.67 1577.85,-1706.56 -1274.58,27.91 -2114.2,903.16 -2095.36,2200.02 14.35,987.52 -522.6,762.69 -896.33,1251.99 -209.02,273.66 -233.51,482.12 -46.74,808.56 204.83,357.99 199.2,453.91 43,832.24z"/>
   <path class="fil0" d="M14913.04 19548.67c-47.14,156.25 -52.11,207.59 41.55,304.7 156.92,110.25 2542.55,-537.06 2982.68,-659.76 393.98,-109.84 1647.64,-434.12 1922.76,-540.84 338.07,-131.12 409.02,-444.51 345.65,-853.62 -98.91,-638.44 -248.6,-951.74 -386.74,-1457.83 -113.99,-417.57 -94.81,-157.82 -167.54,-417.77 -64.05,90.39 -276.14,1933.96 -280.74,2180.36 133.47,-15.97 363.43,-101.9 480.06,-29.27 -40.02,132.67 -322.02,117.48 -619.4,172.7 -1059.31,196.72 -2164.45,491.36 -3169.09,876.26 -220.3,84.4 -985.06,450.46 -1149.18,425.08z"/>
   <path class="fil0" d="M7579.08 15094.11c-147.91,-71.34 -293.74,-134.17 -334.86,-253.53 108.14,-56.69 252.36,87.7 398.17,157.85 448.96,216 948.25,285.5 1451.32,327.46 371.13,30.96 1949.34,47.6 2109.07,290.86 -68.41,54.25 -99.36,34.41 -130.48,33.05l-374.54 -82.93c-1069.34,-165.82 -2164.62,-12.56 -3118.68,-472.76zm3681.81 1359.67c-258.87,-9.85 -197.24,-230.33 -782.57,-476.34 -283.63,-119.21 -185.21,-14.39 -255.92,-134.31 64.59,-57.04 -87.64,-39.94 99.43,-40.4 117.63,-0.29 909.69,379.66 923.43,653.58 421.57,0.61 649.01,-585.8 131.42,-921.54 -658.4,-427.08 -2147.69,24.79 -3343.75,-764.74 -734.5,-484.85 -991.39,112.3 -939.58,257.87 227.31,638.68 923.8,801.71 1578.63,854.68 1836.29,148.55 1578.91,409.64 2256.29,602.82 35.41,10.09 78.9,21.01 137.11,19.9 2.7,-0.06 96.51,-9.54 98.19,-9.93 108.39,-24.12 17.21,59.98 97.31,-41.59z"/>
   <path class="fil0" d="M594.93 12738.6c116.05,567.98 548.71,1132.13 1019.59,1302.58 349.37,126.46 629.15,115.66 986.41,29.46 223.59,-53.94 674.78,-192.35 793.26,-345.04 -126.75,3.03 -57.03,18.58 -124.47,-109.62 -166.21,-316.06 -674.98,-654.43 -989.79,-790.39 -877.53,-378.95 -1589.35,-68.16 -1685,-86.99z"/>
   <path class="fil1" d="M14568.19 12054.08c15,61.31 15.22,123.78 17.32,131.87 23.95,92.04 -30.82,33.72 38.96,80.76 277.63,84.84 3938.96,-326.04 4769.69,-415.84 120.14,-12.99 196.12,-34.01 310.06,-46.5 173.49,-19 186.17,6.43 319.25,-100.67l33.01 -272.94 -5501.68 487.34 13.39 135.98z"/>
   <path class="fil4" d="M8026.08 6542.05l-1.38 83.78 99.41 -30 19.51 12.34c156.2,-378.33 161.83,-474.26 -43,-832.24 -186.77,-326.44 -162.27,-534.91 46.74,-808.56 373.74,-489.3 910.68,-264.47 896.33,-1251.99 -18.85,-1296.86 820.78,-2172.1 2095.36,-2200.02 13.38,893.89 -757.01,1633.59 -1577.85,1706.56 -177.86,127.05 -74.44,20.26 -133.15,116.12l164.66 -18.32 90.65 16.41c308.85,-82.83 508.01,-146.05 758.35,-309.66 100.09,-65.42 227.04,-167.96 304.61,-246.17 94.4,-95.17 155.52,-212.37 256,-296.44 196.74,271.25 227.09,522.16 699.38,759.41 153.74,77.23 247.44,78.09 388.35,128.88 325.16,779.25 196.27,2316.38 -111.67,3232.48 -59.46,176.89 -356.44,779.62 -362.74,894.64l81.73 40.87c77.77,-187.33 196.08,-372.39 281.76,-585.63 451.73,-1124.34 536.81,-2297.4 275.91,-3490.95 -39.39,-180.21 -267.2,-1076.55 -476.55,-1143.57 -63.19,121.62 66.6,306.98 118.02,433.45 55.23,135.88 131.43,312.39 142.57,470.26 -376.4,-63.45 -665.51,-341.26 -815.99,-600.71 -285.23,-491.78 113.44,-572.3 22.93,-1149.98 -235.6,-59.18 -187.67,-177.49 -859.61,37.82 -800.35,256.45 -1430.4,1016.05 -1465.95,1945.52 -15.47,404.39 72.11,674.72 -198.67,921.23 -201.29,183.26 -442.68,249.15 -645.83,486.49 -658.15,768.88 342.83,1008.29 -49.89,1677.98z"/>
   <path class="fil0" d="M580.01 3157.58c-107.44,127.73 -98.61,48.18 -194.78,221.51 -78.52,141.52 -165.74,463.44 -206.92,643.63 -25.68,112.33 6.1,277.14 -57.91,374.5 6.21,181.39 9.97,483.26 129.21,594.4l6.04 -100.8c58.39,157.03 126.79,255.42 300.67,289.34l307.84 -130.87 -124.02 7.38c17.64,-223.24 183.51,-606.49 236.23,-886.05 108.38,-574.87 -42.33,-706.26 -58.98,-977.18 -140.33,7.03 -107.71,15.58 -129.12,-72.5l-208.26 36.64z"/>
   <path class="fil0" d="M4578.27 10154.39l-79.14 -133.51c-11.28,-30.64 -21.94,-87.36 -33.89,-125.69 -38.54,-123.65 -41.91,-103.94 -107.54,-198.93 -301.99,122.6 -184.54,267.25 -117.61,717.4 151.6,1019.6 -26.24,1955.18 -135.44,2918.66 102.36,-48.51 212.14,-114.65 297.01,-176.88 134.13,-98.34 115.68,-158.26 137.44,-345.25 70.74,-608.11 97.62,-1178.2 44.84,-1793.58 -22.72,-264.92 -98.46,-598.51 -104.11,-833.07l98.45 -29.15z"/>
   <path class="fil0" d="M12983.7 21244c6.07,-5 -1.86,-88.9 135.19,0 -27.2,48.63 51.69,74.77 -74.92,64.64 -92.39,-7.39 -38.82,-42.58 -60.28,-64.64zm764.63 -291.06c78.72,-308.15 104.07,-963.51 -346.78,-876.44 -455.75,88.03 -711.45,1987.02 -99.64,1722.33 240.98,-104.26 369.97,-546.67 446.42,-845.89z"/>
   <path class="fil3" d="M2074.21 3550c-155.61,-409.18 -109.18,-261.46 28.72,-681.93 73.7,-224.69 116.28,-258.02 537.24,-395.55 59.85,129.36 76.06,103.45 173.4,208.01 -422.54,473.11 -81.18,640.1 -739.36,869.47zm1037.29 -1041.69c45.66,89.27 34.78,13.18 24.19,133.18 -109.83,14.95 -69.07,33.67 -142.55,-34.28 -127.62,-23.29 -193.63,-85.27 -252.52,-171.05 -47.19,-68.76 -30.95,-50.08 -60.36,-131.73 -63.48,-176.17 26.78,-84.37 -86.48,-138.89 -79.96,95.84 -41.48,70.5 -30.32,218.9 -97.18,24.98 -277.98,101.09 -372.21,151.28 -142.99,76.15 -142.4,131.03 -206.79,313.39 -167.25,473.63 -190.57,332.21 6.61,781.09 -190.54,83.17 -652.08,448.63 -604.31,692.7 130.75,2.34 88.99,-46.02 161.89,-165.69 48.51,-79.65 111.53,-131.37 168.72,-186.79 111.81,-108.38 253.97,-231.06 414.2,-284.55 120.56,-164.53 368.89,-128.97 472.66,-349.08 45.82,-97.17 66.45,-212.78 111.08,-308.16 54.2,-115.85 111.04,-174.01 158.98,-264.3l45 -57.42 56.95 45.21 43.23 -12.77 95.74 39.51 -36.31 74.35c-32.88,248.94 -387.22,1161.86 -516.55,1250.46 -53.35,142.6 -309.27,516.51 -431.64,639.42 -37.58,37.75 -17.45,22.41 -58.73,52.64 -77.85,176.67 -374.17,317.2 -392.34,509.83 200,-20.75 342.07,-269.38 459.71,-395.6 161.03,-172.78 241.02,-295.2 378.75,-494.72 223.2,-323.32 427.82,-725.24 567.91,-1145.81 197.51,-592.97 225.87,-811.43 -95.44,-1308.58 -178.95,-276.88 -196.34,-263.03 -519.65,-114.89l-425.6 226.09c-23.67,17.96 -32.54,16.88 -45.2,47.02l7.75 86.63c102.89,16.37 534.1,-317.91 793.54,-341.92 91.84,184.04 279.37,376.65 310.07,644.53z"/>
   <path class="fil3" d="M909.97 1342.84l38.44 83.91c167.55,-107.57 99,-347.87 319.42,-357.33 121.75,127.05 48.78,294.4 21.82,467.48 -25.38,162.98 -53.48,310.09 -80.28,467.27 -49.74,291.64 -167.3,663 -181.34,950.86l-177.7 29.43c111.24,-603.28 140.81,-917.08 63.92,-1552.45 -6.09,-7.49 -14.31,-16.7 -18.36,-22.41 -3.99,-5.61 -12.7,-17.5 -16.59,-23.16 -30.08,-43.68 4.65,18.61 -25.72,-49.08 -301.14,-46.05 -393.27,490.2 -448.45,769.03 -69.74,352.33 -157.2,678.17 -242.59,1020.6 -136.68,548.18 -223.1,1112.23 -111.09,1669.82 60.18,299.62 78.57,420.48 213.84,432.11 38.26,-89.66 -9.7,-118.08 -15.65,-237.3 -119.24,-111.14 -123.01,-413.01 -129.21,-594.4 -6.2,-568.73 106.53,-1077.1 239.39,-1586.9 68.21,-261.76 220.27,-1065.79 332.5,-1255.25 3.91,-6.62 34.15,-48.68 40.22,-55.83 31.1,-36.67 20.93,-23 50.2,-45.09 105.01,199.13 72.28,676.98 48.97,918.22 -72.28,747.94 -112.2,603.41 -258.58,711.68l6.91 73.52 208.26 -36.64c161.08,-36.74 811.64,-83.09 860.16,-149.5 -62.38,-96.73 -103.88,-68.8 -249.86,-58.6 -89.58,6.25 -166.97,14.41 -257.83,15.84 27.14,-241.93 151.35,-585.67 146.38,-813.32 20.57,-97.83 37.84,-234.35 86.68,-298.73 -2.46,-231.83 163.79,-624.35 7.29,-801.59 -217.95,-246.81 -419.76,133.89 -471.12,327.8z"/>
   <path class="fil0" d="M1386.77 4322.9l93.96 71.68c-218.18,780.54 574.18,388.85 591.27,401.15 41.27,-30.23 21.15,-14.89 58.73,-52.64 122.37,-122.91 378.29,-496.82 431.64,-639.42 -136.79,41.74 -42.83,91.43 -94.39,-91.68 -21.36,-75.86 -14.31,-102.5 -64.69,-170.11 -69.86,-93.74 -145.46,-100.94 -271.7,-156.01 -160.23,53.49 -302.39,176.17 -414.2,284.55 -57.19,55.43 -120.2,107.15 -168.72,186.79 -72.9,119.67 -31.14,168.03 -161.89,165.69z"/>
   <path class="fil0" d="M6811.77 17607.99c-116.1,-83.09 -60.06,23.03 -73.9,-115.48 132.67,-58.09 944.95,493.55 1082.77,593.58 325.23,236.06 623.75,507.4 850.19,864.46 168.24,265.27 478.15,947.74 229.46,1290.43 -290.02,399.63 -928.07,-195.42 -1128.86,-318.03 34.39,112.89 126.35,265.57 187.11,387.58 110.83,222.55 504.77,1068.07 470.44,1229.66 -138.9,-33.75 -51.95,32.53 -121.67,-92.98l-157.38 -422.81c-148.98,-369.9 -721.98,-1461.65 -722.23,-1513.89 162.77,-30.62 207.34,163.79 499.28,378.63 164.95,121.39 342.22,268.15 559.99,346.16 322.66,115.6 411.75,-151.74 381.75,-444.52 -102.42,-999.26 -1135.9,-1667.49 -1911.28,-2102.69 -23.72,-13.31 -133.41,-71.33 -145.68,-80.1zm1855.58 2857.94c0,0 0,0 0,0z"/>
   <path class="fil3" d="M6737.87 17492.5c13.83,138.51 -42.2,32.39 73.9,115.48 12.27,8.77 121.96,66.79 145.68,80.1 775.38,435.2 1808.87,1103.42 1911.28,2102.69 30,292.78 -59.09,560.12 -381.75,444.52 -217.77,-78.01 -395.04,-224.78 -559.99,-346.16 -291.94,-214.84 -336.52,-409.25 -499.28,-378.63 0.25,52.24 573.25,1143.99 722.23,1513.89l157.38 422.81c69.72,125.51 -17.23,59.24 121.67,92.98 34.32,-161.59 -359.61,-1007.11 -470.44,-1229.66 -60.76,-122.01 -152.72,-274.69 -187.11,-387.58 200.79,122.6 838.84,717.65 1128.86,318.03 248.69,-342.69 -61.22,-1025.16 -229.46,-1290.43 -226.44,-357.06 -524.96,-628.4 -850.19,-864.46 -137.82,-100.03 -950.1,-651.67 -1082.77,-593.58z"/>
   <path class="fil1" d="M1373.89 2035.3l-86.77 80.06c4.98,227.65 -119.24,571.39 -146.38,813.32 90.86,-1.43 168.25,-9.59 257.83,-15.84 145.98,-10.2 187.47,-38.14 249.86,58.6l80.87 -22.43c-44,-118.45 92.24,-989.66 167.73,-1158.88 53.09,-119.03 279.87,-224.28 378.37,-332.97 78.26,-86.35 223.04,-273.88 214.09,-448.64 -168.89,37.14 -528.53,332.14 -640.44,441.69 -512.95,502.1 -272.46,597.93 -475.16,585.09z"/>
   <path class="fil0" d="M4720.13 11331l-34.15 1183.25c103.44,16.21 114.33,52.02 199.27,26.61 299.63,-89.59 136.21,-2097.66 53.02,-2468.57l-71.77 -257.33c-25.82,-56.45 -11.63,-29.84 -41.22,-64.69 -301.09,3.75 -187.06,206.5 -140.18,416.14 127.28,569.22 103.7,1140.88 94.98,1726.73 18.83,-70.1 15.65,-195.3 15.41,-286.36 -0.12,-45.57 -0.09,-120.61 -12.09,-162.33 -43.19,-150.13 -6.91,-52.46 -63.27,-113.46z"/>
   <path class="fil3" d="M14798.83 19568.5c-140.4,-61.46 -553.33,-519.29 -1056.14,-740.15l-162.21 -83.75c-241.37,39.03 -325.44,-7.24 -598.2,81.31 -258.96,84.08 -1252.46,463.91 -1367.69,574.69 36.82,447.85 760.07,290.29 1080.82,174.43 277.49,-100.22 270.7,-69.64 556.67,34.25 158.53,57.59 367.02,197.44 491.51,204.61 12.19,-124 9.21,-103.88 -112,-164.16 -174.35,-86.71 -379.38,-180.57 -566.26,-218.7 101.66,-105.17 86.21,-5.3 94.35,-152.57 -166.21,-26.92 -1191.25,618.15 -1421.65,146.65 442.64,-102.69 1178.56,-547.96 1624.97,-559.17 548.67,-13.77 1199.62,741.29 1390.83,808.42 40.27,-58.6 31.21,71.22 45,-105.86z"/>
   <path class="fil5" d="M120.4 4397.22c64.01,-97.36 32.23,-262.17 57.91,-374.5 41.18,-180.19 128.4,-502.12 206.92,-643.63 96.17,-173.33 87.34,-93.78 194.78,-221.51l-6.91 -73.52c146.39,-108.28 186.3,36.26 258.58,-711.68 23.31,-241.23 56.04,-719.09 -48.97,-918.22 -29.27,22.08 -19.1,8.42 -50.2,45.09 -6.07,7.15 -36.3,49.21 -40.22,55.83 -112.23,189.45 -264.29,993.49 -332.5,1255.25 -132.85,509.81 -245.59,1018.18 -239.39,1586.9z"/>
   <path class="fil6" d="M13104.46 17926.72c102.51,-52.87 40.24,68.22 87.45,-120.73l471.98 -3899.47c23.65,-221.73 53.72,-436.07 77,-655.3 16.89,-159.03 135.57,-521.04 10.38,-622.14 -123.27,100.54 -332.4,2327.75 -372.44,2643.9 -56.71,447.74 -112.83,884.57 -164.14,1334.44 -18.62,163.23 -164.28,1119.95 -132.95,1265.09l22.74 54.21z"/>
   <path class="fil6" d="M12651.7 17881.33c104.23,-55.17 80.42,-156.16 94.47,-291.06l531.7 -4356.27c19.31,-161.15 130.52,-531.04 20.64,-645.5 -94.78,54.12 -77.74,133.61 -92.11,279.32l-596.36 4883.21c5.63,145.26 -28.42,46.63 41.67,130.31z"/>
   <path class="fil0" d="M12232.16 4716.08c-149.23,-59.11 -282.45,-102.67 -448.97,37.14 -580.3,487.22 -358.34,1285.21 285.87,644.24 194.09,-193.12 231.56,-317.48 163.11,-681.38z"/>
   <path class="fil4" d="M11342.39 1444.84c153.29,2.24 556.42,-117.91 822.88,-54.44 208.14,49.59 -109.02,-42.56 53.37,17.82l46.93 24.51c715.77,-43.09 1482.54,858.5 1706.86,1670.7 34.99,126.67 81.47,339.26 93.56,481.7 15.86,186.84 -52.11,480.68 127.67,403.14l5.08 -90.91c74.26,-1077.43 -625.27,-2232.61 -1693.4,-2557.91 -291.49,-88.78 -643.77,-113.7 -952.12,-46.55 -159.87,34.81 -168.38,13.6 -210.83,151.94z"/>
   <path class="fil6" d="M14727.24 11574.18c105.26,54.37 3756.41,-266.94 4036.79,-344.68 -31.85,-132.27 -6.41,-108.78 -164.34,-90.98l-805.74 78.72c-876.45,82.7 -2077.5,159.38 -2912.45,259.71 -148.19,17.8 -130.42,7.67 -154.26,97.22z"/>
   <path class="fil6" d="M14371.18 11283.11c110.76,94.07 1774.8,-103.37 2032.6,-126.4l1812.5 -167.33c7.91,-0.66 116.52,-13.04 117.35,-13.33 79.19,-28.15 51.16,2.37 80.62,-81.02 -129.78,-74.49 -3185.42,239.24 -3844.26,308.23 -151.55,15.87 -149.31,-8.46 -198.81,79.86z"/>
   <path class="fil1" d="M2074.21 3550c658.18,-229.38 316.82,-396.36 739.36,-869.47 -97.34,-104.55 -113.55,-78.65 -173.4,-208.01 -420.96,137.54 -463.54,170.86 -537.24,395.55 -137.91,420.46 -184.33,272.75 -28.72,681.93z"/>
   <path class="fil3" d="M12765.91 20823.58c-67.44,-108.29 -106.7,-58.06 -394.59,-110.39 -869.31,-158.02 -550.14,-744.13 -625.16,-858.46 -271.24,103.77 -48.72,522.76 -46.97,615.31 1.5,78.95 -23.63,55.11 -49.92,163.45 -63.36,261.21 68.37,353.78 40.04,491.69 -59.87,291.45 -9.61,423.55 212.32,546.34 108.2,59.87 487.82,208.87 582.1,154.62 -45.08,-163.8 -193.61,-109.61 -452.34,-221.56 -177.57,-76.82 -273.93,-158.93 -256.2,-402.1 114.52,62.55 191.56,139.79 350.29,179.09 131.08,32.44 275.83,102.45 358.78,56.49 -55.38,-204.85 -354.58,-101.76 -562.33,-273.26 -139.61,-115.25 -206.22,-352.48 -132.56,-589.99 23.39,10.85 748.53,463.91 976.54,248.78z"/>
   <path class="fil4" d="M12782.82 6982.51c149.9,-24.5 231.78,-196.78 273.22,-344.35 60.12,-214.11 2.98,-324.87 -107.91,-469.37 -295.46,-385.04 -8.36,-484.13 181.88,-746.25 394.78,-543.92 -251.24,-924.88 -212.42,-1675.07 14.17,-273.69 -18.44,-192.06 -24.76,-244.12 -1.82,-15.03 -8.56,-17.91 -14.75,-25.55 -226.97,187.9 -27.65,796.97 57.61,984.12 127.93,280.82 312.35,572.21 89.54,888.72 -136.09,193.3 -487.72,413.46 -262.56,775.87 76.9,123.77 216.67,222.01 182.92,430.96 -33.13,205.06 -175.09,222.38 -162.76,425.03z"/>
   <path class="fil3" d="M11713.82 21608.08c-186.48,192.01 335.96,543.14 602.02,584.48 388.48,60.35 773.15,-79.01 1103.2,-180.48 241.71,-74.31 1884.76,-530.34 1938.9,-667.4 -210.98,-124.91 -2206.33,775.74 -2901.65,744.93 -180.68,-8 -348.76,-71.06 -463.61,-154.94 -232.52,-169.83 -139.63,-257.04 -278.87,-326.59z"/>
   <path class="fil3" d="M7244.22 14840.58c41.12,119.36 186.95,182.19 334.86,253.53 954.05,460.2 2049.34,306.94 3118.68,472.76l374.54 82.93c31.12,1.36 62.07,21.2 130.48,-33.05 -159.73,-243.27 -1737.94,-259.9 -2109.07,-290.86 -503.07,-41.96 -1002.35,-111.46 -1451.32,-327.46 -145.81,-70.15 -290.03,-214.54 -398.17,-157.85z"/>
   <path class="fil5" d="M2874.3 2764.34c-47.94,90.29 -104.78,148.45 -158.98,264.3 -44.63,95.38 -65.26,210.99 -111.08,308.16 -103.77,220.11 -352.1,184.55 -472.66,349.08 126.24,55.07 201.84,62.27 271.7,156.01 50.38,67.61 43.33,94.25 64.69,170.11 51.56,183.11 -42.4,133.42 94.39,91.68 129.32,-88.6 483.66,-1001.52 516.55,-1250.46 -20.86,-85.99 -6.88,-64.35 -59.42,-113.86l-43.23 12.77 -101.95 12.21z"/>
   <path class="fil7" d="M948.4 1426.75l-34.17 5.26c76.9,635.37 47.32,949.17 -63.92,1552.45l177.7 -29.43c14.04,-287.87 131.6,-659.22 181.34,-950.86 26.8,-157.18 54.89,-304.29 80.28,-467.27 26.96,-173.08 99.93,-340.43 -21.82,-467.48 -220.42,9.46 -151.87,249.76 -319.42,357.33z"/>
   <path class="fil4" d="M14620.54 6104.01c126.04,-226.48 180.67,-431.67 169.84,-708.06 -28.27,-721.81 -668.55,-884.28 -1015.3,-1348.08 -348.72,-466.45 -149.87,-732.23 -314.88,-846.76 -201.2,151.81 80.06,718.18 171.14,859.6 338.38,525.43 962.97,641.46 1029.7,1270.61 54.07,509.77 -211.03,711.13 -234.53,907.59 139.14,-1.19 127.71,-15.74 194.03,-134.89z"/>
   <path class="fil3" d="M1401.15 1870.04l-27.25 165.26c202.7,12.84 -37.8,-82.99 475.16,-585.09 111.92,-109.55 471.55,-404.56 640.44,-441.69 8.96,174.77 -135.82,362.3 -214.09,448.64 -98.49,108.69 -325.28,213.94 -378.37,332.97 -75.48,169.22 -211.73,1040.43 -167.73,1158.88 124.61,-80.32 86.03,-69.42 111.59,-242.64 29.1,-197.19 117.1,-829.33 210.5,-924.05 64.86,-65.77 144.95,-98.87 204.26,-151.61 188.77,-167.85 432.79,-474.42 309.34,-727.04 -323.61,-36.95 -1041.97,603.21 -1163.86,966.37z"/>
   <path class="fil4" d="M11972.38 7563.81c66.43,-140.69 419.16,15.79 482.54,57.91l126.66 41.04c691.55,64.6 583.79,-431.92 1135.56,-462.58 266.97,-14.83 520.97,119.09 678.21,-58.65 246.7,-278.88 50.75,-287.81 488.43,-261.73l-0.75 -118.24c-461.58,-107.09 -398.53,121.98 -625.26,333.73 -251.22,31.06 -474.53,-75.62 -742.27,8.19 -200.72,62.82 -348.26,222.86 -477.08,329.78 -421.83,350.11 -1015.67,-351.15 -1189.52,98.36 74.16,72.25 -8.35,32.57 123.49,32.2z"/>
   <path class="fil4" d="M14270.06 4021.47c242.41,379.2 1162.11,843.18 939.35,1937.02 -47.21,231.82 -249.44,616.99 -259.24,730.57 228.43,6.33 335.34,-504.85 374.22,-683.81 67.77,-311.97 39.98,-643.61 -59.34,-924.01 -183.38,-517.71 -501.45,-666.46 -828.32,-1047.65 -82.46,-96.18 -41.83,-94.32 -164.69,-135.81l-1.98 123.7z"/>
   <path class="fil8" d="M9524.58 5558.54c34.87,-130.03 25.19,-198.19 12.97,-335.64 179.67,221.08 588.37,167.71 549.55,-140.7 -30.41,-241.53 -314.71,-445.65 -559.75,-487.32 34,-169.86 77.05,-184.34 31.39,-355.18 -98.04,144.9 -120.68,1172.14 -34.16,1318.84z"/>
   <path class="fil3" d="M8515.15 9651.78l-48.93 14.31c59.99,84.07 13.82,70.72 169.63,136.35 1137.52,479.12 1378.24,353.58 2352.5,553.64 477.72,98.1 620.89,310.78 733.52,293.36 26.82,-88.33 21,-85.19 -87,-159.08 -160.83,-110.04 -378.55,-188.68 -574.52,-234.74 -778.41,-182.96 -1158.11,-71.32 -2223.63,-493.94 -74.56,-29.56 -112.03,-51.09 -180.77,-80.93l-116.65 -32.19c-6.34,-0.11 -18.99,2.92 -24.17,3.23z"/>
   <path class="fil3" d="M17137.41 16683.98c126.14,71.71 312.42,-100.03 570.88,-246.85 193.29,-109.8 353.17,-218.17 527.78,-345.42 210.85,-153.65 835.75,-655.14 854.39,-932.11 -163.28,18.94 -207.87,198.4 -425.14,423.33 -103.99,107.67 -326.77,292.97 -474.68,398.3 -448.95,319.67 -619.01,377.76 -936.27,582.4 -95.62,61.68 -76.59,37.46 -116.97,120.36z"/>
   <path class="fil6" d="M9804.75 3618.41c95.05,154.43 198.16,-46.92 497.36,22.86 183.02,42.69 278.76,158.14 268.73,361.53 -16.3,330.68 -351.02,631.07 -340.26,947.51 59.5,53.29 258.77,251.1 318.85,184.04 43,-98.43 -86.19,-139.34 -193.18,-222.34 -6.33,-225.78 729.1,-1174.03 15.47,-1374.86 -95.93,-27 -204.79,-24.06 -305.93,-14.87 -250.69,22.78 -219.08,38.04 -261.06,96.11z"/>
   <path class="fil5" d="M3525.57 10185.44c128.93,-61.45 247.05,-178.47 360.5,-262.25 336.6,-248.56 -174.43,-791.53 -359.27,-328.04 -55.33,138.73 -11.42,425.34 -1.23,590.29z"/>
   <path class="fil3" d="M10284.93 5655.2c-13.34,526.52 981.09,299.7 926.14,-240.52 -153.08,-52.04 -361.68,0.16 -518.05,21.75 -272.45,37.62 -409.41,13.23 -480.26,122.41 74.38,54.8 -13.84,28.68 110.75,40.68l752.87 -84.99c-48.61,141.78 -183.43,295.86 -343.95,324.41 -289.32,51.47 -241,-145.5 -447.5,-183.73z"/>
   <path class="fil4" d="M8261.39 6769.03c519.31,-119.96 422.81,-17.92 667.07,313.29 92.06,124.82 174.1,185.14 378.94,153.37 104.9,-16.27 105.18,-36.49 216.23,-1.33 160.11,50.7 138.65,128.04 138.68,128.12l128.15 -1.28c-8.13,-111.28 -86.03,-192.87 -195.49,-236.09 -171.32,-67.63 -263.32,-4.46 -436.06,-12.34 -207.37,-60.81 -218.95,-551.03 -678.88,-529.99 -157.51,7.21 -227.09,36.68 -218.64,186.24z"/>
   <path class="fil9" d="M8529.03 6320.61c331.78,60.75 312.02,-397.99 165.76,-748.51 -244.69,-586.42 173.11,-627.88 215.25,-821.77 -0.91,-0.45 -21.37,-101.05 -192.51,41.45 -41.75,34.76 -96.95,93.83 -137.15,158.16 -234.91,375.87 48.15,697.77 86.02,938.24 51.63,327.73 -138.87,262.95 -137.37,432.44z"/>
   <path class="fil6" d="M864.17 5049.28c17.55,-375.98 403.8,-890.14 207.32,-1688.81 -39.85,-162.02 -18.84,-166.66 -154.09,-167.04 16.66,270.92 167.36,402.31 58.98,977.18 -52.71,279.56 -218.59,662.8 -236.23,886.05l124.02 -7.38z"/>
   <path class="fil3" d="M17604.43 17104.41c143.12,54.84 663.07,-378.46 757.31,-467 140.53,-132 601.01,-518.46 602.25,-729.91 -143.96,17.18 -65.54,-3.19 -326.36,293.92 -202.98,231.22 -599.47,572.28 -879.26,737.72 -137.65,81.39 -142.74,38.39 -153.94,165.27z"/>
   <path class="fil4" d="M14275.44 5953.95c39.6,-161.9 101.14,-848.98 -186.06,-801.94 8.05,121.09 88.31,248.62 103.08,411.74 13.55,149.69 -23.09,300.75 -62.81,438.47 -36.59,126.89 -105.32,263.55 -172.24,377.49 -332.24,565.67 169.79,180.19 318.03,-425.76z"/>
   <path class="fil4" d="M10636.28 2038.51c-16.1,214.69 -222.95,442.68 -343.49,546.94 -366.18,316.72 -511.56,178.4 -578.55,353.82 176.25,133 781.85,-212.14 1022.78,-760.07l-4.95 -164.6 -95.78 23.92z"/>
   <path class="fil0" d="M10450.47 6237.99c0,195.46 521.95,359.77 524.51,65.09 2.15,-246.5 -524.51,-318.68 -524.51,-65.09z"/>
   <path class="fil6" d="M12300.44 19885.7c18.14,64.28 -78.65,76.52 261.73,118.25 189.51,23.23 915.57,54.46 981.3,-150.58 -92.37,-49.54 -453.84,43.05 -600.63,47.56 -163.1,5 -536.19,-75.39 -642.4,-15.23z"/>
   <path class="fil9" d="M9061.89 6619.47c221.12,-49.07 137.36,-362.52 64.82,-543.9 -203.49,-508.79 10.09,-374.39 -64.82,-551.98 -96.63,5.53 -82.52,-14.52 -128.95,65.35 -27.05,46.52 -28.55,108.16 -28.14,162.25 0.72,97.79 32.31,191.96 66.24,283.37 211.73,570.27 -19.38,401.54 90.85,584.9z"/>
   <path class="fil9" d="M3860.98 3036.28c38,134.64 163.51,96.21 537.44,169.76 140.32,27.6 480.15,143.87 582.95,88.96 -24.64,-140.68 -181.13,-133.99 -495.28,-205.27 -154.38,-35.02 -517.05,-129.89 -625.12,-53.46z"/>
   <path class="fil4" d="M3159.71 758.16c137.93,0.52 339.58,-242.26 445.86,-331.76 183.85,-154.83 398.96,-290.13 407.73,-426.37 -184.59,-4.15 -537.46,378.36 -701.75,519.92 -94.39,81.33 -172.54,100.89 -151.84,238.21z"/>
   <path class="fil6" d="M11260.89 16453.78l-15.62 2.53c-13.74,-273.92 -805.81,-653.87 -923.43,-653.58 -187.07,0.46 -34.84,-16.64 -99.43,40.4 70.71,119.92 -27.71,15.1 255.92,134.31 585.33,246.01 523.7,466.49 782.57,476.34z"/>
   <path class="fil6" d="M871.54 6658.42l0.04 32.34c0.11,107.24 -13.95,137.47 40.5,218.21 121.81,-45.54 73.43,-101.72 73.42,-250.55 -0.02,-199.97 69.53,-700.26 -8.74,-843.51 -111.55,23.95 -83.82,-81.74 -95.51,358.37 -4.25,160.28 -9.88,325.13 -9.72,485.14z"/>
   <path class="fil6" d="M11065.94 3767.92c27.38,98.6 -47.96,66.23 63.07,93.73 0.22,0.06 112.59,-17.72 124.77,-20.11 505.11,-99.59 564.69,147.61 736.47,150.59 53.08,-300.64 -664.8,-344.65 -924.31,-224.21z"/>
   <path class="fil9" d="M3712.66 1807.33c27.66,19.18 -38.76,104.46 236.81,-2.61l426.98 -152.03c137.14,-46.09 134.63,-14.34 152.83,-136.42 -112.25,-53.65 -297.67,48.16 -419.01,92.38 -244.6,89.14 -333.87,76.1 -397.62,198.69z"/>
   <path class="fil6" d="M14656.29 15190.71c-8.56,17.67 -97.17,-47.75 40,158.61 51.64,77.7 61.7,104.78 110.49,181.55 90.62,142.56 99.33,285.01 249.06,321.34 10.4,-140.67 -74.92,-259.61 -151.88,-385.36 -63.79,-104.23 -141.07,-304.93 -247.67,-276.14z"/>
   <path class="fil10" d="M2367.4 11901.47c43.88,-20.48 65.58,40.42 144.56,-247.26 33.65,-122.57 47.07,-238.45 39.69,-364.36 -95.3,104.72 -317.82,422.74 -184.26,611.62z"/>
   <path class="fil6" d="M14142.82 10222.47c84.6,29.3 579.98,-131.58 607.69,-300.92 -85.11,-4.89 -561.94,139.74 -607.69,300.92z"/>
   <path class="fil6" d="M10833.56 8112.12c0.77,60 8.86,133.34 11.32,195.96 1.69,43.01 0.66,157.54 6.94,192.12 24.25,133.7 30.95,74.69 85.82,93.45 54.34,-95.47 25.38,-207.67 20.49,-323.57 -16.2,-383.33 8.08,-278.07 -85.17,-325.56l-39.4 167.6z"/>
   <path class="fil6" d="M14980.17 16100.25c-1.62,-116 -149.1,-388.9 -279.28,-404.78 -32.11,129.19 141.46,390.63 279.28,404.78z"/>
   <path class="fil11" d="M11358.08 4540.32c149.47,-68.47 153.19,-223.03 97.28,-334.59 -92.77,9.41 -164.57,51.31 -150.18,221.36 14.84,175.34 3.69,52.64 52.9,113.24z"/>
   <path class="fil11" d="M10015.09 4346.66c173.13,-11.28 164.27,-229.4 108.95,-330.48 -98.69,19.18 -76.92,-5.73 -113.73,96.27 -41.69,115.56 -39.19,137.66 4.79,234.22z"/>
   <path class="fil11" d="M3732.44 6723.1c72.73,72.58 78.84,86.9 212.22,55.73 41.56,-107.96 36.9,-92.93 -17.06,-187.67 -134.97,0.72 -176.64,21.28 -195.16,131.95z"/>
   <path class="fil6" d="M2547.72 15664.93c128.72,37.35 210.5,2.55 163.54,-163.62 -46.28,-2.37 -107.28,-9.47 -146.37,22.38 -43.79,35.68 -20.43,-9.69 -37.42,62.67 -30.22,128.73 10.96,55.8 20.25,78.57z"/>
   <path class="fil12" d="M6157.32 11647.55l24.34 15.08c89.6,-119.31 165.23,-211.03 183.52,-400.45 -103.81,68.66 -194.35,211.06 -207.86,385.37z"/>
   <path class="fil6" d="M7789.74 8813.61c7.09,-71.45 1.16,-90.22 -30.8,-138.97 -43.46,-66.3 -48.41,-74.6 -147.53,-71.41 8.07,117.8 41.5,199.7 178.33,210.38z"/>
   <path class="fil6" d="M5027.16 18348.61c26.09,8.11 68.3,-3.32 96.64,-7.65 2.52,-195.66 -88.36,-218.3 -171.93,-72.29 25.37,23.88 -6.71,54.43 75.29,79.94z"/>
   <path class="fil13" d="M20801.51 15581.7c139.9,-21.05 113.7,-17.01 105.62,-160.92 -143.8,1.11 -216.36,14.7 -105.62,160.92z"/>
   <path class="fil13" d="M16268.96 7802.65c145.07,26.01 132.13,-35.7 80.53,-145.14 -68.14,11.41 -74.5,-25.99 -108.42,45.48 -57.22,120.56 27.71,99.41 27.9,99.66z"/>
   <path class="fil14" d="M18446.74 21331.38c202.51,-21.45 110.81,-186.62 -15.81,-126.3 -39.88,85.02 -18.79,61.24 15.81,126.3z"/>
   <path class="fil15" d="M10636.28 2038.51l95.78 -23.92 4.95 164.6c18.55,-20.25 65.98,60.68 60.55,-111.95 -2.41,-76.55 -24.51,-60.76 -53.96,-95.41 -140.03,15.25 -54.88,-16.57 -107.32,66.67z"/>
   <path class="fil16" d="M1287.12 2115.36l86.77 -80.06 27.25 -165.26 -27.35 -53.41c-48.83,64.38 -66.11,200.9 -86.68,298.73z"/>
   <path class="fil17" d="M9563.57 3366.41l29.15 -46.69 -164.66 18.32c58.71,-95.86 -44.71,10.93 133.15,-116.12 -160.58,16.12 -125.47,-19.55 -160.4,105.43 59.51,40.09 51.59,41.93 162.76,39.06z"/>
   <path class="fil14" d="M13118.89 21244c-137.05,-88.9 -129.12,-5 -135.19,0 21.45,22.06 -32.11,57.25 60.28,64.64 126.6,10.13 47.72,-16.01 74.92,-64.64z"/>
   <path class="fil18" d="M329.32 11361.34c-4.96,-72.17 -11.05,-143.41 -15.6,-215.09l-20.71 -152.24c-2.69,-9.84 -8.13,-20.57 -10.61,-28.41 -2.42,-7.69 -7.78,-18.23 -11.68,-27.36 1.63,156.07 -2.04,311.15 58.6,423.09z"/>
   <path class="fil19" d="M17551.5 10591.34l-210.52 18.26c-5.63,-5.76 -16.78,-22.78 -19.48,-16.54l-53.45 -49.22 -4.67 98.49c94.63,0.64 232.24,0.29 288.11,-50.99z"/>
   <path class="fil18" d="M5911.61 12371.28c45.41,-66.4 56.39,-204.78 67.28,-310.38l-91.85 68.87c69.32,57.76 38.65,-47.76 34.35,121.4 -1.19,46.87 -11.41,53.24 -9.78,120.1z"/>
   <path class="fil20" d="M4714.05 12939.7c-111.07,-64.15 -12.77,32.78 -41.35,-71.89 -0.62,-2.29 4.37,-82.7 4.68,-90.12 -25.86,32.47 -19.11,-2 -37.42,60 -17.71,60 -17.56,96.61 -25.91,156.41 198.67,-35.19 25.19,0.25 100.01,-54.4z"/>
   <path class="fil21" d="M14193.66 3988.28c38.55,29.93 16.58,9.33 76.4,33.2l1.98 -123.7 -73.3 -0.4 -5.08 90.91z"/>
   <path class="fil22" d="M8124.11 6595.83l-99.41 30 1.38 -83.78 -24.85 50.63c7.05,86.52 -3.05,27.44 25.76,72.67 170.99,-7.58 43.68,5.86 97.12,-69.52z"/>
   <path class="fil23" d="M2705.07 10927.06c-17.23,-20.67 -15.65,-12.61 -40.51,-66.91 -26.16,-57.15 -5.2,-35.73 -39.5,-96.24l17.89 177.58c123.25,71.64 14.5,12.45 62.12,-14.43z"/>
   <path class="fil24" d="M2993.14 2607.22c73.49,67.95 32.73,49.23 142.55,34.28 10.59,-120 21.47,-43.91 -24.19,-133.18l6.36 118.64 -124.72 -19.73z"/>
   <path class="fil25" d="M914.24 1432.01l34.17 -5.26 -38.44 -83.91 -56.41 -5.47c30.37,67.69 -4.35,5.4 25.72,49.08 3.9,5.66 12.61,17.55 16.59,23.16 4.05,5.7 12.28,14.92 18.36,22.41z"/>
   <path class="fil26" d="M13213.21 11147.77l65.51 -56.65 -109.12 0.53c11.8,107.21 -6.11,14.36 43.61,56.12z"/>
   <path class="fil26" d="M19788.62 11347.42l107.64 -2.84c-10.84,-100.37 7.71,-14.07 -50.74,-51.56l-56.9 54.4z"/>
   <path class="fil27" d="M3078.91 2853.21l36.31 -74.35 -95.74 -39.51c52.54,49.51 38.56,27.87 59.42,113.86z"/>
   <polygon class="fil28" points="2874.3,2764.34 2976.25,2752.13 2919.3,2706.91 "/>
   <polygon class="fil16" points="4434.53,13355.83 4480.83,13252.93 4411.31,13299.13 "/>
   <path class="fil29" d="M6181.66 11662.63l-24.34 -15.08c-26.08,27.04 -35.65,-46.3 -26.59,76.14l50.92 -61.06z"/>
  </g>
 </g>
</svg>
