<svg width="834" height="678" viewBox="0 0 834 678" fill="none" xmlns="http://www.w3.org/2000/svg">
<path d="M63.6323 585.816L37.8164 560L12.0006 585.816L37.8164 611.632L63.6323 585.816Z" fill="#FDD500"/>
<path d="M85.8595 535.43L73.4297 523L60.9998 535.43L73.4297 547.86L85.8595 535.43Z" stroke="white" stroke-miterlimit="10"/>
<path d="M83.753 152.987H-98.2201C-104.725 152.987 -110 147.841 -110 141.494C-110 135.146 -104.725 130 -98.2201 130H83.753C90.2583 130 95.5329 135.146 95.5329 141.494C95.5329 147.841 90.2583 152.987 83.753 152.987Z" stroke="white" stroke-miterlimit="10"/>
<path d="M106.283 47.1414C106.283 52.6419 101.814 57.2828 96.1414 57.2828C90.641 57.2828 86 52.8137 86 47.1414C86 41.641 90.4691 37 96.1414 37C101.814 37 106.283 41.641 106.283 47.1414Z" fill="#E84C3D"/>
<path d="M521.793 677.587C516.869 677.587 513 673.717 513 668.793C513 663.869 516.869 660 521.793 660C526.717 660 530.587 663.869 530.587 668.793C530.587 673.542 526.717 677.587 521.793 677.587ZM521.793 661.759C517.924 661.759 514.759 664.924 514.759 668.793C514.759 672.662 517.924 675.828 521.793 675.828C525.662 675.828 528.828 672.662 528.828 668.793C528.828 664.748 525.662 661.759 521.793 661.759Z" fill="white"/>
<path d="M756.676 384.931L709.89 350.402C702.326 344.969 700.743 334.277 706.372 326.916C711.824 319.379 722.553 317.802 729.941 323.41L756.324 342.866C762.304 347.248 770.571 347.248 776.551 342.69L816.126 312.543C822.106 307.986 830.373 307.986 836.353 312.368L876.28 341.814C882.26 346.196 890.527 346.196 896.507 341.639L936.082 311.492C942.062 306.935 950.329 306.935 956.309 311.316L996.411 340.762C1002.39 345.144 1010.66 345.144 1016.64 340.587L1056.21 310.44C1062.19 305.883 1070.46 305.883 1076.44 310.265L1123.4 344.794C1130.97 350.227 1132.55 360.919 1126.92 368.28C1121.47 375.817 1110.74 377.395 1103.35 371.786L1076.97 352.33C1070.99 347.949 1062.72 347.949 1056.74 352.506L1016.99 382.653C1011.01 387.21 1002.74 387.21 996.763 382.828L956.661 353.382C950.68 349 942.414 349 936.433 353.557L896.859 383.529C890.878 388.086 882.612 388.086 876.631 383.704L836.705 354.434C830.725 350.052 822.458 350.052 816.478 354.609L776.903 384.756C770.923 389.138 762.656 389.313 756.676 384.931Z" stroke="white" stroke-miterlimit="10"/>
<path d="M692.824 0.0256121L683 9.84961L692.824 19.6736L702.648 9.84959L692.824 0.0256121Z" fill="white"/>
<path d="M748.394 0.0178185L738.57 9.8418L748.394 19.6658L758.218 9.8418L748.394 0.0178185Z" fill="white"/>
<path d="M803.957 0.00024034L794.133 9.82422L803.957 19.6482L813.781 9.82422L803.957 0.00024034Z" fill="#C4C4C4"/>
<path d="M773.861 625.607C773.861 636.399 765.351 645.214 754.931 645.214C744.51 645.214 736 636.399 736 625.607C736 614.814 744.51 606 754.931 606C765.351 606 773.861 614.814 773.861 625.607Z" fill="#E3E4E6"/>
</svg>
