<svg width="369" height="811" viewBox="0 0 369 811" fill="none" xmlns="http://www.w3.org/2000/svg">
<path d="M58 521L46 509L34 521L46 533L58 521Z" fill="#FDD500"/>
<path d="M20.2828 102.141C20.2828 107.642 15.8137 112.283 10.1414 112.283C4.64099 112.283 0 107.814 0 102.141C0 96.641 4.4691 92 10.1414 92C15.8137 92 20.2828 96.641 20.2828 102.141Z" fill="#E84C3D"/>
<path d="M242.824 0.0256121L233 9.84961L242.824 19.6736L252.648 9.84959L242.824 0.0256121Z" fill="white"/>
<path d="M298.394 0.0178185L288.57 9.8418L298.394 19.6658L308.218 9.8418L298.394 0.0178185Z" fill="white"/>
<path d="M353.957 0.00024034L344.133 9.82422L353.957 19.6482L363.781 9.82422L353.957 0.00024034Z" fill="#C4C4C4"/>
<path d="M171 810.5C160.636 810.5 152.5 802.364 152.5 792C152.5 781.636 160.636 773.5 171 773.5C181.364 773.5 189.5 781.636 189.5 792C189.5 801.99 181.357 810.5 171 810.5ZM171 776.3C162.364 776.3 155.3 783.364 155.3 792C155.3 800.636 162.364 807.7 171 807.7C179.636 807.7 186.7 800.636 186.7 792C186.7 782.976 179.628 776.3 171 776.3Z" fill="white" stroke="black"/>
<path d="M331 755.5C331 761.28 326.505 766 321 766C315.495 766 311 761.28 311 755.5C311 749.72 315.495 745 321 745C326.505 745 331 749.72 331 755.5Z" fill="#E3E4E6"/>
<path d="M454.753 531.052H272.78C266.275 531.052 261 526.115 261 520.026C261 513.937 266.275 509 272.78 509H454.753C461.258 509 466.533 513.937 466.533 520.026C466.533 526.115 461.258 531.052 454.753 531.052Z" stroke="white" stroke-miterlimit="10"/>
</svg>
