<svg width="1594" height="238" viewBox="0 0 1594 238" fill="none" xmlns="http://www.w3.org/2000/svg">
<path d="M1378.89 224.022C1378.89 231.212 1373.22 237.083 1366.28 237.083C1359.33 237.083 1353.66 231.212 1353.66 224.022C1353.66 216.832 1359.33 210.96 1366.28 210.96C1373.22 210.96 1378.89 216.832 1378.89 224.022Z" fill="#E3E4E6"/>
<path d="M1255.37 236.497C1252.09 236.497 1249.51 233.92 1249.51 230.639C1249.51 227.359 1252.09 224.781 1255.37 224.781C1258.65 224.781 1261.23 227.359 1261.23 230.639C1261.23 233.802 1258.65 236.497 1255.37 236.497ZM1255.37 225.953C1252.79 225.953 1250.68 228.062 1250.68 230.639C1250.68 233.217 1252.79 235.326 1255.37 235.326C1257.95 235.326 1260.06 233.217 1260.06 230.639C1260.06 227.945 1257.95 225.953 1255.37 225.953Z" fill="white"/>
<path d="M130.075 71.9397H8.84758C4.51385 71.9397 1 68.5112 1 64.2828C1 60.0544 4.51385 56.626 8.84758 56.626H130.075C134.409 56.626 137.922 60.0544 137.922 64.2828C137.922 68.5112 134.409 71.9397 130.075 71.9397Z" stroke="white" stroke-miterlimit="10"/>
<path d="M151.746 6.75604C151.746 10.4203 148.769 13.5121 144.99 13.5121C141.326 13.5121 138.234 10.5348 138.234 6.75604C138.234 3.09175 141.212 0 144.99 0C148.769 0 151.746 3.09175 151.746 6.75604Z" fill="#E84C3D"/>
<path d="M120.562 211.081L112.281 202.801L104.001 211.081L112.281 219.362L120.562 211.081Z" stroke="white" stroke-miterlimit="10"/>
<path d="M845.397 212.297L828.199 195.099L811.001 212.297L828.199 229.495L845.397 212.297Z" fill="#FDD500"/>
<path d="M1256.27 9.01792L1249.72 15.5625L1256.27 22.1071L1262.81 15.5625L1256.27 9.01792Z" fill="white"/>
<path d="M1293.29 9.01207L1286.74 15.5566L1293.29 22.1012L1299.83 15.5566L1293.29 9.01207Z" fill="white"/>
<path d="M1330.3 9.00036L1323.76 15.5449L1330.3 22.0895L1336.85 15.5449L1330.3 9.00036Z" fill="#C4C4C4"/>
<path d="M1344.1 148.347L1312.94 125.345C1307.9 121.725 1306.84 114.602 1310.59 109.698C1314.22 104.677 1321.37 103.626 1326.29 107.363L1343.87 120.324C1347.85 123.243 1353.36 123.243 1357.34 120.207L1383.71 100.124C1387.69 97.0877 1393.2 97.0877 1397.18 100.007L1423.78 119.623C1427.77 122.542 1433.27 122.542 1437.26 119.506L1463.62 99.423C1467.6 96.3871 1473.11 96.3871 1477.1 99.3062L1503.81 118.923C1507.8 121.842 1513.3 121.842 1517.29 118.806L1543.65 98.7224C1547.63 95.6865 1553.14 95.6865 1557.13 98.6056L1588.41 121.608C1593.45 125.228 1594.5 132.35 1590.75 137.255C1587.12 142.275 1579.97 143.326 1575.05 139.59L1557.48 126.629C1553.49 123.71 1547.99 123.71 1544 126.746L1517.52 146.829C1513.54 149.865 1508.03 149.865 1504.05 146.946L1477.33 127.33C1473.35 124.411 1467.84 124.411 1463.86 127.446L1437.49 147.413C1433.51 150.449 1428 150.449 1424.02 147.53L1397.42 128.03C1393.43 125.111 1387.93 125.111 1383.94 128.147L1357.58 148.23C1353.59 151.15 1348.09 151.266 1344.1 148.347Z" stroke="white" stroke-miterlimit="10"/>
</svg>
