<svg width="1773" height="463" viewBox="0 0 1773 463" fill="none" xmlns="http://www.w3.org/2000/svg">
<path d="M1459.89 442.854C1459.89 453.647 1451.38 462.461 1440.96 462.461C1430.54 462.461 1422.03 453.647 1422.03 442.854C1422.03 432.061 1430.54 423.247 1440.96 423.247C1451.38 423.247 1459.89 432.061 1459.89 442.854Z" fill="#E3E4E6"/>
<path d="M1274.48 461.58C1269.55 461.58 1265.69 457.711 1265.69 452.786C1265.69 447.862 1269.55 443.993 1274.48 443.993C1279.4 443.993 1283.27 447.862 1283.27 452.786C1283.27 457.535 1279.4 461.58 1274.48 461.58ZM1274.48 445.752C1270.61 445.752 1267.44 448.917 1267.44 452.786C1267.44 456.655 1270.61 459.821 1274.48 459.821C1278.35 459.821 1281.51 456.655 1281.51 452.786C1281.51 448.742 1278.35 445.752 1274.48 445.752Z" fill="white"/>
<path d="M194.753 107.987H12.7799C6.2746 107.987 1 102.841 1 96.4936C1 90.1464 6.2746 85 12.7799 85H194.753C201.258 85 206.533 90.1464 206.533 96.4936C206.533 102.841 201.258 107.987 194.753 107.987Z" stroke="white" stroke-miterlimit="10"/>
<path d="M227.283 10.1414C227.283 15.6419 222.814 20.2828 217.141 20.2828C211.641 20.2828 207 15.8137 207 10.1414C207 4.64099 211.469 0 217.141 0C222.814 0 227.283 4.64099 227.283 10.1414Z" fill="#E84C3D"/>
<path d="M271.86 423.43L259.43 411L247 423.43L259.43 435.86L271.86 423.43Z" stroke="white" stroke-miterlimit="10"/>
<path d="M785.07 425.254L759.254 399.438L733.438 425.254L759.254 451.07L785.07 425.254Z" fill="#FDD500"/>
<path d="M1275.82 12.0266L1266 21.8506L1275.82 31.6746L1285.65 21.8506L1275.82 12.0266Z" fill="white"/>
<path d="M1331.39 12.0188L1321.57 21.8428L1331.39 31.6668L1341.22 21.8428L1331.39 12.0188Z" fill="white"/>
<path d="M1386.96 12.0002L1377.13 21.8242L1386.96 31.6482L1396.78 21.8242L1386.96 12.0002Z" fill="#C4C4C4"/>
<path d="M1407.68 329.259L1360.89 294.731C1353.33 289.297 1351.74 278.605 1357.37 271.244C1362.82 263.707 1373.55 262.13 1380.94 267.738L1407.32 287.194C1413.3 291.576 1421.57 291.576 1427.55 287.019L1467.13 256.871C1473.11 252.314 1481.37 252.314 1487.35 256.696L1527.28 286.142C1533.26 290.524 1541.53 290.524 1547.51 285.967L1587.08 255.82C1593.06 251.263 1601.33 251.263 1607.31 255.645L1647.41 285.091C1653.39 289.472 1661.66 289.472 1667.64 284.915L1707.21 254.768C1713.19 250.211 1721.46 250.211 1727.44 254.593L1774.4 289.122C1781.97 294.555 1783.55 305.247 1777.92 312.608C1772.47 320.145 1761.74 321.723 1754.35 316.114L1727.97 296.659C1721.99 292.277 1713.72 292.277 1707.74 296.834L1667.99 326.981C1662.01 331.538 1653.74 331.538 1647.76 327.156L1607.66 297.71C1601.68 293.328 1593.41 293.328 1587.43 297.885L1547.86 327.857C1541.88 332.414 1533.61 332.414 1527.63 328.033L1487.7 298.762C1481.72 294.38 1473.46 294.38 1467.48 298.937L1427.9 329.084C1421.92 333.466 1413.66 333.641 1407.68 329.259Z" stroke="white" stroke-miterlimit="10"/>
</svg>
