<svg width="834" height="311" viewBox="0 0 834 311" fill="none" xmlns="http://www.w3.org/2000/svg">
<path d="M79.0749 71.9397H-42.1524C-46.4861 71.9397 -50 68.5112 -50 64.2828C-50 60.0544 -46.4861 56.626 -42.1524 56.626H79.0749C83.4086 56.626 86.9225 60.0544 86.9225 64.2828C86.9225 68.5112 83.4086 71.9397 79.0749 71.9397Z" stroke="white" stroke-miterlimit="10"/>
<path d="M100.746 6.75604C100.746 10.4203 97.7692 13.5121 93.9904 13.5121C90.3261 13.5121 87.2344 10.5348 87.2344 6.75604C87.2344 3.09175 90.2116 0 93.9904 0C97.7692 0 100.746 3.09175 100.746 6.75604Z" fill="#E84C3D"/>
<path d="M96.5618 192.281L88.2812 184L80.0007 192.281L88.2812 200.561L96.5618 192.281Z" stroke="white" stroke-miterlimit="10"/>
<path d="M155.397 293.397L138.199 276.199L121.001 293.397L138.199 310.595L155.397 293.397Z" fill="#FDD500"/>
<path d="M782.375 288.062C782.375 295.252 776.706 301.123 769.764 301.123C762.822 301.123 757.152 295.252 757.152 288.062C757.152 280.872 762.822 275 769.764 275C776.706 275 782.375 280.872 782.375 288.062Z" fill="#E3E4E6"/>
<path d="M658.858 300.537C655.577 300.537 653 297.96 653 294.679C653 291.399 655.577 288.821 658.858 288.821C662.138 288.821 664.716 291.399 664.716 294.679C664.716 297.842 662.138 300.537 658.858 300.537ZM658.858 289.993C656.28 289.993 654.172 292.102 654.172 294.679C654.172 297.257 656.28 299.366 658.858 299.366C661.435 299.366 663.544 297.257 663.544 294.679C663.544 291.985 661.435 289.993 658.858 289.993Z" fill="white"/>
<path d="M659.756 9.01792L653.211 15.5625L659.756 22.1071L666.3 15.5625L659.756 9.01792Z" fill="white"/>
<path d="M696.775 9.01207L690.23 15.5566L696.775 22.1012L703.32 15.5566L696.775 9.01207Z" fill="white"/>
<path d="M733.791 9.00036L727.246 15.5449L733.791 22.0895L740.335 15.5449L733.791 9.00036Z" fill="#C4C4C4"/>
<path d="M747.592 148.347L716.424 125.345C711.385 121.725 710.331 114.602 714.08 109.698C717.713 104.677 724.86 103.626 729.781 107.363L747.358 120.324C751.341 123.243 756.849 123.243 760.832 120.207L787.197 100.124C791.18 97.0877 796.688 97.0877 800.672 100.007L827.27 119.623C831.254 122.542 836.761 122.542 840.745 119.506L867.109 99.423C871.093 96.3871 876.6 96.3871 880.584 99.3062L907.3 118.923C911.283 121.842 916.791 121.842 920.774 118.806L947.139 98.7224C951.122 95.6865 956.63 95.6865 960.614 98.6056L991.899 121.608C996.937 125.228 997.992 132.35 994.242 137.255C990.61 142.275 983.462 143.326 978.541 139.59L960.965 126.629C956.981 123.71 951.474 123.71 947.49 126.746L921.009 146.829C917.025 149.865 911.518 149.865 907.534 146.946L880.818 127.33C876.834 124.411 871.327 124.411 867.343 127.446L840.979 147.413C836.995 150.449 831.488 150.449 827.504 147.53L800.906 128.03C796.922 125.111 791.415 125.111 787.431 128.147L761.067 148.23C757.083 151.15 751.576 151.266 747.592 148.347Z" stroke="white" stroke-miterlimit="10"/>
</svg>
