<svg width="375" height="464" viewBox="0 0 375 464" fill="none" xmlns="http://www.w3.org/2000/svg">
<path d="M35.0749 71.9397H-86.1524C-90.4861 71.9397 -94 68.5112 -94 64.2828C-94 60.0544 -90.4861 56.626 -86.1524 56.626H35.0749C39.4086 56.626 42.9225 60.0544 42.9225 64.2828C42.9225 68.5112 39.4086 71.9397 35.0749 71.9397Z" stroke="white" stroke-miterlimit="10"/>
<path d="M56.7465 6.75604C56.7465 10.4203 53.7692 13.5121 49.9904 13.5121C46.3261 13.5121 43.2344 10.5348 43.2344 6.75604C43.2344 3.09175 46.2116 0 49.9904 0C53.7692 0 56.7465 3.09175 56.7465 6.75604Z" fill="#E84C3D"/>
<path d="M86.5618 119.281L78.2812 111L70.0007 119.281L78.2812 127.561L86.5618 119.281Z" stroke="white" stroke-miterlimit="10"/>
<path d="M36.3973 419.198L19.1992 402L2.00114 419.198L19.1992 436.396L36.3973 419.198Z" fill="#FDD500"/>
<path d="M261.858 463.716C258.577 463.716 256 461.138 256 457.858C256 454.577 258.577 452 261.858 452C265.138 452 267.716 454.577 267.716 457.858C267.716 461.021 265.138 463.716 261.858 463.716ZM261.858 453.172C259.28 453.172 257.172 455.28 257.172 457.858C257.172 460.435 259.28 462.544 261.858 462.544C264.435 462.544 266.544 460.435 266.544 457.858C266.544 455.163 264.435 453.172 261.858 453.172Z" fill="white"/>
<path d="M262.756 9.01792L256.211 15.5625L262.756 22.1071L269.3 15.5625L262.756 9.01792Z" fill="white"/>
<path d="M299.775 9.01207L293.23 15.5566L299.775 22.1012L306.32 15.5566L299.775 9.01207Z" fill="white"/>
<path d="M336.791 9.00036L330.246 15.5449L336.791 22.0895L343.335 15.5449L336.791 9.00036Z" fill="#C4C4C4"/>
<path d="M328.758 122.917L297.59 99.914C292.551 96.2943 291.497 89.1717 295.246 84.2676C298.879 79.2467 306.026 78.1958 310.947 81.9323L328.524 94.8931C332.507 97.8122 338.015 97.8122 341.998 94.7763L368.363 74.6929C372.346 71.657 377.854 71.657 381.838 74.5761L408.436 94.1925C412.42 97.1116 417.927 97.1116 421.911 94.0757L448.275 73.9923C452.259 70.9564 457.766 70.9564 461.75 73.8755L488.466 93.4919C492.449 96.411 497.957 96.411 501.94 93.3752L528.305 73.2917C532.288 70.2558 537.796 70.2558 541.78 73.1749L573.065 96.1775C578.103 99.7972 579.158 106.92 575.408 111.824C571.776 116.845 564.628 117.896 559.707 114.159L542.131 101.198C538.147 98.2793 532.64 98.2793 528.656 101.315L502.175 121.399C498.191 124.434 492.684 124.434 488.7 121.515L461.984 101.899C458 98.9798 452.493 98.9798 448.509 102.016L422.145 121.982C418.161 125.018 412.654 125.018 408.67 122.099L382.072 102.6C378.088 99.6804 372.581 99.6804 368.597 102.716L342.233 122.8C338.249 125.719 332.742 125.836 328.758 122.917Z" stroke="white" stroke-miterlimit="10"/>
</svg>
