<svg width="40" height="41" viewBox="0 0 40 41" fill="none" xmlns="http://www.w3.org/2000/svg">
<path d="M30 13.5683C30 10.9161 28.9464 8.37265 27.0711 6.49729C25.1957 4.62193 22.6522 3.56836 20 3.56836C17.3478 3.56836 14.8043 4.62193 12.9289 6.49729C11.0536 8.37265 10 10.9161 10 13.5683C10 25.2351 5 28.5683 5 28.5683H35C35 28.5683 30 25.2351 30 13.5683Z" stroke="#081A37" stroke-width="4" stroke-linecap="round" stroke-linejoin="round"/>
<path d="M22.8839 35.2354C22.5908 35.7405 22.1703 36.1598 21.6642 36.4513C21.1582 36.7427 20.5845 36.8962 20.0005 36.8962C19.4166 36.8962 18.8428 36.7427 18.3368 36.4513C17.8308 36.1598 17.4102 35.7405 17.1172 35.2354" stroke="#081A37" stroke-width="4" stroke-linecap="round" stroke-linejoin="round"/>
</svg>
