<svg width="107" height="512" viewBox="0 0 107 512" fill="none" xmlns="http://www.w3.org/2000/svg">
<path d="M85.8595 498.43L73.4297 486L60.9998 498.43L73.4297 510.86L85.8595 498.43Z" stroke="white" stroke-miterlimit="10"/>
<path d="M83.753 115.987H-98.2201C-104.725 115.987 -110 110.841 -110 104.494C-110 98.1464 -104.725 93 -98.2201 93H83.753C90.2583 93 95.5329 98.1464 95.5329 104.494C95.5329 110.841 90.2583 115.987 83.753 115.987Z" stroke="white" stroke-miterlimit="10"/>
<path d="M106.283 10.1414C106.283 15.6419 101.814 20.2828 96.1414 20.2828C90.641 20.2828 86 15.8137 86 10.1414C86 4.64099 90.4691 0 96.1414 0C101.814 0 106.283 4.64099 106.283 10.1414Z" fill="#E84C3D"/>
</svg>
