<svg width="321" height="678" viewBox="0 0 321 678" fill="none" xmlns="http://www.w3.org/2000/svg">
<path d="M8.79326 677.587C3.86903 677.587 0 673.717 0 668.793C0 663.869 3.86903 660 8.79326 660C13.7175 660 17.5865 663.869 17.5865 668.793C17.5865 673.542 13.7175 677.587 8.79326 677.587ZM8.79326 661.759C4.92422 661.759 1.75865 664.924 1.75865 668.793C1.75865 672.662 4.92422 675.828 8.79326 675.828C12.6623 675.828 15.8279 672.662 15.8279 668.793C15.8279 664.748 12.6623 661.759 8.79326 661.759Z" fill="white"/>
<path d="M243.676 384.931L196.89 350.402C189.326 344.969 187.743 334.277 193.372 326.916C198.824 319.379 209.553 317.802 216.941 323.41L243.324 342.866C249.304 347.248 257.571 347.248 263.551 342.69L303.126 312.543C309.106 307.986 317.373 307.986 323.353 312.368L363.28 341.814C369.26 346.196 377.527 346.196 383.507 341.639L423.082 311.492C429.062 306.935 437.329 306.935 443.309 311.316L483.411 340.762C489.391 345.144 497.658 345.144 503.638 340.587L543.213 310.44C549.193 305.883 557.46 305.883 563.44 310.265L610.402 344.794C617.966 350.227 619.549 360.919 613.92 368.28C608.468 375.817 597.738 377.395 590.351 371.786L563.968 352.33C557.988 347.949 549.721 347.949 543.741 352.506L503.99 382.653C498.01 387.21 489.743 387.21 483.763 382.828L443.661 353.382C437.68 349 429.414 349 423.433 353.557L383.859 383.529C377.878 388.086 369.612 388.086 363.631 383.704L323.705 354.434C317.725 350.052 309.458 350.052 303.478 354.609L263.903 384.756C257.923 389.138 249.656 389.313 243.676 384.931Z" stroke="white" stroke-miterlimit="10"/>
<path d="M179.824 0.0256121L170 9.84961L179.824 19.6736L189.648 9.84959L179.824 0.0256121Z" fill="white"/>
<path d="M235.394 0.0178185L225.57 9.8418L235.394 19.6658L245.218 9.8418L235.394 0.0178185Z" fill="white"/>
<path d="M290.957 0.00024034L281.133 9.82422L290.957 19.6482L300.781 9.82422L290.957 0.00024034Z" fill="#C4C4C4"/>
<path d="M260.861 625.607C260.861 636.399 252.351 645.214 241.931 645.214C231.51 645.214 223 636.399 223 625.607C223 614.814 231.51 606 241.931 606C252.351 606 260.861 614.814 260.861 625.607Z" fill="#E3E4E6"/>
</svg>
