<svg width="508" height="451" viewBox="0 0 508 451" fill="none" xmlns="http://www.w3.org/2000/svg">
<path d="M194.889 430.854C194.889 441.647 186.379 450.461 175.958 450.461C165.537 450.461 157.027 441.647 157.027 430.854C157.027 420.061 165.537 411.247 175.958 411.247C186.379 411.247 194.889 420.061 194.889 430.854Z" fill="#E3E4E6"/>
<path d="M9.47881 449.58C4.55458 449.58 0.685547 445.711 0.685547 440.786C0.685547 435.862 4.55458 431.993 9.47881 431.993C14.403 431.993 18.2721 435.862 18.2721 440.786C18.2721 445.535 14.403 449.58 9.47881 449.58ZM9.47881 433.752C5.60977 433.752 2.4442 436.917 2.4442 440.786C2.4442 444.655 5.60977 447.821 9.47881 447.821C13.3478 447.821 16.5134 444.655 16.5134 440.786C16.5134 436.742 13.3478 433.752 9.47881 433.752Z" fill="white"/>
<path d="M10.824 0.0265886L1 9.85059L10.824 19.6746L20.648 9.85057L10.824 0.0265886Z" fill="white"/>
<path d="M66.3943 0.018795L56.5703 9.84277L66.3943 19.6668L76.2183 9.84277L66.3943 0.018795Z" fill="white"/>
<path d="M121.957 0.00024034L112.133 9.82422L121.957 19.6482L131.781 9.82422L121.957 0.00024034Z" fill="#C4C4C4"/>
<path d="M142.676 317.259L95.8895 282.731C88.3264 277.297 86.7434 266.605 92.3718 259.244C97.8243 251.707 108.553 250.13 115.941 255.738L142.324 275.194C148.304 279.576 156.571 279.576 162.551 275.019L202.126 244.871C208.106 240.314 216.373 240.314 222.353 244.696L262.28 274.142C268.26 278.524 276.527 278.524 282.507 273.967L322.082 243.82C328.062 239.263 336.329 239.263 342.309 243.645L382.411 273.091C388.391 277.472 396.658 277.472 402.638 272.915L442.213 242.768C448.193 238.211 456.46 238.211 462.44 242.593L509.402 277.122C516.966 282.555 518.549 293.247 512.92 300.608C507.468 308.145 496.738 309.723 489.351 304.114L462.968 284.659C456.988 280.277 448.721 280.277 442.741 284.834L402.99 314.981C397.01 319.538 388.743 319.538 382.763 315.156L342.661 285.71C336.68 281.328 328.414 281.328 322.433 285.885L282.859 315.857C276.878 320.414 268.612 320.414 262.631 316.033L222.705 286.762C216.725 282.38 208.458 282.38 202.478 286.937L162.903 317.084C156.923 321.466 148.656 321.641 142.676 317.259Z" stroke="white" stroke-miterlimit="10"/>
</svg>
