<svg width="217" height="811" viewBox="0 0 217 811" fill="none" xmlns="http://www.w3.org/2000/svg">
<path d="M90.824 0.0256121L81 9.84961L90.824 19.6736L100.648 9.84959L90.824 0.0256121Z" fill="white"/>
<path d="M146.394 0.0178185L136.57 9.8418L146.394 19.6658L156.218 9.8418L146.394 0.0178185Z" fill="white"/>
<path d="M201.957 0.00024034L192.133 9.82422L201.957 19.6482L211.781 9.82422L201.957 0.00024034Z" fill="#C4C4C4"/>
<path d="M19 810.5C8.63614 810.5 0.5 802.364 0.5 792C0.5 781.636 8.63614 773.5 19 773.5C29.3639 773.5 37.5 781.636 37.5 792C37.5 801.99 29.3574 810.5 19 810.5ZM19 776.3C10.3639 776.3 3.3 783.364 3.3 792C3.3 800.636 10.3639 807.7 19 807.7C27.6361 807.7 34.7 800.636 34.7 792C34.7 782.976 27.6279 776.3 19 776.3Z" fill="white" stroke="black"/>
<path d="M302.753 531.052H120.78C114.275 531.052 109 526.115 109 520.026C109 513.937 114.275 509 120.78 509H302.753C309.258 509 314.533 513.937 314.533 520.026C314.533 526.115 309.258 531.052 302.753 531.052Z" stroke="white" stroke-miterlimit="10"/>
<path d="M179 755.5C179 761.28 174.505 766 169 766C163.495 766 159 761.28 159 755.5C159 749.72 163.495 745 169 745C174.505 745 179 749.72 179 755.5Z" fill="#E3E4E6"/>
</svg>
