<svg width="273" height="437" viewBox="0 0 273 437" fill="none" xmlns="http://www.w3.org/2000/svg">
<path d="M194.753 107.987H12.7799C6.2746 107.987 1 102.841 1 96.4936C1 90.1464 6.2746 85 12.7799 85H194.753C201.258 85 206.533 90.1464 206.533 96.4936C206.533 102.841 201.258 107.987 194.753 107.987Z" stroke="white" stroke-miterlimit="10"/>
<path d="M227.283 10.1414C227.283 15.6419 222.814 20.2828 217.141 20.2828C211.641 20.2828 207 15.8137 207 10.1414C207 4.64099 211.469 0 217.141 0C222.814 0 227.283 4.64099 227.283 10.1414Z" fill="#E84C3D"/>
<path d="M271.86 423.43L259.43 411L247 423.43L259.43 435.86L271.86 423.43Z" stroke="white" stroke-miterlimit="10"/>
</svg>
