<svg width="152" height="221" viewBox="0 0 152 221" fill="none" xmlns="http://www.w3.org/2000/svg">
<path fill-rule="evenodd" clip-rule="evenodd" d="M8.84758 57.126C4.77832 57.126 1.5 60.3421 1.5 64.2828C1.5 68.2236 4.77832 71.4397 8.84758 71.4397H130.075C134.144 71.4397 137.422 68.2236 137.422 64.2828C137.422 60.3421 134.144 57.126 130.075 57.126H8.84758ZM0.5 64.2828C0.5 59.7667 4.24938 56.126 8.84758 56.126H130.075C134.673 56.126 138.422 59.7668 138.422 64.2828C138.422 68.7989 134.673 72.4397 130.075 72.4397H8.84758C4.24938 72.4397 0.5 68.7989 0.5 64.2828Z" fill="white"/>
<path d="M151.746 6.75604C151.746 10.4203 148.769 13.5121 144.99 13.5121C141.326 13.5121 138.234 10.5348 138.234 6.75604C138.234 3.09175 141.212 0 144.99 0C148.769 0 151.746 3.09175 151.746 6.75604Z" fill="#E84C3D"/>
<path fill-rule="evenodd" clip-rule="evenodd" d="M112.281 202.094L121.269 211.081L112.281 220.069L103.294 211.081L112.281 202.094ZM112.281 203.508L104.708 211.081L112.281 218.655L119.855 211.081L112.281 203.508Z" fill="white"/>
</svg>
