<svg width="345" height="229" viewBox="0 0 345 229" fill="none" xmlns="http://www.w3.org/2000/svg">
<path d="M129.887 215.022C129.887 222.212 124.217 228.083 117.275 228.083C110.333 228.083 104.664 222.212 104.664 215.022C104.664 207.832 110.333 201.96 117.275 201.96C124.217 201.96 129.887 207.832 129.887 215.022Z" fill="#E3E4E6"/>
<path d="M6.36964 227.497C3.0892 227.497 0.511719 224.92 0.511719 221.639C0.511719 218.359 3.0892 215.781 6.36964 215.781C9.65007 215.781 12.2276 218.359 12.2276 221.639C12.2276 224.802 9.65007 227.497 6.36964 227.497ZM6.36964 216.953C3.79215 216.953 1.6833 219.062 1.6833 221.639C1.6833 224.217 3.79215 226.326 6.36964 226.326C8.94712 226.326 11.056 224.217 11.056 221.639C11.056 218.945 8.94712 216.953 6.36964 216.953Z" fill="white"/>
<path d="M7.26723 0.0179215L0.722656 6.5625L7.26722 13.1071L13.8118 6.56249L7.26723 0.0179215Z" fill="white"/>
<path d="M44.2868 0.0120749L37.7422 6.55664L44.2868 13.1012L50.8313 6.55664L44.2868 0.0120749Z" fill="white"/>
<path d="M81.3024 0.000356154L74.7578 6.54492L81.3024 13.0895L87.8469 6.54492L81.3024 0.000356154Z" fill="#C4C4C4"/>
<path d="M95.1036 139.347L63.9354 116.345C58.8969 112.725 57.8424 105.602 61.5919 100.698C65.2243 95.6774 72.3719 94.6265 77.2932 98.3629L94.8692 111.324C98.8531 114.243 104.36 114.243 108.344 111.207L134.708 91.1235C138.692 88.0877 144.199 88.0877 148.183 91.0068L174.782 110.623C178.766 113.542 184.273 113.542 188.257 110.506L214.621 90.423C218.605 87.3871 224.112 87.3871 228.096 90.3062L254.811 109.923C258.795 112.842 264.302 112.842 268.286 109.806L294.65 89.7224C298.634 86.6865 304.141 86.6865 308.125 89.6056L339.411 112.608C344.449 116.228 345.504 123.35 341.754 128.255C338.122 133.275 330.974 134.326 326.053 130.59L308.477 117.629C304.493 114.71 298.986 114.71 295.002 117.746L268.521 137.829C264.537 140.865 259.029 140.865 255.046 137.946L228.33 118.33C224.346 115.411 218.839 115.411 214.855 118.446L188.491 138.413C184.507 141.449 179 141.449 175.016 138.53L148.418 119.03C144.434 116.111 138.927 116.111 134.943 119.147L108.579 139.23C104.595 142.15 99.0875 142.266 95.1036 139.347Z" stroke="white" stroke-miterlimit="10"/>
</svg>
