<svg width="119" height="455" viewBox="0 0 119 455" fill="none" xmlns="http://www.w3.org/2000/svg">
<path d="M5.85792 454.716C2.57748 454.716 0 452.138 0 448.858C0 445.577 2.57748 443 5.85792 443C9.13835 443 11.7158 445.577 11.7158 448.858C11.7158 452.021 9.13835 454.716 5.85792 454.716ZM5.85792 444.172C3.28043 444.172 1.17158 446.28 1.17158 448.858C1.17158 451.435 3.28043 453.544 5.85792 453.544C8.4354 453.544 10.5443 451.435 10.5443 448.858C10.5443 446.163 8.4354 444.172 5.85792 444.172Z" fill="white"/>
<path d="M6.75552 0.0179215L0.210938 6.5625L6.7555 13.1071L13.3001 6.56249L6.75552 0.0179215Z" fill="white"/>
<path d="M43.775 0.0120749L37.2305 6.55664L43.775 13.1012L50.3196 6.55664L43.775 0.0120749Z" fill="white"/>
<path d="M80.7907 0.000356154L74.2461 6.54492L80.7907 13.0895L87.3352 6.54492L80.7907 0.000356154Z" fill="#C4C4C4"/>
<path d="M72.7579 113.917L41.5897 90.914C36.5512 87.2943 35.4967 80.1717 39.2462 75.2676C42.8786 70.2467 50.0262 69.1958 54.9475 72.9323L72.5235 85.8931C76.5074 88.8122 82.0146 88.8122 85.9985 85.7763L112.363 65.6929C116.346 62.657 121.854 62.657 125.838 65.5761L152.436 85.1925C156.42 88.1116 161.927 88.1116 165.911 85.0757L192.275 64.9923C196.259 61.9564 201.766 61.9564 205.75 64.8755L232.466 84.4919C236.449 87.411 241.957 87.411 245.94 84.3752L272.305 64.2917C276.288 61.2558 281.796 61.2558 285.78 64.1749L317.065 87.1775C322.103 90.7972 323.158 97.9198 319.408 102.824C315.776 107.845 308.628 108.896 303.707 105.159L286.131 92.1984C282.147 89.2793 276.64 89.2793 272.656 92.3151L246.175 112.399C242.191 115.434 236.684 115.434 232.7 112.515L205.984 92.899C202 89.9798 196.493 89.9798 192.509 93.0157L166.145 112.982C162.161 116.018 156.654 116.018 152.67 113.099L126.072 93.5995C122.088 90.6804 116.581 90.6804 112.597 93.7163L86.2328 113.8C82.2489 116.719 76.7418 116.836 72.7579 113.917Z" stroke="white" stroke-miterlimit="10"/>
<path d="M93.2226 279.062C93.2226 286.252 87.5533 292.123 80.6113 292.123C73.6693 292.123 68 286.252 68 279.062C68 271.872 73.6693 266 80.6113 266C87.5533 266 93.2226 271.872 93.2226 279.062Z" fill="#E3E4E6"/>
</svg>
