<svg width="86" height="123" viewBox="0 0 86 123" fill="none" xmlns="http://www.w3.org/2000/svg">
<path d="M43.0597 82.5515C50.4633 82.5515 56.4868 76.5694 56.4868 69.2145C56.4868 62.3746 45.7072 50.2569 44.4798 48.8851C43.7513 48.0852 42.3508 48.0852 41.6222 48.8851C40.4123 50.2578 29.6328 62.3755 29.6328 69.2145C29.6328 76.5694 35.6563 82.5515 43.0599 82.5515H43.0597ZM43.0597 53.0774C47.241 58.0123 52.6507 65.5951 52.6507 69.215C52.6507 74.4734 48.3537 78.7416 43.0597 78.7416C37.7657 78.7416 33.4687 74.4734 33.4687 69.215C33.4687 65.5942 38.8784 58.0112 43.0597 53.0774Z" fill="#E84C3D"/>
<path d="M85.2604 38.846C85.2604 29.3773 77.5302 21.6603 67.9975 21.5848V12.0582H69.9155C73.0804 12.0582 75.6695 9.48642 75.6695 6.34275C75.6695 3.19908 73.0804 0.627342 69.9155 0.627342L18.1263 0.626465C14.9614 0.626465 12.3723 3.19821 12.3723 6.34187C12.3723 9.48554 14.9614 12.0573 18.1263 12.0573H20.0443V21.5839H18.2411C8.65008 21.5839 0.863281 29.3194 0.863281 38.8451V91.9641C0.863281 101.452 8.59357 109.15 18.1263 109.225V118.276C18.1263 120.638 20.0637 122.562 22.4418 122.562H27.8895C29.7502 122.562 31.3997 121.381 31.994 119.628L32.9345 116.848H55.1082L56.0478 119.629C56.6236 121.382 58.2731 122.563 60.1337 122.563H65.5814C67.9596 122.563 69.897 120.639 69.897 118.277V109.112C78.529 108.103 85.242 100.806 85.242 91.9845V38.8476L85.2604 38.846ZM4.70001 57.7843H17.3402C16.6108 60.2034 16.2081 62.7569 16.2081 65.405C16.2081 68.0531 16.6108 70.6065 17.3402 73.0257L4.70001 73.0266V57.7843ZM20.0451 65.405C20.0451 52.7927 30.3645 42.5416 43.063 42.5416C55.7615 42.5416 66.0809 52.7918 66.0809 65.405C66.0809 68.4346 65.4672 71.3302 64.3934 73.9792C64.2971 74.1318 64.2397 74.3028 64.1823 74.4747C60.6528 82.5717 52.5205 88.2687 43.0638 88.2687C30.3847 88.2687 20.0459 78.0185 20.0459 65.4053L20.0451 65.405ZM68.7846 57.7843H81.4248V73.0264H68.7846C69.5132 70.6065 69.9167 68.0538 69.9167 65.4057C69.9167 62.7567 69.514 60.2034 68.7846 57.7843ZM44.98 15.8681C43.9247 15.8681 43.062 16.725 43.062 17.7732V21.5836H31.553V12.0578H56.488V21.5845H46.8969V17.7741C46.8969 16.7259 46.0342 15.8681 44.9789 15.8681L44.98 15.8681ZM64.1611 21.5835H60.3251V12.0577H64.1611V21.5835ZM16.2083 6.3414C16.2083 5.29321 17.071 4.43625 18.1263 4.43625H69.9155C70.9708 4.43625 71.8335 5.29321 71.8335 6.3414C71.8335 7.38959 70.9708 8.24655 69.9155 8.24655L18.1263 8.24743C17.0719 8.24743 16.2083 7.38959 16.2083 6.3414ZM23.8811 12.0577H27.7172V21.5844H23.8811V12.0577ZM18.242 25.3947H67.8835C75.3455 25.3947 81.4253 31.4346 81.4253 38.8456V53.9735H67.2883C62.9727 44.9811 53.7466 38.7315 43.0632 38.7315C32.3789 38.7315 23.1528 44.9811 18.8381 53.9735H4.70295V38.8456C4.70295 31.4337 10.783 25.3947 18.2447 25.3947H18.242ZM66.0795 118.277C66.0795 118.543 65.8685 118.753 65.6 118.753H60.1338C59.9227 118.753 59.7311 118.62 59.6737 118.429L58.312 114.352C58.0427 113.57 57.3141 113.037 56.4894 113.037H31.5544C30.7296 113.037 30.0011 113.57 29.7318 114.332L28.3701 118.409C28.2941 118.62 28.1211 118.753 27.91 118.753H22.4623C22.1753 118.753 21.9643 118.543 21.9643 118.277V109.226H66.0808L66.0795 118.277ZM67.8828 105.416H18.2412C10.7792 105.416 4.69947 99.3762 4.69947 91.9652V76.8372H18.8364C23.152 85.8297 32.3782 92.0793 43.0615 92.0793C53.7458 92.0793 62.9719 85.8297 67.2866 76.8372H81.4218V91.9652C81.4218 99.3762 75.3418 105.416 67.88 105.416H67.8828Z" fill="#3D5A9B"/>
</svg>
