<svg width="123" height="123" viewBox="0 0 123 123" fill="none" xmlns="http://www.w3.org/2000/svg">
<path d="M71.1704 34.9209H51.9883C50.9331 34.9209 50.0703 35.7779 50.0703 36.826C50.0703 37.8742 50.9331 38.7312 51.9883 38.7312H71.1695C72.2247 38.7312 73.0875 37.8742 73.0875 36.826C73.0884 35.7787 72.2248 34.9209 71.1704 34.9209Z" fill="#E84C3D"/>
<path d="M122.96 29.2061V21.5854C122.96 20.5372 122.097 19.6803 121.042 19.6803L90.3517 19.6794C90.3517 18.6312 89.4889 17.7743 88.4336 17.7743H82.6796L82.6787 9.92475C82.6787 6.89515 80.1859 4.43725 77.1356 4.43725H73.0886V2.5321C73.0886 1.48392 72.2259 0.626953 71.1706 0.626953C70.1153 0.626953 69.2526 1.48392 69.2526 2.5321V4.43725H63.4985L63.4977 2.5321C63.4977 1.48392 62.6349 0.626953 61.5796 0.626953C60.5244 0.626953 59.6616 1.48392 59.6616 2.5321V4.43725H53.9076V2.5321C53.9076 1.48392 53.0448 0.626953 51.9896 0.626953C50.9343 0.626953 50.0715 1.48392 50.0715 2.5321V4.43725H46.0245C42.955 4.43725 40.4807 6.89493 40.4807 9.92475V17.7743H34.7258C33.6705 17.7743 32.8078 18.6312 32.8078 19.6794H2.11724C1.06197 19.6794 0.199219 20.5364 0.199219 21.5846V29.2052C0.199219 30.1771 0.927759 30.9771 1.88675 31.0911L32.8079 34.6935V34.9216C32.8079 35.9697 33.6706 36.8267 34.7259 36.8267H40.4808V37.3407C40.4808 42.885 44.6621 47.4577 50.0719 48.1435L50.071 82.5531C50.071 83.6013 50.9337 84.4583 51.989 84.4583H53.907V111.132C53.907 111.475 54.0033 111.818 54.1755 112.123L58.203 118.754H2.11864C1.06337 118.754 0.200619 119.611 0.200619 120.659C0.200619 121.707 1.06337 122.564 2.11864 122.564H121.042C122.098 122.564 122.96 121.707 122.96 120.659C122.96 119.611 122.098 118.754 121.042 118.754H64.9759L68.985 112.104C69.1572 111.818 69.2525 111.475 69.2525 111.132V84.4583H71.1706C72.2258 84.4583 73.0886 83.6013 73.0886 82.5531L73.0895 48.1457C78.4798 47.4598 82.6805 42.8873 82.6805 37.343L82.6796 36.8281H88.4336C89.4889 36.8281 90.3517 35.9711 90.3517 34.9229V34.7133L121.273 31.0934C122.232 30.9793 122.961 30.1601 122.961 29.2075L122.96 29.2061ZM44.3168 9.92491C44.3168 8.99164 45.0842 8.2487 46.0238 8.2487H50.0708V10.1539C50.0708 11.202 50.9336 12.059 51.9888 12.059C53.0441 12.059 53.9069 11.202 53.9069 10.1539L53.9077 8.2487H59.6618V10.1539C59.6618 11.202 60.5245 12.059 61.5798 12.059C62.6351 12.059 63.4978 11.202 63.4978 10.1539V8.2487H69.2518V10.1539C69.2518 11.202 70.1146 12.059 71.1699 12.059C72.2251 12.059 73.0879 11.202 73.0879 10.1539L73.0888 8.2487H77.1358C78.0754 8.2487 78.8428 8.99164 78.8428 9.92491V21.5848H72.1298C69.4823 21.5848 67.3347 23.7188 67.3347 26.3476C67.3347 26.8809 66.9126 27.3002 66.3757 27.3002H56.7661C56.2292 27.3002 55.8071 26.8809 55.8071 26.3476C55.8071 23.718 53.6586 21.5848 51.0121 21.5848H44.3167L44.3168 9.92491ZM4.03663 27.5106V23.4907H32.8079V30.8833L4.03663 27.5106ZM36.6442 33.0165V21.5848H40.4812V33.0165H36.6442ZM69.2518 71.1222H53.8873L53.8882 48.2588H69.2518L69.2518 71.1222ZM65.4157 110.598L61.5796 116.942L57.7241 110.578V84.4567H65.4155L65.4157 110.598ZM67.3337 80.6475H53.8881V74.9321H69.2516V80.6475H67.3337ZM78.8427 37.3413C78.8427 41.2473 75.6398 44.4477 71.6882 44.4477H51.4527C47.5196 44.4477 44.3167 41.247 44.3167 37.3413V25.3947H51.0297C51.5666 25.3947 51.9887 25.8139 51.9887 26.3472C51.9887 28.9769 54.1372 31.1101 56.7838 31.1101H66.3933C69.0408 31.1101 71.1884 28.976 71.1884 26.3472C71.1884 25.8139 71.6105 25.3947 72.1474 25.3947L78.8428 25.3955L78.8427 37.3413ZM82.6788 33.016V21.5843H86.5148V33.016H82.6788ZM119.123 27.5101L90.3514 30.8635V23.4903H119.123V27.5101Z" fill="#3D5A9B"/>
<path d="M78.6901 93.603C79.0928 93.603 79.4955 93.489 79.8407 93.2224L87.5129 87.507C88.3571 86.8781 88.5293 85.6781 87.8962 84.8396C87.263 84.001 86.055 83.83 85.2107 84.4589L77.5385 90.1743C76.6943 90.8032 76.5221 92.0031 77.1553 92.8417C77.5394 93.3364 78.1143 93.603 78.6901 93.603Z" fill="#E84C3D"/>
<path d="M92.27 99.7006C92.27 98.6524 91.4072 97.7954 90.3519 97.7954H82.6797C81.6245 97.7954 80.7617 98.6524 80.7617 99.7006C80.7617 100.749 81.6245 101.606 82.6797 101.606H90.3519C91.4063 101.607 92.27 100.749 92.27 99.7006Z" fill="#E84C3D"/>
<path d="M77.6909 108.846L85.3631 114.562C85.7084 114.829 86.1111 114.943 86.5137 114.943C87.0895 114.943 87.6644 114.676 88.0485 114.18C88.6817 113.342 88.5086 112.142 87.6653 111.513L79.9931 105.797C79.1488 105.169 77.9408 105.34 77.3076 106.178C76.6745 107.017 76.8467 108.217 77.6909 108.846Z" fill="#E84C3D"/>
<path d="M45.4697 90.5544L37.7975 84.839C36.9533 84.2101 35.7453 84.382 35.1121 85.2197C34.4789 86.0582 34.652 87.2581 35.4953 87.8871L43.1675 93.6025C43.5128 93.8691 43.9155 93.9832 44.3181 93.9832C44.8939 93.9832 45.4687 93.7165 45.8529 93.2209C46.4861 92.3833 46.3139 91.1833 45.4697 90.5544Z" fill="#E84C3D"/>
<path d="M30.8867 99.7006C30.8867 100.749 31.7495 101.606 32.8047 101.606H40.4769C41.5322 101.606 42.3949 100.749 42.3949 99.7006C42.3949 98.6524 41.5322 97.7954 40.4769 97.7954H32.8047C31.7504 97.7954 30.8867 98.6533 30.8867 99.7006Z" fill="#E84C3D"/>
<path d="M43.1678 105.797L35.4956 111.513C34.6514 112.142 34.4792 113.342 35.1123 114.18C35.4956 114.676 36.0713 114.942 36.6471 114.942C37.0498 114.942 37.4525 114.828 37.7977 114.562L45.4699 108.846C46.3141 108.217 46.4863 107.018 45.8532 106.179C45.22 105.34 44.0111 105.169 43.1678 105.797Z" fill="#E84C3D"/>
</svg>
