<svg width="124" height="123" viewBox="0 0 124 123" fill="none" xmlns="http://www.w3.org/2000/svg">
<path d="M121.745 63.4994H119.827V59.6891C119.827 52.3351 113.804 46.3521 106.399 46.3521C98.9958 46.3521 92.9724 52.3342 92.9724 59.6891V63.4994H87.122L86.3741 48.2574H88.1967C91.3616 48.2574 93.9507 45.6856 93.9507 42.5419C93.9507 39.3983 91.3616 36.8265 88.1967 36.8265H86.9119L93.8943 12.5732C94.0665 12.0013 93.9517 11.3732 93.587 10.897C93.2214 10.4198 92.6271 10.1531 92.0134 10.1531H54.073L56.4326 3.14209C56.6242 2.55178 56.5289 1.92287 56.1642 1.42729C55.7995 0.912404 55.2246 0.626465 54.6108 0.626465H2.82169C2.20797 0.626465 1.63308 0.912404 1.26837 1.42642C0.903664 1.92199 0.808288 2.5509 0.999923 3.14122L7.82776 23.4899H6.65769C3.49278 23.4899 0.903665 26.0617 0.903665 29.2054C0.903665 32.349 3.49278 34.9208 6.65769 34.9208H8.40352L0.903596 120.485C0.865624 121.018 1.03782 121.551 1.40252 121.933C1.76723 122.333 2.28469 122.562 2.8216 122.562H115.992C117.047 122.562 117.91 121.705 117.91 120.656L117.911 74.9296H121.747C122.802 74.9296 123.665 74.0727 123.665 73.0245V65.4038C123.665 64.3556 122.801 63.4978 121.747 63.4978L121.745 63.4994ZM96.8097 59.6891C96.8097 54.4306 101.107 50.1624 106.401 50.1624C111.695 50.1624 115.992 54.4306 115.992 59.6891V63.4994H96.8097V59.6891ZM83.2679 63.4994H50.8525L49.8547 48.2574H82.521L83.2679 63.4994ZM90.0967 42.5419C90.0967 43.5901 89.2339 44.4471 88.1787 44.4471H49.6052L49.3562 40.6367H88.1783C89.2327 40.6367 90.0963 41.4937 90.0963 42.5419L90.0967 42.5419ZM89.483 13.9638L82.904 36.8272H49.1073L48.9926 34.9221H50.7755C53.9404 34.9221 56.5295 32.3503 56.5295 29.2067C56.5295 26.063 53.9404 23.4912 50.7755 23.4912H49.6054L52.8083 13.9646L89.483 13.9638ZM5.48862 4.43713H51.9653L45.578 23.4895L11.8786 23.4904L5.48862 4.43713ZM4.74066 29.2047C4.74066 28.1565 5.60341 27.2996 6.65868 27.2996H50.7752C51.8305 27.2996 52.6932 28.1565 52.6932 29.2047C52.6932 30.2529 51.8305 31.1099 50.7752 31.1099H6.65868C5.6043 31.1099 4.74066 30.2529 4.74066 29.2047ZM12.26 34.9201H45.157L47.0176 63.4983H39.2688C38.2135 63.4983 37.3507 64.3553 37.3507 65.4035V73.0241C37.3507 74.0723 38.2135 74.9293 39.2688 74.9293H43.1049V118.75L4.91575 118.751L12.26 34.9201ZM114.075 118.753H46.9406V74.9323H114.075V118.753ZM119.83 71.1217H41.1866V67.3113H119.83V71.1217Z" fill="#3D5A9B"/>
<path d="M52.6915 99.7013H66.1186C67.1738 99.7013 68.0366 98.8443 68.0366 97.7961V82.5541C68.0366 81.5059 67.1738 80.6489 66.1186 80.6489H52.6915C51.6362 80.6489 50.7734 81.5059 50.7734 82.5541V97.7961C50.7734 98.8443 51.6371 99.7013 52.6915 99.7013ZM54.6104 84.4592H64.2014V95.8909H54.6104V84.4592Z" fill="#E84C3D"/>
<path d="M73.793 99.7013H87.2201C88.2754 99.7013 89.1382 98.8443 89.1382 97.7961V82.5541C89.1382 81.5059 88.2754 80.6489 87.2201 80.6489H73.793C72.7378 80.6489 71.875 81.5059 71.875 82.5541V97.7961C71.875 98.8443 72.7378 99.7013 73.793 99.7013ZM75.711 84.4592H85.3021V95.8909H75.711V84.4592Z" fill="#E84C3D"/>
<path d="M94.9141 99.7013H108.341C109.396 99.7013 110.259 98.8443 110.259 97.7961V82.5541C110.259 81.5059 109.396 80.6489 108.341 80.6489H94.9141C93.8588 80.6489 92.9961 81.5059 92.9961 82.5541V97.7961C92.9961 98.8443 93.8588 99.7013 94.9141 99.7013ZM96.8321 84.4592H106.423V95.8909H96.8321V84.4592Z" fill="#E84C3D"/>
<path d="M33.513 54.4503H28.0847L32.9566 49.6111C33.7046 48.8682 33.7046 47.6674 32.9566 46.9244C32.2087 46.1815 30.9998 46.1815 30.2518 46.9244L22.0994 55.022C21.5431 55.5746 21.3894 56.3939 21.6773 57.0991C21.9652 57.8043 22.6752 58.2806 23.4417 58.2806H28.8699L23.2113 63.9012C22.4633 64.6442 22.4633 65.845 23.2113 66.588C23.5946 66.9686 24.0741 67.1405 24.573 67.1405C25.0719 67.1405 25.5514 66.9502 25.9347 66.588L34.873 57.7096C35.4294 57.157 35.583 56.3377 35.2951 55.6325C34.9905 54.9071 34.2999 54.4501 33.5131 54.4501L33.513 54.4503Z" fill="#E84C3D"/>
</svg>
