<svg width="98" height="123" viewBox="0 0 98 123" fill="none" xmlns="http://www.w3.org/2000/svg">
<path d="M91.6946 92.0795H89.7637V38.7337H91.6946C94.8808 38.7337 97.4873 36.1619 97.4873 33.0183C97.4873 29.8746 94.8808 27.3029 91.6946 27.3029H89.7637V21.4918C93.0273 21.0155 95.5564 18.2718 95.5564 14.9186C95.5564 11.2408 92.525 8.24979 88.7974 8.24979H85.901V4.82027C85.901 2.51507 83.9897 0.628418 81.6721 0.628418H70.8396C68.4837 0.628418 66.5911 2.51513 66.5911 4.82027V8.24979H9.62736C5.89979 8.24979 2.8684 11.2408 2.8684 14.9177C2.8684 18.2711 5.39752 21.0146 8.66104 21.4909V27.302H6.73014C3.544 27.302 0.9375 29.8737 0.9375 33.0174C0.9375 36.161 3.544 38.7328 6.73014 38.7328H8.66104V92.0786H6.73014C3.544 92.0786 0.9375 94.6503 0.9375 97.794C0.9375 100.938 3.544 103.509 6.73014 103.509H8.66104V109.32C5.39752 109.797 2.8684 112.54 2.8684 115.894C2.8684 119.571 5.89979 122.562 9.62644 122.562H88.7977C92.5243 122.562 95.5557 119.571 95.5557 115.894C95.5557 112.54 93.0266 109.797 89.7631 109.32L89.764 103.511H91.6948C94.881 103.511 97.4875 100.939 97.4875 97.7958C97.4875 94.6512 94.8808 92.0795 91.6946 92.0795ZM70.453 4.81803C70.453 4.60839 70.6273 4.43648 70.8398 4.43648H81.6731C81.866 4.43648 82.0394 4.60839 82.0394 4.81803V8.24754H70.4532L70.453 4.81803ZM6.7301 14.9157C6.7301 13.3342 8.02447 12.0579 9.62722 12.0579H88.7984C90.4013 12.0579 91.6955 13.3341 91.6955 14.9157C91.6955 16.4972 90.4012 17.7735 88.7984 17.7735H9.62722C8.02436 17.7735 6.7301 16.4973 6.7301 14.9157ZM12.5237 21.5836H85.9029V27.2991L12.5237 27.2999V21.5836ZM4.7993 33.0154C4.7993 31.9672 5.66784 31.1102 6.73019 31.1102H91.6934C92.7557 31.1102 93.6243 31.9672 93.6243 33.0154C93.6243 34.0635 92.7557 34.9205 91.6934 34.9205H6.73019C5.66872 34.9205 4.7993 34.0635 4.7993 33.0154ZM12.5237 38.7317H85.9029V92.0774H12.5237V38.7317ZM91.6949 115.893C91.6949 117.474 90.4014 118.751 88.7984 118.751H9.62722C8.02436 118.751 6.73078 117.475 6.73078 115.893C6.73078 114.311 8.02427 113.035 9.62722 113.035H88.7984C90.4004 113.035 91.6949 114.312 91.6949 115.893ZM85.9013 109.225H12.5243V103.51H85.9036L85.9013 109.225ZM91.6949 99.6983H6.72941C5.66706 99.6983 4.79852 98.8414 4.79852 97.7932C4.79852 96.745 5.66706 95.888 6.72941 95.888H91.6926C92.7549 95.888 93.6235 96.745 93.6235 97.7932C93.6244 98.8414 92.7549 99.6983 91.6935 99.6983H91.6949Z" fill="#3D5A9B"/>
<path d="M49.2115 42.542C36.4286 42.542 26.0391 52.7921 26.0391 65.4054C26.0391 78.0187 36.4277 88.2688 49.2115 88.2688C61.9952 88.2688 72.3839 78.0187 72.3839 65.4054C72.3839 52.7921 61.9765 42.542 49.2115 42.542ZM49.2115 84.456C38.572 84.456 29.9016 75.9012 29.9016 65.4036C29.9016 54.906 38.572 46.3512 49.2115 46.3512C59.8509 46.3512 68.5213 54.906 68.5213 65.4036C68.5213 75.9021 59.8509 84.456 49.2115 84.456Z" fill="#E84C3D"/>
<path d="M47.8215 50.6011C46.6818 51.7441 36.6406 62.0329 36.6406 68.3965C36.6406 75.2172 42.2794 80.7808 49.1922 80.7808C56.105 80.7808 61.7438 75.2172 61.7438 68.3965C61.7438 62.0329 51.7223 51.745 50.563 50.6011C49.8491 49.8582 48.5547 49.8582 47.8213 50.6011H47.8215ZM49.2119 76.9698C44.4229 76.9698 40.5219 73.1208 40.5219 68.3956C40.5219 65.1563 45.3883 58.8313 49.2119 54.6964C53.0355 58.812 57.9019 65.1563 57.9019 68.3956C57.9019 73.1208 54.0009 76.9698 49.2119 76.9698Z" fill="#E84C3D"/>
</svg>
