<svg width="124" height="123" viewBox="0 0 124 123" fill="none" xmlns="http://www.w3.org/2000/svg">
<path d="M123.581 60.5286V41.8377C123.581 27.4911 111.88 15.8688 97.4363 15.8688H96.8606C96.8032 15.8688 96.7263 15.8117 96.7263 15.7354V14.2873C96.7263 11.4672 94.8278 8.81911 92.0081 8.32353C88.4017 7.69549 85.2174 10.4769 85.2174 13.9635V15.8686H73.8427C73.7862 15.8686 73.7094 15.8116 73.7094 15.7353V12.1917C73.7094 12.1154 73.7862 12.0584 73.8436 12.0584H76.107C77.9676 12.0584 79.4636 10.5725 79.4636 8.72432V3.96055C79.4636 2.11241 77.9677 0.626465 76.107 0.626465H48.2942C46.4336 0.626465 44.9376 2.11234 44.9376 3.96055V8.74274C44.9376 10.5724 46.4335 12.0584 48.2942 12.0584H50.577C50.6344 12.0584 50.6918 12.1154 50.6918 12.1917V15.7353C50.6918 15.8116 50.6344 15.8686 50.5576 15.8686H39.317C39.241 15.8686 39.1836 15.8116 39.1836 15.7353V14.2872C39.1836 11.4671 37.285 8.81898 34.4654 8.3234C30.8396 7.69537 27.6747 10.4768 27.6747 13.9634V15.8685H26.9647C12.5212 15.8685 0.820312 27.4906 0.820312 41.8374V60.5283C0.820312 68.5682 4.54157 75.7511 10.353 80.4955C10.3919 80.5333 10.4113 80.571 10.4113 80.6096V95.756C10.4113 95.8323 10.3539 95.8893 10.2771 95.8893H4.08154C2.27831 95.8893 0.820326 97.3374 0.820326 99.1286V109.779C0.820326 111.588 2.27826 113.037 4.08154 113.037H6.4412C6.51714 113.037 6.57454 113.094 6.57454 113.17V120.524C6.57454 121.648 7.49558 122.563 8.62766 122.563H16.0702C16.9144 122.563 17.6623 122.049 17.9687 121.287L21.2485 113.132C21.2873 113.075 21.3448 113.037 21.4022 113.037H103.018C103.076 113.037 103.133 113.074 103.153 113.113L106.432 121.268C106.74 122.049 107.506 122.544 108.331 122.544H115.773C116.905 122.544 117.826 121.629 117.826 120.505V113.152C117.826 113.075 117.883 113.018 117.96 113.018H120.3C122.103 113.018 123.561 111.57 123.561 109.779V99.1286C123.561 97.3375 122.084 95.8893 120.3 95.8893H114.124C114.067 95.8893 113.99 95.8323 113.99 95.756V80.6096C113.99 80.5718 114.009 80.5332 114.028 80.514C119.859 75.7511 123.581 68.5682 123.581 60.5283L123.581 60.5286ZM97.4363 19.6789C109.751 19.6789 119.744 29.6055 119.744 41.8372V60.3941C119.744 72.6267 109.751 82.5524 97.4363 82.5524H96.8606C96.8032 82.5524 96.7263 82.4954 96.7263 82.4191V19.813C96.7263 19.7367 96.7837 19.6797 96.8606 19.6797L97.4363 19.6789ZM23.8387 95.7556V86.3246C23.8387 86.2483 23.9155 86.1913 23.9924 86.1913C24.9319 86.2869 25.8724 86.3623 26.8315 86.3623L27.6748 86.3632V87.9447C27.6748 90.7648 29.5734 93.4129 32.393 93.9084C36.0189 94.5365 39.1838 91.7551 39.1838 88.2685V86.3633H85.084C85.1608 86.3633 85.2182 86.4203 85.2182 86.4967V87.9448C85.2182 90.7649 87.1168 93.413 89.9364 93.9086C93.5613 94.5366 96.7263 91.7552 96.7263 88.2686V86.3634H97.5705C98.5295 86.3634 99.4885 86.3064 100.428 86.1924C100.505 86.1924 100.582 86.2494 100.582 86.3257V95.7567C100.582 95.833 100.524 95.8901 100.448 95.8901L23.9721 95.8892C23.8953 95.8892 23.8379 95.8322 23.8379 95.7559L23.8387 95.7556ZM89.0539 13.9642C89.0539 12.916 89.9166 12.059 90.9719 12.059C92.0272 12.059 92.8899 12.916 92.8899 13.9642V88.2692C92.8899 89.3174 92.0272 90.1743 90.9719 90.1743C89.9166 90.1743 89.0539 89.3174 89.0539 88.2692V13.9642ZM48.907 4.4375H75.4922C75.5691 4.4375 75.6265 4.49539 75.6265 4.57082V8.11441C75.6265 8.19072 75.5691 8.24861 75.4922 8.24861H48.907C48.8302 8.24861 48.7728 8.19072 48.7728 8.11528V4.5708C48.7728 4.49537 48.8302 4.4375 48.907 4.4375ZM54.662 12.0589H69.7384C69.8144 12.0589 69.8718 12.1159 69.8718 12.1922V15.7358C69.8718 15.8121 69.8144 15.8691 69.7375 15.8691H54.6611C54.5851 15.8691 54.5277 15.8121 54.5277 15.7358V12.1922C54.5277 12.1159 54.5851 12.0589 54.662 12.0589ZM85.2169 19.8127V82.4188C85.2169 82.4951 85.1595 82.5521 85.0826 82.5521H39.3158C39.239 82.5521 39.1816 82.4951 39.1816 82.4188V19.8127C39.1816 19.7364 39.239 19.6794 39.3158 19.6794H85.0826C85.1586 19.6794 85.216 19.7364 85.216 19.8127H85.2169ZM31.5107 13.9639C31.5107 12.9157 32.3734 12.0588 33.4287 12.0588C34.484 12.0588 35.3467 12.9157 35.3467 13.9639V88.269C35.3467 89.3171 34.484 90.1741 33.4287 90.1741C32.3734 90.1741 31.5107 89.3171 31.5107 88.269V13.9639ZM4.65643 60.3959V41.839C4.65643 29.6064 14.6501 19.6798 26.9645 19.6798H27.5403C27.6171 19.6798 27.6745 19.7368 27.6745 19.8131V82.4192C27.6745 82.4955 27.6171 82.5525 27.5403 82.5525H26.9645C14.6501 82.5525 4.65643 72.6269 4.65643 60.3951V60.3959ZM14.4389 83.2391C16.1459 84.1723 17.987 84.8776 19.9061 85.4109C19.9635 85.4118 20.0015 85.4688 20.0015 85.5258V95.7566C20.0015 95.8329 19.9441 95.8899 19.8672 95.8899H14.3815C14.3047 95.8899 14.2473 95.8329 14.2473 95.7566V83.3531C14.2473 83.239 14.3621 83.1821 14.4389 83.2391ZM14.7842 118.754H10.564C10.4687 118.754 10.4113 118.696 10.4113 118.62V113.171C10.4113 113.094 10.4687 113.037 10.5455 113.037H16.9716C17.0679 113.037 17.1253 113.133 17.1058 113.227L14.9193 118.676C14.8805 118.715 14.8231 118.754 14.7842 118.754ZM113.855 118.754H109.635C109.577 118.754 109.52 118.716 109.5 118.677L107.314 113.228C107.276 113.133 107.352 113.038 107.448 113.038H113.874C113.951 113.038 114.008 113.095 114.008 113.171V118.62C113.989 118.696 113.932 118.754 113.855 118.754ZM119.744 109.093C119.744 109.17 119.687 109.227 119.61 109.227H4.78926C4.71331 109.227 4.65503 109.17 4.65503 109.093V99.8336C4.65503 99.7582 4.71331 99.7003 4.78926 99.7003H119.608C119.684 99.7003 119.742 99.7573 119.742 99.8336L119.744 109.093ZM110.019 95.8899H104.533C104.476 95.8899 104.399 95.8328 104.399 95.7565V85.5257C104.399 85.4687 104.437 85.4117 104.495 85.3924C106.413 84.8591 108.236 84.1346 109.962 83.2206C110.058 83.1636 110.154 83.2399 110.154 83.3346V95.7566C110.153 95.8329 110.096 95.8899 110.019 95.8899Z" fill="#3D5A9B"/>
<path d="M62.22 73.8081C71.7342 73.8081 79.4636 66.1297 79.4636 56.6803C79.4636 47.8397 65.2886 30.9966 63.677 29.0924C63.3123 28.6731 62.7754 28.4258 62.2191 28.4258C61.6627 28.4258 61.1258 28.6731 60.7611 29.0924C59.1504 30.9783 44.9375 47.821 44.9375 56.6601C44.9375 66.1104 52.6863 73.8072 62.2199 73.8072L62.22 73.8081ZM62.1238 33.4367C62.1812 33.3604 62.2774 33.3604 62.3348 33.4367C67.1113 39.3435 75.6471 51.0408 75.6471 56.6617C75.6471 64.0156 69.6245 69.9794 62.2394 69.9794C54.8358 69.9794 48.7931 63.9972 48.7931 56.6617C48.7737 51.041 57.3287 39.3435 62.1238 33.4367Z" fill="#E84C3D"/>
<path d="M62.2228 66.1874C63.2781 66.1874 64.1408 65.3304 64.1408 64.2822C64.1408 63.234 63.2781 62.3771 62.2228 62.3771C59.0384 62.3771 56.4493 59.8237 56.4493 56.6801C56.4493 55.6319 55.5866 54.7749 54.5313 54.7749C53.476 54.7749 52.6133 55.6319 52.6133 56.6801C52.6124 61.9192 56.9288 66.1874 62.2228 66.1874Z" fill="#E84C3D"/>
</svg>
