<svg width="133" height="121" viewBox="0 0 133 121" fill="none" xmlns="http://www.w3.org/2000/svg">
<path d="M132.304 116.095H123.542V59.1426H127.923V54.7617H123.542V50.3807H127.923V45.9997H110.399V43.8093C110.399 41.4614 109.146 39.2924 107.113 38.118C105.08 36.9446 102.575 36.9446 100.542 38.118C98.5087 39.2925 97.2561 41.4613 97.2561 43.8093V45.9997H79.7322V43.8093C79.7303 42.0667 79.037 40.3964 77.8048 39.1652C76.5737 37.9331 74.9034 37.2397 73.1608 37.2378H64.3989C62.6563 37.2397 60.986 37.9331 59.7548 39.1652C58.5227 40.3964 57.8293 42.0667 57.8274 43.8093V45.9997H35.9226V50.3807H40.3036V54.7617H35.9226V59.1426H40.3036V116.095H0.875V120.476H132.304L132.304 116.095ZM119.161 116.095H110.399V59.1426H119.161V116.095ZM106.018 107.333H101.637V102.952H106.018V107.333ZM106.018 98.5712H101.637V94.1902H106.018V98.5712ZM106.018 89.8093H101.637V85.4283H106.018V89.8093ZM106.018 81.0474H101.637V76.6664H106.018V81.0474ZM106.018 72.2855H101.637V67.9045H106.018V72.2855ZM106.018 63.5236H101.637V59.1426H106.018V63.5236ZM106.018 54.7617H101.637V50.3807H106.018V54.7617ZM101.637 111.714H106.018V116.095H101.637V111.714ZM119.161 50.3807V54.7617H110.399V50.3807H119.161ZM101.637 43.8093C101.637 42.5996 102.618 41.6188 103.827 41.6188C105.037 41.6188 106.018 42.5996 106.018 43.8093V45.9997H101.637V43.8093ZM62.2084 43.8093C62.2094 42.5996 63.1893 41.6198 64.3989 41.6188H73.1608C74.3705 41.6198 75.3503 42.5996 75.3513 43.8093V45.9997H62.2084V43.8093ZM44.6846 50.3807H97.2561V54.7617H44.6846V50.3807ZM44.6846 59.1426H97.2561V116.095H64.3989V109.524C64.3989 107.176 63.1462 105.007 61.1132 103.832C59.0802 102.659 56.5748 102.659 54.5418 103.832C52.5087 105.007 51.2561 107.176 51.2561 109.524V116.095H44.6846V59.1426ZM60.018 116.095H55.637V109.524C55.637 108.314 56.6178 107.333 57.8275 107.333C59.0371 107.333 60.018 108.314 60.018 109.524V116.095Z" fill="#3D5A9B"/>
<path d="M97.2578 13.1429V8.7619H79.734V2.19048C79.734 1.60961 79.5032 1.0522 79.0925 0.641497C78.6818 0.230789 78.1244 0 77.5435 0H11.8292C10.6196 0 9.63876 0.980833 9.63876 2.19048V8.7619H5.25781V13.1429H9.63876V17.5238H5.25781V21.9048H9.63876V111.714H14.0197V21.9048H88.4959V41.619H92.8769V21.9048H97.2578V17.5238H92.8769V13.1429H97.2578ZM75.3531 8.7619H68.7816V4.38095H75.3531V8.7619ZM24.9721 8.7619V4.38095H31.5435V8.7619H24.9721ZM35.9245 4.38095H42.4959V8.7619H35.9245V4.38095ZM46.8769 4.38095H53.4483V8.7619H46.8769V4.38095ZM57.8292 4.38095H64.4007V8.7619H57.8292V4.38095ZM14.0197 4.38095H20.5911V8.7619H14.0197V4.38095ZM88.4959 17.5238H14.0197V13.1429H88.4959V17.5238Z" fill="#3D5A9B"/>
<path d="M49.0664 63.5239H55.6378V67.9049H49.0664V63.5239Z" fill="#E84C3D"/>
<path d="M60.0156 63.5239H66.5871V67.9049H60.0156V63.5239Z" fill="#E84C3D"/>
<path d="M18.4023 26.2861H24.9738V30.6671H18.4023V26.2861Z" fill="#E84C3D"/>
<path d="M29.3516 26.2861H35.923V30.6671H29.3516V26.2861Z" fill="#E84C3D"/>
</svg>
