<svg width="83" height="58" viewBox="0 0 83 58" fill="none" xmlns="http://www.w3.org/2000/svg">
<path d="M15.1989 45.6953C14.1412 45.6953 13.1266 46.1155 12.3791 46.8635C11.6311 47.611 11.2109 48.6254 11.2109 49.6833C11.2109 50.7404 11.6311 51.755 12.3791 52.503C13.1266 53.2504 14.141 53.6706 15.1989 53.6706C16.2561 53.6706 17.2706 53.2504 18.0187 52.503C18.7661 51.755 19.1863 50.7405 19.1863 49.6833C19.1851 48.6261 18.7644 47.6121 18.0169 46.8647C17.2695 46.1173 16.2561 45.6965 15.199 45.6953L15.1989 45.6953ZM15.1989 51.707C14.3802 51.707 13.6421 51.2138 13.3288 50.4576C13.0156 49.7014 13.1886 48.8306 13.7671 48.2515C14.3463 47.673 15.217 47.5 15.9732 47.8132C16.7294 48.1265 17.2227 48.8645 17.2227 49.6833C17.2209 50.8 16.3157 51.7053 15.199 51.707L15.1989 51.707Z" fill="#3D5A9B"/>
<path d="M68.8294 45.6953C67.7722 45.6959 66.7582 46.1161 66.0108 46.8641C65.2628 47.6121 64.8432 48.6266 64.8438 49.6838C64.8438 50.7416 65.2639 51.7556 66.012 52.5036C66.76 53.251 67.7745 53.6706 68.8317 53.6706C69.8895 53.6706 70.9035 53.2504 71.6515 52.5024C72.3989 51.755 72.8191 50.7405 72.8191 49.6833C72.8179 48.6255 72.3972 47.6116 71.6491 46.8641C70.9011 46.1167 69.8872 45.6959 68.8294 45.6953L68.8294 45.6953ZM68.8294 51.707C68.0112 51.7064 67.2738 51.2126 66.9605 50.4564C66.6478 49.7002 66.8214 48.8295 67.4005 48.2509C67.9797 47.6724 68.8498 47.5 69.606 47.8132C70.3622 48.1265 70.8555 48.8646 70.8555 49.6833C70.8543 50.8012 69.9473 51.707 68.8294 51.707V51.707Z" fill="#3D5A9B"/>
<path d="M6.74741 8.92188C6.20509 8.92188 5.76562 9.36134 5.76562 9.90366V10.8574C5.76562 11.3997 6.20509 11.8392 6.74741 11.8392C7.28973 11.8392 7.7292 11.3997 7.7292 10.8574V9.90366C7.7292 9.36134 7.28973 8.92188 6.74741 8.92188Z" fill="#3D5A9B"/>
<path d="M6.74741 12.6426C6.20509 12.6426 5.76562 13.082 5.76562 13.6244V21.2379C5.76562 21.7802 6.20509 22.2197 6.74741 22.2197C7.28973 22.2197 7.7292 21.7802 7.7292 21.2379V13.6244C7.7292 13.082 7.28973 12.6426 6.74741 12.6426Z" fill="#3D5A9B"/>
<path d="M77.0955 33.782L72.795 18.1677H74.63C75.1718 18.1677 75.6118 17.7276 75.6118 17.1859V16.2286C75.6118 12.7421 72.2224 9.90602 68.0555 9.90602L58.3324 9.90543C56.7704 9.90719 55.2731 10.5284 54.1686 11.6329C53.0647 12.7374 52.4435 14.2347 52.4417 15.7961V33.4451H44.6295V30.3016C46.5323 29.7043 48.1954 28.5168 49.3788 26.9121C50.5622 25.3069 51.2045 23.3666 51.2127 21.3727V13.3087C51.2098 10.8677 50.2519 8.52368 48.5437 6.77913C46.8361 5.03413 44.5137 4.02609 42.0727 3.97059C41.9155 3.39029 41.5713 2.87777 41.0933 2.51252C40.6158 2.14728 40.0308 1.94975 39.4295 1.94975C38.8299 1.95092 38.2467 2.14844 37.7698 2.51252C37.2935 2.8766 36.9493 3.38737 36.7903 3.96532H35.7442V1.06089C35.7442 0.519151 35.3048 0.0791016 34.7625 0.0791016H26.498C25.9556 0.0791016 25.5162 0.519151 25.5162 1.06089V3.96532H14.6306C14.4722 3.38677 14.128 2.87602 13.6511 2.51134C13.1737 2.14726 12.5905 1.94974 11.9902 1.94974C11.3889 1.95032 10.8051 2.14901 10.3277 2.51426C9.85022 2.87892 9.506 3.39085 9.34821 3.97058C6.90725 4.02609 4.58418 5.03418 2.87599 6.77867C1.16839 8.52366 0.210622 10.8671 0.207031 13.3086V21.3727C0.215213 23.3666 0.85747 25.3062 2.04089 26.9111C3.2243 28.5163 4.88743 29.7033 6.78966 30.3005V33.4452H3.47965C2.57617 33.4464 1.84446 34.1786 1.84326 35.0816V38.2285C1.84326 38.4535 1.89002 38.6768 1.9806 38.8831C1.89002 39.0894 1.84326 39.312 1.84326 39.5376V48.1365C1.84443 49.0394 2.57609 49.7716 3.47965 49.7728H7.18357C7.21455 52.6153 8.7492 55.2288 11.2165 56.6406C13.6838 58.0531 16.7145 58.0531 19.1812 56.6406C21.6485 55.2287 23.1831 52.6153 23.2147 49.7728H60.815C60.8465 52.6153 62.3812 55.2288 64.8485 56.6406C67.3152 58.0531 70.3459 58.0531 72.8132 56.6406C75.2805 55.2287 76.8151 52.6153 76.8461 49.7728H80.8772C81.7807 49.7717 82.5124 49.0394 82.5136 48.1365V42.3813C82.5136 40.6725 81.9058 38.7487 80.8462 37.1019C79.8329 35.5276 78.5169 34.3681 77.0956 33.7814L77.0955 33.782ZM74.9391 33.346H72.7809L70.0044 21.4302C69.9009 20.9861 69.5047 20.6717 69.0483 20.6717H58.1903C58.2201 19.9985 58.5082 19.3626 58.995 18.8963C59.4812 18.43 60.1287 18.1693 60.8031 18.1682H70.7583L74.9391 33.346ZM70.7648 33.346H58.1851V22.6352H68.2694L70.7648 33.346ZM54.4055 15.7973C54.4067 14.7565 54.8204 13.7583 55.5567 13.022C56.2931 12.2856 57.2913 11.8713 58.3327 11.8701H68.0558C71.1292 11.8701 73.6316 13.8126 73.6485 16.2046H60.8036L60.803 16.2052C59.5886 16.2064 58.4239 16.6897 57.5648 17.5488C56.7057 18.4072 56.223 19.5719 56.2212 20.787V33.4473H54.4049L54.4055 15.7973ZM42.1706 5.93801V5.93859C44.0734 6.01807 45.8716 6.82921 47.1906 8.20257C48.5096 9.57648 49.2471 11.4062 49.2495 13.3102V21.3743C49.2548 23.2805 48.5196 25.115 47.1995 26.4906C45.8787 27.8657 44.0758 28.6752 42.1708 28.7476L42.1706 5.93801ZM42.035 30.7141C42.246 30.7106 42.4564 30.6995 42.6662 30.6814V33.4467L36.1946 33.4473V30.7194H36.8269C37.0063 31.2682 37.3546 31.7462 37.8221 32.0851C38.2896 32.4241 38.8524 32.607 39.4298 32.6076C40.0083 32.607 40.5717 32.4235 41.0392 32.0834C41.5073 31.7439 41.8556 31.2646 42.035 30.7147L42.035 30.7141ZM27.4801 2.04378H33.7816V3.96651H27.4801V2.04378ZM25.4248 5.93008H36.6908V9.46151C36.6908 10.0038 37.1303 10.4433 37.6726 10.4433C38.2149 10.4433 38.6544 10.0038 38.6544 9.46151V4.68985C38.6544 4.37544 38.8437 4.09201 39.1348 3.97279C39.4252 3.85299 39.7595 3.92078 39.981 4.14401C40.1265 4.28836 40.2077 4.48471 40.2071 4.68983V29.8684C40.206 30.2968 39.8583 30.6439 39.4299 30.6439C39.0021 30.6422 38.6556 30.2962 38.6544 29.8684V13.6258C38.6544 13.0834 38.2149 12.644 37.6726 12.644C37.1303 12.644 36.6908 13.0834 36.6908 13.6258V28.7553H25.4248L25.4248 5.93008ZM34.2316 30.7182V33.4461H17.1901V30.7188L34.2316 30.7182ZM19.9694 5.93008H23.4612V9.11098L19.9694 9.11157V5.93008ZM19.9694 11.0746H23.4612V13.9364L19.9694 13.9369V11.0746ZM19.9694 15.8999H23.4612V18.7635L19.9694 18.7641V15.8999ZM19.9694 20.7271H23.4612V23.5895H19.9694V20.7271ZM19.9694 25.5525H23.4612V28.7549L19.9694 28.7555V25.5525ZM14.7298 5.93023H18.0059V28.7555H14.7298V5.93023ZM11.2135 4.69013C11.2141 4.26177 11.5618 3.91464 11.9907 3.91464C12.4185 3.91581 12.7651 4.26235 12.7662 4.69013V29.8687C12.7662 30.1831 12.5763 30.466 12.2859 30.5858C11.9948 30.7056 11.6606 30.6378 11.4397 30.4145C11.2942 30.2702 11.2123 30.0733 11.2135 29.8687L11.2135 4.69013ZM9.38428 30.714C9.56368 31.2639 9.91198 31.7431 10.3801 32.0832C10.8482 32.4233 11.4121 32.6068 11.9907 32.6068C12.5675 32.6057 13.1297 32.4227 13.5972 32.0838C14.0641 31.7449 14.4124 31.2668 14.5924 30.7186H15.2271V33.4466L8.75365 33.446V30.6807C8.96344 30.6988 9.17324 30.7099 9.3842 30.714L9.38428 30.714ZM2.17106 21.3735V13.3095C2.1734 11.4055 2.91148 9.5758 4.22992 8.20242C5.5489 6.8285 7.3471 6.01743 9.24993 5.93784V28.7467C8.82273 28.7297 8.39788 28.676 7.98004 28.5854C6.33737 28.2207 4.8669 27.3079 3.81158 25.9977C2.75558 24.6869 2.17759 23.0564 2.17116 21.3734L2.17106 21.3735ZM15.1996 55.7379C13.5943 55.7355 12.0555 55.0974 10.9201 53.9625C9.78523 52.8276 9.147 51.2883 9.14536 49.6835C9.14477 49.4304 9.16113 49.178 9.19328 48.9267C9.44105 46.9601 10.6367 45.2397 12.3929 44.3205C14.149 43.4012 16.244 43.4001 18.0013 44.3176C19.7586 45.2345 20.9554 46.9538 21.2061 48.9203V48.9238C21.2377 49.1757 21.2541 49.4293 21.2535 49.6836C21.2517 51.2884 20.6136 52.8271 19.4781 53.9626C18.3432 55.0975 16.8045 55.7357 15.1997 55.7379L15.1996 55.7379ZM68.8316 55.7379H68.831C67.2262 55.7355 65.6869 55.0974 64.552 53.9625C63.4171 52.8276 62.7789 51.2883 62.7766 49.6835C62.7772 49.4275 62.793 49.1721 62.8245 48.9185C63.0758 46.9543 64.2715 45.2369 66.0264 44.3199C67.7819 43.403 69.8747 43.4019 71.6302 44.3182C73.3856 45.2339 74.5831 46.9503 74.835 48.9145V48.9163C75.0571 50.642 74.5247 52.3793 73.3752 53.6849C72.2257 54.9911 70.5695 55.7386 68.8297 55.738L68.8316 55.7379ZM80.5511 47.81H76.6263C76.0612 45.4583 74.4653 43.4871 72.2819 42.4459C70.0992 41.4051 67.5629 41.4051 65.3796 42.4459C63.1969 43.4873 61.6003 45.4585 61.0358 47.81H58.1857V44.4356C58.1857 43.8933 57.7456 43.4538 57.2039 43.4538C56.6616 43.4538 56.2221 43.8933 56.2221 44.4356V47.81H22.9948C22.4297 45.4583 20.8337 43.4871 18.6504 42.4459C16.4676 41.4051 13.9314 41.4051 11.748 42.4459C9.5653 43.4873 7.96931 45.4585 7.40425 47.81H3.80729V39.8656H14.5859C15.1276 39.8656 15.5677 39.4256 15.5677 38.8839C15.5677 38.3415 15.1276 37.9021 14.5859 37.9021H3.80729V35.4096H56.2215V37.9015L18.9967 37.9021C18.455 37.9021 18.0149 38.3415 18.0149 38.8838C18.0149 39.4256 18.455 39.8656 18.9967 39.8656H56.2215V40.6721C56.2215 41.2144 56.661 41.6539 57.2033 41.6539C57.745 41.6539 58.1851 41.2144 58.1851 40.6721V35.3096H74.9588C75.3048 35.3108 75.6484 35.3628 75.9786 35.4639C78.1368 36.1167 80.5504 39.2139 80.5504 42.382L80.5511 47.81Z" fill="#3D5A9B"/>
</svg>
