<svg width="88" height="63" viewBox="0 0 88 63" fill="none" xmlns="http://www.w3.org/2000/svg">
<path d="M11.5833 12.6885C11.0043 12.6885 10.5352 13.1576 10.5352 13.7366V14.7548C10.5352 15.3337 11.0043 15.8029 11.5833 15.8029C12.1622 15.8029 12.6314 15.3337 12.6314 14.7548V13.7366C12.6314 13.1576 12.1622 12.6885 11.5833 12.6885Z" fill="#3D5A9B"/>
<path d="M11.5833 16.8359C11.0043 16.8359 10.5352 17.3051 10.5352 17.8841V28.2817C10.5352 28.8601 11.0043 29.3299 11.5833 29.3299C12.1622 29.3299 12.6314 28.8601 12.6314 28.2817V17.8841C12.6314 17.3051 12.1622 16.8359 11.5833 16.8359Z" fill="#3D5A9B"/>
<path d="M85.997 43.9428H76.4191V40.217C79.108 39.4309 81.4707 37.797 83.1558 35.5591C84.841 33.3212 85.758 30.5985 85.7699 27.7967V19.1297C85.7661 15.7057 84.4054 12.4223 81.9855 9.99914C79.5655 7.57596 76.2838 6.21089 72.8599 6.20274C72.7008 5.39668 72.2672 4.67048 71.6321 4.14834C70.9976 3.62616 70.2009 3.34041 69.3793 3.33979C68.5577 3.34104 67.7616 3.62678 67.1277 4.14897C66.4932 4.67115 66.0596 5.39673 65.9005 6.20272H63.3326V1.73074C63.3326 1.1524 62.8628 0.682617 62.2845 0.682617H45.0785C44.4996 0.682617 44.0304 1.1524 44.0304 1.73074V6.20272H21.9004C21.7414 5.39667 21.3078 4.67046 20.6733 4.14833C20.0382 3.62614 19.2421 3.3404 18.4199 3.33977C17.5982 3.34102 16.8028 3.62677 16.1682 4.14895C15.5337 4.67113 15.1001 5.39734 14.941 6.20335C11.5166 6.21083 8.23434 7.5759 5.8142 9.99911C3.39422 12.4223 2.03281 15.7057 2.02914 19.1303V27.7967C2.04099 30.5979 2.9581 33.3205 4.64318 35.5584C6.32832 37.797 8.69096 39.4308 11.3799 40.217V43.9428H1.80203C1.22307 43.9428 0.753906 44.4119 0.753906 44.9909V53.8524C0.753906 54.4314 1.22307 54.9006 1.80203 54.9006H4.45535C4.45348 54.9761 4.44974 55.0515 4.44974 55.1277C4.44974 57.8533 5.90401 60.3714 8.26418 61.7339C10.6243 63.0971 13.5322 63.0971 15.8931 61.7339C18.2532 60.3713 19.7075 57.8533 19.7075 55.1277C19.7075 55.0515 19.7044 54.9761 19.7019 54.9006H21.9242C21.9223 54.9761 21.9186 55.0515 21.9186 55.1277C21.9186 57.8533 23.3728 60.3714 25.733 61.7339C28.0931 63.0971 31.001 63.0971 33.3619 61.7339C35.722 60.3713 37.1763 57.8533 37.1763 55.1277C37.1763 55.0515 37.1732 54.9761 37.1707 54.9006H42.85V58.569C42.85 59.148 43.3191 59.6171 43.8981 59.6171H61.3708C61.9498 59.6171 62.4189 59.148 62.4189 58.569V54.9006H68.0982C68.0963 54.9761 68.0926 55.0515 68.0926 55.1277C68.0926 57.8533 69.5468 60.3714 71.907 61.7339C74.2671 63.0971 77.175 63.0971 79.5359 61.7339C81.896 60.3713 83.3497 57.8533 83.3497 55.1277C83.3497 55.0515 83.3466 54.9761 83.3441 54.9006H85.9981C86.577 54.9006 87.0462 54.4314 87.0462 53.8524V44.9909C87.0462 44.4119 86.577 43.9428 85.9981 43.9428L85.997 43.9428ZM72.9254 8.30106C75.7822 8.32539 78.5141 9.47708 80.5268 11.5048C82.5395 13.5323 83.6706 16.2725 83.6736 19.1292V27.7956C83.678 30.6548 82.5494 33.3993 80.5349 35.4288C78.5205 37.4582 75.7847 38.6068 72.9254 38.6243V8.30106ZM72.8143 40.723H72.843C73.3378 40.7223 73.8319 40.6936 74.3229 40.6369V43.9421H64.4356V40.7223H65.9429H65.9423C66.1344 41.4884 66.5768 42.1691 67.1994 42.6545C67.822 43.1405 68.5894 43.4044 69.3792 43.4038C70.1684 43.4026 70.9345 43.138 71.5566 42.6527C72.1792 42.1673 72.6215 41.4879 72.8143 40.7224L72.8143 40.723ZM46.1261 2.77816H61.2347V6.2021H46.1261V2.77816ZM40.2966 8.29819H65.8332V13.2019C65.8332 13.7808 66.3024 14.25 66.8813 14.25C67.4603 14.25 67.9295 13.7808 67.9295 13.2019V6.88328C67.9301 6.29745 68.2845 5.76902 68.826 5.54568C69.3681 5.32171 69.9914 5.44648 70.4057 5.86199C70.6777 6.13213 70.8305 6.50022 70.8293 6.88328V39.8594C70.828 40.4458 70.4743 40.9736 69.9321 41.1976C69.3906 41.421 68.7667 41.2962 68.3531 40.8813C68.0804 40.6112 67.9282 40.2431 67.9295 39.8594V16.8702C67.9295 16.2912 67.4603 15.8221 66.8813 15.8221C66.3024 15.8221 65.8332 16.2912 65.8332 16.8702V38.6248H40.2966V8.29819ZM62.3387 40.7217V43.9409L25.4592 43.9415V40.7217L62.3387 40.7217ZM32.3173 8.29819H38.2005V13.5108L32.3173 13.5114V8.29819ZM32.3173 15.607H38.2005V19.4365H32.3173V15.607ZM32.3173 21.5327H38.2005V25.3622H32.3173V21.5327ZM32.3173 27.4584H38.2005V31.2879L32.3173 31.2872V27.4584ZM32.3173 33.3841H38.2005V38.6266L32.3173 38.6259V33.3841ZM21.9653 8.29946L30.221 8.29884V38.6269H21.9653V8.29946ZM21.8542 40.723H23.3628V43.9422H13.4755V40.6362C13.9665 40.693 14.4606 40.7217 14.9554 40.7223H14.9828C15.1743 41.4885 15.6167 42.1691 16.2393 42.6545C16.8619 43.1406 17.6293 43.4045 18.4191 43.4038C19.2083 43.4026 19.975 43.1381 20.5971 42.6527C21.2191 42.1673 21.6614 41.4879 21.8548 40.7224L21.8542 40.723ZM4.12278 27.796L4.1234 19.129C4.12652 16.2722 5.25763 13.5322 7.27024 11.5046C9.28296 9.47703 12.0149 8.32534 14.8717 8.3009V30.2344C14.8717 30.8134 15.3408 31.2825 15.9198 31.2825C16.4987 31.2825 16.9679 30.8134 16.9679 30.2344V6.88424C16.9692 6.29841 17.3229 5.76998 17.8651 5.54664C18.4066 5.32267 19.0305 5.44744 19.4441 5.86295C19.7167 6.13309 19.869 6.50118 19.8677 6.88424V39.8603C19.8671 40.4468 19.5127 40.9746 18.9706 41.1986C18.429 41.4219 17.8058 41.2971 17.3915 40.8823C17.1189 40.6121 16.9666 40.244 16.9679 39.8603V34.1175C16.9679 33.5386 16.4987 33.0694 15.9198 33.0694C15.3408 33.0694 14.8717 33.5386 14.8717 34.1175V38.6245C12.0131 38.607 9.27737 37.4578 7.26274 35.4289C5.24891 33.3994 4.12021 30.6556 4.12404 27.7964L4.12278 27.796ZM12.0773 60.6604C10.6723 60.6597 9.32035 60.1251 8.2953 59.1643C7.27026 58.2035 6.64881 56.889 6.55778 55.4872C6.46606 54.0853 6.91215 52.701 7.80367 51.6154C8.69582 50.5299 9.96731 49.8249 11.3605 49.6421C12.7536 49.46 14.1636 49.8143 15.3053 50.6341C16.4463 51.4533 17.233 52.6767 17.5056 54.0549V54.0574C17.8245 55.6813 17.4002 57.362 16.3496 58.6403C15.299 59.9187 13.7311 60.6593 12.0766 60.6604L12.0773 60.6604ZM29.5468 60.6604C28.1418 60.6597 26.7898 60.1251 25.7648 59.1643C24.7398 58.2035 24.1183 56.889 24.0273 55.4872C23.9356 54.0853 24.3816 52.701 25.2732 51.6154C26.1653 50.5299 27.4368 49.8249 28.83 49.6421C30.2231 49.46 31.6331 49.8143 32.7748 50.6341C33.9158 51.4533 34.7025 52.6767 34.9752 54.0549V54.0574C35.294 55.6813 34.8697 57.362 33.8191 58.6403C32.7685 59.9187 31.2006 60.6593 29.5461 60.6604L29.5468 60.6604ZM60.3221 57.521H44.946V54.9008H60.3221V57.521ZM75.7207 60.6604C74.3158 60.6597 72.9631 60.1251 71.9381 59.1643C70.913 58.2035 70.2916 56.889 70.2005 55.4872C70.1095 54.0853 70.5549 52.701 71.4471 51.6154C72.3392 50.5299 73.6107 49.8249 75.0039 49.6421C76.3964 49.46 77.807 49.8143 78.948 50.6341C80.0891 51.4533 80.8758 52.6767 81.1484 54.0549V54.0574C81.4672 55.6813 81.0436 57.362 79.993 58.6403C78.9417 59.9187 77.3745 60.6593 75.72 60.6604L75.7207 60.6604ZM84.9492 52.8044H82.9864C82.3258 50.7375 80.8153 49.0492 78.8339 48.1632C76.8531 47.2773 74.5884 47.2773 72.6069 48.1632C70.6255 49.0491 69.1158 50.7373 68.4544 52.8044H36.8135C36.1528 50.7375 34.643 49.0492 32.6616 48.1632C30.6802 47.2773 28.4154 47.2773 26.4346 48.1632C24.4532 49.0491 22.9435 50.7373 22.2821 52.8044H19.3448C18.6841 50.7375 17.1743 49.0492 15.1929 48.1632C13.2115 47.2773 10.9467 47.2773 8.96594 48.1632C6.98453 49.0491 5.47476 50.7373 4.81338 52.8044H2.85066V46.039H84.95L84.9492 52.8044Z" fill="#3D5A9B"/>
<path d="M12.0796 51.6182C11.1488 51.6182 10.2567 51.9875 9.59847 52.6457C8.94027 53.3039 8.57031 54.1967 8.57031 55.1275C8.57031 56.0583 8.94027 56.9511 9.59847 57.6093C10.2567 58.2675 11.1488 58.6368 12.0796 58.6368C13.0104 58.6368 13.9032 58.2675 14.5614 57.6093C15.2196 56.9511 15.589 56.0583 15.589 55.1275C15.5883 54.1973 15.2184 53.3052 14.5602 52.647C13.902 51.9894 13.0104 51.6188 12.0797 51.6182L12.0796 51.6182ZM12.0796 56.5406C11.5082 56.5406 10.9928 56.1962 10.7738 55.6684C10.5555 55.1399 10.6765 54.5323 11.0802 54.128C11.4844 53.7237 12.0927 53.6033 12.6205 53.8217C13.149 54.0407 13.4927 54.556 13.4927 55.1275C13.4921 55.9073 12.8601 56.5399 12.0796 56.5406L12.0796 56.5406Z" fill="#3D5A9B"/>
<path d="M29.5484 51.6182C28.6175 51.6182 27.7254 51.9875 27.0672 52.6457C26.409 53.3039 26.0391 54.1967 26.0391 55.1275C26.0391 56.0583 26.409 56.9511 27.0672 57.6093C27.7254 58.2675 28.6176 58.6368 29.5484 58.6368C30.4792 58.6368 31.372 58.2675 32.0302 57.6093C32.6884 56.9511 33.0577 56.0583 33.0577 55.1275C33.0571 54.1973 32.6871 53.3052 32.0289 52.647C31.3707 51.9894 30.4792 51.6188 29.5484 51.6182L29.5484 51.6182ZM29.5484 56.5406C28.9769 56.5406 28.4616 56.1962 28.2426 55.6684C28.0242 55.1399 28.1453 54.5323 28.5489 54.128C28.9532 53.7237 29.5615 53.6033 30.0893 53.8217C30.6177 54.0407 30.9615 54.556 30.9615 55.1275C30.9608 55.9073 30.3288 56.5399 29.5484 56.5406L29.5484 56.5406Z" fill="#3D5A9B"/>
<path d="M75.7203 51.6182C74.7894 51.6182 73.8966 51.9875 73.2385 52.6457C72.5803 53.3039 72.2109 54.1967 72.2109 55.1275C72.2109 56.0583 72.5803 56.9511 73.2385 57.6093C73.8967 58.2675 74.7894 58.6368 75.7203 58.6368C76.6511 58.6368 77.5432 58.2675 78.2014 57.6093C78.8596 56.9511 79.2296 56.0583 79.2296 55.1275C79.2283 54.1973 78.8584 53.3052 78.2008 52.647C77.5426 51.9894 76.6504 51.6188 75.7203 51.6182L75.7203 51.6182ZM75.7203 56.5406C75.1488 56.5406 74.6335 56.1962 74.4145 55.6684C74.1955 55.1399 74.3165 54.5323 74.7208 54.128C75.1251 53.7237 75.7327 53.6033 76.2612 53.8217C76.789 54.0407 77.1333 54.556 77.1333 55.1275C77.1321 55.9073 76.5001 56.5399 75.7202 56.5406L75.7203 56.5406Z" fill="#3D5A9B"/>
</svg>
