<?xml version="1.0" encoding="UTF-8"?>
<!DOCTYPE svg PUBLIC "-//W3C//DTD SVG 1.1//EN" "http://www.w3.org/Graphics/SVG/1.1/DTD/svg11.dtd">
<!-- Creator: CorelDRAW 2021 (64-Bit) -->
<svg xmlns="http://www.w3.org/2000/svg" xml:space="preserve" width="204.672mm" height="168.769mm" version="1.1" style="shape-rendering:geometricPrecision; text-rendering:geometricPrecision; image-rendering:optimizeQuality; fill-rule:evenodd; clip-rule:evenodd"
viewBox="0 0 10936.74 9018.25"
 xmlns:xlink="http://www.w3.org/1999/xlink"
 xmlns:xodm="http://www.corel.com/coreldraw/odm/2003">
 <defs>
  <style type="text/css">
   <![CDATA[
    .fil7 {fill:#012C84}
    .fil22 {fill:#052B74}
    .fil28 {fill:#0A2A6D}
    .fil13 {fill:#0A2C73}
    .fil4 {fill:#0C3174}
    .fil37 {fill:#0D316D}
    .fil15 {fill:#0D337A}
    .fil8 {fill:#123474}
    .fil33 {fill:#1B3C7C}
    .fil38 {fill:#223B68}
    .fil47 {fill:#29477B}
    .fil51 {fill:#364D78}
    .fil48 {fill:#3760A3}
    .fil23 {fill:#3AB2E3}
    .fil5 {fill:#43BBEB}
    .fil3 {fill:#47B8E6}
    .fil25 {fill:#48B3DC}
    .fil44 {fill:#536C9B}
    .fil24 {fill:#56BCE5}
    .fil30 {fill:#6583BC}
    .fil29 {fill:#6A82AD}
    .fil27 {fill:#6A85B7}
    .fil45 {fill:#7995C8}
    .fil34 {fill:#7B9AD3}
    .fil46 {fill:#829DD3}
    .fil49 {fill:#8497BB}
    .fil52 {fill:#859BC4}
    .fil50 {fill:#869CC9}
    .fil42 {fill:#89A6D8}
    .fil32 {fill:#8BA4D4}
    .fil55 {fill:#8FAFE8}
    .fil36 {fill:#94DBF8}
    .fil54 {fill:#9EE2FD}
    .fil26 {fill:#A3BDEB}
    .fil35 {fill:#A6BBE4}
    .fil41 {fill:#B6EBFF}
    .fil31 {fill:#BACDF2}
    .fil19 {fill:#BCF4FF}
    .fil43 {fill:#BCFCFF}
    .fil16 {fill:#C3F4FE}
    .fil39 {fill:#CDEEFE}
    .fil0 {fill:#CEEFFE}
    .fil53 {fill:#D1F1FE}
    .fil40 {fill:#D4EBFD}
    .fil17 {fill:#D9E7FC}
    .fil18 {fill:#E6FFFF}
    .fil9 {fill:#E9F2FC}
    .fil2 {fill:#EBF1FF}
    .fil1 {fill:#EBF2FD}
    .fil20 {fill:#EEF2FD}
    .fil11 {fill:#EEFEFF}
    .fil21 {fill:#F1FDFF}
    .fil14 {fill:#F6FDFF}
    .fil10 {fill:#F8FFFF}
    .fil6 {fill:#FBFEFF}
    .fil12 {fill:#FDFDFE}
   ]]>
  </style>
 </defs>
 <g id="Layer_x0020_1">
  <metadata id="CorelCorpID_0Corel-Layer"/>
  <g id="_2748590195824">
   <path class="fil0" d="M775.3 3453.91c-37.99,321.35 -333.67,902.73 -338.51,1285.94l-59.21 -26.72c139.87,274.75 1774.83,321.96 1530.99,-278.24 -49.12,-120.91 -92.71,-223.96 -136.56,-334.29 -86.6,-217.83 -180.4,-440.42 -269.28,-654.18 -235.54,46.38 -488.9,67.37 -727.44,7.49z"/>
   <path class="fil1" d="M8157.98 5361.64c82.55,-21.11 179.89,-34.74 267.62,5 -29.05,29.58 7.22,22.37 -57.05,29.07l-153.15 0.09c-58.44,-9.73 -24.88,1.53 -57.42,-34.16zm-112.35 -70.4c0.01,-0.01 -30.38,-24.49 94.16,-31.95 101.02,-6.05 279.82,-18.36 366.25,31.95 -59.61,43.92 -174.08,6.24 -346.98,15.22 -6.06,0.32 -54.77,3.63 -56.6,3.49 -64.85,-4.65 -23.24,2.66 -56.83,-18.72zm-372.37 1439.18c13.41,-282.92 243.5,-1644.34 373.36,-1754.37 39.45,56.94 -71.52,333.4 -90.12,428.2 39.02,-1.99 13.3,-37.26 45.3,40.95 90.01,-3.21 236.43,125.04 352.67,197.58l533.76 314.56c93.67,55.76 102.53,69.03 191.99,9.61l332.51 -241.12c-25.41,-34.93 -6.94,-13.78 -12.97,-49.21 -19.52,-114.76 6.61,-60.49 -52.54,-102.5l-485.5 -245.54c-211.8,-89.31 -516.42,-233.34 -787.68,-177.87 6.63,-110.8 58.66,-178.92 10.28,-259.01 -116.78,-44.51 -190.24,68.21 -227.8,153.33 -37.44,84.84 -86.5,214.7 -116.4,296.14 -81.14,220.99 -142.56,412.54 -199.22,632.4 -56.66,219.87 -107.3,459.01 -139.15,691.01 -12.87,93.74 -66.37,331.34 76.9,268.3 129.08,-56.8 122.5,-106.34 194.61,-202.46z"/>
   <path class="fil1" d="M10449.9 6876.03c248.76,-87.23 444.06,-430.38 434.84,-755.44 -8.27,-291.08 -216.5,-750.69 -381.61,-822.1 15.53,72.86 19.95,35.16 -28.3,100.77 -231.28,314.5 -406.25,865.47 -322.66,1216 15.69,65.78 61.9,143.37 101.96,182.44 64.11,62.54 118.85,42.04 195.78,78.32z"/>
   <path class="fil1" d="M6888.22 3085.78c19.27,81.54 42.87,187.89 91.81,240.99l8.05 -41.91c64.12,212.76 419.53,453.26 608.89,552.57 137.08,71.89 289.37,115.83 468.64,117.08 250.97,1.75 330.7,-25.39 288.24,-273.19l8.44 -0.51c-75.94,-116.18 -435.27,-361.74 -595.27,-447.47 -124.41,-66.67 -226.09,-114.88 -371.2,-156.28 -194.49,-55.5 -297.84,-29.29 -489.02,-47.46 7.94,89.82 9.43,39.76 -18.6,56.18z"/>
   <path class="fil1" d="M6451.66 617.46c60.8,98.25 170.96,153.53 256.59,225.09 59.37,49.61 134.74,124.93 148.7,210 11.48,69.97 6.77,55.31 -16.79,96.05 -21.86,-26.36 -8.97,4.11 -24.9,-43.15 -0.36,-1.09 -5.43,-38.6 -7.57,-48.06 -38.15,-168.91 -204.7,-198.72 -384.12,-391.52 -24.44,-37.75 -30.97,50.52 -19.14,-49.64 83.05,-43.41 26.18,-10.34 47.22,1.23zm-310.31 -124.23l16.53 -0.01c49.32,-7.45 -5.59,-34.91 52.49,0.04l9.91 89.61c60.54,125 223.97,185.97 343.88,271.47 144.07,102.72 166.87,264.87 149.1,478.12l54.26 -14.12c5.59,-2.69 12.45,-7.69 17.48,-10.32 5.25,-2.74 11.52,-8.15 17.36,-12.12 -74.98,-4.21 -37.5,4.74 -49.3,-19.9 93.65,-121.42 331.1,-95.44 339.03,93.98 8.31,198.63 -148.94,265.18 -232.05,325.23l-23.36 20.5 45.42 13.7c-101.59,-0.72 4.46,-14.79 -41.84,41.1l55.9 5.53 -30.69 159.65c48.45,-17.79 17.7,18.41 40.16,-24.74 192.66,-440.97 531.67,-863.4 137.25,-1422.13 -158.62,-224.7 -380.77,-427.5 -701.26,-437.08 7.2,271.32 -123.63,297.75 -200.27,441.47z"/>
   <path class="fil2" d="M2230.6 6412.51c74.66,24.72 52.67,17.41 102.66,68.54 46.91,47.97 43.56,42.67 94.55,74.29 151.77,94.09 164.08,40.09 200.87,112.01 -65.02,30.54 -357.55,-102.1 -398.08,-254.83zm-234.5 -122.09c57.6,106.36 207.47,280.8 291.45,348.58 107.08,86.42 251.22,205.06 461.28,180.22 235.35,-27.83 603.42,-384.65 725.66,-551.32 -94.37,-27.57 -1.71,4.45 -76.93,-43.92 -224.24,-144.18 -852,-93.41 -1094.5,-41.09 -258.34,55.73 -219.43,124.04 -306.96,107.54z"/>
   <path class="fil2" d="M7036 5555.15c9.54,-7.32 4.12,-24.37 49.65,-24.61 90.28,-0.48 30.14,4.07 47.34,24.61 -63.92,49.99 -61.81,38.18 -96.99,0zm-35.95 94.25c154.44,-100.81 204.04,63.4 243.62,-293.49 94.97,26.08 48.66,242.99 -93.96,301.09 -18.34,7.48 -43.5,16.75 -64.87,17.9 -97.08,5.23 -65.63,-12.43 -84.79,-25.49zm-241.18 -973.66l-1.04 47.72 -124.9 6.8c-28.02,26.77 -16.13,-18.17 -23.38,35.33 -5.79,42.71 -0.31,22.5 5.61,54.38l156.85 15.18c-21.16,46.94 -0.48,20.68 -56.13,50.82 -3.34,1.81 -10.53,3.79 -13.34,5.1 -2.8,1.31 -9.34,2.16 -13.58,4.3 6.18,170.25 -16.61,575.29 47.16,707.3 87.85,181.87 400.7,164.93 577.75,89.16 52.82,-215.21 49.91,-522.76 51.4,-758.76 -67.84,-39.44 -75.83,-1.2 -106.75,-56.55 52.72,-26.5 99.93,-4.78 170.39,1.73l7.89 -114.74 -47.69 -12.32 -134.22 -12.04 -40.4 69.49c-5.71,100.85 -4.39,141.54 -72.7,172.03 -62.56,-27.88 -57.64,-42.84 -64.88,-127.46l-127.79 14.48c10.77,47.61 31.39,71 -36.45,56.84 -17.06,5.57 -2.57,8.83 -37.48,7.85 -34.03,-0.96 -25.84,-5.55 -42.07,-14.16 -64.73,-144.84 -43.64,-407.16 -13.68,-569.42 -44.77,49.44 -8.87,-49.56 -48.3,76.79 -9.14,29.29 -7.05,56.04 -6.74,87.14 0.65,62.75 3.41,92.95 -5.52,163.02z"/>
   <path class="fil3" d="M897.93 1539.26c135.89,-35.52 412.48,-77.65 513.7,20.11 -110.65,33.02 -434.05,72.15 -513.7,-20.11zm-76.13 662.83l52.55 26.6 7.01 -613.21c267.54,35.64 287.8,22.74 544.21,2.2 16.09,364.85 2.37,761.36 1.62,1129.41 -0.41,201.95 513.4,1357.69 624.82,1638.37 171.35,431.67 210.47,469.96 -266.31,638.39 -677.96,239.49 -1729.04,36.54 -1741.2,-280.62 -4.86,-126.68 599.64,-1466.38 629.15,-1618.65l7.17 -41.94 -42.99 -36.03c-4.71,106.57 -502.26,1274 -588.2,1488.59 -155.66,388.69 77.76,443.79 382.83,548.62 276.34,94.96 611.49,139.56 926.34,95.27 236.73,-33.3 630.79,-142.16 778.88,-254.51 204.43,-155.09 -31,-543.82 -114.6,-753.67l-451.27 -1111.92c-49.75,-116.38 -146.03,-303.37 -62.48,-425.84 -41.72,-35.06 -20.75,7.3 -18.99,-50.26 0.07,-2.17 17.62,-43.6 17.94,-44.44 -26.75,-29.08 -28.71,-75.26 -29.44,-111.1l-0.76 -906.17c-45.3,-7.72 -36.91,-66.39 -311.97,-68.4 -141.09,-1.03 -239.39,3.36 -333.5,71.72l-10.82 677.6z"/>
   <path class="fil0" d="M6614.04 7180.84l29.98 42.71c13.44,31.21 5.04,-14.58 13.9,47.87l-2.9 357.32c-0.49,163.79 -1.92,326.06 -0.5,490.12 1.4,161.64 -14.83,552.37 39.73,695.87 60.96,160.34 109.4,76.23 67.04,126.45 99.6,70.65 261.6,-13.62 322.58,-125.03 51.66,-94.39 37.91,-332.35 29.38,-451.99 -58.07,32.19 -80.83,65.97 -152.63,69.65 3.68,-27.07 2.13,-21.63 10.6,-35.26 1.65,-2.65 5.62,-7.72 7.58,-10.54 2.13,-3.04 6.84,-7.83 9.04,-10.68 2.34,-3.05 7.73,-8.76 9.79,-11.28 2.15,-2.62 7.2,-7.49 10.37,-11.6l-32.22 -15.84 -105.52 41.83c1.14,-49.02 -5.98,-18.69 8.12,-62.58l-38.76 -10.39 -1.39 -63.82c-197.32,106.48 -73.87,-183.47 -43.06,-238.77l2.03 -21.22 -82.91 -18.33c-29.34,-119.73 68.37,-195.04 182.31,-336.48 38.46,-47.73 79.73,-95.9 117.75,-146.57 42.46,-56.59 90.78,-103.33 120.37,-158.68l-23.35 -152.52c-189.83,28.82 -291.88,42.06 -497.33,9.75z"/>
   <path class="fil1" d="M4095.21 3532.67c132.92,215.79 605.29,63.28 762.6,4.63 133.05,-49.61 465.05,-255.04 506.83,-368.45 24.75,-67.18 12.42,-67.11 -13.54,-105.12l39.89 -9.89 0 -29.57c-318.94,12.27 -483.04,2.83 -768.01,125.61 -200.87,86.54 -443.45,236.93 -527.78,382.79z"/>
   <path class="fil1" d="M9176.32 6540.58l38.01 -109.85c3.19,-17.98 4.47,-37.18 10.06,-54.55 21.13,-65.72 14.12,-33 28.68,-54.06 20.31,29.42 31.57,-51.04 17.82,78.03 -0.03,0.24 -16.06,60.26 -16.2,60.75 -11.44,40.48 -25.66,86.72 -41.1,129.15l-80.46 183.05c-29.04,35.79 -8.52,17.01 -62,34.28l105.19 -266.81zm-561.87 445.02c-18.77,9.69 31.97,39.24 -42.43,2.21 -2.05,-76.35 -7.36,-20.13 23.52,-41.42 162.65,-137.98 226.94,-199.75 354.2,-355.85 102.89,-126.21 178.91,-260.48 263.23,-424.04l40.1 -55.19c20.71,33.15 27.12,31.29 -1.54,68.22 -24.91,127.95 -204.33,364.29 -275.61,455.93 -73.58,94.6 -266.5,299.86 -361.48,350.15zm-99.67 100.88c129.41,77.23 201.33,81.33 397.42,-25.07 270.56,-146.81 713.14,-718.52 540.08,-970.23 -78.93,-114.8 -283.66,-133.13 -321.94,35.44 -48.94,215.49 -41.37,216.26 -176.22,355.04 -291.25,299.7 -451.06,298.71 -439.33,604.82z"/>
   <path class="fil4" d="M6906.81 3029.6c191.19,18.17 294.53,-8.05 489.02,47.46 145.11,41.41 246.79,89.62 371.2,156.28 159.99,85.73 519.33,331.29 595.27,447.47 66.24,15.82 78.33,51.08 140.68,98.41 352.88,267.84 499.95,404.31 931.77,708.89 259.39,182.96 972.5,608.77 1068.37,810.38 165.11,71.41 373.34,531.02 381.61,822.1 9.23,325.05 -186.08,668.21 -434.84,755.44 -133.01,211.94 -1518.85,601.76 -2129.98,1082.45 -67.17,52.83 -210.43,143.37 -221.91,234.49l445.06 -331.56c428.71,-276.77 1061.02,-483.39 1541.41,-719.88 355.65,-175.08 680.71,-335.29 804.83,-703.11 150.6,-446.29 -87.38,-886.7 -295.42,-1130.59 -213.08,-249.8 -515.84,-456.67 -843.34,-665.08 -307.06,-195.41 -609.99,-413.95 -879.73,-628.2 -399.45,-317.26 -866.59,-765.2 -1323.69,-939.13 -109.87,-41.81 -562.5,-170.34 -640.31,-45.82z"/>
   <path class="fil1" d="M4587.64 7874.72l-24.83 17.05c34.43,23.46 51.9,40.41 96.27,70.63 46.85,31.91 73.07,35.13 115.6,81.06 -99.65,51.35 -249.05,-132.1 -304.12,-189.85l-35.64 -32.64c60.78,-36.49 46.93,-44.73 98.44,1.87 98.82,0.12 218.83,34.45 308.61,-4.13 27.66,-77.99 -130.55,-195.22 -193.44,-241.42l-215.03 -141.92c-84.34,-47.18 -46.23,-12.95 -73.67,-79.84 123.23,26.93 244.03,127.48 331.42,197.6 63.13,50.65 65.43,46.02 130.36,114.73 230.39,243.78 -71.57,215.4 -233.97,206.86zm-364.47 -434.49c24.28,140.57 218.49,497.83 299.81,582.72 162.4,169.52 480.71,144.64 488.88,-149.42 5.7,-205.32 -220.41,-433.54 -340.5,-545.16 -266.27,-247.5 -497.85,-175.63 -448.19,111.86z"/>
   <path class="fil1" d="M7330.28 698.06c-26.04,-36.41 -11.76,34.34 -22.67,-62.55l3.82 -136.05c45.61,24.42 49.2,16.16 49.03,97.44 -0.02,7.64 -5.35,48.69 -7.29,56.53 -18.37,74.3 -1.24,10.15 -22.89,44.62zm76.56 26.79c-15.15,-107.15 69.66,-254.81 -51.69,-416.31 -47.33,-62.98 -36.68,-12.26 -69.17,-96.5 198.41,54.02 248.49,445.56 120.86,512.81zm-616.04 -579.89c60.9,104.65 513.13,345.12 479.13,1014.07 316,-69.56 397.11,-446.51 264.44,-783.88 -57.99,-147.49 -144.01,-238.59 -291.06,-293.67 -160.41,-60.08 -340.35,-39.88 -452.5,63.49z"/>
   <path class="fil5" d="M6585.37 7100.92c91.24,-65.29 411.11,-47.99 510.56,0 -77.46,64.64 -436.26,74.5 -510.56,0zm-14.81 -591.4c306.12,5.97 65.51,54.3 546.96,-3.08l-3.42 530.81c-98.87,-9 -160.77,-29.25 -273.54,-29.08 -103.09,0.14 -197.98,27.75 -272.14,25.4l2.14 -524.04zm63.89 -98.73l348.04 -9.53c73.56,6.76 74.52,-5.38 117.29,46.22l-123.21 28.24 -337.08 -11.63 -49.9 -22.95c24.2,-30.42 -44.48,-12.79 44.86,-30.35zm-133.75 865.6c20.09,23.89 21.41,-33.97 15.28,31.89 -27.99,14.5 -5.38,8.43 -22.12,40.4 35.95,43.54 22.97,131.16 23.25,205.26 0.37,98.73 17.01,113.27 -33.69,171.19l31.03 16.73c-28.58,14.33 -3.95,4.62 -20.12,41.74 24.16,30.11 4.27,-13.7 16.99,38.4l4.73 278.02c-0.13,316.42 -51.74,725.54 129.54,855.19 147.52,105.51 355.44,74.75 459.05,-63.49 125.2,-167.04 25.41,-409.24 79.03,-587.15 -35.65,-13.29 -28.09,20.48 -24.17,-41.25 -37.06,17.63 -25.63,0.86 -41.67,42.06l-4.57 58.79c8.53,119.64 22.28,357.6 -29.38,451.99 -60.98,111.41 -222.98,195.69 -322.58,125.03 -265.46,-5.31 -193.96,-527.1 -193.96,-784.62 0,-299.69 -22.14,-696.79 4.09,-986.7l42.62 10.98c205.45,32.31 307.5,19.07 497.33,-9.75l23.35 152.52 55.31 -5.48c-68.55,-114.7 9.52,-709.99 -30.86,-913.82 -156.14,-76.56 -461.37,-98.31 -634.09,3.36 -42.67,232.14 31.18,681.06 -24.4,868.73z"/>
   <path class="fil5" d="M775.3 3453.91c238.54,59.89 491.89,38.89 727.44,-7.49 88.87,213.76 182.68,436.35 269.28,654.18 43.85,110.32 87.44,213.37 136.56,334.29 243.84,600.2 -1391.12,552.99 -1530.99,278.24 -224.52,-107.63 106.03,-703.23 225.81,-1003.83 117.77,-295.57 75.11,-253.09 171.9,-255.39zm-21.45 -67.85c155.56,-52.78 537.75,-48.51 696.65,-1.48 -96.08,76.1 -618.23,65.84 -696.65,1.48zm64.65 -69.16c-165.3,30.65 -145.34,76.09 -203.72,218.54l-367.36 915.53c-151.14,506.63 779.91,543.47 1164.1,485.57 837.8,-126.27 576.91,-453.54 387.69,-915.92 -81.15,-198.31 -160.76,-413.69 -246.21,-603.68 -81.32,-180.79 -553.95,-133.51 -734.49,-100.04z"/>
   <path class="fil4" d="M6790.8 144.96c112.16,-103.37 292.09,-123.56 452.5,-63.49 147.05,55.08 233.07,146.18 291.06,293.67 132.67,337.38 51.57,714.32 -264.44,783.88 34,-668.94 -418.23,-909.41 -479.13,-1014.07zm-1363.89 840.96c24.83,-452.34 417.12,-901.81 859.97,-926.99 43.61,207.35 -179.93,403.41 -293.12,464.5 -170.73,92.13 -421.77,152.33 -495.41,300.16 26.98,36.11 -5.5,10.68 54.13,24.13 36.22,-94.51 153.51,-141.8 269.6,-193.75 58.78,-26.31 103.61,-41.58 169.34,-76.25 26.26,-13.85 46.92,-26.31 71.36,-42.16 62.39,-40.44 17.39,-28.09 78.56,-42.33 76.64,-143.72 207.47,-170.15 200.27,-441.47 320.49,9.58 542.64,212.37 701.26,437.08 394.42,558.73 55.41,981.16 -137.25,1422.13 2.38,63.41 -6.58,23.36 31.7,42.89 110.74,-225.75 243.09,-476.63 319.28,-734.39 166.19,-81.47 268.98,-94.32 340.66,-280.94 177.85,-463.06 -193.22,-1203.39 -825.87,-842.61 -90.47,51.59 -413.48,-292.45 -946.27,89.61 -168.24,120.64 -327.93,336.21 -398.51,544.67l-43.33 188.31c15.31,100.5 -31.72,37.67 43.61,67.44z"/>
   <path class="fil4" d="M2820.25 4893.73c29.97,-62.72 37.74,-25.37 48.89,-17.13 36.99,68.24 82.79,210.81 -51.74,177.59l-13.03 -29.8c-9.33,-64.83 -0.69,-63.94 15.89,-130.67zm1274.96 -1361.05c84.33,-145.86 326.91,-296.25 527.78,-382.79 284.97,-122.77 449.07,-113.34 768.01,-125.61 12.24,0.83 71.71,8.78 73.74,8.66 81.7,-4.94 32.8,19.97 52.03,-25.76 -225.31,-94.98 -730.64,15.78 -930.4,104.97 -638.27,284.98 -874.55,850.83 -1290.94,1254.44l-304.26 261.12c-65.37,52.33 -91.95,86.32 -147.38,134.33 -248.3,-160.92 -466.42,-545.19 -607.01,-805.05l-427.27 -816.47c-35.22,-68.24 -31.88,-79.04 -77.92,-112.29 -1.89,3.59 -3.51,5.97 -3.64,11.62l-3.91 23.65c3.13,48.38 72.64,157.37 94.08,199.64 145.13,286.09 476.52,929.35 635.64,1154.95 86.12,122.1 241.59,284.37 356.31,377.24 -23.47,125.32 -91.04,181.75 -25.34,307.02 317.14,58.34 100.18,-301.06 100.12,-301.23 51.96,-46.89 86.67,-98.68 148.8,-149.33 53.97,-44 133.89,-98.57 179.33,-141.26 288.13,-270.73 754.55,-916.83 882.23,-977.85z"/>
   <path class="fil6" d="M6568.42 7033.55c74.16,2.36 169.05,-25.25 272.14,-25.4 112.77,-0.16 174.67,20.08 273.54,29.08l3.42 -530.81c-481.45,57.38 -240.84,9.06 -546.96,3.08l-2.14 524.04z"/>
   <path class="fil1" d="M4801.26 6670.46c33.37,34.68 130.21,110.09 115.09,142.61 -14.14,8.3 18.14,39.39 -42.21,-5.9 -109.18,-81.94 -536.34,-531.03 -543.74,-628.84 43.45,19 382.84,400.64 470.85,492.13zm-524.92 -436.33c9.05,75.22 178.6,311.32 226.44,376.56 51.92,70.82 312.28,450.35 446.66,316.88 159.09,-158.02 -159.04,-490.44 -212.02,-551.8 -75.55,-87.49 -308.63,-368.52 -446.86,-334.33 -23.17,62.27 -22.11,127.12 -14.22,192.68z"/>
   <path class="fil7" d="M5723.09 2687.7c18.33,-50.23 123.06,-37.66 174.3,-41.3 137.02,-6.28 286.48,-95.92 366.5,-155.29 145.97,-108.3 147.05,-144.12 258.49,-278.66 15.45,-80.84 16.15,-35.6 -23.23,-48.9 -97.93,64.04 -165.34,138.87 -315.57,191.28 -156.39,54.56 -297.62,55.68 -439.12,-20.13 -216.48,-115.98 -334.84,-389.38 -329.95,-734.66l0.13 -136.44c1.57,-88.02 25.47,-389.97 -7.13,-443.79 -70.59,59.25 -51.06,675.09 -27.87,813.21 70.22,418.18 322.23,509.72 336.31,555.17 -6.97,119.66 -96.99,551.84 -63.39,616.01 59.63,-35.25 70.31,-239.47 70.53,-316.52z"/>
   <path class="fil4" d="M7360.6 7218.66l40.56 -9.67 99.28 -50.02c61.06,159.37 156.52,336.82 235.53,497.06 43.87,88.96 183.51,450.45 254.09,484.61 31.98,-82.87 -434.01,-922.32 -485.87,-1096.28 116.66,-120.56 368.01,-276.5 524.12,-376.59 184.43,-118.25 369.18,-227.92 562.1,-342.55 198.33,-117.84 375.4,-229.25 558.07,-346.77 99.72,-64.16 173.26,-116.98 265.76,-186.66 39.77,-29.96 89.24,-66.28 128.96,-97.1 143.32,-111.23 92.45,-49.43 117.73,-129.92 -110.73,30.09 -152.61,118.39 -248.2,161.05l-332.51 241.12c-89.46,59.43 -98.32,46.15 -191.99,-9.61l-533.76 -314.56c-116.24,-72.54 -262.66,-200.79 -352.67,-197.58 62.34,91.37 349.61,250.06 459.21,318.06 94.19,58.44 416.43,227.83 473.78,282.01 -53.89,57.45 -1077.17,668.98 -1301.77,830.68 -68.4,49.24 -113.48,91.13 -179.46,126.57l16.67 120.48c-66.02,21.42 -82.63,27.63 -109.62,95.65z"/>
   <path class="fil4" d="M5798.57 4293.16l41.47 -124.89c17.41,-110.93 162.37,-544.43 114.14,-622.96 -54.56,40.82 -107.31,395.84 -134.09,501.64 -149.07,589.07 -298.67,985.51 -245.75,1650.16 20.42,256.48 180.72,2237.84 229.02,2308.27l-55.82 -942.61c-44.48,-507.8 -165.28,-1476.26 -120.34,-1927.83 33.59,-337.52 160.67,-719.59 171.36,-841.78z"/>
   <path class="fil8" d="M4125.64 8055.71c128.2,-134.68 20.66,-2051.97 -4.33,-2369.2 -38.18,-484.63 -30.06,-660.79 139.08,-1071.68 52.74,-128.11 333.86,-694.39 333.17,-834.93l-43.76 -8.23c-1.81,4.61 -3.28,9.64 -4.9,14.42 -57.59,169.57 -42.1,167.43 -137.22,392.68 -64.09,151.77 -133.69,280.78 -195.93,425.51 -159.54,370.99 -180.49,622.77 -140.77,1063.63 51.78,574.69 81.02,1226.83 59.4,1811.1 -4,108.03 -55.02,513.77 -4.75,576.72z"/>
   <path class="fil9" d="M5734.11 457.81c1.13,-71.85 17.64,-47.26 69.12,-87.31 55.21,-42.95 36.26,-47.42 97.37,-75.11 -8.27,85.03 -86.61,150.61 -166.49,162.43zm373.42 -245.8c24.75,-27.85 -37.89,-37.44 47.16,-22.23 0.19,1.07 20.46,6.07 -12.79,56.58 -99.06,219.59 -486.51,426.16 -572.62,369.87 21.4,-24.92 235.82,-106.13 304.8,-155.17 120.08,-85.35 162.47,-112.68 233.45,-249.06zm-680.62 773.92l30.67 -48.27c9.59,-26.72 6.38,-30.21 6.38,-57.6 4.13,-1.56 10.92,-6.36 13,-2.59l75.53 -29.74c-59.63,-13.46 -27.15,11.98 -54.13,-24.13 73.63,-147.83 324.67,-208.03 495.41,-300.16 113.19,-61.09 336.73,-257.15 293.12,-464.5 -442.85,25.18 -835.15,474.65 -859.97,926.99z"/>
   <path class="fil4" d="M3474.49 6267.9c-122.24,166.67 -490.31,523.49 -725.66,551.32 -210.05,24.84 -354.2,-93.8 -461.28,-180.22 -83.98,-67.78 -233.85,-242.22 -291.45,-348.58 -102.27,-35.55 -645.55,-1005.16 -714.88,-1033.76 -5.18,117.48 439.55,752.03 528.66,879.77 157.51,225.78 427.86,588.72 696.88,698.98 346.61,142.05 688.93,-183.84 902.87,-412.94 112.19,-120.14 560.24,-615.6 612.92,-802.28 -91.26,33.27 -62.65,43.91 -152.08,169.8l-367.74 459.85c-26.19,23.47 -7.43,9.43 -28.24,18.06z"/>
   <path class="fil10" d="M377.59 4713.13l59.21 26.72c4.84,-383.21 300.52,-964.59 338.51,-1285.94 -96.79,2.3 -54.13,-40.17 -171.9,255.39 -119.79,300.6 -450.34,896.2 -225.81,1003.83z"/>
   <path class="fil1" d="M2378.49 5473.18c8.5,-59.08 56.83,-98.05 94.85,-174.71 36.93,-74.46 46.66,-162.47 87.68,-209.78 42.59,57.1 -10.52,154.33 -40.15,218.42 -28.52,61.7 -65.9,161.89 -142.38,166.07zm-139.74 -62.46c13.61,-49.96 155.57,-222.4 262,-441.94 43.27,-89.26 2.16,-35.41 71.68,-67.54 -20.02,102.09 -82.69,208.63 -132.04,288.18 -44.31,71.43 -114.32,199.13 -201.64,221.31zm429.11 -270.3c108.81,-334.92 -139.48,-335.45 -204.67,-249 -22.44,29.76 -27.4,59.29 -47.24,105.09 -37.31,86.12 -126.27,174.08 -174.81,277.7 -129.93,277.42 212.12,526.79 426.72,-133.79z"/>
   <path class="fil11" d="M6761.29 8941.18c42.36,-50.22 -6.08,33.89 -67.04,-126.45 -54.56,-143.5 -38.33,-534.24 -39.73,-695.87 -1.42,-164.06 0.01,-326.33 0.5,-490.12l2.9 -357.32c-8.85,-62.44 -0.45,-16.66 -13.9,-47.87l-29.98 -42.71 -42.62 -10.98c-26.23,289.91 -4.09,687.01 -4.09,986.7 0,257.52 -71.5,779.31 193.96,784.62z"/>
   <path class="fil4" d="M7190.04 7318.12l-55.31 5.48c-29.6,55.34 -77.91,102.09 -120.37,158.68 -38.02,50.68 -79.29,98.84 -117.75,146.57 -113.94,141.43 -211.65,216.75 -182.31,336.48l82.91 18.33 41.44 -28.76c65.75,-19.54 231.46,-155.29 266.67,-193.07 76.08,-81.63 148.53,-142.18 225.81,-221.67l42.18 41.57c1.26,-3.15 6.36,6.09 9.35,9.32 -54.16,179.96 -294.91,386.34 -437.29,501.22 -56.33,45.45 -103.94,106.4 -178.63,121.37 10.02,-81.96 21.44,-125.71 76.21,-175.07 -15.66,-52.22 37.72,-51.11 -47.77,-33.68 -30.81,55.3 -154.25,345.25 43.06,238.77l341.25 -294.37c30.21,-36.12 297.08,-280.81 247.17,-395.94 -27.7,-28.3 -18.35,-15.58 -42.74,-34.11 -18.01,-13.68 -14.42,10.61 -22.02,-16.18 -1.64,-5.77 -7.69,-4.96 -11.09,-8 56.21,-65.8 118.24,-154.54 41.9,-245.22l-25.99 -19.49c-114.66,-11.58 -134.04,0.57 -174.54,59.08l51.25 6.44c28.65,-4.29 46.08,-32.25 130.16,-10.69 25.7,141.91 -174.98,323.95 -243.25,388.64 -60.33,57.18 -270.28,258.48 -379.68,254.21 13,-74.99 168.29,-253.16 213.69,-306.78 52.72,-62.28 201.57,-232.58 225.67,-303.12z"/>
   <path class="fil4" d="M7383 4695.2c-65.91,-4.19 -87.45,-20.81 -140.04,11.66 51.68,33.01 13.16,9.47 68.17,20.05l65.45 16.75c2.47,-4.08 8.39,4.95 12.53,7.53l47.69 12.32 -7.89 114.74c-70.45,-6.51 -117.67,-28.22 -170.39,-1.73 30.92,55.35 38.91,17.11 106.75,56.55 -1.49,236 1.42,543.56 -51.4,758.76 -177.05,75.77 -489.9,92.71 -577.75,-89.16 -63.77,-132.01 -40.97,-537.05 -47.16,-707.3 4.24,-2.13 10.78,-2.98 13.58,-4.3 2.81,-1.31 10,-3.29 13.34,-5.1 55.65,-30.14 34.98,-3.88 56.13,-50.82l-156.85 -15.18c-5.92,-31.88 -11.4,-11.68 -5.61,-54.38 7.25,-53.49 -4.64,-8.56 23.38,-35.33 43.36,-27.75 22.9,-6.49 74.17,-23.14l-127.18 -0.35c-35.2,15.51 -36.76,116.12 7.7,158.55l40.45 23.19c2.5,-4.25 10.63,4.23 15.7,6.87 -9.21,167.32 -9.2,435.74 13.03,600.29 26.56,196.62 122.5,280.05 333.34,294.06 570.35,37.91 364.24,-316.21 422.96,-818.95 10.57,-90.55 90.96,11.38 65.3,-261.65l-95.4 -13.93z"/>
   <path class="fil4" d="M416.1 2260.83c70.89,15.42 152.09,127.12 325.89,212.63 120.75,59.41 344.2,61.05 292.12,216.46 -194.15,96.5 -666.72,-220.91 -618.01,-429.09zm213.52 -146.24c101.98,51.94 497.39,295.99 425.24,370.12 -101.77,104.57 -777.45,-292 -625.56,-419.65 45.63,-38.35 150.47,24.14 200.32,49.53zm244.73 114.1l-52.55 -26.6c-73.6,-101.94 -513.39,-376.55 -443.07,-26.09 16.15,80.48 -127.47,180.75 183.26,420.62 142.7,110.17 655.56,322.91 490.79,-38.75 70.77,-75.04 91.93,-106.17 8.38,-196.86 -57.15,-62.03 -100.43,-108.07 -186.81,-132.32z"/>
   <path class="fil12" d="M429.3 2065.05c-151.88,127.65 523.8,524.22 625.56,419.65 72.14,-74.13 -323.27,-318.17 -425.24,-370.12 -49.85,-25.39 -154.68,-87.89 -200.32,-49.53z"/>
   <path class="fil10" d="M1508.28 2538.44c48.22,-108.33 117.35,-208.7 178.4,-307.8 78.29,-127.11 180.53,-233.89 175,-330.89 -185.09,-5.26 -244.87,174.97 -335.2,217.81 -15.48,-29.08 -8.34,-3.17 -6.15,-38.95l1.6 -483.36c-21.75,-70.95 8.89,-27.6 -43.86,-74.08l0.76 906.17c0.74,35.84 2.69,82.02 29.44,111.1z"/>
   <path class="fil6" d="M6838.64 7954.89c2.09,6.54 5.97,9.05 6.22,19.63 0.22,9.87 4.06,14.33 4.12,18.76 0.4,26.49 -4.06,38.73 -6.04,45.29 -54.78,49.36 -66.19,93.11 -76.21,175.07 74.69,-14.97 122.3,-75.92 178.63,-121.37 142.38,-114.88 383.14,-321.26 437.29,-501.22 -2.99,-3.23 -8.09,-12.47 -9.35,-9.32l-42.18 -41.57c-77.28,79.49 -149.73,140.04 -225.81,221.67 -35.21,37.78 -200.92,173.54 -266.67,193.07z"/>
   <path class="fil6" d="M1034.11 2689.92c52.09,-155.41 -171.36,-157.04 -292.12,-216.46 -173.8,-85.51 -255,-197.21 -325.89,-212.63 -48.71,208.18 423.86,525.59 618.01,429.09z"/>
   <path class="fil4" d="M7673.26 6730.42c83.67,34.73 10,14.21 41.91,-4.78 44.51,-181.73 61.07,-477.7 98.45,-687.52 32.14,-180.39 83.73,-481.76 142.87,-633.86 18.6,-94.8 129.57,-371.26 90.12,-428.2 -129.86,110.02 -359.95,1471.45 -373.36,1754.37z"/>
   <path class="fil1" d="M3618.29 5730.27c21.83,-72.71 117.04,-192.96 168.88,-268.02 45.72,-66.19 14.05,-42.34 79.82,-64.33 -16.52,61.22 -161.82,316.89 -248.7,332.35zm298.44 -250.53c104.07,-202.34 -78.4,-172.68 -172.44,-99.04 -230.24,180.32 -249.15,570.48 8.61,348.56 56,-48.21 116.47,-157.46 163.82,-249.52z"/>
   <path class="fil1" d="M6565.69 1596.47c-93.83,-262.04 -497.59,24.06 -353.52,138.69 54.25,43.16 161.54,19.04 216.38,-4.07 72.67,-30.62 113.71,-60.44 137.14,-134.62z"/>
   <path class="fil13" d="M4533.37 7822.84l-49.56 -12.37c-25.9,23.66 -41.96,-44.85 -13.25,43.14 55.07,57.75 204.47,241.19 304.12,189.85 -42.52,-45.93 -68.74,-49.14 -115.6,-81.06 -44.37,-30.22 -61.84,-47.17 -96.27,-70.63 -30.33,-19.02 -20.95,27.59 -25.87,-37.12 103.42,1.59 9.58,-3.48 50.7,20.07 162.4,8.53 464.35,36.92 233.97,-206.86 -64.93,-68.71 -67.23,-64.07 -130.36,-114.73 -87.39,-70.12 -208.18,-170.67 -331.42,-197.6 27.44,66.89 -10.67,32.66 73.67,79.84l215.03 141.92c62.89,46.2 221.09,163.43 193.44,241.42 -89.78,38.58 -209.79,4.25 -308.61,4.13z"/>
   <path class="fil4" d="M6980.03 3326.77c-48.95,-53.09 -72.54,-159.45 -91.81,-240.99 -38.62,-34.74 -1.04,-11.13 -51.53,-36.8 -3.23,152.66 109.47,256.44 97.15,437.97 -124.94,105.61 -203.75,68.19 -423.24,3.39 -93.12,-27.49 -360.78,-140.84 -420.44,-103.04 40.77,49.89 649.38,266.4 808.77,190.59 103.65,-49.3 77.66,-130.88 81.1,-251.12z"/>
   <path class="fil14" d="M6297.07 7877.6c0.36,58.94 -22.78,31.8 27.1,56.57 72.74,-57.54 87.1,-133.8 159.26,-209.05 50.7,-57.91 34.05,-72.46 33.69,-171.19 -0.28,-74.1 12.7,-161.72 -23.25,-205.26 -69.1,80.26 -182.15,400.7 -196.79,528.93z"/>
   <path class="fil15" d="M6863.62 4858.57c-12.19,-87.64 -27.25,-157.97 -26.67,-245.73 0.27,-40.96 2.42,-87.17 5.85,-127.95 1.33,-15.74 4.88,-48.12 9.2,-61.4 10.43,-32.08 13.75,-27.26 25.87,-43.77 58.75,88.68 36.98,382.9 -14.25,478.85zm-44.2 -509.78c-29.96,162.27 -51.05,424.58 13.68,569.42 16.23,8.61 8.04,13.2 42.07,14.16 34.91,0.98 20.42,-2.28 37.48,-7.85l31.82 -191.56 92.68 -15.35c-1.95,-4.81 -18.33,-49.31 -18.54,-49.72l-69.04 11.17c2.06,-81.87 7.29,-174.23 -0.13,-254.28 -10.59,-114.15 -47.76,-102.67 -130.02,-75.99z"/>
   <path class="fil4" d="M1520.33 2078.61c-2.19,35.78 -9.33,9.87 6.15,38.95 90.33,-42.84 150.1,-223.07 335.2,-217.81 5.53,97 -96.71,203.78 -175,330.89 -61.04,99.11 -130.18,199.47 -178.4,307.8 -0.32,0.84 -17.87,42.27 -17.94,44.44 -1.77,57.56 -22.74,15.2 18.99,50.26 58.79,-119.54 138.58,-253.59 212.03,-368.46 61.71,-96.52 223.11,-300.39 187.72,-368.96 -130.96,-150.29 -347.28,124.37 -388.74,182.88z"/>
   <path class="fil4" d="M6010.73 3296.92c-61.04,-25.09 -132.31,-90.19 -176.71,-128.95 -41.91,-36.58 -45.83,-37.7 -83.46,-67.15 -62.77,-49.13 -30.46,-54.96 -114.57,-57.56 21.82,73.91 3.67,31.86 71.67,82.31 30.47,22.6 51.76,44.52 81.9,68.56 238.89,190.52 142.76,195.35 556.31,1.09 77.89,-36.59 301.33,-120.49 352.48,-184.94 -21.66,-9.43 -2.52,-13.99 -40.37,-9.48l-647.25 296.11z"/>
   <path class="fil4" d="M6878.38 8317.86c-14.1,43.89 -6.97,13.56 -8.12,62.58l105.52 -41.83c103.41,-107.55 219.06,-137.59 354.96,-332.77 117.01,-168.07 24.83,-23.37 185.88,-153.24 154.7,-124.74 157.33,-86.84 173.41,-170.9 -79.47,18.1 -196.7,121.03 -243,173.79 -3.64,-3.84 -7.32,-9.97 -9.63,-12.62l-50.57 -46.36c-100.53,198 -75.09,175.95 -217.35,312.34 -67.57,64.78 -187.75,196.71 -291.1,209.01z"/>
   <path class="fil13" d="M6713.26 1332.47c17.77,-213.25 -5.03,-375.4 -149.1,-478.12 -119.91,-85.5 -283.34,-146.47 -343.88,-271.47 -11.91,-19.09 -6.83,4.84 -19.25,-45.63 -4.25,-17.24 -0.71,-20.8 0.33,-46.02l-42.25 17.21c2.56,201.62 218.42,275.58 360.17,372.04 277.49,188.83 78.64,456.76 151.22,560.01 44.29,-42.16 27.24,-41 42.76,-108z"/>
   <path class="fil4" d="M6815.64 2200.92l-1.18 -65.75c10.6,-69.32 19.31,-139.08 47.62,-185.31l3.39 -14.16 30.69 -159.65 -55.9 -5.53c3.57,19.65 -147.33,740.94 -53.38,1137.57l47.3 42.46c3.99,-27.53 4.7,-19.95 3.08,-52.41 -1.19,-23.77 -11.8,-73.78 -14.92,-98.06 -32.07,-250.24 -9.5,-367.13 -6.7,-599.14z"/>
   <path class="fil4" d="M9212.97 6166.5c-84.32,163.57 -160.34,297.83 -263.23,424.04 -127.26,156.1 -191.55,217.88 -354.2,355.85 -20.76,61.7 -18.36,25.77 18.91,39.21 94.98,-50.28 287.9,-255.54 361.48,-350.15 71.28,-91.64 250.7,-327.98 275.61,-455.93l-24.05 -26.96c-2.99,-4.53 -11.15,8.13 -14.52,13.93z"/>
   <path class="fil4" d="M5501.42 3076.43c-51.61,44.74 -241.8,270.69 -191.37,384.92 31.09,23.03 -46.48,19.23 59.37,23.74l471.13 -97.35c91.43,-32.49 29.39,-4.34 57.89,-47.1 -115.4,-6.9 -421.33,72.3 -546.38,98.49 7.28,-192.19 185.29,-302.39 230.74,-393.61 -39.78,8.85 -15.18,1.85 -51.11,14.77 -3.99,1.44 -12.49,12.19 -15.48,7.6 -2.96,-4.55 -9.87,5.67 -14.79,8.54z"/>
   <path class="fil4" d="M5547.89 1030.95c63.4,54.26 195.54,-48.56 317.51,51.18 43.97,201.78 -346.12,541.42 -14.27,619.43 -38.9,-83.1 -76.52,-78.62 -85.68,-105.09 0.18,-161.45 128.9,-285.15 152.08,-435.92 33.26,-216.35 -296.8,-197.13 -369.63,-129.61z"/>
   <path class="fil4" d="M6494.33 7783.59c16.17,-37.12 -8.46,-27.41 20.12,-41.74l-31.03 -16.73c-72.16,75.25 -86.52,151.51 -159.26,209.05 -30.14,19.38 43.61,24.69 -47.37,13.03 0.64,-67.41 -12.2,-25.88 20.27,-69.6 14.64,-128.23 127.69,-448.67 196.79,-528.93 16.74,-31.97 -5.87,-25.89 22.12,-40.4 6.13,-65.86 4.8,-8 -15.28,-31.89 -93.74,62.66 -128.78,192.42 -169.58,315.53 -34.55,104.25 -126.96,276.44 -80.47,380.91 118.63,59.34 186.89,-107.7 243.69,-189.24z"/>
   <path class="fil15" d="M7072.26 4539.65c-7.59,72.74 -21.04,109.44 12.96,166.43 61.24,-73.46 -10.68,-105.58 56.55,-197.41 48.56,64.84 36.45,310.09 19.68,369.27 -20.12,70.95 -1.87,9.94 -28.54,38.62l-26.17 -191.28c-52.96,34.28 -33.45,15.42 -33.76,97.07 -148.95,-18.23 -114.47,-2.94 -123.89,45.32l127.79 -14.48c7.25,84.62 2.32,99.58 64.88,127.46 68.32,-30.49 66.99,-71.18 72.7,-172.03l-2.98 -214.43 -20.03 -135.74c-97.51,-0.92 -98.51,2.29 -119.2,81.18z"/>
   <path class="fil16" d="M753.85 3386.06c78.42,64.36 600.57,74.62 696.65,-1.48 -158.9,-47.03 -541.09,-51.3 -696.65,1.48z"/>
   <path class="fil17" d="M7072.26 4539.65c-22.74,23.99 -6.13,-21.1 -32.38,54.4 -14.24,40.95 -0.26,29.22 -21.27,73.84 0.21,0.41 16.59,44.91 18.54,49.72l-92.68 15.35 -31.82 191.56c67.84,14.16 47.22,-9.23 36.45,-56.84 9.42,-48.27 -25.06,-63.56 123.89,-45.32 0.3,-81.65 -19.2,-62.79 33.76,-97.07l26.17 191.28c26.67,-28.67 8.42,32.33 28.54,-38.62 16.77,-59.17 28.88,-304.42 -19.68,-369.27 -67.23,91.83 4.69,123.94 -56.55,197.41 -34,-56.99 -20.55,-93.69 -12.96,-166.43z"/>
   <path class="fil4" d="M6802.37 1295.91c40.43,-54.37 92.12,-47.58 175.34,-37.83 155.64,146.85 9.03,313.66 -109,376.98l-122.36 48.27c-21.32,66.56 -8.66,11.48 18.41,33.35l71.92 -0.95 23.36 -20.5c83.12,-60.06 240.37,-126.6 232.05,-325.23 -7.93,-189.42 -245.38,-215.4 -339.03,-93.98 11.8,24.64 -25.68,15.69 49.3,19.9z"/>
   <path class="fil4" d="M4916.36 6813.08c15.11,-32.53 -81.72,-107.93 -115.09,-142.61 -88.01,-91.49 -427.4,-473.13 -470.85,-492.13 7.4,97.81 434.56,546.9 543.74,628.84 60.34,45.29 28.06,14.2 42.21,5.9z"/>
   <path class="fil4" d="M637.82 3046.6l42.99 36.03 38.23 21.77c84.83,17.73 82.56,43.03 183.1,19.4 47.49,-67.39 36.87,-111.01 -40.64,-167.29 -49.43,-35.9 -135.88,-93.07 -195.93,-88.32 31.14,105.47 194.9,73.36 216.8,215.93 -263.63,6.93 -262.5,-185.73 -383.53,-226.36 15.54,96.89 82.51,149.14 138.96,188.84z"/>
   <path class="fil4" d="M960.58 2840.63c-89.66,-46.48 -255.89,-48.59 -379.4,-112.67 -148.93,-77.26 -170.7,-230.91 -225.7,-261.75 -54.24,108.32 125.92,265.39 202.28,304.42 98.4,50.28 193.78,73.95 304.41,92.69 81.33,13.78 69.85,28.03 98.41,-22.68z"/>
   <path class="fil15" d="M7020.83 2248.01l-20.74 23.31 3.88 -59.07 41.81 -25.81c17.78,47.91 14.82,32.49 -24.96,61.58zm-156.69 -93.21l2.08 47.15c29.52,78.38 48.7,52.7 87.46,128.77 28.56,56.05 52.54,125.12 125.17,76.34 -46.75,-61.5 -28.49,-3.73 -70.6,-75.4 33.82,-40.26 97.04,-50.43 95.49,-113.77 -0.59,-24.28 -30.35,-156.3 -159.52,-4.86 -2.05,2.4 -6.43,7.29 -9.81,10.78 -44.78,-59.76 -41.53,-84.49 -34.51,-170.14 -61.64,-0.13 -9.77,-30.4 -43.33,14.06l7.57 87.08z"/>
   <path class="fil18" d="M897.93 1539.26c79.66,92.27 403.05,53.14 513.7,20.11 -101.22,-97.77 -377.82,-55.64 -513.7,-20.11z"/>
   <path class="fil19" d="M6585.37 7100.92c74.3,74.5 433.1,64.64 510.56,0 -99.45,-47.99 -419.32,-65.29 -510.56,0z"/>
   <path class="fil1" d="M5414.5 1600.05c93.75,66.83 109.45,113.52 207.57,97.89 21.85,-70.81 -26.48,-238.82 -207.44,-234.33l-0.13 136.44z"/>
   <path class="fil15" d="M6141.9 246.36l6.74 -53.13 -41.11 18.78c-70.98,136.38 -113.37,163.72 -233.45,249.06 -68.98,49.03 -283.41,130.24 -304.8,155.17 86.11,56.28 473.56,-150.28 572.62,-369.87z"/>
   <path class="fil4" d="M6423.58 665.87c179.42,192.8 345.97,222.61 384.12,391.52 2.14,9.46 7.2,46.97 7.57,48.06 15.92,47.26 3.04,16.79 24.9,43.15 23.56,-40.74 28.27,-26.08 16.79,-96.05 -13.96,-85.07 -89.33,-160.39 -148.7,-210 -85.63,-71.56 -195.79,-126.84 -256.59,-225.09 -44.24,12.36 -40.28,-34.23 -28.08,48.41z"/>
   <path class="fil4" d="M2238.75 5410.73c87.32,-22.18 157.33,-149.88 201.64,-221.31 49.35,-79.55 112.02,-186.08 132.04,-288.18 -69.52,32.14 -28.41,-21.72 -71.68,67.54 -106.43,219.54 -248.39,391.99 -262,441.94z"/>
   <path class="fil20" d="M5802.37 2086.6c-14.51,158.79 167.02,115.16 243.78,76.09 -24.52,-148.86 -193.8,-111.07 -243.78,-76.09z"/>
   <path class="fil9" d="M6863.62 4858.57c51.23,-95.95 73,-390.16 14.25,-478.85 -12.12,16.51 -15.45,11.69 -25.87,43.77 -4.32,13.28 -7.88,45.66 -9.2,61.4 -3.43,40.77 -5.57,86.99 -5.85,127.95 -0.58,87.76 14.48,158.09 26.67,245.73z"/>
   <path class="fil4" d="M7406.84 724.85c127.63,-67.25 77.55,-458.79 -120.86,-512.81 32.49,84.24 21.84,33.51 69.17,96.5 121.36,161.5 36.54,309.16 51.69,416.31z"/>
   <polygon class="fil21" points="6639.49,6464.09 6976.57,6475.72 7038.12,6441.78 6982.49,6401.26 6634.45,6410.79 "/>
   <path class="fil4" d="M9214.33 6430.73c-11.06,65.78 -6.24,62.19 -38.01,109.85l-105.19 266.81c53.48,-17.27 32.96,1.5 62,-34.28l80.46 -183.05c15.44,-42.43 29.67,-88.67 41.1,-129.15 0.14,-0.49 16.17,-60.51 16.2,-60.75 13.75,-129.07 2.5,-48.62 -17.82,-78.03 -14.57,21.06 -7.55,-11.66 -28.68,54.06 -5.59,17.37 -6.87,36.57 -10.06,54.55z"/>
   <path class="fil15" d="M7000.05 5649.4c19.16,13.06 -12.29,30.73 84.79,25.49 21.37,-1.15 46.53,-10.43 64.87,-17.9 142.61,-58.1 188.92,-275.01 93.96,-301.09 -39.57,356.89 -89.18,192.68 -243.62,293.49z"/>
   <path class="fil4" d="M8139.79 5259.29c-124.54,7.46 -94.15,31.94 -94.16,31.95 33.59,21.37 -8.02,14.07 56.83,18.72 1.83,0.13 50.54,-3.18 56.6,-3.49 172.91,-8.98 287.37,28.7 346.98,-15.22 -86.43,-50.31 -265.23,-38 -366.25,-31.95z"/>
   <path class="fil4" d="M2333.26 6481.05c-49.99,-51.13 -28,-43.82 -102.66,-68.54 40.53,152.73 333.06,285.37 398.08,254.83 -36.79,-71.92 -49.1,-17.92 -200.87,-112.01 -50.99,-31.61 -47.64,-26.31 -94.55,-74.29z"/>
   <path class="fil15" d="M2378.49 5473.18c76.48,-4.18 113.86,-104.38 142.38,-166.07 29.64,-64.09 82.74,-161.32 40.15,-218.42 -41.02,47.31 -50.75,135.32 -87.68,209.78 -38.02,76.66 -86.35,115.63 -94.85,174.71z"/>
   <path class="fil4" d="M3618.29 5730.27c86.89,-15.46 232.19,-271.14 248.7,-332.35 -65.77,21.99 -34.1,-1.86 -79.82,64.33 -51.84,75.06 -147.05,195.31 -168.88,268.02z"/>
   <path class="fil22" d="M7159.49 8263.3c-3.91,61.72 -11.48,27.96 24.17,41.25 66.76,-44.88 218.32,-183.17 242.16,-285.61 -112.12,19.87 -27.88,58.35 -266.33,244.36z"/>
   <path class="fil4" d="M6050.62 4274.29c23.16,69.75 22.2,33.39 -21.04,66.25 -23.93,-27.95 -21.4,4.31 -12.84,-40.91 9.14,-48.32 -0.68,-9.01 33.88,-25.34zm-61.73 -25.54c-87.44,60.93 4.87,175.04 85.85,127.77 88.38,-51.59 6.23,-191.93 -85.85,-127.77z"/>
   <path class="fil4" d="M4333 4122.09c39.86,-70.64 28.44,-268.99 -37.7,-324.4l-12.75 27.04c-1.11,8.38 6.64,269.7 50.45,297.36z"/>
   <path class="fil4" d="M6101.63 1049.8c36.63,26.43 -43.72,27.94 67.01,12.26 216.62,-30.65 178.89,54.3 260.04,6.59 -83.37,-95.96 -310.79,-74.29 -327.05,-18.85z"/>
   <path class="fil14" d="M2820.25 4893.73c-16.58,66.73 -25.22,65.84 -15.89,130.67l13.03 29.8c134.53,33.22 88.73,-109.36 51.74,-177.59l-48.89 17.13z"/>
   <path class="fil13" d="M6029.39 6665.83l-43.98 -10.2 12.46 25.89 -39.07 4.77 -2.3 -13.46c15.2,-33.47 12.64,-18.1 9.27,-62.37 -26.2,9.81 -26.39,7.94 -44,21.83 -79.52,126.94 148.56,203.35 129.78,57.25 -8.59,-66.8 -10.74,-17.64 -22.14,-23.72z"/>
   <path class="fil3" d="M1185.94 1087.04c71.83,-9.7 65.83,-41.77 99.62,-107.48 29.27,-56.91 59.71,-83.04 31.31,-131.75 -60.39,29.87 -120.03,157.76 -130.93,239.23z"/>
   <path class="fil4" d="M5827.37 5059.76c-26.95,250.57 235.5,117.64 93.97,-18.27l-23.71 109.11c-46.41,-41.58 -34.05,-14.41 -18.43,-90.95l-51.82 0.11z"/>
   <path class="fil3" d="M1486.53 520.3c47.82,-35.36 101.83,-158.38 107,-178.66 25.44,-99.65 -3.22,-52.99 -12.75,-67.02 -50.13,40.27 -42.94,54.03 -72.7,118.59 -72.81,157.9 -29.17,114.72 -21.55,127.09z"/>
   <path class="fil4" d="M5777.05 1879.24c1.53,1.59 -2,56.86 154.68,31.84 18.39,-2.94 50.53,-10.98 70.36,-21.86 66.62,-36.57 21.56,-0.48 43.09,-47.69 -68.74,-34.39 -13.99,16.98 -185.82,22.86 -7.54,0.26 -30.37,-1.3 -37.06,-0.49 -38.3,4.64 -25.75,4.87 -45.25,15.33z"/>
   <path class="fil23" d="M1629.32 1051.31l48.25 4.53 -7.71 -49.39c-16.7,-28.27 -37.75,-60.72 -59.24,-98.65 -39.62,-69.94 -16.66,-66.04 -92.14,-87.54 22.68,102.56 79.68,145.89 110.85,231.05z"/>
   <path class="fil3" d="M1617.91 672.78c30.45,53.89 28.89,35.45 113.1,36.07 84.24,0.62 103.08,18.31 138.25,-36.07 -57.21,-29.98 -194.51,-33.23 -251.35,0z"/>
   <path class="fil3" d="M1300.45 522.4c-13.36,-76.63 -100.28,-181.99 -167.74,-202.4 -2.17,70.3 16.79,70.56 59.45,118.54 55.05,61.9 26.06,69.39 108.29,83.86z"/>
   <path class="fil13" d="M5886.61 5864.63l-43.87 48.69c30.53,118.54 147.84,126.52 133.71,-46.5l-67.09 -20.88c16.86,52.89 37.13,59.69 7.11,100.34 -43.53,-37.62 -25.03,-1.23 -29.86,-81.65z"/>
   <path class="fil4" d="M8425.6 5366.64c-87.73,-39.74 -185.07,-26.11 -267.62,-5 32.54,35.69 -1.02,24.43 57.42,34.16l153.15 -0.09c64.27,-6.71 27.99,0.5 57.05,-29.07z"/>
   <path class="fil3" d="M733.08 1050.39c-17.29,-78.78 -81.1,-164.5 -149.74,-186.09 1.81,74.1 9.32,59.32 51.32,113.1 42.83,54.85 20.63,60.85 98.42,72.99z"/>
   <path class="fil24" d="M1795.84 1294.86c59.35,43.44 179.52,30.57 226.29,-18.85 -26.13,-19.89 5.65,-16.85 -45.81,-24.13 -12.02,-1.7 -57.69,3.16 -71.84,5.09 -6.88,0.94 -40.66,5.65 -46.99,7.49 -88.02,25.61 -29.41,8.24 -61.65,30.4z"/>
   <path class="fil25" d="M1947.44 1604.71c-4.94,-66.94 -106.57,-128.66 -198.21,-124.87 28.4,64.51 140.9,125.27 198.21,124.87z"/>
   <path class="fil3" d="M446.97 1445.67c23.85,12.42 -34.63,28.52 49.75,10.78 45.43,-9.54 119.24,-38.53 137.4,-86.19 -44.82,-20.45 -49.97,-12.03 -99.95,7.26 -77.57,29.96 -61.88,18.17 -87.2,68.14z"/>
   <path class="fil3" d="M408.72 1144.06l177.48 54.14c82.96,2.93 26.79,0.94 54.43,-16.44 -41.61,-49.08 -128.9,-66.33 -172.19,-62.26 -103.77,9.77 -28.28,1.81 -59.71,24.56z"/>
   <path class="fil25" d="M1208.19 728.79c15.15,-63.8 31.13,-7.56 -4.14,-40.62l-62.3 6.04c-61.54,-0.18 -95.12,0.59 -143.03,35.13 49.11,45.05 115.82,20.42 209.47,-0.55z"/>
   <path class="fil4" d="M5734.11 457.81c79.89,-11.82 158.23,-77.4 166.49,-162.43 -61.11,27.69 -42.16,32.16 -97.37,75.11 -51.48,40.05 -67.99,15.46 -69.12,87.31z"/>
   <path class="fil26" d="M7214.48 4808.64l40.4 -69.49 134.22 12.04c-4.13,-2.59 -10.05,-11.62 -12.53,-7.53l-65.45 -16.75c-55.01,-10.58 -16.48,12.96 -68.17,-20.05 52.59,-32.48 74.13,-15.85 140.04,-11.66 -21.1,-17.17 33.56,-12.96 -51.94,-26.85 -48.04,-7.8 -52.58,-0.97 -96.29,6.48l-23.28 -80.62 2.98 214.43z"/>
   <path class="fil15" d="M7008.01 8354.45c-3.17,4.11 -8.22,8.98 -10.37,11.6 -2.07,2.52 -7.45,8.23 -9.79,11.28 -2.2,2.85 -6.91,7.65 -9.04,10.68 -1.97,2.82 -5.94,7.89 -7.58,10.54 -8.47,13.63 -6.93,8.19 -10.6,35.26 71.8,-3.68 94.55,-37.45 152.63,-69.65l4.57 -58.79c-57.89,33.24 -48.08,41.95 -109.81,49.08z"/>
   <path class="fil27" d="M6632.93 4730.26l124.9 -6.8 1.04 -47.72c-75.25,-21.75 -133.69,-32.11 -178.94,31.03l127.18 0.35c-51.27,16.66 -30.81,-4.61 -74.17,23.14z"/>
   <path class="fil28" d="M7330.28 698.06c21.65,-34.47 4.52,29.68 22.89,-44.62 1.94,-7.84 7.28,-48.89 7.29,-56.53 0.17,-81.28 -3.43,-73.02 -49.03,-97.44l-3.82 136.05c10.91,96.88 -3.38,26.14 22.67,62.55z"/>
   <path class="fil4" d="M6193.46 1405.32c43.91,-23.81 31.57,17.29 43.11,-54.38 7.55,-46.95 -4.59,-68.4 -18.49,-97.88 -28.76,14.16 -31.93,-33.65 -44.8,60.1 -6.57,47.83 7.57,67.91 20.18,92.16z"/>
   <path class="fil8" d="M6822.97 1497.31c49.72,-12.88 125.35,-62.71 146.69,-111.13 -85.23,-5.33 -138.54,38.45 -146.69,111.13z"/>
   <path class="fil29" d="M6101.01 2859.39l32.05 34.54c8.94,-9 22.84,23.08 35.47,-53.67 14.06,-85.43 -12.23,-63.7 -25.84,-81.36 -49.44,40.38 -31.64,21.83 -41.67,100.49z"/>
   <path class="fil8" d="M5652.56 1354.75c44.97,-67.66 31.48,-109.8 0,-150.8 -21.11,21.87 -53.26,58.3 -28.29,119.44 17.18,42.07 1.97,8.1 28.29,31.36z"/>
   <path class="fil30" d="M6814.46 2135.17c41.6,14.8 23.82,0.6 49.68,19.64l-7.57 -87.08c33.56,-44.46 -18.31,-14.2 43.33,-14.06 -39.36,-44.09 45.78,-7.21 -44.85,-42.47l7.03 -61.33c-28.31,46.23 -37.02,115.99 -47.62,185.31z"/>
   <path class="fil31" d="M5921.33 5041.49c-65.3,-11.33 -103.77,-44.43 -93.97,18.27l51.82 -0.11c-15.62,76.54 -27.98,49.36 18.43,90.95l23.71 -109.11z"/>
   <path class="fil32" d="M5391 3024.28l0 29.57c60.74,-11.43 68.35,-13.36 110.42,22.58 4.92,-2.86 11.83,-13.09 14.79,-8.54 2.99,4.59 11.49,-6.16 15.48,-7.6 35.93,-12.92 11.33,-5.92 51.11,-14.77 -3.99,-3.52 -9.65,-14.63 -11.88,-10.64 -2.19,3.9 -9.36,-7.99 -12.29,-9.6 -32.44,-17.77 -13.49,-8.53 -41.86,-18.1 -19.23,45.73 29.67,20.82 -52.03,25.76 -2.03,0.12 -61.5,-7.83 -73.74,-8.66z"/>
   <path class="fil8" d="M4198.94 2293.74c73.17,33.05 77.76,-4.93 66.42,-61.39l-60.65 6.59 -5.77 54.8z"/>
   <path class="fil33" d="M7036 5555.15c35.18,38.18 33.07,49.99 96.99,0 -17.21,-20.54 42.94,-25.09 -47.34,-24.61 -45.53,0.24 -40.11,17.29 -49.65,24.61z"/>
   <path class="fil19" d="M6976.57 6475.72l123.21 -28.24c-42.77,-51.6 -43.73,-39.46 -117.29,-46.22l55.63 40.53 -61.55 33.93z"/>
   <path class="fil34" d="M5723.09 2687.7c34.09,-8.92 37.92,-6.11 80.48,-11.72 18.26,-2.41 36.73,-2.82 54.74,-8.2 32.22,-9.63 22.73,-9.69 39.08,-21.37 -51.24,3.64 -155.97,-8.93 -174.3,41.3z"/>
   <path class="fil35" d="M5886.61 5864.63c4.83,80.42 -13.67,44.03 29.86,81.65 30.02,-40.65 9.75,-47.45 -7.11,-100.34 -32.36,5.5 -37.15,-18.92 -22.75,18.69z"/>
   <path class="fil36" d="M1208.19 728.79c43.6,-18.88 24.87,29.43 37.31,-37.15 -24.05,-15.78 22.19,-21.38 -43.97,-21.24 -98.26,0.21 -39.29,9.66 -59.78,23.81l62.3 -6.04c35.27,33.06 19.29,-23.19 4.14,40.62z"/>
   <path class="fil31" d="M6815.64 2200.92l50.58 1.03 -2.08 -47.15c-25.86,-19.04 -8.07,-4.84 -49.68,-19.64l1.18 65.75z"/>
   <path class="fil37" d="M7763.85 2637.64c28.36,-39.29 23.01,54.66 16.06,-26.48 -3.76,-43.87 5.15,-8.67 -16.06,-40.54 -50.24,26.41 -86.24,29.23 0,67.01z"/>
   <path class="fil37" d="M10179.51 4254.44c-21.83,-61.83 45.79,-27.85 -66.64,-43.68 17.89,61.59 7.09,71.42 66.64,43.68z"/>
   <path class="fil38" d="M2221.71 3250.85c69.16,-83.1 1.45,-60.22 0,-62.67 -0.33,0.58 -68.05,-7.33 0,62.67z"/>
   <path class="fil39" d="M6029.58 4340.54c43.23,-32.86 44.2,3.51 21.04,-66.25 -34.56,16.32 -24.74,-22.98 -33.88,25.34 -8.56,45.22 -11.09,12.96 12.84,40.91z"/>
   <path class="fil40" d="M7003.98 2212.25c-6.71,52.95 -9.76,26.61 16.85,35.76 39.78,-29.09 42.74,-13.67 24.96,-61.58l-41.81 25.81z"/>
   <path class="fil41" d="M1629.32 1051.31c23.97,19.31 -46.5,39.88 60.31,14.75 21.56,-108.74 5.33,-29.16 -19.77,-59.61l7.71 49.39 -48.25 -4.53z"/>
   <path class="fil30" d="M5956.49 6672.84l41.37 8.69 -12.46 -25.89 43.98 10.2 -63.63 -55.36c3.38,44.27 5.93,28.9 -9.27,62.37z"/>
   <path class="fil42" d="M6795.17 8004.88c85.49,-17.43 32.11,-18.54 47.77,33.68 1.98,-6.56 6.44,-18.8 6.04,-45.29 -0.06,-4.43 -3.9,-8.89 -4.12,-18.76 -0.25,-10.58 -4.13,-13.09 -6.22,-19.63l-41.44 28.76 -2.03 21.22z"/>
   <path class="fil43" d="M6639.49 6464.09l-5.04 -53.3c-89.34,17.56 -20.66,-0.06 -44.86,30.35l49.9 22.95z"/>
   <path class="fil34" d="M6324.16 7934.17c-49.88,-24.77 -26.74,2.37 -27.1,-56.57 -32.47,43.72 -19.63,2.19 -20.27,69.6 90.98,11.66 17.22,6.35 47.37,-13.03z"/>
   <path class="fil44" d="M9212.97 6166.5c3.37,-5.8 11.53,-18.46 14.52,-13.93l24.05 26.96c28.66,-36.93 22.25,-35.07 1.54,-68.22l-40.1 55.19z"/>
   <path class="fil45" d="M4470.56 7853.61c-28.71,-87.99 -12.65,-19.48 13.25,-43.14l49.56 12.37c-51.51,-46.6 -37.66,-38.36 -98.44,-1.87l35.64 32.64z"/>
   <path class="fil46" d="M6220.28 582.87l-9.91 -89.61c-58.08,-34.95 -3.17,-7.49 -52.49,-0.04l1.23 15.2 42.25 -17.21c-1.04,25.22 -4.58,28.77 -0.33,46.02 12.42,50.47 7.34,26.54 19.25,45.63z"/>
   <path class="fil47" d="M8329.37 6042.24c11.93,-15.28 32.96,-12.19 0,-65.74 -21.12,26.76 -11.16,4.35 -14.01,42.51 -5.85,78.22 -6.57,-4.63 14.01,23.23z"/>
   <path class="fil28" d="M6101.01 2859.39l5.95 17.64c-9.98,85.22 -18.45,38.89 21.33,53.35l4.78 -36.45 -32.05 -34.54z"/>
   <path class="fil48" d="M4562.81 7891.77l24.83 -17.05c-41.12,-23.55 52.72,-18.48 -50.7,-20.07 4.93,64.72 -4.46,18.1 25.87,37.12z"/>
   <path class="fil49" d="M6128.28 2930.39c-39.78,-14.46 -31.31,31.87 -21.33,-53.35 -34.67,35.94 -20.28,3.33 -21.95,57.84 78.58,39.21 21.29,7.88 43.28,-4.49z"/>
   <path class="fil50" d="M6423.58 665.87c-12.2,-82.64 -16.16,-36.05 28.08,-48.41 -21.04,-11.57 35.84,-44.63 -47.22,-1.23 -11.83,100.15 -5.3,11.88 19.14,49.64z"/>
   <path class="fil51" d="M7801.54 220.37l52 7.71c-40.7,-89.19 -42.15,-13.5 -52,-7.71z"/>
   <path class="fil49" d="M6522.38 2212.46c27.95,-26.74 28.07,43.12 20.69,-50.45 -77.68,-34.47 -23.56,-8 -43.92,1.55 39.38,13.3 38.68,-31.94 23.23,48.9z"/>
   <path class="fil50" d="M5798.57 4293.16c28.93,-34.94 3.21,41.68 31.14,-52.5 6.86,-23.13 7.05,-48.66 10.32,-72.39l-41.47 124.89z"/>
   <path class="fil29" d="M8614.44 6985.6c-37.27,-13.44 -39.67,22.49 -18.91,-39.21 -30.88,21.29 -25.57,-34.93 -23.52,41.42 74.4,37.03 23.66,7.48 42.43,-2.21z"/>
   <path class="fil52" d="M6141.9 246.36c33.25,-50.51 12.98,-55.51 12.79,-56.58 -85.05,-15.21 -22.42,-5.62 -47.16,22.23l41.11 -18.78 -6.74 53.13z"/>
   <path class="fil50" d="M6746.35 1683.33l122.36 -48.27c-72.28,16.34 -70.73,1.86 -122.36,48.27z"/>
   <path class="fil53" d="M5958.79 6686.29c59.08,56.25 19.24,28.33 39.07,-4.77l-41.37 -8.69 2.3 13.46z"/>
   <polygon class="fil54" points="673.64,3124.58 719.05,3104.41 680.82,3082.64 "/>
   <polygon class="fil45" points="7392.72,7249.84 7401.16,7208.99 7360.6,7218.66 7366.73,7230.34 "/>
   <path class="fil50" d="M2820.25 4893.73l48.89 -17.13c-11.15,-8.25 -18.92,-45.59 -48.89,17.13z"/>
   <path class="fil34" d="M9176.32 6540.58c31.77,-47.66 26.95,-44.07 38.01,-109.85l-38.01 109.85z"/>
   <path class="fil55" d="M5958.79 6686.29l39.07 -4.77c-19.82,33.09 20.02,61.01 -39.07,4.77z"/>
   <path class="fil34" d="M7020.83 2248.01c-26.61,-9.16 -23.57,17.18 -16.85,-35.76l-3.88 59.07 20.74 -23.31z"/>
  </g>
 </g>
</svg>
