<?xml version="1.0" encoding="UTF-8"?>
<!DOCTYPE svg PUBLIC "-//W3C//DTD SVG 1.1//EN" "http://www.w3.org/Graphics/SVG/1.1/DTD/svg11.dtd">
<!-- Creator: CorelDRAW 2021 (64-Bit) -->
<svg xmlns="http://www.w3.org/2000/svg" xml:space="preserve" width="303.605mm" height="213.776mm" version="1.1" style="shape-rendering:geometricPrecision; text-rendering:geometricPrecision; image-rendering:optimizeQuality; fill-rule:evenodd; clip-rule:evenodd"
viewBox="0 0 30360.5 21377.58"
 xmlns:xlink="http://www.w3.org/1999/xlink"
 xmlns:xodm="http://www.corel.com/coreldraw/odm/2003">
 <defs>
  <style type="text/css">
   <![CDATA[
    .fil6 {fill:#012C84}
    .fil9 {fill:#052B74}
    .fil23 {fill:#092867}
    .fil7 {fill:#092A77}
    .fil11 {fill:#0A2B6C}
    .fil3 {fill:#0A2C74}
    .fil19 {fill:#0C316D}
    .fil12 {fill:#0C3273}
    .fil13 {fill:#0C3279}
    .fil16 {fill:#112E70}
    .fil10 {fill:#133474}
    .fil26 {fill:#15346B}
    .fil18 {fill:#163978}
    .fil24 {fill:#1A3B74}
    .fil28 {fill:#627DB6}
    .fil29 {fill:#6B89C4}
    .fil27 {fill:#728DC5}
    .fil20 {fill:#7994C9}
    .fil25 {fill:#839DD4}
    .fil30 {fill:#89A5D9}
    .fil15 {fill:#914DDE}
    .fil4 {fill:#9153DC}
    .fil5 {fill:#9453E4}
    .fil22 {fill:#99B5E8}
    .fil21 {fill:#A6BCE6}
    .fil0 {fill:#D8CAF7}
    .fil1 {fill:#DAE3FC}
    .fil8 {fill:#EBF2FD}
    .fil17 {fill:#EDF9FF}
    .fil14 {fill:#FAFDFF}
    .fil2 {fill:#FDFDFD}
   ]]>
  </style>
 </defs>
 <g id="Layer_x0020_1">
  <metadata id="CorelCorpID_0Corel-Layer"/>
  <g id="_2457743848864">
   <path class="fil0" d="M28110.3 7930.49c-128.76,16.53 -217.35,-5.82 -301.06,82.05 -126.43,132.73 5.69,145.96 -181.35,208.07 -67.26,-219.82 237.98,-349.21 404.68,-400.89 32.75,-201.8 112.43,-431.36 313.86,-485.27 -61.34,230.97 -160.65,79.93 -236.13,596.04zm-5742.68 -1967.26c30.78,-187.09 48.83,-45.33 90.27,-325.14 22.42,-151.32 -1.84,-78.64 54.75,-147.53 0.03,0.05 97.57,27.38 21.42,282.44 -41.61,139.38 -58.46,161.93 -166.44,190.23zm2809.38 407.85c103.82,-415.85 654.8,-744.11 1175.01,-841.23 1790.96,-334.37 2713.46,1346.01 1927.77,2459.24 -150.21,212.83 -168.08,229.38 -373.55,371.24 -102.95,71.08 -78.25,84.49 -170.88,35.34 85.17,-183.28 650.71,-319.79 726.83,-1173.47 90.82,-1018.69 -882.33,-1851.34 -2093.48,-1600.14 -258.97,53.71 -483.01,144.54 -676.15,272.77 -176.91,117.45 -248.67,187.76 -356.61,347.05 -116.94,172.6 1.18,77.54 -158.94,129.2zm-11917.94 -2490.96c118.79,-49.13 154.81,-10.42 357.17,42.95l5921.94 1509.27c-118.95,64.62 -235.37,3.16 -378.86,-35.1l-5140.74 -1281.34c-128.47,-33.9 -264.71,-63.38 -396.59,-95.84 -64.07,-15.77 -144.42,-29.74 -197.5,-44.8 -182.08,-51.69 -118.9,-66.02 -165.41,-95.14l-0.01 0zm-8207.66 -1013.79l33.09 -10c45.41,10.13 -0.42,-17.38 50.13,20.01 113.11,83.67 292.88,327.42 726.15,545.38 357.04,179.61 738.04,294.74 1200.23,294.16 374.97,-0.48 694.75,-113.2 745.64,-113.28 154.4,-0.24 43.32,-14.25 103.58,30.57 -322.86,301.01 -1514.95,176.49 -2072.5,-116.76 -192.1,-101.03 -612,-385.67 -748.77,-563.1 -20.53,-26.63 -31.5,-76.91 -37.55,-86.98zm7340.59 802.12c-131.54,62.19 -699.64,-123.98 -886.43,-174.68 -307.72,-83.55 -613.62,-88.62 -743.97,-352.4 -151.71,-307.02 79.3,-638.58 391.08,-643.14 162.08,-2.37 2438.35,580.51 2679.26,642.99 334.78,86.82 1521.62,339.13 1725.21,450.73 -56.74,74.78 -19.16,70.25 -160.26,39.62 -69.91,-15.17 -160.59,-41.04 -230.9,-58.06 -142.21,-34.43 -274.68,-73.53 -421.98,-110.67 -281.63,-70.99 -570.77,-145.14 -847.21,-207.92 -799.74,-181.61 -1895.23,-505.93 -2597.31,-646.24 -326.77,-65.31 -576.47,160.58 -466.43,461.78 148.54,406.54 1396.14,337.39 1558.93,597.99l0.01 0zm-1779.36 -974.21c42.66,-189.29 115.87,-294.2 322.8,-297.19l-215.68 237.86c-56.94,49.06 -18.83,28.08 -107.12,59.33zm-1893.57 622.17c-34.38,-100.77 191.25,-611.92 237.28,-782.45 154.23,-571.44 60.43,-758.31 80.17,-910.08 10.33,-79.45 6.8,-39.53 35.32,-82.78 43.09,54.07 11.27,-49.16 54.04,95.41 102,344.71 -175.63,1557 -406.81,1679.9zm-3012.47 -2858.24c39.12,-41.55 -1.06,-14.38 64.61,-53.91 16.62,-10.01 57.74,-27.26 76.44,-33.54l449.26 -76.73c533.75,-42.76 1584.01,147.63 1625.58,425.8 -109.56,12.39 -342.38,-135.53 -479.96,-183.74 -1077.57,-377.61 -1530.39,22.9 -1735.93,-77.88zm2917.44 3129.66c7.16,-7.01 16.93,-28.71 20.59,-21.92l83.84 -69.4c89.79,-50.81 299.91,-109.82 447.1,-37.22 6.61,3.26 17.36,10.86 25.68,16.82 -14.3,-165.5 -23.62,-93.97 148.63,-103.48 374.9,-20.72 2835.73,567.25 2959.09,683.88 -75.25,67.13 -6.24,24.59 -119.51,31.52 41.7,42.44 -79.36,81.13 135.15,38.03l201.71 -212.74c167.82,-208.84 439.43,-594.11 663.76,-586.77 90.3,286.78 -85.46,647.46 -165.49,913.16 218.14,-21.9 2635.97,626.49 3036.95,732.55 487.1,128.83 1000.56,262.02 1488.6,377.28 348.34,82.26 1257.32,282.78 1508.55,402.94 969.35,-464.66 839.31,-778.01 1208.02,-748.19 82.54,189.49 62.87,326.14 -55.56,518.05 46.69,46.62 12.47,28.24 97.1,65.85 27.13,12.05 108.48,31.24 141.47,39.14 101.53,24.31 185,45.18 285.7,68.79 562.95,131.97 1304.04,457.62 1506.58,98.62 98.77,-175.08 12.89,-365.77 -97.95,-452.21 -166.01,-129.47 -4641.01,-1187.68 -5394.18,-1376.24l-427.72 -106.01c-99.32,-44.54 -57.78,0.42 -92.66,-85.98 134.34,-47.83 3947.8,949.15 4434.31,1069.55 274.16,67.85 1448.88,298.25 1605.68,478.61 115.35,132.7 155.14,346.91 45.61,548.08 -185.3,340.35 -668.17,155.07 -1037.42,55.48 -387.05,-104.39 -775.28,-184.16 -1142.02,-301.14 -42.54,110.21 -110.11,198.11 -170.62,295.47l283.79 56.58 -81.71 2.97c183.92,169.75 3116.56,727.67 3595.89,924.2 79.49,-47.23 358.63,-48.51 425.28,6.42 109.24,-46.07 77.71,-37.07 177.53,-119.82 52.8,-43.77 112.32,-83.34 189.51,-128.02 207.45,-120.1 268.02,-116.04 520.11,-125.16 104.75,-76.42 266.91,-213.36 394.5,-235.79 19.21,-326.61 401.03,-125.67 572.5,-373.59 85.82,-124.06 -12.62,-122.3 138.1,-175.53l-44.37 211.68c141.19,-39.83 268.59,-53.11 405.52,-62.42 -208.37,-178.78 -199.99,-26.39 -206.4,-211.63 133.73,7.38 114.21,80.39 270.49,100.95 176.91,23.28 205.51,-52.05 358.58,-93.25 -35.98,126.65 22.47,49.96 -72.03,129.81l-118.07 74.04c219.11,24.29 347.37,40.15 544.14,121.17 232.03,95.53 270.91,183.68 451.63,291.16 -110.07,-380.97 22.89,-243.97 -366.59,-340.01 -208.62,-51.44 -359.43,-109.08 -374.83,-326.98 180.74,49.99 25.62,112.65 316.14,210.19 138.46,46.5 306.78,64.08 437.09,91.71 36.26,108.59 22.69,252.56 135.8,322.47 141.23,87.29 249.46,29.9 325.9,169.24 59.18,107.87 20.56,265.07 47.02,402.3 30.22,156.68 151.74,221.05 42.95,380.2 -60.8,-54.37 -53.13,-117.41 -114.46,-299.84 -155.94,-463.81 211.24,-357.42 -449.81,-611.59 84.43,158.87 152.32,182.12 241.73,432.68 260.34,729.54 -360.75,1013.7 -452.02,1420.93 -5.73,-240.99 28.64,16.54 -70.4,-87.06 24.57,197.57 44.75,593.76 152.21,734.96 68.12,-130.17 -28.76,-31.14 120.04,-54.55 109.11,-17.17 107.14,-25.35 200.34,-78.41l-11.39 -97.84c668.19,-342.12 1320.11,-1378.43 720.29,-2358 -485.65,-793.11 -1600.09,-1137.55 -2345.97,-965.96l-120.2 41.82 100.49 16.44 -919.09 201.16c-21.75,197.2 -248.12,182.24 -520.08,786.92 -79.95,177.75 2,73.05 -94.73,102.92 -61.54,-159.4 227.8,-554.21 332.4,-678.98 90.42,-107.84 120.96,-92.35 198.64,-204.6 -627.37,164.81 -1352.88,-100.44 -1934.63,-241.9 -609.97,-148.33 -1204.55,-286.94 -1849.15,-443.3l-7322.79 -1846.76c-624.47,-163.88 -1234.18,-280.79 -1842.38,-453.46 -318.75,-90.49 -1577.1,-491.34 -1784.13,-507.41l59.27 -8.16c-160.11,-133.75 -1050.26,-234.57 -1339.79,-612.57 30.75,-41.21 -62.01,-30.27 90.98,-32.71l-218.56 -127.98c-69.29,-53.5 -99.79,-84.65 -194.1,-142.91 52.3,183.78 140,229.21 70.37,347.18 -6.71,-6.05 -15.53,-25.86 -18.01,-20.24 -9.62,21.72 -175.2,-436.28 -627.25,-753.85 -917.54,-644.59 -1983.22,-775.6 -2994.43,-263.13 -96.49,48.9 -148.21,68.34 -214.51,158.4l2079.21 351.38c226.51,920.45 -21.49,1274.96 -291.43,2016.48l-2249.57 -383.55c85.39,317.35 420.56,630.49 624.01,779.17 1052.64,769.26 2139.68,745.99 3233.37,143.9 70.85,55 21.04,-10.21 46.08,105.02l0 -0.01 -0.01 0z"/>
   <path class="fil1" d="M26973.02 10077.87c129.04,51.89 77.29,-67.81 99.98,120.24 -120.34,-40.98 -59.22,30.15 -99.98,-120.24zm19.89 -790.53c210.29,137.61 71.39,208.29 70.56,209.94 -5.46,-3.17 -177.13,-28.67 -70.56,-209.94zm-341.26 1425.81c179.76,382.19 669.62,524.03 747.42,832.28 -153.65,-49.03 -44.59,2.97 -143.8,-98.91l-327.16 -269.57c-796.25,-626.6 -485.61,-1901.62 -794.03,-3119.61 -52.4,-206.93 -120.8,-395.45 -217.18,-562.27 -87.46,-151.37 -277.99,-359.56 -297.13,-470.32 125.28,23.99 133.78,76.68 224.19,191.18 722.71,915.17 414.91,2662.18 807.69,3497.22zm169.44 -2108.8c32.81,133.87 187.56,508.7 136.55,586.38 -191.06,-140.64 -295.83,-942.11 -379.58,-1228.38 -266.99,-912.65 -589.2,-768.67 -600.77,-1002.69 309.84,62.72 566.51,586.1 679.28,962.03 67.26,224.25 108.35,453.54 164.52,682.66zm-564.42 3001.41l61.59 -47.04c5.94,-3.36 39.12,-16.16 48.98,-22.55 141.71,116.18 339.64,154.22 515.05,213.84l-79.95 14.72c58.7,56.11 821.98,253.32 988.06,314.08 342.7,125.38 611.6,243.28 933.74,383.61 80.51,-54.8 141.11,-47.69 236.36,-9.99 -185.15,-988.12 -1873.85,-1433.16 -1885.59,-2068.66 94.01,19.33 56.43,1.3 120.37,101.12l323.32 382.91c178.68,172.63 640.06,437.19 846.73,600.7 276.49,218.75 262.92,176.62 462.15,455.81 73.54,103.06 105.26,200.85 191.52,272.7 71.06,-92.43 23.7,-53.82 31.07,-166.42 2.43,-37.06 -0.34,-57.11 5.65,-97.65 17.59,-119.02 -26.9,-0.07 25.69,-76.85 -67.67,-201.71 -122.99,-276.12 -222.05,-423.89 -125.17,-186.7 -190.53,-172.97 -302.08,-261.53 -42.96,-34.11 -28.49,-23.96 -58.73,-58.62 7.23,-8.27 14.66,-35.64 21.11,-25.32 6.89,11.04 84.18,-7.34 95.87,-8.49 -7.62,-8.58 -17.8,-18.26 -24.03,-24.67l-242.09 -239.92c-228.1,-232.11 -265.98,-229.54 -476.1,-513.94 -861.97,-1166.64 -846.27,-2845.07 -1749.83,-3432.21 -488.12,-317.19 -664.35,-74.55 -939.57,-33.34l24.84 -122.61c-209.76,219.9 75.32,890.02 525.35,1054.13 -56.09,-167.22 -148.27,-236.08 -176.77,-384.98 219.88,11.29 392.1,680.61 432.04,921.62 147.66,890.99 -677.34,2456.35 101.63,3110.17 119.47,100.28 106.47,24.34 165.68,193.26l-0.01 0.01z"/>
   <path class="fil1" d="M11651.41 15827.55c-45.94,-85.14 86.58,-397.81 136.8,-450.59 22.85,36.63 51.35,-47.54 28.09,132.34 -15.51,120.04 -77.28,264.21 -164.89,318.25zm-445.08 5175.94c-292.31,31.83 -103.3,-610.75 62.22,-851.21 223.64,-324.87 70.3,-534.72 29.11,-962.22 -73.1,-758.72 38.98,-1356.43 258.97,-2030.24 425.85,-1304.3 681.42,-2076.07 712.07,-3471.09 3.57,-162.44 -29.65,-439.94 48.69,-534.96 125.33,203.6 22.74,918.07 9.31,1203.66 6.62,-7.6 15.76,-16.73 21.25,-21.52l180.93 -120.88c-141.43,-27.66 -82.37,44.94 -123.6,-76.71l1291.75 -268.84c-50.5,-286.66 -161.3,-518.1 -201.93,-865.8 -41.86,-358.33 -34,-686.36 -22.38,-1044.78 -40.28,55.57 -61.42,46.42 -66.1,246.12l4.56 701.18c-271.78,-23.09 -1120.37,46.85 -1328.94,158.36 -321.35,171.82 -381.62,649.34 -418.81,1071.42 -37.76,428.52 -175.38,834.63 -283.84,1223.88 -118.42,425.04 -153.67,800.47 -232.07,1253.59 -75.83,438.3 -190.62,808.53 -273.26,1240.63 -83.59,437.08 -122.36,837.81 -209.04,1270.91 -86.9,434.15 -234.44,788.29 -195.06,1302.43 45.15,589.36 576.85,807.22 736.17,576.09l0 -0.02z"/>
   <path class="fil2" d="M26136.13 5964.28c-70.47,85.52 -129.56,148.06 -297.17,187.14 -73.52,17.14 -124.4,9.68 -194.51,47.94 -122.21,66.7 25.15,43.02 -174.55,102.36 -127.59,22.43 -289.75,159.37 -394.5,235.79 68.91,14.49 35.98,-38.08 53.75,23.9 123.34,10.17 24.36,7.69 77.73,35.1l1.85 115.05 -24.84 122.61c275.22,-41.21 451.45,-283.85 939.57,33.34 903.56,587.14 887.86,2265.57 1749.83,3432.21 210.12,284.4 248,281.83 476.1,513.94l242.09 239.92c6.23,6.41 16.41,16.09 24.03,24.67 23.09,39.56 -26.17,-12.03 32.21,39.2 418.26,366.99 525.36,528.67 636.48,1193.85 2.82,16.85 19.99,133 19.05,142.79 -18.61,192.15 18.89,31.25 -52.56,98.52l-169.3 -696.51c-52.59,76.78 -8.1,-42.17 -25.69,76.85 -5.99,40.54 -3.22,60.59 -5.65,97.65 -7.37,112.6 39.99,73.99 -31.07,166.42l38.03 277.16 -96.52 -21.74c-95.25,-37.7 -155.85,-44.81 -236.36,9.99 69,69.91 65.32,47.15 132.87,100.22 61.09,47.99 102.9,96.47 144.64,139.18 105.69,108.17 133.71,158.71 223.88,298.06l60.55 11.57c260.53,-917.27 221.16,-1411.28 -267.63,-2090.86 -305.75,-425.09 -995.06,-564.63 -1311.79,-1370.45 -258.31,-657.21 -218.9,-1548.64 -570.71,-2108.98 -177.72,-283.06 -366.9,-471.66 -701.13,-639.02 -520.25,-260.5 -677.23,-166.99 -960.16,-192.68 -131.54,-11.94 -79.93,5.58 -131.16,-48.24 354.3,-246.02 1460.13,133.08 1888.28,854.97 138.46,233.46 152.27,440.42 256.74,662.15 99.04,103.6 64.67,-153.93 70.4,87.06 91.27,-407.23 712.36,-691.39 452.02,-1420.93 -89.41,-250.56 -157.3,-273.81 -241.73,-432.68l0.79 2.31c-180.72,-107.48 -219.6,-195.63 -451.63,-291.16 -196.77,-81.02 -325.03,-96.88 -544.14,-121.17l-232.57 0.08c-136.93,9.31 -264.33,22.59 -405.52,62.42z"/>
   <path class="fil1" d="M1573.95 13880c63.32,58.63 49.27,187.74 197.39,207.97 118.28,16.16 222.97,-52.19 296.02,-101.67 825.76,-559.43 1350.15,-985.34 1867.43,-1873.65 127.12,-218.28 398.15,-781.46 429.54,-1074.67 -213.2,40.5 -754.31,308.55 -977.7,420.91 -337.93,169.95 -631.36,345.94 -840.49,570.91 -537.67,578.4 -622.15,1018.87 -972.19,1850.2z"/>
   <path class="fil1" d="M6818.04 11253.16c28.58,-18.34 -25.86,-79.49 220.16,20.65 719.2,292.75 1392.21,-34.52 1528.63,15.84 -43.84,93.52 -26.66,71.9 -160.71,110.62 -458.1,132.3 -1317.59,137.82 -1588.08,-147.11zm1908.19 -5.44c-0.92,-94.27 47.44,-92.14 137.83,-105.41 -33.58,102.07 -8.26,99.43 -137.83,105.41zm-2635.42 -770.54l-379.89 89.36 0.31 112.92c-295.02,44.26 -56.14,-15.14 -166.99,81.86l142.53 -6.45c-31.88,88.5 -13.62,57.43 -70.62,123.18l142.26 -25.85c90.88,248.16 568.85,662.96 791.27,843.92 952.7,775.11 2873.34,511 3057.53,-1025.32 207.39,21.62 442.95,43.09 640.42,-9.62l-981.46 -73.41 -305.17 124.24c26.4,71.15 18.13,28.48 16.07,89.46 -689.6,534.34 -2158.54,436.89 -2719.77,-77.47 26.61,-85.19 -28.41,-39.9 66.84,-54.46l10.91 -90.72c-109.3,-7.05 -51.26,19.16 -110.68,-31.21 6.48,-166.15 44.48,-1392.98 -26.75,-1422.88l-19.39 1388.39 -87.42 -35.94z"/>
   <path class="fil1" d="M13574.75 12871.32c36.29,406.97 116.86,621.96 217.73,963.62l2252.4 -476.56c399.7,-94.84 691.16,-251.03 842.54,-498.39 159.41,-260.5 183.58,-514.63 176.47,-823.81 -0.61,-26.52 -5.45,-131.88 -9.29,-153.49 -12.69,-71.46 8.33,14.57 -14.22,-62.47 -24.84,-84.88 -13.28,-50.31 -37.77,-91.3 -10.47,133.71 -34.03,24.83 19.49,194.51l-689.71 416.9c-240.38,127.9 -527.38,216.47 -802.59,291.51 -446.24,121.69 -1447.66,287.73 -1955.05,239.48z"/>
   <path class="fil1" d="M24377.76 6928.43c41.77,63.51 -42.77,121.26 -106.47,189.51 -95.85,102.7 -108.57,103.41 -170.97,256.83 201.71,-48.37 341.16,-169.66 475.75,-267.95 334.52,-244.31 147.24,-316.2 365.3,-332.86 -37.26,250.29 -605.09,696.17 -966.57,737.64 -558.72,1189.34 -301.96,1422.32 -492.2,2176.19 -124.61,493.78 -307,496.65 -558.83,776.76 -394.88,439.24 -63.4,578.27 370.82,717.87 -43.09,-265.81 -33.5,-787.08 245.07,-949.65 203.12,-118.54 -88.1,226.2 -141.6,389.69 -91.8,280.49 -11.34,378.68 -6.67,630.52 82.97,-48.41 55.61,55.37 108.13,-105.84 -12.6,-141.06 -21.15,-211.65 -2.86,-354.01 18.92,-147.24 5.28,-160.82 118.49,-209.76 -0.12,226.02 -31.22,370.82 -18.9,636.15 160.37,-42.84 299.85,-63.82 431.06,-179.59 83.53,-73.7 240.43,-236.73 214.12,-333.09l26.17 165.62 52.55 -583.91c-310.19,-133.14 -460.87,-674.86 -450.17,-1152.09 6.39,-285.25 96.49,-1194.87 234.88,-1368.49l389.62 -177.58c638.08,-408.71 520.77,-655.39 634.68,-1029 -17.77,-61.98 15.16,-9.41 -53.75,-23.9 -88.25,204.53 -42.18,5.8 -406.44,169.37 -50.57,22.71 -101.76,46.58 -159.65,85.73l-131.56 135.84z"/>
   <path class="fil3" d="M29876.97 17628.84c61.97,101.5 88.08,480.68 86.21,574.02 -308.62,171.16 -1645.15,433.96 -2043.19,422.06l-184.51 49.39 -34.09 -94.14 -48.34 -425.94c-32.14,-193.82 -195.99,-2063.34 -577.54,-2061.5 76.62,293.44 248.41,377.86 356.78,1169.96 62.86,459.47 142.23,908.5 191.16,1363.51 -81.29,60.35 -74.22,33.22 -165.45,67 51.85,58.24 148.28,68.05 188.32,83.29 113.57,860.77 279.96,1584.13 485.53,2385.43l112.81 19.74c-141.78,-447.82 -487.51,-1789.26 -463.83,-2247.33l-60.74 -165.34 85.27 -40.13c619.42,31.89 1569.38,-271.36 2150.89,-406.7l25.73 61.62c3.36,10.04 7.39,19.69 10.67,30.84 10.83,36.82 13.59,55.58 19.51,92.57 6.75,42.2 10.32,101.01 15.41,149.85 42.11,404.54 198.29,2092.24 281.45,2224.63 100.31,-60.9 28.26,-349.81 -1.39,-590.9 -72.17,-586.77 -198.48,-1487.16 -228.34,-2025.93 121.62,-23.49 213.75,-36.07 281.21,-132.53 -99.4,-42.49 -195.8,18.25 -303.13,43.98 -49.91,-708.34 -339.55,-3103.18 -473.98,-3907.16 -75.99,-454.44 -206.96,-779.95 -291.32,-1149.51l-66.55 -119.75c-90.17,-139.35 -118.19,-189.89 -223.88,-298.06 -41.74,-42.71 -83.55,-91.19 -144.64,-139.18 -67.55,-53.07 -63.87,-30.31 -132.87,-100.22 -322.14,-140.33 -591.04,-258.23 -933.74,-383.61 -166.08,-60.76 -929.36,-257.97 -988.06,-314.08 -325.17,20.37 -795.28,-223.79 -937.62,-88.23 135.63,98.29 425.54,90.5 599.21,139.57l668.84 142.35 81.44 35.58c18.03,61.99 29.69,46.76 -34.82,45.82 -446.7,150.08 -1297.23,760.52 -1668.12,1012.64 -484.97,329.69 -705.79,548.78 -1113.41,896.32l-383.4 318.94 -64.3 -247.96 -680.23 -2563.51 -90.37 9.4c48.22,382.68 876.16,3457.86 991.14,3594.11 97.32,-128.57 -73.3,-370.14 -114,-666.86 699.17,-777.76 2070.97,-1673.3 2998.77,-2195.28 305.77,-172.02 260.38,-186.4 609.84,-64.59 681.66,237.6 1257.87,395.6 1537.72,1037.54 165.53,379.73 273.1,946.41 331.27,1396.74 57.78,447.24 397.89,2810.42 342.68,3061.56l0 -0.02z"/>
   <path class="fil1" d="M25890.47 17971.96c-177.23,-186.42 -618.65,-245.09 -749.36,-439.37l47.61 -15.13c57.24,3.22 10.48,-8.28 73.22,13.43l381.52 186.66c151.74,72.4 398.22,165.64 502.88,273.65 -52.46,71.41 11.39,16.08 -105.74,38.54 10.35,6.68 23.83,10.89 34.2,14.01 10.24,3.09 21.6,9.16 34.33,12.4l320.57 10.68c538.86,-55.89 15.79,-672.02 9.17,-684.09 -142.24,54.3 -346.18,-53.56 -528.63,-107.33 -613.39,-180.79 -990.05,-302.6 -1665.01,-389.78 -792.01,-102.3 -1385.37,65.01 -2291.87,-95.23 -245.66,-43.43 -194.58,-69.96 -215.49,-139.58 -300.34,282.39 486.61,535.97 740.6,565.65 437.59,51.13 895.73,-2.23 1328.68,48.59 751.9,88.24 1638.44,681.46 2083.33,706.9l-0.01 0z"/>
   <path class="fil1" d="M3711.98 20758.4c-22.1,-265.1 217.97,-1273.41 276.4,-1608.08 89.8,-514.26 239.93,-1110.51 285.89,-1619.28l-746.86 -114.15c-2.47,437.07 -329.52,2077 -364.59,2692.64 -32.74,574.56 -5.22,500.45 205.41,750.81 191.96,5.35 223.56,-21.56 343.75,-101.94z"/>
   <path class="fil3" d="M454.41 17425.84c59.85,-36.39 18.7,-36.16 112.98,-28.28l-32.79 73.51 -73.44 332.39c-222.26,-26.69 -347.88,-63.12 -386.82,-258.05l380.07 -119.57zm3073.01 -8.95l746.86 114.15c-45.96,508.77 -196.09,1105.02 -285.89,1619.28 -58.43,334.67 -298.5,1342.98 -276.4,1608.08 160.43,-117.52 166.19,-524.78 204.47,-724.74l416.8 -2262.92c171.96,-980.74 304.25,-2106.83 515.86,-3060.55 -5.03,-175.13 28.4,-75.87 -45.88,-146.61 -75.18,123.74 -462.75,2546.62 -496.96,2868.32 -170.84,-10.63 -916.7,-98.59 -1004.06,-161.64 -322.21,29.62 -885.17,-54.66 -1250.64,-65.47 -435.6,-12.89 -833.8,40.48 -1233.83,41.2l-147 43.25c6.12,-121.06 -28.3,-49.12 45.2,-141.24 22.79,-373.35 287.91,-1294.92 399.03,-1683 76.9,-268.59 153.32,-551.01 232.19,-824.09 63.5,-219.85 193.12,-555.98 226.78,-760.93 350.04,-831.33 434.52,-1271.8 972.19,-1850.2 209.13,-224.97 502.56,-400.96 840.49,-570.91 223.39,-112.36 764.5,-380.41 977.7,-420.91 132.93,-123.98 1077.16,-413.06 1346.6,-471.45l379.89 -89.36 -52.85 -69.13c-661.64,61.76 -1762.52,528.8 -2312.46,789.64 -850.51,403.41 -1272.48,632.33 -1693.94,1376.89 -378.06,667.89 -607.34,1465.51 -839.4,2264.9 -117.05,403.22 -226.4,798.71 -329.46,1224.08 -448.08,1849.34 -93.22,985.85 -856.87,1425.98 -48.29,339.03 212.64,311.13 432.63,431.12 -44.84,458.4 -422.21,2141.26 -350.5,2456.12 140,-72.41 133.2,-534.65 161.53,-726.63l259.46 -1545.5c25.56,-125.91 45.55,-255.53 71.67,-381.08 14.75,-70.87 48.57,-289.57 101.4,-334.66 377.01,-201.52 2337.3,-53.23 2845.39,28l0 0.01z"/>
   <path class="fil1" d="M28244.66 21181.66l-112.81 -19.74c-205.57,-801.3 -371.96,-1524.66 -485.53,-2385.43 -40.04,-15.24 -136.47,-25.05 -188.32,-83.29 91.23,-33.78 84.16,-6.65 165.45,-67 -48.93,-455.01 -128.3,-904.04 -191.16,-1363.51 -108.37,-792.1 -280.16,-876.52 -356.78,-1169.96 -393.4,50.15 -123.7,804.44 -47.9,1335.36 123.69,866.31 238.79,2828.15 718.3,3512.36 60.73,86.65 234.74,263.76 350.8,283.71 243.26,41.81 126.59,-23.01 147.95,-42.52l0 0.02z"/>
   <path class="fil3" d="M13873.85 13934.27l199.11 -59.31c-4.11,76.45 -2.97,109.21 -70.85,129.97 -134.36,41.09 -107.6,-31.23 -128.26,-70.66zm3128.75 -2205.35c24.49,40.99 12.93,6.42 37.77,91.3 22.55,77.04 1.53,-8.99 14.22,62.47 3.84,21.61 8.68,126.97 9.29,153.49 7.11,309.18 -17.06,563.31 -176.47,823.81 -151.38,247.36 -442.84,403.55 -842.54,498.39l-2252.4 476.56c-100.87,-341.66 -181.44,-556.65 -217.73,-963.62 -59.42,-768.79 9.74,-1392.98 162.68,-2110.85 183.55,-26.54 172.63,41.97 234.69,-84.56 -306.17,-83.08 -1908.52,-79.44 -2358.87,-89.7 -403.88,-9.2 -795.71,-28.8 -1200.87,-40.13 -175.25,-4.9 -1073.33,-98.91 -1146.23,41.68l981.46 73.41c226.73,-74.82 2881.52,72.3 3370.43,79.38 11.43,133.46 -125.64,965.42 -145.33,1218.34 -11.62,358.42 -19.48,686.45 22.38,1044.78 40.63,347.7 151.43,579.14 201.93,865.8l-1291.75 268.84c41.23,121.65 -17.83,49.05 123.6,76.71l1246.64 -259.47c89.71,156.31 106.46,171.51 323.27,132.82 99.46,-161.32 24.14,-210.96 227.22,-266.63 120.11,-32.92 243.1,-48.17 374.98,-77.54 685.25,-152.59 1710.19,-278.29 2125.1,-663.34 721.15,-669.22 104.09,-2114.61 -186.6,-2868.18 -343.3,-889.94 -729.8,-1749.86 -1109.92,-2594.66 -98.88,-219.75 -205.89,-423.64 -316.71,-635.84 -263.82,-505.19 -269.9,-328.93 -207.44,-620.31 130.96,-610.95 -9.55,-1096.24 -185.53,-1593.63l-100.4 -11.5c87.6,337.76 211.39,526.1 235.73,961.12 22.11,395.31 -126.28,738.5 14.47,1013.14 432.9,844.71 2146.7,4448.23 2032.93,4997.9l0 0.01 0 0.01z"/>
   <path class="fil1" d="M4239.71 14710.55c36.82,221.35 188.01,821.74 104.91,989.99 -173.92,-116.57 -75.57,-606.44 -189.1,-771.22 -243.18,703.11 -488.25,1515.2 -584.83,2347.63 -133.42,-34.26 -139,-40.75 -268.48,-6.67 87.36,63.05 833.22,151.01 1004.06,161.64 34.21,-321.7 421.78,-2744.59 496.96,-2868.32 74.28,70.74 40.85,-28.52 45.88,146.61l48.62 -175.23c-5.88,-46.56 -35.01,-88.97 -55.26,-109.55 -283.48,-287.93 -513.8,261.97 -602.76,285.13l0 -0.01z"/>
   <path class="fil1" d="M22105.28 18679.67c354.4,131.94 610.32,699.89 745.68,1020.48 64.56,152.9 409.89,1039.18 404.6,1220.55 -5.56,190.53 15.98,35.36 -37.36,97.28 -29.54,-36.15 -289.12,-909.42 -437.15,-1248.67 -105.1,-240.84 -283.51,-610.72 -457.83,-812.22 -96.72,-111.79 -161.73,-103.24 -217.94,-277.42zm0 0c-38.27,43.41 -20.69,-14.04 -30.45,90.43 -18.94,202.62 174.13,178.12 459.65,858.06 134.44,320.14 237.5,683.33 358.74,1012.34 112.63,305.63 295.55,716.71 643.12,736.24 234.62,13.18 342.9,-131.02 384.3,-321.58 37.96,-174.75 29.29,-477.13 -68.96,-629.62l-19.17 99.56c-115.35,-71.82 -314.04,-421.52 -467.89,-563.72 -100.21,-92.62 -145,-65.47 -133.72,-191.59l109.52 25.92c-70.19,-146.69 -173.55,-243.41 -284.09,-371.67 -93.77,-108.79 -175.85,-223.7 -270.97,-365.2 -68.58,-102.02 -319.35,-703.19 -680.08,-379.17z"/>
   <path class="fil1" d="M4768.56 20424.45c137.17,18.83 396.32,198.52 593.01,289.22 150.28,69.3 148.75,35.18 136.02,155.03 -197.41,-57.6 -398.22,-184 -573.16,-282.58 -45.51,-25.64 -51.8,-16.63 -91.9,-48.94 -117.75,-94.88 -21.26,-23.95 -63.97,-112.73zm-20 -330.23c-381.59,-110.43 -298.34,-53.08 -342.17,-162.74 19.67,-6.42 1338.53,291.76 1540.72,376.22 77.84,32.52 19.63,8.83 62.1,47.11 -35.76,22.72 44.97,70.96 -222.79,8.74l-1037.86 -269.33zm-508.51 -127.47c42.89,251.98 677.28,728.37 918.73,882.92 384.59,246.18 1046.66,240.13 1216.68,-194.37 284.41,-726.87 -1105.82,-699.12 -1693.1,-955.76 -130.04,-56.83 -172.38,-126.52 -330.98,-42.49 -91.8,48.64 -137.21,157.7 -111.33,309.7z"/>
   <path class="fil1" d="M23950.15 14019.76l64.3 247.96 383.4 -318.94c407.62,-347.54 628.44,-566.63 1113.41,-896.32 370.89,-252.12 1221.42,-862.56 1668.12,-1012.64 -32.47,-60.67 5.38,-28.86 -46.62,-81.4l-668.84 -142.35c-31.33,78.71 -427.83,186.83 -738.62,425.77 -219.83,169.01 -474.98,366.76 -655.31,546.17 -199.1,198.08 -349.79,368.87 -583.6,615.72l-536.24 616.03z"/>
   <path class="fil1" d="M20341.92 12788.86c-190.68,-105.43 -348.43,-126.2 -346.74,-243.36 104.94,-16.52 690.5,295.56 743.85,397.64 -114.39,48.18 -264.93,-81.2 -397.11,-154.28zm1008.95 686.62c9.71,-5.35 24.29,-23.18 29.75,-14.83l109.65 -55.42c6.57,-3.29 16.32,-8.5 22.25,-11.41l35.29 -16.82c91.23,-39.27 -49.49,-29.2 33.75,-10.22 116.21,-133.04 79.62,-268.66 129.8,-405.02 66.35,-180.33 -25.9,-85.76 121.88,-129.83 -75.58,-229.57 -249.95,-261.1 -542.59,-294.22 -211.68,-23.96 -504.91,-79.68 -745.11,-101.78 166.74,224.92 478.12,237.94 531.1,520.18 -143.57,-36.12 -212.02,-157.33 -480.83,-349.36 -190.88,-136.36 -385.58,-158.25 -548.54,-257.62l-427.97 -30.36c-23.6,-44.34 -13.41,-7.95 -21.01,-79.81 -78.7,80.78 -308.84,570.39 -332.32,647.5 343.69,66.31 732.88,169.38 1072.48,255.14 190.94,48.22 355.67,83.86 542.43,130.95 363.05,91.53 454.54,43.44 469.99,202.93z"/>
   <path class="fil4" d="M10627.66 2023.24c262.78,-19.11 6943.41,1697.02 7320.87,1798.87 1220.51,329.35 2435.57,620.54 3662.58,924.91 608.94,151.05 1218.26,322.22 1827.36,464.77 546.52,127.9 1146.25,265.82 1721.26,252.33 23.1,-0.54 108.76,-4.18 128.21,-8.13l74.92 -82.49c-250.62,-52.15 -598.32,75.91 -2128.36,-310.16l-10002.5 -2524.47c-779.52,-200.11 -3509.7,-761.54 -3853.14,-1160.91 -152.99,2.44 -60.23,-8.5 -90.98,32.71 289.53,378 1179.68,478.82 1339.79,612.57l-0.01 0z"/>
   <path class="fil5" d="M8624.03 3587.83c-25.04,-115.23 24.77,-50.02 -46.08,-105.02 -1093.69,602.09 -2180.72,625.36 -3233.37,-143.9 -203.45,-148.68 -538.62,-461.82 -624.01,-779.17l2249.57 383.55c269.94,-741.52 517.94,-1096.03 291.43,-2016.48l-2079.21 -351.38c66.3,-90.06 118.02,-109.5 214.51,-158.4 1011.21,-512.47 2076.88,-381.46 2994.43,263.13 452.05,317.57 617.63,775.57 627.25,753.85 2.48,-5.62 11.3,14.19 18.01,20.24 69.63,-117.97 -18.07,-163.4 -70.37,-347.18 -67.24,-42.41 -1141.55,-1499.73 -2998.22,-1004.55 -305.36,81.44 -845.63,267.78 -969.05,496.77 155.74,113.93 2051.09,385.87 2241.83,418.54 -31,380.22 42.6,630.42 -52.38,1052.3 -46.65,207.24 -179.37,630.41 -303.76,768.78 -503.94,-25.16 -1949.53,-399.84 -2291.44,-376.61 118.57,897.03 1860.08,1991.02 3503,1360.79 175.84,-67.46 394.24,-210.78 527.86,-235.26z"/>
   <path class="fil6" d="M24267.6 10872.47c61.87,263.65 -96.85,456.72 8.93,586.23 92.87,-106.87 95.69,-362.84 100.93,-523.23l9.08 -136.73 317.18 -4.93c405.36,-46.73 734.24,-383.99 776.62,-779.25 -269.64,44.72 -496.94,379.08 -977.39,269.17 -270.08,-61.78 -529.71,-455.2 -495.33,-805.13 -66.18,-97.28 -45.33,-303.72 -38.2,-445.26 6.53,-129.49 6.16,-297.09 68.29,-401.72 -36.77,-160.43 56.53,-644.44 133.16,-764.42l512.1 -298.37c213.15,-158.04 223.42,-218.39 402.53,-399.79 318.64,723.56 610.11,549.72 733.88,811.25 348.85,737.14 -255.04,1874.69 -159.59,2706.01 45.72,398.26 299.56,851.62 596.88,919.46 -59.21,-168.92 -46.21,-92.98 -165.68,-193.26 -778.97,-653.82 46.03,-2219.19 -101.63,-3110.17 -39.94,-241.01 -212.16,-910.33 -432.04,-921.62 28.5,148.9 120.68,217.76 176.77,384.98 -450.03,-164.11 -735.11,-834.23 -525.35,-1054.13l-1.85 -115.05c-53.37,-27.41 45.61,-24.93 -77.73,-35.1 -113.91,373.61 3.4,620.29 -634.68,1029l-389.62 177.58c-138.39,173.62 -228.49,1083.24 -234.88,1368.49 -10.7,477.23 139.98,1018.95 450.17,1152.09l-52.55 583.91 0 -0.01z"/>
   <path class="fil3" d="M12324.6 4126.05c-182.7,377.59 -11.76,657.18 87.56,1067.68 101.62,419.94 243.63,1111.45 537.91,1405.26 21.87,21.84 48.48,45.11 73.53,67.22 220.82,194.86 168.62,70.17 216.15,309.62 312.37,1573.88 722.31,3120.23 1206.9,4653.12 27.27,86.25 54.29,154.85 79.41,237.84 10.22,33.79 23.28,97.92 39.75,134.48 44.75,99.35 -30.45,-36.13 24.99,46.77 43.56,65.14 -7.72,15.2 54.91,56.32 54.42,-100.04 39.84,-59.81 -47.22,-308.67 -40.51,-115.8 -64.96,-208.95 -101.88,-321.44 -73.49,-223.91 -139.13,-430.75 -201.27,-645.65 -398.67,-1378.7 -640.44,-2337.16 -938.66,-3723.51 -11.45,-53.26 -24.81,-113.24 -31.44,-173.1 -4.22,-38.05 -2.92,-51.48 -4.99,-79.66 -22.54,-306.54 -298.93,-47.2 -572.54,-791.39 -117.07,-318.43 -195.65,-686.7 -282.19,-1029.39 -110.16,-436.2 -259.55,-635.24 26.19,-942.03 137.63,-147.76 468.83,-602.72 636.52,-664.28 25.79,353.73 -266.1,798.12 -265.98,990.1 0.07,114.96 172.97,237.39 263.63,348.68 102.51,125.83 220.22,257.55 233.02,391.77 159.13,127.29 131.12,301.41 263.76,418.82 61.46,-95.54 -39.65,-252.23 -85.19,-339.51 -64.84,-124.28 -112.37,-191.21 -161.3,-305.21l808.91 150.92c26.73,5.04 127.98,25.47 148.51,31.88l106.98 47.23 227.99 -10.19c-74.63,-180.07 -104,74.24 -242.43,-407.29l-65.25 -94.5c-41.01,-6.45 -12.23,-19.51 -34.73,44.1l72.82 275.23 31.73 90.11 -129.37 -54.8c-205.81,-10.47 -141.36,15.2 -193.3,-160.69 -27.47,-93.03 -51.08,-154.9 -63.32,-242.24 -45.06,-40.92 -33.83,-34.63 -105.56,-57.75l103.47 417.28 -397.67 -73.92 -128.11 -447.75 -89.63 -27.44 33.88 120.17 51.56 265.46 35.68 79.15 -114.1 -41.39 -131.37 40.76c-78.86,-179.64 -214.81,-310.63 -357.32,-416.81l38.57 -165.04 40.47 -52.68c80.03,-265.7 255.79,-626.38 165.49,-913.16 -224.33,-7.34 -495.94,377.93 -663.76,586.77l-201.71 212.74 0 0.01z"/>
   <path class="fil1" d="M27653.05 18154.23l48.34 425.94c31.69,72.47 43.5,32.73 67.63,58.41l150.97 -13.66c398.04,11.9 1734.57,-250.9 2043.19,-422.06 1.87,-93.34 -24.24,-472.52 -86.21,-574.02l-26.93 118.05c-38.28,-24.31 -6.35,-13.36 -77.38,-31.65 -306.55,-78.92 -694.59,119.92 -1015.82,204.1 -351.33,92.07 -795.01,131.09 -1103.79,234.89z"/>
   <path class="fil3" d="M19450.95 12241.11l-277.88 618.46 -1281.81 -307.81c-61.24,43.65 -46.15,-79.54 -50.21,100.97 288.84,11.51 972.84,227.6 1301.99,309.01l2207.84 513.74c-15.45,-159.49 -106.94,-111.4 -469.99,-202.93 -186.76,-47.09 -351.49,-82.73 -542.43,-130.95 -339.6,-85.76 -728.79,-188.83 -1072.48,-255.14 23.48,-77.11 253.62,-566.72 332.32,-647.5 0.92,-118.99 304.1,-849.49 369.32,-1450.81 476.29,62.48 1051.79,204.65 1542.53,305.93 357.88,73.86 1260.34,284.68 1582.41,286.69l176.01 42.49c94.7,21.61 756.8,160.99 857.19,143.08l50.99 -18.48c5.57,-1.9 16.84,-6.74 23.67,-12.48 -177.2,-144.92 -3587.08,-633.24 -4192.53,-846.67 -10.08,-132.66 33.51,-173.58 -35.22,-267.56 -85.97,87.33 -37.01,124.57 -105.84,241.34 -268.33,-39.19 -556.08,-110.43 -826.39,-172 -157.04,-35.77 -731.12,-197.42 -829.6,-119.28 102.37,93.63 1426.69,358.33 1666.42,385.3 -20.22,287.23 -287.46,1366.69 -426.29,1484.6l-0.01 0 -0.01 0z"/>
   <path class="fil1" d="M6353.21 6666.01c12.66,-131.2 29.59,-104.24 63.22,-219.83 10.95,-37.64 15.49,-83.74 24.39,-109.31 37.81,-108.67 18.65,-52.04 55.75,-97.63 11.75,16.14 108.99,-32.64 3.14,255.75 -48.03,130.84 -42.59,135.05 -146.5,171.02zm113.31 516.37c-59.75,-97.79 52.35,-161.22 175.82,-474.72 53.86,-136.74 76.11,-490.63 171.73,-584.84l27.51 56.19c35.25,216.29 -190.9,892.11 -375.06,1003.37zm-613.88 -228.95l-5.67 119.77 -81.38 8.22 6.09 114.27c700.91,-273.57 420.7,9.48 550.76,386.37 31.48,91.22 15.38,40.57 37.34,73.76 113.58,-179.66 245.45,-367.86 360.28,-589.44 210.53,-406.25 163.07,-590.39 288.82,-630.19l113.47 19.02c-12.34,-143.08 -12.39,-99.69 150.15,-75.78 -9.21,-7.21 -25.44,-25.65 -30.56,-17.26 -21.4,35 -172.27,-175.67 -183.91,-188.83l14.57 185.98c-101.26,-37.93 -78.39,47.94 -116.95,-151.22 -38.08,-196.78 -49.49,-491.82 -186.57,-645.78 -96.21,159.17 -177.84,165.65 -288.89,277.12 -429.53,431.16 -557.81,1042.33 -627.55,1113.99z"/>
   <path class="fil6" d="M9042.25 6699.62c-22.75,209.17 26.4,413.18 -17.16,606.99 76.49,139.79 43.85,461.39 50.37,652.86 36.5,962.86 -286.23,1774.21 -1243.69,1499.13 -246.91,-70.93 -520.68,-300.89 -664.93,-322.64 -91.9,275.27 876.77,1392.07 1611.51,427.09l115.26 842.21c27.34,145.11 4.21,196.87 133.01,206.23 -16.96,-295.01 -123.92,-675.51 -150.26,-1023.6 -34.23,-452.39 167.49,-467.37 259.58,-917.12 116.49,-568.94 -21.92,-1656.6 -24.69,-2288.49 -93.5,16.78 -64.31,-93.25 -69.4,139.16 -1.63,74.37 8.34,90.81 0.4,178.18z"/>
   <path class="fil1" d="M13358.9 5155.8c-72,451.6 462.78,2025.35 906.9,1005.06 -135.56,-60.51 -82.01,-378.87 -63.38,-507.04 35.86,-246.7 56.59,-374.77 196.17,-429.6 -7.95,-12.55 -15.24,-55.25 -18.7,-40.48 -5.33,22.76 3.24,-28.82 -37.39,1.47l98.07 -25.28 -106.98 -47.23c-20.53,-6.41 -121.78,-26.84 -148.51,-31.88l-808.91 -150.92c48.93,114 96.46,180.93 161.3,305.21 45.54,87.28 146.65,243.97 85.19,339.51 -132.64,-117.41 -104.63,-291.53 -263.76,-418.82z"/>
   <path class="fil5" d="M20211.12 5522.34l-75.51 102.53c366.74,116.98 754.97,196.75 1142.02,301.14 369.25,99.59 852.12,284.87 1037.42,-55.48 109.53,-201.17 69.74,-415.38 -45.61,-548.08 -156.8,-180.36 -1331.52,-410.76 -1605.68,-478.61 -486.52,-120.4 -4299.97,-1117.38 -4434.31,-1069.55 34.88,86.4 -6.66,41.44 92.66,85.98l427.72 106.01c753.17,188.57 5228.18,1246.78 5394.18,1376.24 110.84,86.44 196.72,277.13 97.95,452.21 -202.54,359 -943.63,33.35 -1506.58,-98.62 -100.7,-23.61 -184.17,-44.48 -285.7,-68.79 -32.99,-7.9 -114.34,-27.09 -141.47,-39.14 -84.63,-37.61 -50.41,-19.23 -97.1,-65.85l0.01 0.01z"/>
   <path class="fil3" d="M29286.05 13011.45l12.03 72.98c254.48,-124.2 493.61,-1616.54 -351.86,-2373.38 -255.53,-228.74 -673.25,-476.64 -870.06,-717.53 -188.32,-230.51 -484.29,-760.76 -435.46,-1180.22 -107.46,-141.2 -127.64,-537.39 -152.21,-734.96 -104.47,-221.73 -118.28,-428.69 -256.74,-662.15 -428.15,-721.89 -1533.98,-1100.99 -1888.28,-854.97 51.23,53.82 -0.38,36.3 131.16,48.24 282.93,25.69 439.91,-67.82 960.16,192.68 334.23,167.36 523.41,355.96 701.13,639.02 351.81,560.34 312.4,1451.77 570.71,2108.98 316.73,805.82 1006.04,945.36 1311.79,1370.45 488.79,679.58 528.16,1173.59 267.63,2090.86z"/>
   <path class="fil3" d="M19058.68 5752.47c-58.69,66.45 -34.09,42.68 -112.42,75.17l-400.81 348.09c-4.7,56.91 -25.79,100.71 16.1,158.09 199.86,-134.7 48.6,-233.88 795.24,-634.31 564.35,-302.65 651.82,-602.83 848.36,-605.97 129.12,510.83 -813.27,1177.33 -1104.41,1795.74 -413.04,877.37 -930.15,2551.46 -1120.36,3540.56l-9.16 112.26c0.97,7.47 4.66,18.61 6.08,25.15 1.42,6.48 7.59,18.89 9.08,24.02 1.49,5.15 5.71,16.43 10.72,23.39 129.21,-142.72 286.54,-1025.8 358.93,-1298.51 113.16,-426.35 236.76,-869.89 381.21,-1274.7 202.28,-566.86 429.01,-1247.22 825.65,-1679.01 72.28,-78.69 146.47,-122.92 216.19,-205.33 72.28,-85.43 97.15,-136.74 185.93,-236.78 60.51,-97.36 128.08,-185.26 170.62,-295.47l75.51 -102.53c118.43,-191.91 138.1,-328.56 55.56,-518.05 -368.71,-29.82 -238.67,283.53 -1208.02,748.19z"/>
   <path class="fil1" d="M17841.06 12652.73c4.06,-180.51 -11.03,-57.32 50.21,-100.97l1281.81 307.81 277.88 -618.46c-196.32,64.84 -825.67,-34.96 -1101.09,-45.94 -177.16,-7.07 -425.5,-30.8 -547.35,63.84 -159.03,123.51 -92.56,270.64 38.54,393.72z"/>
   <path class="fil3" d="M11206.33 21003.49c-112.94,-339.39 -17.65,-576.48 145.33,-803.51 384.97,-536.25 -286.18,-931.24 181.89,-2641.46 144.63,-528.47 334.68,-994.86 485.33,-1527.84 159.24,-563.33 214.95,-1075.16 307.82,-1673.27 13.43,-285.59 116.02,-1000.06 -9.31,-1203.66 -78.34,95.02 -45.12,372.52 -48.69,534.96 -30.65,1395.03 -286.22,2166.8 -712.07,3471.09 -219.99,673.82 -332.07,1271.53 -258.97,2030.24 41.19,427.5 194.53,637.35 -29.11,962.22 -165.52,240.46 -354.53,883.04 -62.22,851.21l0 0.02z"/>
   <path class="fil3" d="M21581.56 13366.79c28.7,615.85 -963.66,1522.83 -392.55,3653.76 254.58,949.88 463.11,1750.6 587.11,2732.97 31.54,249.96 30.62,781.21 136.79,965.26 46.27,-56.34 16.65,12.04 39.8,-85.29l-98.88 -1004.63c-47.36,-325.18 -99.12,-660.27 -167.37,-987.7 -138.14,-662.72 -331.32,-1270.08 -467.46,-1894.67 -426.58,-1957.1 406.6,-2498.29 614.24,-3914.55 -147.78,44.07 -55.53,-50.5 -121.88,129.83 -50.18,136.36 -13.59,271.98 -129.8,405.02z"/>
   <path class="fil1" d="M14610.43 7197.77c92.81,86.45 148.06,307.84 150.77,458.18 -125.4,-57.86 -94.69,-86.71 -138.38,-223.77 -6.87,-21.53 -44.87,-133.79 -45.28,-138.37 -16.18,-183.15 -5.4,-44.54 32.89,-96.04zm-383.53 -525.65c124.19,19.45 84.39,14.87 130.68,175.53l122.86 477.95c61.13,256.88 8.71,201.15 -11.12,231.75 -126.85,-152.19 -104.08,-567.88 -255.33,-763.96 -91.2,434.02 15.52,1183.5 396.44,1292.1 334.71,-104.59 282.63,-600.46 226.84,-929.17 -59.64,-351.36 -234.51,-807.11 -610.37,-484.2z"/>
   <path class="fil5" d="M12392 3668.45c-162.79,-260.6 -1410.39,-191.45 -1558.93,-597.99 -110.04,-301.2 139.66,-527.09 466.43,-461.78 702.08,140.31 1797.57,464.63 2597.31,646.24 276.44,62.78 565.58,136.93 847.21,207.92 147.3,37.14 279.77,76.24 421.98,110.67 70.31,17.02 160.99,42.89 230.9,58.06 141.1,30.63 103.52,35.16 160.26,-39.62 -203.59,-111.6 -1390.43,-363.91 -1725.21,-450.73 -240.92,-62.48 -2517.19,-645.36 -2679.26,-642.99 -311.78,4.56 -542.79,336.12 -391.08,643.14 130.35,263.78 436.25,268.85 743.97,352.4 186.79,50.7 754.89,236.87 886.43,174.68l-0.01 0z"/>
   <path class="fil1" d="M17640.37 5556.78l-108.25 419.85c264.1,-62.29 355.94,22.59 513.41,146.55 289.18,227.64 378.02,-11.61 499.92,52.56l400.81 -348.09c-31.66,-32.27 -6.23,-16.43 -65.87,-47.74 -0.97,-0.51 -70.91,-27.65 -77.88,-29.76 -255.26,-77.34 -800.94,-164.82 -1081.23,-272.89 -60.48,47.19 -20.82,-5.23 -80.91,79.52z"/>
   <path class="fil4" d="M12984.11 4292.39c82.62,-21.16 27.09,-9.55 129.17,22.14 49.28,15.3 92.09,26.32 141.69,40.65 257.1,74.29 57.74,35.43 206.12,175.08l-33.88 -120.17 89.63 27.44 422.31 104.39c71.73,23.12 60.5,16.83 105.56,57.75 56.81,-51.49 -10.9,-29.58 83.76,-25.22 6.98,0.32 73.24,16.19 81.13,19.28 146.89,57.59 17.54,-29.27 116.55,98.33 22.5,-63.61 -6.28,-50.55 34.73,-44.1l65.25 94.5c-10.23,-135.35 3,-76.57 120.74,-63.37 83.78,9.39 134.06,50.68 172.61,77.67l100.4 11.5c273.65,20.83 1891.97,469.4 2430.96,596.72 286.17,67.59 277.5,37.08 323.67,137.49l50.94 -18.78 14.92 73.09c60.09,-84.75 20.43,-32.33 80.91,-79.52 280.29,108.07 825.97,195.55 1081.23,272.89 6.97,2.11 76.91,29.25 77.88,29.76 59.64,31.31 34.21,15.47 65.87,47.74 78.33,-32.49 53.73,-8.72 112.42,-75.17 -251.23,-120.16 -1160.21,-320.68 -1508.55,-402.94 -488.04,-115.26 -1001.5,-248.45 -1488.6,-377.28 -400.98,-106.06 -2818.81,-754.45 -3036.95,-732.55l-40.47 52.68z"/>
   <path class="fil4" d="M26203.83 5300.36l120.2 -41.82c745.89,-171.59 1860.33,172.85 2345.97,965.96 599.82,979.56 -52.1,2015.88 -720.29,2358l11.39 97.84c1490.18,-676.54 1355.56,-3084.55 -604.16,-3475.75 -474.71,-94.76 -902.18,-83.81 -1383.06,15.79 -170.25,35.27 -302.37,51.67 -402.29,141.4l53.47 21.16c100.95,14.66 123.32,-6.2 254.07,-42.02 128.08,-35.09 202.67,-62.91 324.69,-40.56l0.01 0z"/>
   <path class="fil5" d="M25177.02 6371.07c160.12,-51.66 42,43.4 158.94,-129.2 107.94,-159.29 179.7,-229.6 356.61,-347.05 193.14,-128.23 417.18,-219.06 676.15,-272.77 1211.15,-251.2 2184.29,581.45 2093.48,1600.14 -76.12,853.68 -641.66,990.19 -726.83,1173.47 92.63,49.15 67.93,35.74 170.88,-35.34 205.47,-141.86 223.34,-158.41 373.55,-371.24 785.69,-1113.23 -136.81,-2793.61 -1927.77,-2459.24 -520.21,97.12 -1071.19,425.38 -1175.01,841.23z"/>
   <path class="fil1" d="M17714.88 7719.35c-52.52,-90.15 55.54,-281.48 127.29,-464.69 60.08,-153.4 14.57,-95.2 132.99,-139.27l-168.3 490.64c-60.52,143.83 0.74,62.43 -91.98,113.32zm230.1 -835.13c-133.39,58.1 -97.27,8.02 -220.59,286.15 -54.42,122.72 -93.57,216.55 -134.32,358.89 -182.6,637.86 286.01,947.38 624.31,-117.05 77.47,-243.75 97.78,-687.91 -269.4,-527.99z"/>
   <path class="fil3" d="M24188.25 6910.5c-63.19,123.29 -221.53,259.9 -319.76,407.29 -822.12,1233.47 -77.37,2165.95 -953.18,2927.39 -105.9,92.06 -976.65,487.54 -649.62,769.96 38.06,-66.85 46.38,-196.82 108.76,-288.86 65.7,-96.95 121.32,-125.1 213.48,-173.18 1327.21,-692.4 661.23,-1549.39 1124.28,-2757.13 85.5,-222.98 299.25,-549.19 455.12,-709.63 77.95,-80.23 120.95,-136.17 210.42,-157.9l131.56 -135.84c57.89,-39.15 109.08,-63.02 159.65,-85.73 364.26,-163.57 318.19,35.16 406.44,-169.37 -252.09,9.12 -312.66,5.06 -520.11,125.16 -77.19,44.68 -136.71,84.25 -189.51,128.02 -99.82,82.75 -68.29,73.75 -177.53,119.82z"/>
   <path class="fil5" d="M13616.24 3923.06c-202.36,-53.37 -238.38,-92.08 -357.17,-42.95 46.51,29.12 -16.67,43.45 165.41,95.14 53.08,15.06 133.43,29.03 197.5,44.8 131.88,32.46 268.12,61.94 396.59,95.84l5140.74 1281.34c143.49,38.26 259.91,99.72 378.86,35.1l-5921.94 -1509.27 0.01 0z"/>
   <path class="fil7" d="M27399.08 11545.43c-77.8,-308.25 -567.66,-450.09 -747.42,-832.28 -392.78,-835.04 -84.98,-2582.05 -807.69,-3497.22 -90.41,-114.5 -98.91,-167.19 -224.19,-191.18 19.14,110.76 209.67,318.95 297.13,470.32 96.38,166.82 164.78,355.34 217.18,562.27 308.42,1217.99 -2.22,2493.01 794.03,3119.61l327.16 269.57c99.21,101.88 -9.85,49.88 143.8,98.91z"/>
   <path class="fil3" d="M26438.87 17382.74c-290.36,-204.99 -1701.7,-540.26 -2162.17,-589.41 -458.52,-48.94 -878.86,-28.83 -1340.71,-23 -217.45,2.75 -444.22,-0.41 -660.31,-24.93 -195.91,-22.23 -365.03,-76.99 -537.81,-94.58 20.91,69.62 -30.17,96.15 215.49,139.58 906.5,160.24 1499.86,-7.07 2291.87,95.23 674.97,87.18 1051.63,208.99 1665.01,389.78 182.45,53.77 386.39,161.63 528.63,107.33z"/>
   <path class="fil8" d="M27804.46 15451.29c119.43,16.69 57.3,-39.74 102.48,35.19 -49.14,140.02 -122.38,257.15 -186.53,408.68 -136.84,323.2 -66.07,387.47 -225.6,415.86 51.42,119.85 44.41,145.66 102.1,224.47 201.37,-13.64 339.8,-242.62 425.78,-407.08 108.53,-207.62 176.16,-406.71 128.57,-676.43 -73.81,-30.82 -90.07,-61.77 -167.21,-65.37 -116.61,-5.44 -150.5,39.34 -179.59,64.68z"/>
   <path class="fil8" d="M28953.29 19856.63c136.22,-116.44 110.51,-200.11 310.59,-257.55 -47.17,150.56 15.39,28.76 -74.47,132.04 -245.79,282.49 -28.6,200.18 -243.89,293.2l22.16 -163.22c-159.97,150.41 -96.16,295.87 -14.04,430.81 287.5,3.15 380.94,-204.28 476.88,-427.83 197,-458.99 12.83,-481.36 -294.06,-467.28 -101.33,164.6 -183.34,151.45 -183.17,459.83z"/>
   <path class="fil4" d="M23762.98 6904.07c-479.34,-196.53 -3411.98,-754.45 -3595.89,-924.2l-161.55 4.65c32.32,92.65 -12.77,44.29 66.89,88.87 15.13,8.47 89.88,27.36 108.39,32.01l707.23 176.47c316.7,79.86 645.04,160.25 961.44,238.49l1415.21 346.04c336.93,77.82 380.16,146.35 498.29,37.67l-0.01 0z"/>
   <path class="fil3" d="M5771.68 7195.7l-64.96 128.15c-280.87,499.53 269.72,847.26 436.86,838.52 109.23,-5.72 58.37,-1.32 110.74,-48.92 -104.94,-64.06 -224.25,-61.76 -326.31,-137.09 -68.3,-50.41 -171.93,-169.07 -194.82,-297.52 -53.3,-299.12 153.1,-555.79 445.88,-477.93 55.9,223.02 -9.29,446.44 141.11,594.84 185.93,-71.8 730.89,-1039.2 688.7,-1359.55 -125.75,39.8 -78.29,223.94 -288.82,630.19 -114.83,221.58 -246.7,409.78 -360.28,589.44 -21.96,-33.19 -5.86,17.46 -37.34,-73.76 -130.06,-376.89 150.15,-659.94 -550.76,-386.37z"/>
   <path class="fil3" d="M6922.77 17038.7c83.82,49.56 48.77,43.75 164.82,-4.79 48.59,-20.33 121.41,-57.98 170.51,-80.18 120.22,-54.35 225.22,-98.99 347.59,-145.84 489.93,-187.57 1022.38,-336.65 1543.65,-427.71 131.92,-23.05 796.27,-80.25 881.85,-152.87 -105.6,-72.63 -277.12,-27.56 -436.7,-6.16 -642.58,86.2 -1392.07,241.09 -1983.21,484.17l-616.61 266.42c-86.86,57.82 -38.33,25.45 -71.9,66.96z"/>
   <path class="fil1" d="M6790.05 7901.76c0,155.77 231.32,371.08 618.94,341.52 405.69,-493.94 -618.94,-719.82 -618.94,-341.52z"/>
   <path class="fil5" d="M9201.25 3476.11c569.09,-60.36 2392.29,451.71 2988.21,611.92 113.27,-6.93 44.26,35.61 119.51,-31.52 -123.37,-116.63 -2584.2,-704.6 -2959.09,-683.88 -172.25,9.51 -162.93,-62.02 -148.63,103.48z"/>
   <path class="fil9" d="M28960.49 12452.42l96.52 21.74 -38.03 -277.16c-86.26,-71.85 -117.98,-169.64 -191.52,-272.7 -199.23,-279.19 -185.66,-237.06 -462.15,-455.81 -206.67,-163.51 -668.05,-428.07 -846.73,-600.7l-323.32 -382.91c-63.94,-99.82 -26.36,-81.79 -120.37,-101.12 11.75,635.5 1700.45,1080.54 1885.59,2068.66l0.01 0z"/>
   <path class="fil5" d="M5084.5 2856.33l-33.09 10c6.05,10.07 17.02,60.35 37.55,86.98 136.77,177.43 556.67,462.07 748.77,563.1 557.55,293.25 1749.64,417.77 2072.5,116.76 -60.26,-44.82 50.82,-30.81 -103.58,-30.57 -50.89,0.08 -370.67,112.8 -745.64,113.28 -462.19,0.58 -843.19,-114.55 -1200.23,-294.16 -433.27,-217.96 -613.04,-461.71 -726.15,-545.38 -50.55,-37.39 -4.72,-9.88 -50.13,-20.01z"/>
   <path class="fil3" d="M8960.99 10712c-310.66,228.07 -861.5,364.42 -1336.62,357.22 -416.37,-6.31 -1091.79,-193.97 -1300.24,-399.69 -95.25,14.56 -40.23,-30.73 -66.84,54.46 561.23,514.36 2030.17,611.81 2719.77,77.47 2.06,-60.98 10.33,-18.31 -16.07,-89.46z"/>
   <path class="fil8" d="M27780.82 18934.34c-23.68,458.07 322.05,1799.51 463.83,2247.33l8 -57.92c1.01,-9.51 2.46,-19.75 3.46,-30.63l4.59 -280.72c-24.67,-343.45 -399.47,-1436.41 -458.11,-2064.83 -73.36,67.39 -16.49,-14.88 -32.04,88.46 -1.12,7.47 9.24,86.03 10.27,98.32l0 -0.01z"/>
   <path class="fil3" d="M24547.89 14298.42c150.18,-37.88 375.65,-255.28 578.95,-395.52 177.48,-122.42 354.35,-247.46 549.66,-366.16 249.07,-151.38 1163.58,-586.17 1209.6,-660.8 -197.46,-107.16 -1585.57,787.43 -1822.51,961.94 -168,123.74 -459,259.57 -515.7,460.54z"/>
   <path class="fil3" d="M6818.92 5328.06c88.34,23.98 1464.36,-576.4 2102.25,537.41 37.04,64.69 37.56,71.13 64.22,145.07l86.45 172.63c14.73,-21.92 60.56,-19.62 20.63,-165.41 -184.72,-674.38 -1069.78,-1108.8 -1978.69,-850.99 -151.43,42.96 -243.74,38.02 -294.86,161.29z"/>
   <path class="fil3" d="M22105.28 18679.67c56.21,174.18 121.22,165.63 217.94,277.42 174.32,201.5 352.73,571.38 457.83,812.22 148.03,339.25 407.61,1212.52 437.15,1248.67 53.34,-61.92 31.8,93.25 37.36,-97.28 5.29,-181.37 -340.04,-1067.65 -404.6,-1220.55 -135.36,-320.59 -391.28,-888.54 -745.68,-1020.48z"/>
   <path class="fil10" d="M1190.49 17057.84c448.81,-25.06 765.08,-93.55 1249.18,-67.67 205.61,10.99 961.78,170.6 1047.23,119.09 -198.64,-232.66 -1413.76,-231.11 -1788.56,-201.45 -319.14,25.26 -442.76,3.87 -507.85,150.03z"/>
   <path class="fil3" d="M16550.71 8912.7c116.92,-85.97 868.69,-2084.76 901.39,-2258.59 -123.51,44.65 -61.85,-56.75 -174.98,246.01l-562.79 1447.3c-55.2,136.13 -227.34,463.29 -163.62,565.28z"/>
   <path class="fil3" d="M26957.65 9190.72c51.01,-77.68 -103.74,-452.51 -136.55,-586.38 -56.17,-229.12 -97.26,-458.41 -164.52,-682.66 -112.77,-375.93 -369.44,-899.31 -679.28,-962.03 11.57,234.02 333.78,90.04 600.77,1002.69 83.75,286.27 188.52,1087.74 379.58,1228.38z"/>
   <path class="fil5" d="M27769.99 6314.1l-0.79 -2.31c661.05,254.17 293.87,147.78 449.81,611.59 61.33,182.43 53.66,245.47 114.46,299.84 108.79,-159.15 -12.73,-223.52 -42.95,-380.2 -26.46,-137.23 12.16,-294.43 -47.02,-402.3 -76.44,-139.34 -184.67,-81.95 -325.9,-169.24 -113.11,-69.91 -99.54,-213.88 -135.8,-322.47 -130.31,-27.63 -298.63,-45.21 -437.09,-91.71 -290.52,-97.54 -135.4,-160.2 -316.14,-210.19 15.4,217.9 166.21,275.54 374.83,326.98 389.48,96.04 256.52,-40.96 366.59,340.01z"/>
   <path class="fil5" d="M5706.6 458.17c205.54,100.78 658.36,-299.73 1735.93,77.88 137.58,48.21 370.4,196.13 479.96,183.74 -41.57,-278.17 -1091.83,-468.56 -1625.58,-425.8l-449.26 76.73c-18.7,6.28 -59.82,23.53 -76.44,33.54 -65.67,39.53 -25.49,12.36 -64.61,53.91z"/>
   <path class="fil1" d="M25277.48 9193.09c165.31,48.16 275.02,-0.77 380.97,-85.72 104.16,-83.53 157.06,-160.62 126.39,-346.68 -277.13,-188.88 -640.08,142.13 -507.36,432.4z"/>
   <path class="fil11" d="M6197.62 9124.73c71.23,29.9 33.23,1256.73 26.75,1422.88 59.42,50.37 1.38,24.16 110.68,31.21l-42.53 -1758.43c-11.93,-196.48 4.27,-459.41 -78.18,-584.1 -24.17,39.23 -28.47,8.48 -39.06,88 -2.28,17.14 0.46,85.16 1.52,105.28 12.17,228.8 51.11,463.44 20.82,695.17l0 -0.01z"/>
   <path class="fil2" d="M12984.11 4292.39l-38.57 165.04c142.51,106.18 278.46,237.17 357.32,416.81l131.37 -40.76c118.9,16.09 48.35,22.62 78.42,-37.76l-51.56 -265.46c-148.38,-139.65 50.98,-100.79 -206.12,-175.08 -49.6,-14.33 -92.41,-25.35 -141.69,-40.65 -102.08,-31.69 -46.55,-43.3 -129.17,-22.14z"/>
   <path class="fil12" d="M7272.5 6379.43c-162.54,-23.91 -162.49,-67.3 -150.15,75.78 756.73,131.38 1100.36,167.64 1826.83,-74.08 9.13,-5.45 22.16,-25.68 27.22,-16.63 4.84,8.64 20.9,-11.82 27.31,-13.5 75.74,-19.94 22,-11.07 84.79,-11.52l-41.11 -90.82c-498.02,145.4 -1232.85,355.61 -1774.89,130.77z"/>
   <path class="fil5" d="M8719.07 3316.41c231.18,-122.9 508.81,-1335.19 406.81,-1679.9 -42.77,-144.57 -10.95,-41.34 -54.04,-95.41 -28.52,43.25 -24.99,3.33 -35.32,82.78 -19.74,151.77 74.06,338.64 -80.17,910.08 -46.03,170.53 -271.66,681.68 -237.28,782.45z"/>
   <path class="fil3" d="M8440.26 7953.25c-104.05,58.07 -164.73,56.55 -206.84,188.01 230.74,6.99 361.37,-193.33 267.14,-442.79 -134.93,-357.25 -349.91,-675.17 68.31,-757.58 125.36,-24.71 201.34,-8.84 298.56,-62.17 -179.03,-161.23 -642.92,12.09 -637.11,280.49 6.07,280.18 219.98,498.15 209.94,794.04z"/>
   <path class="fil3" d="M6818.04 11253.16c270.49,284.93 1129.98,279.41 1588.08,147.11 134.05,-38.72 116.87,-17.1 160.71,-110.62 -136.41,-50.36 -809.43,276.91 -1528.63,-15.84 -246.02,-100.14 -191.58,-38.99 -220.16,-20.65z"/>
   <polygon class="fil2" points="13939.15,4541.91 13516.84,4437.53 13644.95,4885.27 14042.62,4959.19 "/>
   <path class="fil3" d="M5765.59 7081.41l81.38 -8.22 5.67 -119.77c-2.84,-1048.1 682.5,-1341.87 735.81,-1509.02 -203.7,-19.57 -541.24,457.45 -624.83,618.99 -166.56,321.85 -202.06,615.96 -198.03,1018.02z"/>
   <path class="fil3" d="M4406.39 19931.48c43.83,109.66 -39.42,52.31 342.17,162.74l1037.86 269.33c267.76,62.22 187.03,13.98 222.79,-8.74 -42.47,-38.28 15.74,-14.59 -62.1,-47.11 -202.19,-84.46 -1521.05,-382.64 -1540.72,-376.22z"/>
   <path class="fil3" d="M29081.39 11856.09l169.3 696.51c71.45,-67.27 33.95,93.63 52.56,-98.52 0.94,-9.79 -16.23,-125.94 -19.05,-142.79 -111.12,-665.18 -218.22,-826.86 -636.48,-1193.85 -58.38,-51.23 -9.12,0.36 -32.21,-39.2 -11.69,1.15 -88.98,19.53 -95.87,8.49 -6.45,-10.32 -13.88,17.05 -21.11,25.32 30.24,34.66 15.77,24.51 58.73,58.62 111.55,88.56 176.91,74.83 302.08,261.53 99.06,147.77 154.38,222.18 222.05,423.89z"/>
   <path class="fil3" d="M23077.09 12589.69c-69.16,75.85 67.14,251.06 113.59,348.97l415.58 1113.94c141.1,-209.65 -420.11,-1398.87 -529.17,-1462.91z"/>
   <path class="fil1" d="M24007.61 9478.59l24.47 -289.4c54.58,86.94 244.75,78.32 255.58,-122.37 9.06,-167.82 -71.01,-266.07 -222.98,-318.94l-26.98 -116.27c-62.13,104.63 -61.76,272.23 -68.29,401.72 -7.13,141.54 -27.98,347.98 38.2,445.26z"/>
   <path class="fil3" d="M24258.49 8078.16c49.67,30.35 -19.45,26.96 121.29,39.25 57.66,5.03 217.03,-30.85 278.06,94.73 39.89,379.7 -141.48,424.37 -228.17,712.69 62.22,108.28 66.59,146.49 201.38,173.6 -21.33,-132.71 -20.51,-80.76 -100.14,-167.86 11.3,-41.83 557.84,-902.95 -78.24,-913.83 -2.58,-0.04 -88.54,4.97 -91.33,5.64 -139.02,33.79 -55.77,8.23 -102.85,55.78z"/>
   <path class="fil1" d="M9075.46 7959.48c-6.52,-191.47 26.12,-513.07 -50.37,-652.86l-26.89 307.25c-322.42,105 -364.08,643.01 77.26,345.61z"/>
   <path class="fil3" d="M8463.97 8536.77c-112.52,-73.4 -248.69,42.43 -429.93,-19.91 -137.44,-47.26 -76.68,-25.48 -88.25,-113 168.44,6.58 503.02,70.18 603.28,-78.75 -110.38,-47.83 -209.99,-3.43 -358.35,-4.87 -140.35,-1.37 -345.63,-58.8 -351.14,110.2 -7.15,219.04 483.83,267.51 624.39,106.33z"/>
   <path class="fil13" d="M8118.18 16968.14c135.47,46.22 422.21,-34.78 600.88,-38.48 184.1,-3.82 501.09,66.66 623.65,3.63 -87.38,-120.25 -437.29,-99.8 -625.06,-95.23 -153.19,3.72 -527.36,-4.78 -599.47,130.08z"/>
   <path class="fil14" d="M534.61 17471.07c-30.45,-67.82 47.83,-61.14 -80.19,-45.23l-380.07 119.57c38.94,194.93 164.56,231.36 386.82,258.05l73.44 -332.39z"/>
   <path class="fil3" d="M20047.28 12349.14c162.96,99.37 357.66,121.26 548.54,257.62 268.81,192.03 337.26,313.24 480.83,349.36 -52.98,-282.24 -364.36,-295.26 -531.1,-520.18l-462.31 -156.48 -35.96 69.68z"/>
   <path class="fil9" d="M7423.67 6173.16c28.67,56.88 -34.57,19.11 61.18,69.7 115.8,61.19 902.95,174.41 1080.54,0.86 -102.9,-86.33 -421.95,-3.25 -588.76,-12.11 -151.43,-8.03 -461.7,-103.98 -552.96,-58.45z"/>
   <path class="fil1" d="M8061.47 9086.51c220.38,112.72 549.55,0.96 456.68,-171.72 -70.14,-130.43 -448.42,-121.63 -456.68,171.72z"/>
   <path class="fil5" d="M28110.3 7930.49c75.48,-516.11 174.79,-365.07 236.13,-596.04 -201.43,53.91 -281.11,283.47 -313.86,485.27 -166.7,51.68 -471.94,181.07 -404.68,400.89 187.04,-62.11 54.92,-75.34 181.35,-208.07 83.71,-87.87 172.3,-65.52 301.06,-82.05z"/>
   <path class="fil7" d="M24100.31 7374.77c-65.73,77.19 -9.3,-8.92 -61.6,40.48 -58.46,55.22 -33.69,5.05 -63.92,96.35 361.48,-41.47 929.31,-487.35 966.57,-737.64 -218.06,16.66 -30.78,88.55 -365.3,332.86 -134.59,98.29 -274.04,219.58 -475.75,267.95z"/>
   <path class="fil2" d="M14301.33 5002.6c169.46,22.33 47.24,20.31 97.64,-35.31l-72.82 -275.23c-99.01,-127.6 30.34,-40.74 -116.55,-98.33 -7.89,-3.09 -74.15,-18.96 -81.13,-19.28 -94.66,-4.36 -26.95,-26.27 -83.76,25.22 12.24,87.34 35.85,149.21 63.32,242.24 51.94,175.89 -12.51,150.22 193.3,160.69z"/>
   <path class="fil3" d="M25890.47 17971.96l150.13 57.78c117.13,-22.46 53.28,32.87 105.74,-38.54 -104.66,-108.01 -351.14,-201.25 -502.88,-273.65l-381.52 -186.66c-62.74,-21.71 -15.98,-10.21 -73.22,-13.43l-47.61 15.13c130.71,194.28 572.13,252.95 749.36,439.37z"/>
   <path class="fil3" d="M17574.51 5502.46c-94.69,239.63 -162.91,538.34 -175.96,810.34 -0.82,17.03 -4.27,174.13 -3.08,180.44 29.5,156.03 -17.09,54.94 86.74,102.58l49.91 -619.2 108.25 -419.85 -14.92 -73.09 -50.94 18.78z"/>
   <path class="fil3" d="M4155.52 14929.32c113.53,164.78 15.18,654.65 189.1,771.22 83.1,-168.25 -68.09,-768.64 -104.91,-989.99l-74.12 35.1 -10.07 183.67z"/>
   <path class="fil15" d="M25385.23 5517.96l-83.77 6.26c-77.68,112.25 -108.22,96.76 -198.64,204.6 -104.6,124.77 -393.94,519.58 -332.4,678.98 96.73,-29.87 14.78,74.83 94.73,-102.92 271.96,-604.68 498.33,-589.72 520.08,-786.92z"/>
   <path class="fil3" d="M6466.52 7182.38c184.16,-111.26 410.31,-787.08 375.06,-1003.37l-27.51 -56.19c-95.62,94.21 -117.87,448.1 -171.73,584.84 -123.47,313.5 -235.57,376.93 -175.82,474.72z"/>
   <path class="fil3" d="M24850.6 9363.15c79.49,-65.84 57.82,-44.11 180.04,-63.84 -39.56,92.99 62.11,35.62 -80.23,87.88l-349.9 58.78c95.87,164.81 536.12,59.71 527.3,-203.64 -76.51,-35.17 -554.74,-6.04 -606.76,70.56 110.94,62.31 183.57,27.52 329.55,50.26z"/>
   <path class="fil7" d="M23294.58 11182.43c76.78,78.44 5.3,29.63 96.8,70.56 -4.67,-251.84 -85.13,-350.03 6.67,-630.52 53.5,-163.49 344.72,-508.23 141.6,-389.69 -278.57,162.57 -288.16,683.84 -245.07,949.65z"/>
   <path class="fil3" d="M6769.08 5562.33c137.08,153.96 148.49,449 186.57,645.78 38.56,199.16 15.69,113.29 116.95,151.22l-14.57 -185.98c-56.8,-148.05 -74.9,-409.34 -169.2,-639.22 -49.79,-121.38 -47.91,-131.75 -146.18,-167.22 -29.73,112.76 17.61,66.15 26.43,195.42z"/>
   <path class="fil12" d="M14265.8 6160.87c33.68,-90.25 9.25,-372.73 31.71,-516.04 24.44,-155.92 92.87,-285.39 101.08,-420.6 -139.58,54.83 -160.31,182.9 -196.17,429.6 -18.63,128.17 -72.18,446.53 63.38,507.04z"/>
   <path class="fil3" d="M23851.67 20425.54c-48.35,-34.15 -171.32,-234.39 -243.5,-318.4l-267.76 -311.43 -109.52 -25.92c-11.28,126.12 33.51,98.97 133.72,191.59 153.85,142.2 352.54,491.9 467.89,563.72l19.17 -99.56z"/>
   <path class="fil3" d="M14213.99 6793.38c151.25,196.08 128.48,611.77 255.33,763.96 19.83,-30.6 72.25,25.13 11.12,-231.75l-122.86 -477.95c-46.29,-160.66 -6.49,-156.08 -130.68,-175.53l-12.91 121.27z"/>
   <path class="fil9" d="M27494.83 16311.02c159.53,-28.39 88.76,-92.66 225.6,-415.86 64.15,-151.53 137.39,-268.66 186.53,-408.68 -45.18,-74.93 16.95,-18.5 -102.48,-35.19 -5.48,100.31 -261.93,578.86 -309.65,859.73z"/>
   <path class="fil4" d="M25469.91 6301.71c199.7,-59.34 52.34,-35.66 174.55,-102.36 70.11,-38.26 120.99,-30.8 194.51,-47.94 167.61,-39.08 226.7,-101.62 297.17,-187.14l44.37 -211.68c-150.72,53.23 -52.28,51.47 -138.1,175.53 -171.47,247.92 -553.29,46.98 -572.5,373.59z"/>
   <path class="fil3" d="M4768.56 20424.45c42.71,88.78 -53.78,17.85 63.97,112.73 40.1,32.31 46.39,23.3 91.9,48.94 174.94,98.58 375.75,224.98 573.16,282.58 12.73,-119.85 14.26,-85.73 -136.02,-155.03 -196.69,-90.7 -455.84,-270.39 -593.01,-289.22z"/>
   <path class="fil3" d="M19995.19 12545.49c-1.69,117.16 156.06,137.93 346.74,243.36 132.18,73.08 282.72,202.46 397.11,154.28 -53.35,-102.08 -638.91,-414.16 -743.85,-397.64z"/>
   <path class="fil3" d="M7232.54 7138.53c292.02,-18.33 326.13,-97.17 711.56,-80.75 -38.91,-110.67 -78.9,-144.59 -369.81,-89.1 -55.26,10.54 -150.48,34.34 -197.43,48.29 -143.62,42.66 -97.93,14.45 -144.32,121.56z"/>
   <path class="fil5" d="M26541.65 5901.85l232.57 -0.08 118.07 -74.04c94.5,-79.85 36.05,-3.16 72.03,-129.81 -153.07,41.2 -181.67,116.53 -358.58,93.25 -156.28,-20.56 -136.76,-93.57 -270.49,-100.95 6.41,185.24 -1.97,32.85 206.4,211.63z"/>
   <path class="fil12" d="M5616.15 10878.05c57,-65.75 38.74,-34.68 70.62,-123.18l-142.53 6.45 -391.67 170.74c-149.1,81.38 -63.5,2.22 -97.48,109.44 117.2,47.69 325.94,-172.62 561.06,-163.45z"/>
   <path class="fil3" d="M23499.51 11147.14c42.58,93.07 -7.85,45.73 96.73,72.38 -12.32,-265.33 18.78,-410.13 18.9,-636.15 -113.21,48.94 -99.57,62.52 -118.49,209.76 -18.29,142.36 -9.74,212.95 2.86,354.01z"/>
   <path class="fil3" d="M25035.68 8274.93c111.68,-15.64 221.36,-44.51 336.12,-34.5 130.23,11.37 135.06,74.17 264.38,14.12 -105.12,-128.1 -367.52,-123.18 -471.22,-101.47 -186.7,39.07 -86.76,19.94 -129.28,121.85z"/>
   <path class="fil3" d="M17714.88 7719.35c92.72,-50.89 31.46,30.51 91.98,-113.32l168.3 -490.64c-118.42,44.07 -72.91,-14.13 -132.99,139.27 -71.75,183.21 -179.81,374.54 -127.29,464.69z"/>
   <path class="fil3" d="M1926.89 20090.99c99.31,-18.86 185.21,-103.91 263.35,-161.64 113.94,-84.18 163.94,-66.62 213,-214.74 -113.61,13.08 -487.06,234.63 -476.35,376.38z"/>
   <path class="fil3" d="M28953.29 19856.63l14.39 4.47 -22.16 163.22c215.29,-93.02 -1.9,-10.71 243.89,-293.2 89.86,-103.28 27.3,18.52 74.47,-132.04 -200.08,57.44 -174.37,141.11 -310.59,257.55z"/>
   <path class="fil4" d="M22367.63 5963.22c107.98,-28.3 124.83,-50.85 166.44,-190.23 76.15,-255.06 -21.39,-282.39 -21.42,-282.44 -56.59,68.89 -32.33,-3.79 -54.75,147.53 -41.44,279.81 -59.49,138.05 -90.27,325.14z"/>
   <path class="fil3" d="M14761.2 7655.94c-2.71,-150.34 -57.96,-371.73 -150.77,-458.18 -38.29,51.5 -49.07,-87.11 -32.89,96.04 0.41,4.58 38.41,116.84 45.28,138.37 43.69,137.06 12.98,165.91 138.38,223.77z"/>
   <path class="fil3" d="M11651.41 15827.55c87.61,-54.04 149.38,-198.21 164.89,-318.25 23.26,-179.88 -5.24,-95.71 -28.09,-132.34 -50.22,52.78 -182.74,365.45 -136.8,450.59z"/>
   <path class="fil9" d="M6353.21 6666.01c103.91,-35.97 98.47,-40.18 146.5,-171.02 105.85,-288.39 8.61,-239.61 -3.14,-255.75 -37.1,45.59 -17.94,-11.04 -55.75,97.63 -8.9,25.57 -13.44,71.67 -24.39,109.31 -33.63,115.59 -50.56,88.63 -63.22,219.83z"/>
   <path class="fil15" d="M10612.63 2694.24c88.29,-31.25 50.18,-10.27 107.12,-59.33l215.68 -237.86c-206.93,2.99 -280.14,107.9 -322.8,297.19z"/>
   <path class="fil10" d="M7960.7 10720.74c103.66,-44.74 111.08,-92.84 115.38,-211.68 4.85,-133.73 -1.26,-158.75 -86.86,-196.55l-28.52 408.23z"/>
   <path class="fil16" d="M24982.09 11462.96c92.05,-86.5 117,-228.6 83.15,-348.23 -22.09,11.52 -104.52,-16.68 -113.37,252.28 -5.34,162.34 -8.84,41.4 30.22,95.95z"/>
   <path class="fil3" d="M5895.42 7513.71c44.75,74.63 -49.55,5.43 84.74,92.46 54.19,35.13 89.58,45.65 166.24,59.67 -41.51,-109.89 -128.63,-212.21 -250.98,-152.13z"/>
   <path class="fil12" d="M7625.46 7696.36c30.8,-39.18 70.76,52.61 37.63,-254.89 -147.86,62.71 -120.31,168.98 -37.63,254.89z"/>
   <path class="fil12" d="M27063.48 9497.28c0.83,-1.65 139.73,-72.33 -70.56,-209.94 -106.57,181.27 65.1,206.77 70.56,209.94z"/>
   <path class="fil3" d="M2702.46 11164.35c0.3,-1.05 127.92,-65.7 -86.44,-165.85 -5.28,9.4 -135.31,183.98 86.44,165.85z"/>
   <path class="fil17" d="M13873.85 13934.27c20.66,39.43 -6.1,111.75 128.26,70.66 67.88,-20.76 66.74,-53.52 70.85,-129.97l-199.11 59.31z"/>
   <path class="fil16" d="M4125.2 14362.06c-24.47,-122.34 -5.72,-42.03 -62.8,-82.8 -20.2,36.49 -56.01,25.83 -29.95,140.7 24.25,106.85 39.64,58.4 65.23,78.27 14.56,-26.59 52.08,-13.45 27.52,-136.17z"/>
   <path class="fil16" d="M25115.11 8759.31c118.86,-42.11 59.07,74.88 96.93,-81.43 30.06,-124.08 -37.56,-112.53 -53.57,-127.62 -66.48,84.71 -42.91,85.83 -43.36,209.05z"/>
   <path class="fil13" d="M10163.03 9634.21c104.7,40.81 149.36,-9.65 116.24,-116.93 -38.41,-11.02 -42.66,-48.16 -104.89,16.5 -73.37,76.24 -14.35,93.01 -11.35,100.43z"/>
   <path class="fil18" d="M8683.78 7516.54c38.53,-27.49 63.86,13.72 62.04,-106.71 -1.92,-127.07 -51.99,-92.91 -62.04,-99.99 -70.61,102.91 -57.3,116.96 0,206.7z"/>
   <path class="fil19" d="M24347.08 8688.02c13.49,-18.42 57.27,52.24 51.54,-115.63 -4.84,-141.81 -39.22,-78.51 -51.54,-89.45 -18.17,26.31 -40.97,17.93 -42.02,90.65 -3.27,226.46 -15.25,35.55 42.02,114.43z"/>
   <path class="fil18" d="M17961.82 10908.02c21.32,-26.64 35.9,36 56.45,-90.82 24.92,-153.77 -2.52,-56.42 -21.17,-102.33 -36.21,23.68 -54.06,-34.42 -71.93,82.9 -28.38,186.24 11.57,74.2 36.65,110.25z"/>
   <path class="fil3" d="M30276.16 12978.56l43.55 -164.05c-80.46,16.04 -112.24,16.55 -132.53,81.52 -27.7,88.69 26.3,68.54 88.98,82.53z"/>
   <path class="fil3" d="M20485.4 9399.06c25.59,-125.87 35.28,-104.28 -89.43,-125.55 -69.65,132.79 -22.24,147.24 89.43,125.55z"/>
   <path class="fil20" d="M8949.18 6381.13c86.99,49.23 38.16,-43.95 63.8,144.62 15.25,112.17 -19.96,74.8 29.27,173.87 7.94,-87.37 -2.03,-103.81 -0.4,-178.18 5.09,-232.41 -24.1,-122.38 69.4,-139.16l-22.75 -42.8c-62.79,0.45 -9.05,-8.42 -84.79,11.52 -6.41,1.68 -22.47,22.14 -27.31,13.5 -5.06,-9.05 -18.09,11.18 -27.22,16.63z"/>
   <path class="fil21" d="M24377.45 10935.47l43.26 -111.3c146.02,23.03 170.55,43.27 283,-30.36l-317.18 4.93 -9.08 136.73z"/>
   <path class="fil12" d="M6345.74 17469.61c120.83,-36.41 136.12,-12.4 136.02,-133.89 -138.39,11.39 -100.4,-2.97 -136.02,133.89z"/>
   <path class="fil16" d="M8726.23 11247.72c129.57,-5.98 104.25,-3.34 137.83,-105.41 -90.39,13.27 -138.75,11.14 -137.83,105.41z"/>
   <path class="fil22" d="M24950.41 9387.18c142.34,-52.26 40.67,5.11 80.23,-87.88 -122.22,19.73 -100.55,-2 -180.04,63.84 164.67,-1.47 46.73,-5.34 99.81,24.04z"/>
   <path class="fil23" d="M27073 10198.1c-22.69,-188.05 29.06,-68.35 -99.98,-120.24 40.76,150.39 -20.36,79.26 99.98,120.24z"/>
   <path class="fil24" d="M2686.4 16403.7c67.5,114.81 80.58,64.87 133.28,-1.75 -86.26,-39.56 -37,-43.97 -133.28,1.75z"/>
   <polygon class="fil25" points="23179.55,11465.64 23269.92,11456.24 23268.56,11423.26 23092.55,11380.78 "/>
   <path class="fil25" d="M27780.82 18934.34c-1.03,-12.29 -11.39,-90.85 -10.27,-98.32 15.55,-103.34 -41.32,-21.07 32.04,-88.46l2.76 -18.69 -85.27 40.13 60.74 165.34z"/>
   <path class="fil20" d="M817.75 17246l-121.36 6.04 19.56 -104.03c-73.5,92.12 -39.08,20.18 -45.2,141.24l147 -43.25z"/>
   <path class="fil26" d="M13410.99 16681.62c21.98,-37.19 41.72,-33.64 0,-113.69 -69.42,59.28 -24.76,-26.22 -35.57,71.39 -17.12,154.65 -28.02,-20.79 35.57,42.3z"/>
   <path class="fil27" d="M27919.99 18624.92l-150.97 13.66c-24.13,-25.68 -35.94,14.06 -67.63,-58.41l34.09 94.14 184.51 -49.39z"/>
   <polygon class="fil28" points="29292.06,13119.63 29298.1,13084.42 29286.05,13011.45 29225.51,12999.87 "/>
   <path class="fil29" d="M27179.37 12039.82c64.51,0.94 52.85,16.17 34.82,-45.82l-81.44 -35.58c52,52.54 14.15,20.73 46.62,81.4z"/>
   <path class="fil28" d="M14301.33 5002.6l129.37 54.8 -31.73 -90.11c-50.4,55.62 71.82,57.64 -97.64,35.31z"/>
   <path class="fil28" d="M534.61 17471.07l32.79 -73.51c-94.28,-7.88 -53.13,-8.11 -112.98,28.28 128.02,-15.91 49.74,-22.59 80.19,45.23z"/>
   <path class="fil30" d="M13434.23 4833.47l114.1 41.39 -35.68 -79.15c-30.07,60.38 40.48,53.85 -78.42,37.76z"/>
  </g>
 </g>
</svg>
