<svg width="37" height="33" viewBox="0 0 37 33" fill="none" xmlns="http://www.w3.org/2000/svg">
<path d="M2.75 30C2.75 31.2656 3.73438 32.25 5 32.25H16.25V21H2.75V30ZM20.75 32.25H32C33.1953 32.25 34.25 31.2656 34.25 30V21H20.75V32.25ZM34.25 9.75H31.2266C31.7188 8.90625 32 7.99219 32 6.9375C32 3.5625 29.1875 0.75 25.8125 0.75C22.8594 0.75 20.9609 2.29688 18.5703 5.60156C16.1094 2.29688 14.2109 0.75 11.3281 0.75C7.88281 0.75 5.14062 3.5625 5.14062 6.9375C5.14062 7.99219 5.35156 8.90625 5.84375 9.75H2.75C1.48438 9.75 0.5 10.8047 0.5 12V17.625C0.5 18.2578 0.992188 18.75 1.625 18.75H35.375C35.9375 18.75 36.5 18.2578 36.5 17.625V12C36.5 10.8047 35.4453 9.75 34.25 9.75ZM11.2578 9.75C9.71094 9.75 8.44531 8.55469 8.44531 6.9375C8.44531 5.39062 9.71094 4.125 11.2578 4.125C12.6641 4.125 13.7188 4.40625 17.375 9.75H11.2578ZM25.8125 9.75H19.6953C23.3516 4.40625 24.3359 4.125 25.8125 4.125C27.3594 4.125 28.625 5.39062 28.625 6.9375C28.625 8.55469 27.3594 9.75 25.8125 9.75Z" fill="#E84C3D"/>
</svg>
