<svg width="1783" height="1301" viewBox="0 0 1783 1301" fill="none" xmlns="http://www.w3.org/2000/svg">
<path d="M155.66 805.494C240.213 871.494 334.659 869.994 505.659 830.913C587.712 812.16 663.212 813.955 755.676 830.913C867.146 851.357 961.282 947.087 1043.59 997.479C1195.51 1090.8 1417.51 992.45 1408 830.912C1405.44 789.607 1370.63 727.082 1423.81 695.998C1486.71 648.994 1552.21 694.494 1618.21 648.994C1684.21 603.494 1688.5 501.736 1658.5 433.736C1630.48 370.216 1579.29 349.131 1513 340.735C1430.1 330.235 1364.28 335.976 1291 370.735C1217.71 405.495 1171.5 460.495 1077.21 460.495C982.928 460.495 910.718 423.206 849.214 407.495C724.84 375.536 570.211 331.993 423.212 331.994C270.711 331.995 146.18 379.494 91.7123 460.495C51.5793 520.178 49.9842 583.825 61.6595 644.994C72.5166 703.192 106.712 767.288 155.66 805.494Z" fill="#20263B"/>
<path d="M1420.1 894.019C1420.1 904.812 1411.59 913.626 1401.17 913.626C1390.75 913.626 1382.24 904.812 1382.24 894.019C1382.24 883.226 1390.75 874.412 1401.17 874.412C1411.59 874.412 1420.1 883.226 1420.1 894.019Z" fill="#E3E4E6"/>
<path d="M1255 979.619C1255 1007.95 1278.05 1031 1306.38 1031C1334.71 1031 1357.77 1007.95 1357.77 979.619C1357.77 951.287 1334.71 928.235 1306.38 928.235C1278.05 928.411 1255 951.287 1255 979.619Z" fill="#E84C3D"/>
<path d="M1234.69 912.745C1229.77 912.745 1225.9 908.876 1225.9 903.951C1225.9 899.027 1229.77 895.158 1234.69 895.158C1239.62 895.158 1243.48 899.027 1243.48 903.951C1243.48 908.7 1239.62 912.745 1234.69 912.745ZM1234.69 896.917C1230.82 896.917 1227.66 900.082 1227.66 903.951C1227.66 907.82 1230.82 910.986 1234.69 910.986C1238.56 910.986 1241.73 907.82 1241.73 903.951C1241.73 899.907 1238.56 896.917 1234.69 896.917Z" fill="white"/>
<path d="M1456.97 521.476H1275C1268.49 521.476 1263.22 516.329 1263.22 509.982C1263.22 503.635 1268.49 498.488 1275 498.488H1456.97C1463.48 498.488 1468.75 503.635 1468.75 509.982C1468.75 516.329 1463.48 521.476 1456.97 521.476Z" stroke="white" stroke-miterlimit="10"/>
<path d="M1018.5 461.307C1018.5 466.807 1014.03 471.448 1008.35 471.448C1002.85 471.448 998.213 466.979 998.213 461.307C998.213 455.806 1002.68 451.165 1008.35 451.165C1014.03 451.165 1018.5 455.806 1018.5 461.307Z" fill="#E84C3D"/>
<path d="M1095.57 716.201H1077.99V733.779H1095.57V716.201Z" stroke="white" stroke-miterlimit="10"/>
<path d="M1077.99 791.927H1041.48V828.436H1077.99V791.927Z" fill="#FDD500"/>
<path d="M1195.04 596.519L1185.22 606.343L1195.04 616.167L1204.87 606.343L1195.04 596.519Z" fill="white"/>
<path d="M1250.61 596.511L1240.79 606.335L1250.61 616.159L1260.44 606.335L1250.61 596.511Z" fill="white"/>
<path d="M1306.18 596.493L1296.35 606.317L1306.18 616.141L1316 606.317L1306.18 596.493Z" fill="#C4C4C4"/>
<path d="M1280.89 780.424L1234.11 745.895C1226.55 740.462 1224.96 729.77 1230.59 722.409C1236.04 714.872 1246.77 713.294 1254.16 718.903L1280.54 738.359C1286.52 742.74 1294.79 742.74 1300.77 738.183L1340.34 708.036C1346.32 703.479 1354.59 703.479 1360.57 707.861L1400.5 737.307C1406.48 741.689 1414.75 741.689 1420.73 737.132L1460.3 706.985C1466.28 702.427 1474.55 702.427 1480.53 706.809L1520.63 736.255C1526.61 740.637 1534.88 740.637 1540.86 736.08L1580.43 705.933C1586.41 701.376 1594.68 701.376 1600.66 705.758L1647.62 740.287C1655.18 745.72 1656.77 756.412 1651.14 763.773C1645.69 771.31 1634.96 772.887 1627.57 767.279L1601.19 747.823C1595.21 743.441 1586.94 743.441 1580.96 747.999L1541.21 778.146C1535.23 782.703 1526.96 782.703 1520.98 778.321L1480.88 748.875C1474.9 744.493 1466.63 744.493 1460.65 749.05L1421.08 779.022C1415.1 783.579 1406.83 783.579 1400.85 779.197L1360.92 749.927C1354.94 745.545 1346.68 745.545 1340.7 750.102L1301.12 780.249C1295.14 784.631 1286.87 784.806 1280.89 780.424Z" stroke="white" stroke-miterlimit="10"/>
</svg>
