<svg width="375" height="858" viewBox="0 0 375 858" fill="none" xmlns="http://www.w3.org/2000/svg">
<path d="M11.6038 530.943C67.3373 574.447 129.592 573.458 242.307 547.697C296.392 535.337 346.158 536.519 407.105 547.697C480.581 561.173 542.631 624.273 596.885 657.49C697.022 719.005 843.355 654.175 837.085 547.697C835.401 520.47 812.457 479.257 847.51 458.768C888.969 427.785 932.144 457.776 975.648 427.785C1019.15 397.794 1021.98 330.72 1002.2 285.897C983.731 244.029 949.989 230.13 906.296 224.596C851.653 217.675 808.271 221.459 759.964 244.371C711.658 267.283 681.196 303.536 619.048 303.536C556.899 303.536 509.302 278.957 468.761 268.601C386.78 247.535 284.856 218.834 187.961 218.834C87.4404 218.835 5.35513 250.144 -30.5471 303.536C-57.0008 342.876 -58.0522 384.829 -50.3565 425.149C-43.1999 463.51 -20.6597 505.759 11.6038 530.943Z" fill="#20263B"/>
<path d="M351 557.869C351 576.544 366.195 591.739 384.869 591.739C403.544 591.739 418.739 576.544 418.739 557.869C418.739 539.195 403.544 524 384.869 524C366.195 524.116 351 539.195 351 557.869Z" fill="#E84C3D"/>
<path d="M214.414 268.581C214.414 272.207 211.469 275.266 207.73 275.266C204.104 275.266 201.045 272.32 201.045 268.581C201.045 264.956 203.991 261.897 207.73 261.897C211.469 261.897 214.414 264.956 214.414 268.581Z" fill="#E84C3D"/>
<path d="M265.22 449.595H253.633V461.182H265.22V449.595Z" stroke="white" stroke-miterlimit="10"/>
<path d="M253.631 499.51H229.566V523.575H253.631V499.51Z" fill="#FDD500"/>
<path d="M331.476 293.017L325 299.493L331.475 305.968L337.951 299.493L331.476 293.017Z" fill="white"/>
<path d="M368.104 293.012L361.629 299.488L368.104 305.963L374.58 299.488L368.104 293.012Z" fill="white"/>
<path d="M387.375 491.928L356.535 469.169C351.55 465.587 350.507 458.54 354.217 453.687C357.811 448.719 364.883 447.68 369.752 451.377L387.143 464.201C391.085 467.089 396.534 467.089 400.475 464.085L426.561 444.214C430.503 441.21 435.952 441.21 439.894 444.098L466.212 463.508C470.154 466.396 475.603 466.396 479.544 463.392L505.63 443.521C509.572 440.517 515.021 440.517 518.963 443.405L545.397 462.814C549.338 465.703 554.787 465.703 558.729 462.699L584.815 442.827C588.757 439.824 594.206 439.824 598.148 442.712L629.103 465.472C634.088 469.053 635.132 476.101 631.422 480.953C627.828 485.921 620.756 486.961 615.886 483.263L598.496 470.439C594.554 467.551 589.105 467.551 585.163 470.555L558.961 490.426C555.019 493.43 549.57 493.43 545.628 490.542L519.195 471.133C515.253 468.244 509.804 468.244 505.862 471.248L479.776 491.004C475.834 494.008 470.385 494.008 466.444 491.12L440.126 471.826C436.184 468.938 430.735 468.938 426.793 471.941L400.707 491.813C396.765 494.701 391.316 494.817 387.375 491.928Z" stroke="white" stroke-miterlimit="10"/>
</svg>
