<svg width="61" height="79" viewBox="0 0 61 79" fill="none" xmlns="http://www.w3.org/2000/svg">
<path d="M6.6394 37.4698H6.27305C5.75001 37.4698 5.32617 37.8936 5.32617 38.4167C5.32617 38.9391 5.75001 39.3635 6.27305 39.3635H6.6394C7.16244 39.3635 7.58628 38.9391 7.58628 38.4167C7.58628 37.8936 7.16244 37.4698 6.6394 37.4698Z" fill="#3D5A9B"/>
<path d="M13.0697 37.4698H10.2984C9.7754 37.4698 9.35156 37.8936 9.35156 38.4167C9.35156 38.9391 9.7754 39.3635 10.2984 39.3635H13.0697C13.5922 39.3635 14.0166 38.9391 14.0166 38.4167C14.0166 37.8936 13.5922 37.4698 13.0697 37.4698Z" fill="#3D5A9B"/>
<path d="M36.6544 37.4697H16.7906C16.2676 37.4697 15.8438 37.8936 15.8438 38.4166C15.8438 38.9391 16.2676 39.3635 16.7906 39.3635H36.6544C37.1775 39.3635 37.6013 38.9391 37.6013 38.4166C37.6013 37.8936 37.1775 37.4697 36.6544 37.4697Z" fill="#3D5A9B"/>
<path d="M6.63745 31.1592H6.27109C5.74806 31.1592 5.32422 31.583 5.32422 32.1061C5.32422 32.6285 5.74806 33.0529 6.27109 33.0529H6.63745C7.16048 33.0529 7.58432 32.6285 7.58432 32.1061C7.58432 31.583 7.16048 31.1592 6.63745 31.1592Z" fill="#3D5A9B"/>
<path d="M13.0697 31.1592H10.2984C9.7754 31.1592 9.35156 31.583 9.35156 32.1061C9.35156 32.6285 9.7754 33.0529 10.2984 33.0529H13.0697C13.5922 33.0529 14.0166 32.6285 14.0166 32.1061C14.0166 31.583 13.5922 31.1592 13.0697 31.1592Z" fill="#3D5A9B"/>
<path d="M15.8418 32.1051C15.8418 32.6276 16.2656 33.052 16.7887 33.052H36.6525C37.1755 33.052 37.5994 32.6276 37.5994 32.1051C37.5994 31.582 37.1755 31.1582 36.6525 31.1582H16.7887C16.2656 31.1582 15.8418 31.582 15.8418 32.1051Z" fill="#3D5A9B"/>
<path d="M6.63745 43.7842H6.27109C5.74806 43.7842 5.32422 44.208 5.32422 44.7311C5.32422 45.2535 5.74806 45.6779 6.27109 45.6779H6.63745C7.16048 45.6779 7.58432 45.2535 7.58432 44.7311C7.58432 44.208 7.16048 43.7842 6.63745 43.7842Z" fill="#3D5A9B"/>
<path d="M13.0697 43.7842H10.2984C9.7754 43.7842 9.35156 44.208 9.35156 44.7311C9.35156 45.2535 9.7754 45.6779 10.2984 45.6779H13.0697C13.5922 45.6779 14.0166 45.2535 14.0166 44.7311C14.0166 44.208 13.5922 43.7842 13.0697 43.7842Z" fill="#3D5A9B"/>
<path d="M6.6394 50.0948H6.27305C5.75001 50.0948 5.32617 50.5186 5.32617 51.0417C5.32617 51.5641 5.75001 51.9885 6.27305 51.9885H6.6394C7.16244 51.9885 7.58628 51.5641 7.58628 51.0417C7.58628 50.5186 7.16244 50.0948 6.6394 50.0948Z" fill="#3D5A9B"/>
<path d="M13.0697 50.0948H10.2984C9.7754 50.0948 9.35156 50.5186 9.35156 51.0417C9.35156 51.5641 9.7754 51.9885 10.2984 51.9885H13.0697C13.5922 51.9885 14.0166 51.5641 14.0166 51.0417C14.0166 50.5186 13.5922 50.0948 13.0697 50.0948Z" fill="#3D5A9B"/>
<path d="M9.54896 25.3485C10.5607 25.043 11.3626 24.2686 11.7037 23.2682C12.0442 22.2672 11.8813 21.1642 11.2664 20.3047C10.6509 19.4452 9.65888 18.9357 8.60213 18.9357C8.04246 18.9357 7.53802 18.5992 7.32385 18.0824C7.1091 17.5656 7.22747 16.9704 7.62256 16.5747C8.01822 16.1791 8.61284 16.0602 9.12963 16.2738C9.64702 16.488 9.98407 16.9918 9.98463 17.5515C9.98463 18.0745 10.4085 18.4984 10.9315 18.4984C11.454 18.4984 11.8784 18.0745 11.8784 17.5515C11.8773 16.8481 11.6501 16.1639 11.2308 15.5992C10.8115 15.035 10.2219 14.6202 9.54899 14.4161V13.941C9.54899 13.418 9.12515 12.9941 8.60212 12.9941C8.07908 12.9941 7.65524 13.418 7.65524 13.941V14.4161C6.64299 14.7211 5.83984 15.496 5.49947 16.4965C5.15848 17.4974 5.32136 18.601 5.93683 19.4605C6.55229 20.32 7.54489 20.8295 8.60222 20.8295C9.36028 20.8346 9.97293 21.4501 9.97518 22.2081C9.97743 22.9662 9.36873 23.5851 8.61067 23.5952H8.59376C7.83345 23.5907 7.21967 22.9735 7.21797 22.2132C7.21797 21.6902 6.79413 21.2664 6.27109 21.2664C5.74806 21.2664 5.32422 21.6902 5.32422 22.2132C5.32535 22.9166 5.55248 23.6014 5.97238 24.1656C6.3917 24.7303 6.98182 25.1451 7.65533 25.3491V25.9302V25.9297C7.65533 26.4527 8.07917 26.8765 8.6022 26.8765C9.12524 26.8765 9.54908 26.4527 9.54908 25.9297L9.54896 25.3485Z" fill="#3D5A9B"/>
<path d="M16.0968 25.9296C16.0968 26.4527 16.5206 26.8765 17.0437 26.8765C17.5667 26.8765 17.9905 26.4527 17.9905 25.9296V25.3485V25.3491C19.0028 25.0436 19.8054 24.2692 20.1463 23.2682C20.4873 22.2672 20.3244 21.1637 19.709 20.3042C19.0935 19.4447 18.1009 18.9351 17.0436 18.9357C16.4845 18.9351 15.98 18.5981 15.7664 18.0813C15.5522 17.5644 15.6706 16.9698 16.0662 16.5742C16.4619 16.1785 17.0565 16.0602 17.5733 16.2743C18.0901 16.488 18.4272 16.9924 18.4278 17.5515C18.4278 18.0745 18.8516 18.4984 19.3746 18.4984C19.8971 18.4984 20.3215 18.0745 20.3215 17.5515C20.3204 16.8481 20.0932 16.1633 19.6733 15.5992C19.2534 15.0344 18.6639 14.6196 17.9904 14.4161V13.941C17.9904 13.418 17.5666 12.9941 17.0435 12.9941C16.5205 12.9941 16.0966 13.418 16.0966 13.941V14.4161C15.0844 14.7211 14.2818 15.496 13.9409 16.4965C13.5999 17.4974 13.7628 18.601 14.3782 19.4605C14.9937 20.32 15.9863 20.8295 17.0436 20.8295C17.8017 20.8346 18.4143 21.4501 18.4166 22.2082C18.4188 22.9662 17.8101 23.5851 17.0521 23.5952H17.0352C16.2749 23.5907 15.6611 22.9735 15.6594 22.2132C15.6594 21.6902 15.2355 21.2664 14.7125 21.2664C14.19 21.2664 13.7656 21.6902 13.7656 22.2132C13.7668 22.9166 13.9939 23.6014 14.4138 24.1656C14.8337 24.7303 15.4232 25.1451 16.0967 25.3492L16.0968 25.9296Z" fill="#3D5A9B"/>
<path d="M36.9234 12.2253C37.4465 12.2253 37.8703 11.8015 37.8703 11.2784V10.2008C37.8703 9.67775 37.4465 9.25391 36.9234 9.25391C36.4004 9.25391 35.9766 9.67775 35.9766 10.2008V11.2784C35.9766 11.8015 36.4004 12.2253 36.9234 12.2253Z" fill="#E84C3D"/>
<path d="M36.9234 24.2876C37.4465 24.2876 37.8703 23.8637 37.8703 23.3407V14.1041C37.8703 13.5811 37.4465 13.1572 36.9234 13.1572C36.4004 13.1572 35.9766 13.5811 35.9766 14.1041V23.3407C35.9766 23.8637 36.4004 24.2876 36.9234 24.2876Z" fill="#E84C3D"/>
<path d="M42.9249 39.0165V0.992924C42.9249 0.629396 42.7163 0.297423 42.3883 0.139603C42.0603 -0.0182164 41.6708 0.026316 41.3867 0.253453L36.8479 3.88311L32.3103 0.253453C31.9642 -0.0232866 31.4722 -0.0232866 31.1267 0.253453L26.5891 3.88311L22.0514 0.253453H22.052C21.7059 -0.0232866 21.2139 -0.0232866 20.8684 0.253453L16.3308 3.88311L11.7931 0.253453C11.4476 -0.0232866 10.9556 -0.0232866 10.6095 0.253453L6.07189 3.88311L1.53641 0.253453C1.25234 0.0274443 0.863449 -0.0165196 0.535992 0.141294C0.209099 0.298537 0.000562714 0.629947 0 0.992912V68.295C0 68.6591 0.208536 68.9911 0.536569 69.1483C0.864588 69.3061 1.25406 69.2622 1.53811 69.0345L6.07691 65.4048L10.6146 69.0345C10.9606 69.3112 11.4527 69.3112 11.7981 69.0345L16.3358 65.4048L20.8734 69.0345H20.8729C21.1851 69.2841 21.6202 69.3112 21.9606 69.1015L24.0596 67.8097V67.8103C26.1624 71.9872 29.6704 75.2901 33.9668 77.1371C38.2638 78.9846 43.0737 79.2579 47.5522 77.9104C52.0301 76.5622 55.8903 73.6787 58.4531 69.7667C61.0165 65.8547 62.1182 61.1648 61.5659 56.5206C61.0136 51.8763 58.8414 47.576 55.4326 44.3746C52.0233 41.1728 47.5944 39.2755 42.9248 39.0157L42.9249 39.0165ZM41.8202 76.8598C37.5469 76.8621 33.4122 75.3419 30.1573 72.5729C26.9023 69.8034 24.7404 65.9651 24.0583 61.7465C23.971 61.2347 23.4874 60.8886 22.975 60.9709C22.4622 61.0532 22.1116 61.5328 22.1882 62.0463C22.4103 63.4209 22.7767 64.768 23.2817 66.0654L21.5355 67.1396L16.9273 63.453H16.9267C16.5807 63.1762 16.0892 63.1762 15.7432 63.453L11.2055 67.0826L6.66787 63.453H6.66844C6.32238 63.1762 5.8309 63.1762 5.48485 63.453L1.89343 66.3257V2.96407L5.48196 5.83622C5.82802 6.11352 6.32006 6.11352 6.66555 5.83622L11.2032 2.20657L15.7408 5.83622C16.0863 6.11352 16.5784 6.11352 16.9244 5.83622L21.4621 2.20657L25.9997 5.83622H25.9991C26.3446 6.11352 26.8367 6.11352 27.1827 5.83622L31.7204 2.20657L36.258 5.83622H36.2575C36.6035 6.11352 37.095 6.11352 37.441 5.83622L41.033 2.96407V39.0023C36.554 39.1708 32.2648 40.8567 28.8702 43.7835H16.7891C16.2661 43.7835 15.8423 44.2074 15.8423 44.7304C15.8423 45.2529 16.2661 45.6773 16.7891 45.6773H26.9427C25.7574 47.0097 24.757 48.4959 23.9691 50.096H16.7891C16.2661 50.096 15.8423 50.5199 15.8423 51.0429C15.8423 51.5654 16.2661 51.9898 16.7891 51.9898H23.1557C22.436 53.9471 22.0291 56.0067 21.9507 58.0909C21.9327 58.6122 22.3391 59.0496 22.8604 59.0699C23.3812 59.0896 23.8208 58.6849 23.8428 58.1642C24.0254 53.5183 25.9991 49.1238 29.3505 45.9016C32.7022 42.6794 37.1706 40.8792 41.8199 40.8797C41.8628 40.8797 41.9067 40.8797 41.9496 40.8809H41.9704C48.3613 40.9609 54.2296 44.426 57.3873 49.9833C60.5442 55.5406 60.516 62.3558 57.3124 67.8863C54.1087 73.4167 48.2117 76.8331 41.8204 76.8601L41.8202 76.8598Z" fill="#3D5A9B"/>
<path d="M42.6381 46.5557C42.4679 46.266 42.1568 46.0879 41.8209 46.0879C41.485 46.0879 41.1739 46.266 41.0036 46.5557L34.145 58.2632C32.6785 60.773 32.5303 63.8407 33.7488 66.4801C34.9673 69.1195 37.3982 70.997 40.2597 71.5088C43.1212 72.0205 46.0525 71.1018 48.1103 69.0485C49.5007 67.657 50.3907 65.8432 50.6415 63.8921C50.8923 61.9409 50.4899 59.9614 49.4962 58.2632L42.6381 46.5557ZM46.7716 67.7094H46.7711C45.1523 69.3282 42.8443 70.0523 40.591 69.6499C38.3371 69.2475 36.423 67.7692 35.4638 65.6906C34.5051 63.612 34.6229 61.1958 35.7795 59.2202L41.8208 48.9083L47.8622 59.2202C48.6445 60.5571 48.9613 62.1149 48.764 63.6508C48.5662 65.1867 47.8656 66.6143 46.7711 67.7094H46.7716Z" fill="#935EF1"/>
<path d="M46.3448 61.7112C45.8319 61.608 45.3331 61.94 45.2294 62.4529C45.0947 63.123 44.7638 63.7391 44.2797 64.2215C44.0914 64.4104 43.8823 64.5766 43.6569 64.7181C43.4342 64.8551 43.1981 64.9672 42.9518 65.0529C42.4581 65.2253 42.1971 65.7653 42.3696 66.259C42.5415 66.7528 43.0814 67.0137 43.5752 66.8413C43.9533 66.7094 44.3157 66.5369 44.6562 66.3267C45.0045 66.1086 45.3274 65.8515 45.6188 65.5607C46.3673 64.8145 46.8779 63.8625 47.0865 62.8261C47.1361 62.5798 47.0854 62.3239 46.9462 62.1148C46.8075 61.9057 46.5911 61.7603 46.3448 61.7112L46.3448 61.7112Z" fill="#935EF1"/>
</svg>
