<svg width="47" height="74" viewBox="0 0 47 74" fill="none" xmlns="http://www.w3.org/2000/svg">
<path d="M6.89206 28.5692H41.7073C42.2011 28.5692 42.6013 28.169 42.6013 27.6752C42.6013 27.1813 42.2011 26.7812 41.7073 26.7812H6.89206C6.39823 26.7812 5.99805 27.1813 5.99805 27.6752C5.99805 28.169 6.39823 28.5692 6.89206 28.5692Z" fill="#3D5A9B"/>
<path d="M42.6013 33.6351C42.6013 33.1413 42.2011 32.7411 41.7073 32.7411H6.89206C6.39823 32.7411 5.99805 33.1413 5.99805 33.6351C5.99805 34.129 6.39823 34.5291 6.89206 34.5291H41.7073C42.2011 34.5291 42.6013 34.129 42.6013 33.6351Z" fill="#3D5A9B"/>
<path d="M13.2501 24.5177C14.92 24.5177 16.5361 23.9275 17.8128 22.8516C19.0899 21.775 19.9456 20.2824 20.2287 18.6369C20.5118 16.9909 20.2042 15.2981 19.3602 13.8571L14.0216 4.74389C13.8609 4.47036 13.5671 4.30167 13.25 4.30167C12.9328 4.30167 12.6391 4.47036 12.4783 4.74389L7.13972 13.8571C6.89546 14.2828 7.03967 14.8256 7.46327 15.0741C7.88633 15.3221 8.43072 15.1821 8.68243 14.7606L13.2498 6.96456L17.8173 14.7606C18.6501 16.1836 18.7725 17.9132 18.1483 19.4388C17.5241 20.965 16.2251 22.1129 14.6339 22.5439C13.0427 22.9755 11.3415 22.6408 10.0319 21.6388C8.72279 20.6367 7.95546 19.0822 7.956 17.4337C7.956 16.9399 7.55529 16.5397 7.06199 16.5397C6.56815 16.5397 6.16797 16.9399 6.16797 17.4337C6.16744 19.3122 6.91352 21.1136 8.24181 22.4424C9.57007 23.7706 11.3714 24.5172 13.2499 24.5177L13.2501 24.5177Z" fill="#935EF1"/>
<path d="M14.3733 20.8133C14.4728 20.8133 14.5718 20.7968 14.6654 20.7638C16.1182 20.2609 17.1969 19.0285 17.5023 17.5219C17.5523 17.2883 17.5071 17.0446 17.3762 16.8445C17.2453 16.6449 17.0398 16.5055 16.8057 16.4581C16.5716 16.4108 16.3284 16.4587 16.1299 16.5922C15.9319 16.7253 15.7952 16.9323 15.7499 17.167C15.5701 18.053 14.9357 18.7778 14.0811 19.0742C13.6682 19.2163 13.4186 19.6362 13.491 20.0672C13.5633 20.4983 13.9364 20.8138 14.3733 20.8133H14.3733Z" fill="#935EF1"/>
<path d="M23.2807 22.6092H41.706C42.1998 22.6092 42.6 22.209 42.6 21.7152C42.6 21.2214 42.1998 20.8212 41.706 20.8212H23.2807C22.7869 20.8212 22.3867 21.2214 22.3867 21.7152C22.3867 22.209 22.7869 22.6092 23.2807 22.6092Z" fill="#3D5A9B"/>
<path d="M23.2807 16.6483H41.706C42.1998 16.6483 42.6 16.2481 42.6 15.7543C42.6 15.2604 42.1998 14.8603 41.706 14.8603H23.2807C22.7869 14.8603 22.3867 15.2604 22.3867 15.7543C22.3867 16.2481 22.7869 16.6483 23.2807 16.6483Z" fill="#3D5A9B"/>
<path d="M23.2807 10.6893H41.706C42.1998 10.6893 42.6 10.2891 42.6 9.79529C42.6 9.30145 42.1998 8.90128 41.706 8.90128H23.2807C22.7869 8.90128 22.3867 9.30145 22.3867 9.79529C22.3867 10.2891 22.7869 10.6893 23.2807 10.6893Z" fill="#E84C3D"/>
<path d="M46.8719 54.5945L46.6117 1.45216C46.6095 0.959917 46.2099 0.562408 45.7177 0.562408H2.73947C2.24563 0.562408 1.84545 0.962587 1.84545 1.45642V52.2175L0.331519 55.0884C-0.158068 56.0037 0.180915 57.1419 1.09143 57.6405L4.18061 59.3669C4.46585 59.5265 4.78726 59.6106 5.11401 59.6111C5.30079 59.6106 5.48652 59.5834 5.66532 59.5302C6.15969 59.386 6.57424 59.047 6.81424 58.5915L7.12715 58.0014L8.17761 58.8704L6.24272 61.5316C5.8053 62.1346 5.60573 62.8775 5.68396 63.6182C5.76218 64.3589 6.1118 65.0449 6.66524 65.543C7.21921 66.0411 7.93761 66.3167 8.68269 66.3167C8.84606 66.3162 9.00889 66.3029 9.17014 66.2768C9.28827 66.9787 9.65174 67.6162 10.1961 68.0755C10.74 68.5352 11.4291 68.7864 12.1411 68.7859C12.305 68.7854 12.4689 68.7721 12.6301 68.746C12.7477 69.4484 13.1107 70.0859 13.6545 70.5463C14.1984 71.0061 14.8881 71.2578 15.6 71.2567C15.7639 71.2562 15.9278 71.2429 16.0896 71.2162C16.2253 72.0017 16.6654 72.702 17.3141 73.165C17.9628 73.6275 18.7685 73.8158 19.555 73.6881C20.342 73.5604 21.046 73.1272 21.5155 72.4828L22.1115 71.6617L23.2407 72.5557C23.891 73.1043 24.7313 73.3768 25.5801 73.3124C26.4289 73.2486 27.2185 72.8537 27.7795 72.2135C28.185 71.75 28.4474 71.179 28.5341 70.5698C29.1253 70.739 29.7522 70.7363 30.3419 70.5618C30.9315 70.3873 31.4594 70.0488 31.8633 69.5853C32.2678 69.1213 32.5285 68.5497 32.6137 67.9399C33.2054 68.1102 33.8334 68.1081 34.4235 67.934C35.0142 67.7595 35.5426 67.4205 35.9477 66.9565C36.3271 66.5233 36.5814 65.9943 36.6831 65.427C37.3009 65.6558 37.973 65.692 38.611 65.5313C39.2496 65.3706 39.8238 65.0199 40.2591 64.5261L40.298 64.483L40.3081 64.4718C40.8584 63.8412 41.1329 63.0168 41.0712 62.183C41.01 61.3486 40.6168 60.5738 39.9803 60.0315L39.3114 59.4594C39.7669 59.1465 40.1836 58.7783 40.5502 58.3648C40.911 58.8421 41.4751 59.1231 42.0738 59.1226C42.3367 59.1226 42.5964 59.0688 42.838 58.9645L46.0889 57.5676C46.5657 57.3654 46.9398 56.9775 47.1239 56.4932C47.3086 56.0089 47.2873 55.4704 47.0659 55.0016L46.8719 54.5945ZM3.63352 2.34992H44.8284L45.0652 50.7746L39.185 38.3424C38.7502 37.433 37.6875 37.0126 36.7477 37.3782L33.4058 38.6835C32.9119 38.8746 32.5203 39.2625 32.3244 39.7548C32.1286 40.2465 32.1467 40.7978 32.3734 41.2762L32.706 41.9749L32.6384 42.0031C31.3735 42.2628 30.488 42.2245 29.174 41.8589L25.8348 40.9292C24.8386 40.6509 23.7832 40.6679 22.7961 40.9776L19.5734 41.9877C18.9349 42.1888 18.3394 42.5087 17.8189 42.9296C16.9866 42.6805 16.1138 42.5943 15.2486 42.6763L15.4493 42.2974C15.9176 41.4029 15.61 40.2986 14.7463 39.776L11.678 37.9263C11.2251 37.6528 10.6802 37.5777 10.171 37.7187C9.66117 37.8592 9.23226 38.2041 8.98481 38.6713L3.63406 48.8242L3.63352 2.34992ZM9.68831 64.0217C9.28813 64.5693 8.52236 64.6933 7.96948 64.3C7.70394 64.11 7.5246 63.8216 7.47192 63.4991C7.41924 63.1761 7.498 62.8462 7.68958 62.5812L10.899 58.1675C11.212 57.7344 11.7681 57.5524 12.2768 57.7163C12.7855 57.8797 13.1309 58.3522 13.1324 58.8865C13.133 59.1451 13.0505 59.3979 12.8978 59.607L9.68831 64.0217ZM13.1649 66.4685C13.1596 66.476 13.1537 66.4834 13.1484 66.492C12.7472 67.039 11.9809 67.163 11.428 66.7697C11.1624 66.5803 10.9836 66.2924 10.9315 65.9699C10.8788 65.648 10.9575 65.3186 11.1497 65.0546L13.4757 61.8543C13.7886 61.4216 14.3447 61.2402 14.8528 61.4046C15.361 61.5685 15.7053 62.0416 15.7059 62.5753C15.7064 62.8345 15.6244 63.0867 15.4717 63.2953L13.1649 66.4685ZM16.6234 68.9404C16.6181 68.9474 16.6128 68.9554 16.6075 68.9628C16.2062 69.5088 15.4415 69.6322 14.8892 69.2406C14.3411 68.8484 14.2123 68.0869 14.6007 67.5355L14.6172 67.5116L16.2099 65.3213C16.5228 64.8875 17.08 64.7045 17.5887 64.8684C18.098 65.0318 18.4439 65.5049 18.4455 66.0397C18.446 66.2983 18.3635 66.5505 18.2103 66.7586L16.6234 68.9404ZM21.0716 70.0111L20.0701 71.4309C19.6689 71.9796 18.901 72.1041 18.3465 71.7103C17.7995 71.3187 17.6707 70.5587 18.0581 70.008L18.073 69.9872L18.9473 68.7867C19.3167 68.2726 20.0154 68.1226 20.5635 68.4387C21.1116 68.7548 21.3313 69.4343 21.0716 70.0111ZM38.9642 63.2933L38.9217 63.3407C38.3954 63.9447 37.4817 64.0139 36.8702 63.4955L32.3053 59.5864C32.1212 59.4294 31.8823 59.3533 31.6412 59.3756C31.4007 59.398 31.1788 59.5172 31.0276 59.7056C30.7286 60.0978 30.7919 60.655 31.1713 60.97L34.4616 63.7893C34.7457 64.0341 34.9208 64.3821 34.9464 64.7567C34.9724 65.1308 34.8474 65.5001 34.5994 65.7817C34.3232 66.0977 33.9236 66.2787 33.5037 66.2776C33.1567 66.2797 32.8209 66.1563 32.558 65.9296L29.2751 63.1182C28.9058 62.7925 28.3455 62.8154 28.0044 63.1709C27.8415 63.3497 27.758 63.587 27.7734 63.8286C27.7883 64.0702 27.9006 64.2953 28.0842 64.4523L30.3618 66.4011C30.3703 66.409 30.3789 66.417 30.3879 66.4245C30.9653 66.9407 31.0222 67.824 30.5156 68.4099C30.1522 68.8239 29.5865 68.9985 29.0533 68.8601C28.8298 68.8 28.6234 68.6888 28.4499 68.536L26.1914 66.6022C25.9961 66.4346 25.738 66.359 25.4831 66.3952C25.2282 66.432 25.0015 66.5762 24.861 66.7917C24.6184 67.1791 24.6993 67.6862 25.0505 67.9789L26.2835 69.0368C26.5714 69.2806 26.7491 69.6302 26.7773 70.0064C26.805 70.3832 26.681 70.7552 26.4325 71.0393C25.9057 71.6364 24.9973 71.7013 24.3912 71.1851C24.3827 71.1777 24.3742 71.1702 24.3651 71.1638L22.9235 70.0224C23.0704 69.188 22.8581 68.3301 22.3392 67.6607C21.8204 66.9912 21.0424 66.5714 20.1978 66.5059C20.284 65.9535 20.2148 65.3884 19.9983 64.8733C19.7817 64.3582 19.4262 63.9133 18.9717 63.5882C18.5274 63.271 18.0048 63.0815 17.4604 63.0401C17.5466 62.4877 17.4774 61.922 17.2608 61.4064C17.0443 60.8907 16.6888 60.4453 16.2338 60.1196C15.8224 59.8259 15.3429 59.6407 14.8405 59.5816C15.0555 58.6685 14.8342 57.7079 14.2413 56.981C13.6485 56.2535 12.7518 55.8432 11.8142 55.8698C10.8771 55.8965 10.005 56.3573 9.45418 57.1167L9.2328 57.4211L7.98384 56.3876L8.53142 55.3547C8.75173 54.954 8.64211 54.4522 8.27492 54.1797C8.06472 54.0307 7.80077 53.9791 7.55013 54.0382C7.30003 54.0978 7.08716 54.2622 6.96635 54.49L5.23581 57.7547C5.21931 57.7851 5.19217 57.8069 5.15918 57.8159C5.12353 57.8271 5.08521 57.8229 5.05275 57.8053L1.96358 56.0784C1.90717 56.0486 1.88482 55.9789 1.91408 55.922L10.5658 39.5062C10.5823 39.4748 10.6121 39.4519 10.6467 39.4428C10.6829 39.4327 10.7218 39.438 10.7537 39.4577L13.822 41.3075C13.8763 41.3383 13.8971 41.4075 13.8683 41.4639L8.14771 52.2591C7.92793 52.6604 8.03809 53.1611 8.40527 53.4331C8.61547 53.5826 8.87942 53.6342 9.13006 53.5746C9.38017 53.515 9.59303 53.3506 9.71384 53.1228L14.1935 44.669C14.9497 44.4604 15.7378 44.396 16.5179 44.4785C16.428 44.6403 16.3465 44.8063 16.2742 44.9761L15.2891 47.3537C15.038 47.9604 14.8044 48.5872 14.5958 49.2184L13.6123 52.1926C13.4671 52.6311 13.6799 53.1079 14.103 53.2926L14.3116 53.3836C15.9198 54.1126 17.7886 53.97 19.2675 53.0052C20.5388 52.1751 21.3648 50.8133 21.5132 49.3025C21.518 49.2535 21.5222 49.2046 21.5259 49.1551C21.5664 48.9656 21.7899 48.0402 22.3593 47.7268C22.5062 47.6491 22.6764 47.6321 22.8356 47.6789L24.0255 48.011C24.5299 48.1515 24.9903 48.4181 25.3649 48.7842L38.8183 61.3898C39.0918 61.6218 39.2605 61.9534 39.2881 62.311C39.3158 62.668 39.1989 63.0225 38.9642 63.2933ZM45.4539 55.8554C45.4416 55.8873 45.4166 55.9123 45.3847 55.9246L42.1322 57.322C42.0678 57.3502 41.9922 57.3241 41.9603 57.2608L37.7988 48.5155C37.587 48.0695 37.0533 47.8806 36.6073 48.0929C36.1614 48.3047 35.972 48.8385 36.1843 49.2844L39.6604 56.5882C39.2128 57.2752 38.604 57.8419 37.8872 58.24L26.6162 47.5076C26.0266 46.9307 25.3013 46.5114 24.5063 46.2895L22.9955 45.868C22.9162 45.8462 22.8348 45.8345 22.7523 45.8345C21.7156 45.8382 20.8322 46.414 20.2639 47.4564C20.0233 47.9045 19.852 48.3861 19.7562 48.8852L19.7328 49.129C19.6354 50.1028 19.1011 50.9793 18.2806 51.513C17.4797 52.0271 16.4989 52.1808 15.5788 51.9366L16.2919 49.7803C16.4872 49.1912 16.7049 48.6048 16.9395 48.0386L17.9214 45.6685C18.0922 45.2662 18.3375 44.9001 18.6451 44.5893C19.0522 44.1758 19.5545 43.8687 20.1079 43.6953L23.3306 42.6852C23.9878 42.4793 24.6913 42.4676 25.3549 42.6528L28.6942 43.5824C30.3114 44.0326 31.5034 44.0741 33.0924 43.7357L33.4745 43.5915L35.0369 46.8749C35.2487 47.3203 35.7825 47.5103 36.2284 47.2985C36.6738 47.0862 36.8633 46.553 36.6515 46.107L33.9875 40.5077C33.9736 40.48 33.972 40.447 33.9838 40.4183C33.9971 40.3858 34.0226 40.3608 34.0556 40.3485L37.3975 39.0432C37.4624 39.0166 37.5364 39.0448 37.5678 39.107L45.45 55.7667C45.4633 55.7944 45.465 55.8266 45.4539 55.8554Z" fill="#3D5A9B"/>
</svg>
