<svg width="75" height="76" viewBox="0 0 75 76" fill="none" xmlns="http://www.w3.org/2000/svg">
<path d="M74.7694 28.7762C74.7688 27.4956 74.2593 26.2675 73.3541 25.3624C72.4484 24.4566 71.2209 23.9477 69.9403 23.9471H66.7903V7.23305C67.4886 7.06003 68.1097 6.65872 68.5539 6.0923C68.998 5.52643 69.2398 4.82755 69.2409 4.10837C69.2404 3.25393 68.9005 2.43437 68.2963 1.83024C67.6921 1.22612 66.8732 0.886746 66.0188 0.88562H55.1264C54.2719 0.886747 53.4529 1.22661 52.8488 1.83081C52.2446 2.43444 51.9047 3.25394 51.9042 4.10836C51.9036 4.8281 52.1448 5.52754 52.5884 6.09402C53.0325 6.66102 53.6542 7.06231 54.353 7.23421V13.3664H45.5093C42.2235 13.3664 39.97 14.7782 38.6236 17.6831V17.6837C38.0735 18.8701 37.281 19.928 36.2964 20.7887C34.53 22.3386 32.2609 23.1942 29.9112 23.197H28.8318V21.9215C28.8307 21.0011 28.4644 20.1185 27.8134 19.4675C27.163 18.8171 26.2804 18.4507 25.36 18.4496H18.3576C17.4372 18.4507 16.5546 18.8171 15.9036 19.4675C15.2526 20.1185 14.8868 21.0011 14.8857 21.9215V40.9326C10.153 41.7431 5.95631 44.4513 3.26841 48.4298C0.581093 52.4084 -0.365277 57.3123 0.649917 62.0057C1.665 66.6983 4.55299 70.7733 8.64479 73.2859C12.7366 75.7985 17.6768 76.53 22.3215 75.3121C26.9658 74.0942 30.9115 71.032 33.2438 66.8348C35.576 62.6381 36.0923 57.6703 34.6737 53.083C37.6271 53.539 40.4592 54.5839 43.0005 56.1553C44.7719 57.2549 46.8016 57.9752 49.2042 58.358C51.4108 58.7097 53.7087 58.739 55.6892 58.739H67.7799C69.1258 58.7373 70.417 58.2019 71.369 57.25C72.321 56.2981 72.8564 55.0073 72.858 53.6608C72.862 52.3555 72.3581 51.0998 71.4535 50.1586C72.6213 49.7235 73.589 48.8758 74.1735 47.775C74.7586 46.6748 74.9198 45.3982 74.6273 44.187C74.3347 42.9758 73.6082 41.914 72.5853 41.2021C72.8181 41.0352 73.0368 40.8498 73.2391 40.648C74.3134 39.5743 74.8668 38.087 74.7558 36.5731C74.6448 35.0587 73.88 33.6676 72.6608 32.7631C73.9797 31.8641 74.7687 30.3711 74.7693 28.7755L74.7694 28.7762ZM54.1856 5.04548C53.9359 4.79748 53.7967 4.45988 53.7984 4.10818C53.7989 3.37436 54.3936 2.78031 55.1268 2.77918H66.0192C66.7519 2.78144 67.346 3.37492 67.3477 4.10818C67.3471 4.84144 66.7525 5.43606 66.0192 5.43662H55.1268C54.7734 5.43775 54.4341 5.29685 54.1856 5.04548ZM63.6978 18.3772H64.8971V23.9463L56.2474 23.9469V18.3772H60.5714C61.0945 18.3772 61.5183 17.9533 61.5183 17.4303C61.5183 16.9078 61.0945 16.4834 60.5714 16.4834H56.2474V7.33023H64.8971V16.4834H63.6978C63.1747 16.4834 62.7509 16.9078 62.7509 17.4303C62.7509 17.9533 63.1747 18.3772 63.6978 18.3772V18.3772ZM17.8466 74.0195C12.2302 74.0195 7.04037 71.0233 4.232 66.1593C1.42405 61.2953 1.42405 55.3024 4.232 50.4379C7.04052 45.5745 12.2303 42.5777 17.8466 42.5777C21.2566 42.567 24.5763 43.6762 27.2951 45.7339C29.5534 47.4322 31.3125 49.7068 32.3891 52.3193C34.3792 57.1691 33.8218 62.6915 30.9034 67.0465C27.9849 71.4011 23.0883 74.0157 17.8461 74.0184L17.8466 74.0195ZM69.941 31.7121L63.8302 31.7312V31.7307C63.3072 31.7307 62.8833 32.1545 62.8833 32.6776C62.8833 33.2006 63.3072 33.6244 63.8302 33.6244H69.5446C70.7344 33.6244 71.834 34.2596 72.4292 35.2899C73.0238 36.3202 73.0238 37.59 72.4292 38.6203C71.834 39.6512 70.7344 40.2858 69.5446 40.2858H63.8302C63.3072 40.2858 62.8833 40.7097 62.8833 41.2327C62.8833 41.7557 63.3072 42.1796 63.8302 42.1796H69.6726C70.5344 42.1604 71.3674 42.4896 71.9835 43.0921C72.6001 43.6946 72.9473 44.5203 72.9473 45.3826C72.9473 46.2444 72.6001 47.07 71.9835 47.6726C71.3675 48.2756 70.5344 48.6042 69.6726 48.585H61.2482C60.7257 48.585 60.3013 49.0089 60.3013 49.5319C60.3013 50.055 60.7257 50.4788 61.2482 50.4788H67.7805C68.9178 50.4788 69.969 51.0858 70.5376 52.071C71.1063 53.0562 71.1063 54.2696 70.5376 55.2548C69.9689 56.24 68.9177 56.8464 67.7805 56.8464H55.6903C53.7824 56.8464 51.5731 56.8188 49.5029 56.4891C47.3534 56.147 45.5531 55.5118 43.9997 54.548C40.9381 52.6543 37.4922 51.4678 33.9139 51.0745C32.7635 48.5219 31.0214 46.2793 28.8323 44.5331V33.6655C28.8323 33.1425 28.4084 32.7187 27.8854 32.7187C27.3624 32.7187 26.9385 33.1425 26.9385 33.6655V43.2132C24.1977 41.551 21.0521 40.6764 17.8468 40.6849C17.4923 40.6849 17.1366 40.6956 16.7799 40.7176V21.9229C16.781 21.0521 17.4872 20.3459 18.3581 20.3447H25.3604C26.2318 20.3458 26.9374 21.052 26.9386 21.9229V30.1939C26.9386 30.717 27.3624 31.1408 27.8855 31.1408C28.4085 31.1408 28.8323 30.717 28.8323 30.1939V25.0921H29.9117C32.7214 25.0893 35.4345 24.0664 37.5464 22.2132C38.7289 21.179 39.6814 19.9075 40.3414 18.4821C41.0369 16.9829 42.2526 15.2628 45.5091 15.2628H54.3528V23.8682C53.9166 23.7487 53.526 23.5007 53.2318 23.1569C52.9381 22.8125 52.755 22.3876 52.7059 21.9378C52.6806 21.6864 52.556 21.4553 52.3599 21.2964C52.1637 21.1374 51.9118 21.0636 51.661 21.0912C51.4096 21.1183 51.1797 21.2451 51.023 21.4429C50.8657 21.6408 50.7941 21.8933 50.8235 22.1441C50.9339 23.1608 51.4164 24.1009 52.1784 24.7835C52.9398 25.466 53.9273 25.8431 54.9503 25.842H69.9401C70.9884 25.842 71.9578 26.4011 72.482 27.3096C73.0061 28.2176 73.0061 29.3364 72.482 30.245C71.9578 31.153 70.9883 31.7127 69.9401 31.7127L69.941 31.7121Z" fill="#3D5A9B"/>
<path d="M41.2818 21.8923C41.0896 21.7305 40.8416 21.6516 40.5914 21.6725C40.3411 21.6939 40.1095 21.8139 39.9477 22.0056C38.373 23.8718 36.3096 25.2615 33.9886 26.0196C33.4915 26.1825 33.2204 26.7174 33.3833 27.2139C33.5456 27.711 34.0805 27.9821 34.5776 27.8198C37.2327 26.9524 39.5938 25.3625 41.3951 23.2275C41.5574 23.0353 41.6363 22.7867 41.6154 22.5365C41.594 22.2857 41.474 22.054 41.2818 21.8923L41.2818 21.8923Z" fill="#E84C3D"/>
<path d="M43.0304 18.6848C42.8027 18.5794 42.5418 18.5687 42.3062 18.6555C42.0706 18.7417 41.8784 18.9187 41.773 19.1464C41.6609 19.3882 41.5397 19.6294 41.4117 19.8639H41.4123C41.1621 20.3232 41.3323 20.8981 41.7916 21.1484C42.251 21.398 42.8259 21.2278 43.0761 20.7685C43.2226 20.4985 43.3624 20.2206 43.4915 19.9428C43.5969 19.7151 43.6081 19.4541 43.5213 19.2185C43.4351 18.9824 43.2581 18.7908 43.0304 18.6848L43.0304 18.6848Z" fill="#E84C3D"/>
<path d="M18.6628 46.5666C18.4932 46.2769 18.1821 46.0982 17.8462 46.0982C17.5097 46.0982 17.1991 46.2769 17.0289 46.5666L10.5586 57.6106C9.55193 59.3291 9.18503 61.3479 9.52263 63.3105C9.86023 65.2731 10.881 67.0534 12.4039 68.3363C13.9262 69.6196 15.8537 70.3235 17.8456 70.3235C19.8369 70.3235 21.7644 69.6195 23.2873 68.3363C24.8097 67.0535 25.8304 65.2731 26.168 63.3105C26.5056 61.3479 26.1387 59.3291 25.1321 57.6106L18.6628 46.5666ZM22.4775 66.5112H22.478C20.963 68.0256 18.8032 68.703 16.6948 68.3266C14.5863 67.9501 12.7952 66.5664 11.8984 64.6219C11.0011 62.6769 11.1111 60.4163 12.1932 58.5675L17.8463 48.9184L23.4983 58.5675C24.231 59.8182 24.528 61.2762 24.3437 62.7134C24.1588 64.1512 23.5028 65.4865 22.4781 66.511L22.4775 66.5112Z" fill="#935EF1"/>
<path d="M22.1235 60.8393C21.8777 60.7897 21.6218 60.8399 21.4127 60.9791C21.2036 61.1183 21.0582 61.3347 21.0086 61.581C20.7832 62.7015 19.9806 63.6185 18.9002 63.991C18.4053 64.1607 18.1416 64.6989 18.3112 65.1938C18.4803 65.6887 19.0191 65.9524 19.5134 65.7828C21.2313 65.1921 22.5073 63.7346 22.8657 61.9536C22.9683 61.4412 22.6363 60.9419 22.1235 60.8393L22.1235 60.8393Z" fill="#935EF1"/>
</svg>
