<?xml version="1.0" encoding="UTF-8"?>
<!DOCTYPE svg PUBLIC "-//W3C//DTD SVG 1.1//EN" "http://www.w3.org/Graphics/SVG/1.1/DTD/svg11.dtd">
<!-- Creator: CorelDRAW 2021 (64-Bit) -->
<svg xmlns="http://www.w3.org/2000/svg" xml:space="preserve" width="261.885mm" height="212.337mm" version="1.1" style="shape-rendering:geometricPrecision; text-rendering:geometricPrecision; image-rendering:optimizeQuality; fill-rule:evenodd; clip-rule:evenodd"
viewBox="0 0 26188.5 21233.67"
 xmlns:xlink="http://www.w3.org/1999/xlink"
 xmlns:xodm="http://www.corel.com/coreldraw/odm/2003">
 <defs>
  <style type="text/css">
   <![CDATA[
    .fil7 {fill:none}
    .fil1 {fill:#012B85}
    .fil9 {fill:#012C7E}
    .fil3 {fill:#042A7E}
    .fil11 {fill:#042D7C}
    .fil2 {fill:#052D82}
    .fil12 {fill:#092D7A}
    .fil13 {fill:#0C3274}
    .fil14 {fill:#718EC5}
    .fil15 {fill:#88A5D8}
    .fil8 {fill:#C0716A}
    .fil0 {fill:#DAE5FC}
    .fil6 {fill:#EBF1FC}
    .fil4 {fill:#F7CCC4}
    .fil10 {fill:#F9FDFE}
    .fil5 {fill:#FCFDFF}
   ]]>
  </style>
 </defs>
 <g id="Layer_x0020_1">
  <metadata id="CorelCorpID_0Corel-Layer"/>
  <g id="_2457797382528">
   <path class="fil0" d="M15718.36 4389.79c-76.89,-52.45 -87.71,-25.92 -59,-173.37 23.53,-120.77 15.91,-95.82 125.86,-106.6 70.3,269.95 -66.56,278.94 -66.86,279.97zm-638.53 -916.5c-88.32,-51.04 -47.85,-25.06 -62.98,-113.22 116.55,-69.29 187.89,-18.14 208.44,105.83 -55.56,28.37 -59.84,56.87 -145.46,7.37l0 0.02zm-950.94 -633.66c-177.29,-11.06 -183.14,43.93 -257.9,-79.28 23.19,-107.04 233.14,-69.3 347.99,-54.82 134.55,16.96 209.02,5.32 206.07,138.1 -131.3,55.03 -151.16,5.07 -296.18,-4l0.02 0zm713.26 485.16c-125.81,85.28 -181.5,0.91 -345.9,-48.74 -364.16,-110.02 -857.38,-36.22 -1226.13,-2.49 -267.58,24.46 -578.19,58.91 -798.67,-52.41 -160.57,-81.09 -378.81,-470.41 -69.2,-538.36 62.47,111.88 -142.7,401.93 319.2,464.81 503.44,68.51 1191.56,-193.57 1887.05,17.66 176.73,53.66 203.77,67.34 233.63,159.55l0.02 -0.02zm-2721.94 -1160.92c126.61,-3.09 51.94,-47.53 137.27,32.04 -32.78,131.5 -283.61,284.47 -382.51,601.7 -86.93,278.85 -53.13,619.27 93.17,819.49 327.43,448.09 755.56,116.06 1541.92,51.41 535.19,-44 1313.71,-16.33 1695.82,239.34 616.5,412.47 -54.36,1187.8 159.71,1566.51 166.02,-68.44 302.08,-526.3 395.86,-598.22 148.58,-113.97 119.29,49.18 98.73,141.84 580.22,-817.47 474.5,-2088.86 -660.1,-2583.53 -1038.61,-452.84 -2171.08,272.05 -2531.03,-82.58 -129.93,-128 -237.97,-437.3 -522.89,-209.6 -6.2,4.95 -17.86,13.78 -25.95,21.61l0 -0.01z"/>
   <path class="fil0" d="M15713.85 9314.6c57.43,294.53 553.96,700.55 796.46,873.52 320.13,228.37 687.44,413.84 1072.18,587.4 386.04,174.16 811.79,327.22 1196.72,455.56 476.28,158.76 861.16,319.85 1344.42,242.69 -139.19,-387.68 -807.68,-1232.87 -1125.54,-1479.41 -156.75,-121.58 -328.19,-250.67 -511.74,-371.45 -647.49,-426.09 -1956.36,-760.8 -2772.5,-308.31z"/>
   <path class="fil0" d="M18161.25 14482.32l105.19 14.28 -92.41 3327.33c-0.18,564.88 4.71,1128.88 23.28,1693.33 17.89,544.35 68.51,1158.57 54.78,1693.16 96.27,-67.09 78.38,81.26 75.64,-63.54 102.1,84.67 187.37,178.1 443.49,-94.03 984,-1045.42 250.1,-2521.55 86.86,-4264.89 -143.44,55.45 -308.14,216.69 -436.45,161.56 -25.99,-172.62 330.1,-217.5 464.49,-376.4 -151.21,-76.73 -35.4,-2234.84 -587.9,-2162.74l-136.99 71.96 0.02 -0.02z"/>
   <path class="fil0" d="M3537.57 15837.16c109.3,311.52 251.05,608.05 421.35,834.03 240.24,318.79 308.47,328.78 635.66,562.98 147.47,82.88 370.98,161.43 622.87,177.85 478.45,-83.16 399.69,12.55 831.84,-226.47 112.02,-61.96 213.69,-120.75 330.58,-198.9 47.07,-31.46 101.35,-69.53 143.17,-101.17l137.91 -130.72c-88.14,-121.94 119.82,-471.89 -353.37,-843.27 -512.9,-402.57 -1282.14,-603.98 -1968.07,-498.94 -207.54,31.8 -330.77,64.02 -490.55,136.76 -252.86,115.11 -183.8,159.66 -311.38,287.87l-0.01 -0.02z"/>
   <path class="fil0" d="M7604.15 10115.48c119.28,-6.99 135.43,-18.75 190.53,86.32l145.56 -14.56 11.55 103.35c234.14,-30.94 1759.37,772.49 3552.43,-386.99 343.53,-222.15 171.28,-145.88 344.03,-289.28 -7.69,-6.3 -20.09,-24.53 -24.37,-17.17l-99.08 -56.24c-25.32,-11.62 -91.57,-35.17 -126.23,-48.6 -647.1,-250.98 -1424.91,-506.78 -2115.79,-400.04 -568.21,87.79 -1045.4,359.34 -1469.67,673.23l-408.94 349.99 -0.02 -0.01z"/>
   <path class="fil1" d="M12012.55 6111.57c9.34,-249.54 14.61,-848.48 118.7,-1020.1 -43.74,-269.03 75.26,-796.65 95.61,-1106.87 446.94,-4.28 737.51,-106.14 1166.43,-161.77 410.71,-53.26 834.38,-44.99 1233.05,30.92 1398.28,266.24 220.36,1100.82 657.74,1765.72 271.16,28.66 253.56,-102.79 376.56,-269.12 459.03,-57.79 577.59,210.9 352.47,561.75 -305.68,476.45 -609.91,259.13 -704.05,446.58 92.53,131.71 317.83,40.02 475.47,-40.02 482.21,-244.75 781.97,-1106.73 -36.57,-1122.4 39.02,-85.77 47.43,-146.37 112.2,-178.32 20.58,-92.64 49.85,-255.79 -98.73,-141.84 -93.78,71.94 -229.84,529.78 -395.86,598.22 -214.07,-378.69 456.79,-1154.04 -159.71,-1566.51 -382.13,-255.67 -1160.66,-283.34 -1695.82,-239.34 -786.34,64.67 -1214.49,396.68 -1541.92,-51.41 -146.32,-200.22 -180.12,-540.66 -93.17,-819.49 98.91,-317.23 349.73,-470.2 382.51,-601.7 -85.33,-79.58 -10.66,-35.13 -137.27,-32.04 -20.96,85.6 -184.36,203.84 -263.64,333.38 -279.39,456.52 -228.74,1210.47 237.18,1411.83 -64.63,1133.34 -508.95,2592.22 36.15,3497.21 193.81,321.76 196.04,136.71 152.36,636.13 -21,239.9 -47.44,495.42 -79.31,736.95 -20.86,158.13 -128.04,560.03 -47.65,680.01 105.07,-19.1 86.42,13.08 117.43,-160.36l102.21 -834.95c324.25,47.07 423.72,182.71 875.35,159.78 758.93,-38.51 1438.63,-635.69 1641.48,-1263.58 44.65,-138.26 33.38,-187.7 -25.02,-228.19 -142.22,-98.59 -665.59,1114.06 -1840.49,788.99 -736.56,-203.78 -1065.61,-892.17 -1013.73,-1809.52l0.04 0.06z"/>
   <path class="fil2" d="M5169.92 12416.39l-10.89 80.33 82.54 35.96c160.47,-144.23 380.55,-469.08 535.55,-566.07 237.25,387.1 495.49,766.05 740.67,1193.68 227.38,396.61 475.98,839.35 666.75,1272.54l436.08 1012.6c75.78,183.15 96.38,164.45 -3.14,306.61 -143,204.24 -698.94,927.5 -956.59,1002.7l-137.91 130.72c-41.82,31.64 -96.1,69.71 -143.17,101.17 -116.89,78.15 -218.55,136.96 -330.58,198.9 -432.15,239.02 -353.38,143.31 -831.84,226.47 -48.32,362.88 797.62,-48.2 913.64,-108.58 658.04,-342.44 1318.77,-998.84 1715.21,-1636.69 153.46,-246.91 146.84,-318.51 259.8,-431.54 57.01,885.39 261.8,1837.31 379.69,2730.85 99.73,755.91 216.71,1761.49 186.96,2540.16 -8.36,218.81 -63.18,279.66 105.21,314.25 387.1,-959.24 -1003.31,-6360.47 -528.81,-8429.48 -10.89,-145.7 26.88,-56.54 -44.91,-144.42 -103,22.53 -56.7,-9.38 -95.01,82.79 -46.37,111.58 -97.47,1090.9 -99.01,1225.97l53.24 1503.15 -147.91 184.49c-56.7,108.02 -53.82,138.13 -136.1,213.86l-356.81 -878.26c-63.19,-39.14 -119.63,-232.12 -164.16,-323.66l-556.82 -1066.31c-134.52,-236.15 -249.65,-428.92 -394.96,-663.56 -139.63,-225.47 -314.97,-450.18 -432.49,-663.03 101.8,-192.67 1518.04,-1704.3 1729.96,-1746.52l408.94 -349.99c424.29,-313.89 901.46,-585.44 1469.67,-673.23 690.88,-106.74 1468.69,149.05 2115.79,400.04 34.64,13.43 100.89,37 126.23,48.6l99.08 56.24c4.28,-7.36 16.68,10.87 24.37,17.17 193.9,7.9 217.73,145.67 350.36,25.2 -49.95,-105.69 -38.3,-75.68 -162.8,-128.55 -2360.8,-1002.59 -3185.07,-738.71 -5024.84,910.71 -220.25,197.46 -412.2,404.34 -608.16,627.35 -99.96,113.76 -202.57,188.74 -298.58,299.8 -113.69,131.51 -155.48,195.29 -298.85,339.27 -188.9,-53.92 40.54,-23.81 -121.24,-59.61l-107.76 4.76c9.75,151.9 48.71,74.1 90.81,235.3 -185.79,156.87 -330.36,363.6 -497.21,547.86z"/>
   <path class="fil0" d="M1451.77 7895.22c128.46,-43.26 147.12,4.28 219.61,93.1 126.12,154.57 428.13,491.69 359.6,692.65 -218.78,-20.19 -27.34,-15.01 -305.62,-393.8 -63.02,-85.77 -92.13,-139.26 -149.44,-205.03 -82.3,-94.45 -116.98,-62.42 -124.14,-186.93l-0.01 0.01zm466.58 -537.35l100.7 10.89c-142.26,20.98 -924.21,303.43 -971.06,654.13 -42.3,316.62 347.84,867.99 484.12,1092.23 163.36,268.84 443.51,767.57 947.2,623.22 535.78,-153.55 445.22,-873.05 452.84,-1117.74l-144.02 -19.1c8.81,-240.59 240.99,-557.68 354.24,-751l-60.66 -249.12c-63.65,-334.54 -343.15,-340.99 -592.48,-347.91 -13.26,-50.74 -2.76,-97.78 -59.05,-176.83 -12.82,212.79 58.58,81.31 -90.34,152.36 -56.24,26.83 -297.55,24.86 -421.48,128.84l-0.01 0.03z"/>
   <path class="fil2" d="M15713.85 9314.6c816.14,-452.47 2125.01,-117.77 2772.5,308.31 183.56,120.79 354.98,249.88 511.74,371.45 317.86,246.54 986.35,1091.72 1125.54,1479.41 428.38,286.87 1185.71,3582.86 1065.05,4374.61 -178.27,60.49 -442.65,87.83 -638.08,138.01 -191.14,49.09 -383.09,103.54 -575.59,167.16 -235,77.66 -972.1,409.03 -1088.89,419.56 -134.38,158.91 -490.48,203.78 -464.49,376.4 128.32,55.13 293.03,-106.11 436.45,-161.56 386.24,-294.93 1742.78,-704.7 2355.85,-790.63 99.7,950.01 73.87,2592.26 52.55,3625.76 -4.69,226.94 -71.88,1049.3 25.76,1168.05 109.95,-48.71 90.57,-47.99 94.01,-212.27l20 -956.5c18.95,-848.92 33.92,-1627.22 5.34,-2481.27 -8.95,-267.5 -69.43,-953.18 -32.9,-1167.96 183.4,-29.11 299.3,9.13 326.57,-149.37 -153.94,-44.53 -185.59,0.26 -342.44,-11.26 -70.22,-236.29 -131.22,-1158.08 -175.32,-1481.8 -210.67,-1545.84 -907.64,-3458.14 -2095.65,-4431.73 -956.19,-783.6 -2133.73,-1219.39 -3368.47,-749.36 -26.11,9.94 -136.11,54.45 -148.14,63.49 -71.45,53.59 -50.22,9.76 -69.88,108.9 115.04,70.87 71.08,36.36 208.54,-7.41l-0.05 0.01z"/>
   <path class="fil2" d="M2573.9 5533.38c-58.86,-85.18 -123.56,-652.11 91.71,-809.15 119.64,36.52 113.16,42.67 164.86,201.4l177.25 833.15 346.97 1642.41c27.08,160.34 9.96,157.89 -63.9,252.4 -50.38,64.46 -107.97,141.43 -148.42,196.94 -113.25,193.3 -345.45,510.39 -354.24,751l144.02 19.1c31.97,-515.78 1067.26,-1706.36 1507,-1636.41 55.64,232.46 -229.96,650.72 -326.17,892.47 -127.74,321.01 -214.83,607.49 -299.08,969.76 -40.53,174.32 -72.27,350.01 -108.41,527.09 -61.3,300.34 -93.1,250.23 39.98,491.04 143.19,259.15 275.44,625.35 400.28,904.9 267.65,599.33 534.61,1167.91 828.45,1745.59l646.89 1258.07c72.01,140.26 112.57,351.86 305.29,390.08 30.8,-162.65 -263.5,-605.84 -360.49,-790.96 -132.94,-253.77 -281.5,-539.57 -399.6,-806.22 -5.86,-4.37 -15.93,-17.89 -17.82,-12.85 -1.93,5.16 -14.47,-11.55 -16.94,-14.8 -32.62,-42.74 -12.85,-12.31 -40.17,-65.07 -38.91,-197.09 -495.12,-1058.47 -618.31,-1323.81 -208.54,-449.17 -399.42,-888.46 -595.83,-1345.11 -189.3,-440.11 311.58,-1772.54 549.27,-2248.94 117.36,-235.23 287.14,-491.22 68.71,-694.6 -418.77,-114.96 -776.05,381.48 -982.91,518.45 -62.98,-102.65 -399.09,-1858.01 -487.74,-2261.37 -61.37,-279.2 -90.64,-527.35 -394.21,-532.22 -352.03,179.57 -242.1,741.48 -201.13,1160.32l88.37 967.81c22.83,377.91 21.21,258.9 112.74,296.58 6.09,-9.01 12.34,-34.31 14.08,-29.43l-25.51 -679.74c-23.28,-248.91 -77.73,-528.06 -45,-767.87l0.01 -0.01z"/>
   <path class="fil0" d="M11801.33 17859.38c-22.55,123.1 30.52,48.3 -40.3,129.55 -402.28,-91.95 -1007.28,-362.25 -1398.31,-524.42 -226.7,-94.03 -474.03,-203.61 -682.91,-305.4 -240.24,-117.06 -542.16,-213.71 -590.79,-364.6 143.95,-70.36 493.64,163.31 671.28,248.88 717.65,345.68 1414.11,549.16 2041.29,827.27 -248.75,-477.89 -1695.39,-796.56 -2175.61,-1045.24 -271.21,-140.43 -458.61,-306.41 -743.1,-93.39 -8.57,246.7 102.58,248.44 254.93,370.4 650.02,520.3 1195.19,753.74 1996.6,1037.27 605.77,214.32 860.9,-31.39 666.89,-280.32l0.03 0z"/>
   <path class="fil0" d="M7452.34 13804.4l113.18 421.12 -110.23 26.79c-1.6,95.75 29.34,325.99 -32.69,326.24l356.81 878.26c82.28,-75.75 79.42,-105.84 136.1,-213.86l147.91 -184.49 -53.24 -1503.15c1.55,-135.08 52.64,-1114.39 99.01,-1225.97 38.31,-92.16 -7.99,-60.26 95.01,-82.79 71.8,87.88 34.03,-1.28 44.91,144.42 37.01,-52.97 96.99,93.66 34.7,-171.23 -12.17,-51.73 -48.15,-84.19 -94.25,-100.1 -333.23,-114.9 -556.38,895.49 -605.82,1131.72 -23.02,110 -41.51,207.24 -55.2,302.29 -18.49,128.34 -11.55,160.78 -76.22,250.75l0.02 0z"/>
   <path class="fil2" d="M1682.26 5500.9l438.17 1598.6 -362.92 127.46c-105.9,-196.29 -487.07,-1307.08 -486.48,-1521.54 -173.29,-175.41 -213.85,-955.2 119.08,-1025.23 171.85,105.79 244.15,558.85 292.14,820.71l0.01 0zm-659.78 -467.97l-6.06 263.48c6.46,501.98 544.79,1687.85 589.83,1987.81l-210.65 75.85c-119.24,-203.87 -279.74,-737.64 -365.13,-987.41 -184.21,-538.91 -158.2,-533.25 -87.37,-1070.28l41.84 -74.31 -34.63 -76.13c-370.87,34.92 -156.62,984.02 -53.62,1281.35l308.8 861.07c53.45,162.38 1.79,83.26 2.56,223.77 1.05,188.75 463.14,-161.71 710.26,-160.26 123.93,-103.98 365.24,-102.02 421.48,-128.84 148.91,-71.04 77.52,60.44 90.34,-152.36l-149.21 12.2c-177.06,-501.09 -315.97,-1142.76 -467.32,-1678.35 -74.2,-262.55 -114.27,-648.93 -290.7,-804.09 -255.11,-224.38 -500.38,138.2 -500.44,426.52l0.02 -0.02z"/>
   <path class="fil3" d="M4594.56 17234.15c-327.19,-234.2 -395.42,-244.19 -635.66,-562.98 -170.28,-225.98 -312.05,-522.51 -421.35,-834.03 -165.31,-385.02 -334.02,-996.36 -461.11,-1423.09 -141.07,-473.64 -305.24,-946.58 -444.85,-1423.3l-792.94 -2525.33c-100.61,-324.9 -45.65,-248.96 -160.84,-311.35 -44.44,61.6 -20.03,-0.23 -34.2,88.88 -17.28,108.63 1119.6,3647.3 1159.94,3772.48 275.62,855.66 775.83,3078.72 1741,3316.3l49.99 -97.61 0.02 0.03z"/>
   <path class="fil3" d="M18252.1 21210.42c13.73,-534.59 -36.89,-1148.8 -54.78,-1693.16 -18.58,-564.46 -23.46,-1128.45 -23.28,-1693.33l92.41 -3327.33 -105.19 -14.28c-122.51,683.47 -201.12,6208.31 -21.16,6700.09 20.56,9.03 8.43,8.48 70.36,25.46 6.01,1.65 29.9,2.35 41.65,2.56l-0.01 -0.01z"/>
   <path class="fil2" d="M14448.37 1928.69c1555.86,0 2304.04,1141.89 1862.56,2626.02 -52.97,178.11 -242.24,535.36 -155.73,658.48 213.14,-68.34 1031.27,-2172.75 -442.91,-3116.52 -317.07,-202.98 -732.03,-310.77 -1193.39,-309.21 -524.18,1.79 -976.24,64.7 -1479.57,125.42 -193.62,23.35 -315.26,81.74 -435.94,-30.59 19.79,-122.38 91.66,86.28 116.03,-145.02 -210.49,-138.99 -357.07,125.44 -203.85,273.05 189.46,182.52 1260.21,-81.66 1932.81,-81.66l-0.01 0.03z"/>
   <path class="fil4" d="M24146.14 13924.84c242.26,6.81 302.73,-131.34 432.92,-246.87 8.62,-204.73 90.25,-186.28 66.85,-404.87 -83.3,-126.79 -136.1,-83.23 -218.85,-246.94 6.81,-292.39 192.85,-227.1 281.27,-458.61 -79.96,-186.91 -299.99,-145.21 -369.57,-436.44 -64.44,-269.61 83.51,-464.41 173.06,-628.72 -162.22,-51.78 8.53,11.54 -104.49,-73.68 -70.73,-53.33 -31.31,-34.94 -126,-82.93 -42.37,78.56 -526,477.87 -161.13,934.34 455.79,570.2 -159.82,367.64 -143.89,823.37 45.99,101.37 668.6,230.09 258.2,711.95l-88.35 109.37 -0.02 0.03z"/>
   <path class="fil2" d="M388.65 7268.48c-116.26,-101.65 -312.23,-593.5 -227.75,-768.12 210.69,34.56 384.53,376 459.63,598.96 76.26,68 205.45,377.05 268.51,503.86 78.94,158.8 14.84,113.15 171.49,138.7 34.54,-188.4 -245.12,-614.64 -348.01,-805.32 -126.28,-234.02 -319.53,-685.45 -630.83,-556.69 -340.64,304.43 485.95,1538.99 616.1,1804.02 144.14,293.49 593.29,1992.7 804.53,1731.22 33.71,-41.74 -172.09,-383.06 -261.34,-614.37 -206.66,-535.61 -229.91,-818.63 -521.84,-1382.97 -98.56,-190.53 -308.24,-470.69 -330.49,-649.32l0 0.03z"/>
   <path class="fil5" d="M1271.04 5705.44c-0.6,214.46 380.58,1325.25 486.48,1521.54l362.92 -127.46 -438.17 -1598.6c-97.68,83.97 -60.28,122.15 -169.58,166.31 -180.54,72.96 -213.78,-51.82 -218.38,-58.58l-23.27 96.78 0 0.01z"/>
   <path class="fil6" d="M14761.12 10350.98c103.03,31.82 35.77,-27.39 97.89,64.63 -130.23,230.09 -970.59,372.1 -1322.34,346.92 -421.9,-30.22 -1002.01,-244.08 -1184.85,-523.3 56.01,-121.17 -27.72,-44.91 120.79,-75.1 -382.79,-283.54 -740.99,178.5 147.56,524.95 277.83,108.34 566.91,214.95 910.27,229.12 325.76,13.43 1982.87,-140.57 1575.57,-566.63 -62.95,-56.78 -133.3,-56.05 -262.06,-28.5 -89.58,19.16 -51.73,12.52 -82.82,27.92l-0.01 -0.01z"/>
   <path class="fil0" d="M9293.04 20323.85c351.63,7.25 366.69,474.87 85.69,207.02 -88.78,-84.61 -83.63,-60.44 -85.69,-207.02zm470.75 18.03c-202.15,-12.75 -534.82,-333.67 -553.29,-490.34 190.76,-74.52 162.59,65.62 298.83,194.92 284.55,270.07 234.13,63.83 254.46,295.42zm123.38 445.37c114.57,-148.7 35.08,-103.93 36.5,-252.7 1.33,-140.19 175.81,-160.03 -187.7,-538.45 -207.93,-216.46 -492.69,-452.4 -727.36,-231.91 2.44,207.58 212.88,342.16 359.58,423.14 -7.74,4.83 -20.02,6.99 -25.9,8.81l-81.09 23.7c-54.13,17.82 -20.67,-6.16 -78,28.08 -79.68,47.58 -73.85,84.54 -104.51,151.28 95.96,203.28 649.05,542.77 808.47,388.06l0.01 -0.01z"/>
   <path class="fil0" d="M16490.6 17365.32c-8.01,140.82 -31.82,119.49 -173.02,176.08l-1272.66 845.06c-37.38,34.33 -146.68,152.27 -189.14,57.43 -81.58,-182.21 1417.64,-1171.7 1634.83,-1078.55l-0.01 -0.02zm98.93 -95.07c-240.34,-149.09 -396.03,-13.45 -638.85,117.41 -515.47,277.83 -641.71,448.04 -1028.14,733.84 -99.49,73.59 -409.78,310.77 -291.68,507.14 141.31,234.97 388.57,-65.27 506.41,-184.93 319.14,-324.15 605.52,-516.36 1018.12,-747.61 223.96,-125.53 460.67,-114.22 434.15,-425.87l-0.01 0.02z"/>
   <path class="fil0" d="M15295.02 18833.09c-102.91,-108.32 31.32,-204.98 111.99,-297.37 120.63,-138.15 758.79,-710.33 880.11,-692.72 222.68,32.33 -170.25,260.74 -453.12,484.58 -266.36,210.77 -444.35,468.66 -538.98,505.51zm1242.11 -1122.26c-233.99,-87.3 -402.27,52.69 -549.93,170.55 -208.42,166.33 -1184.61,956.92 -929.67,1203.9 181.2,175.57 376.26,-157.4 443.79,-243.91l356.53 -383.51c541.75,-478.15 773.33,-399.86 679.31,-747.03l-0.03 0z"/>
   <path class="fil4" d="M4249.2 18760.19c28.36,657.22 -8.39,527.35 405.76,848.89 351.15,272.61 260.32,529.27 156.6,966.35 330.59,-110.86 116.38,-83.28 306.36,-226.07 7.39,-5.57 20.3,-12.89 26.72,-17.38l60.77 -35.49 -125.88 -14.56c2.62,-270.23 140.29,-315.09 -227.68,-728.59 -129.65,-145.7 -357.11,-438.75 -224.22,-731.74 -149.58,-53.15 -1.81,-4.14 -114.08,-58.82 -168.16,-81.88 -111.6,-3.9 -264.36,-2.58l0.01 -0.01z"/>
   <path class="fil7" d="M1016.44 5296.43l-73.32 5.95c-70.81,537.03 -96.84,531.39 87.37,1070.28 85.39,249.77 245.89,783.53 365.13,987.41l210.65 -75.85c-45.04,-299.95 -583.37,-1485.82 -589.83,-1987.81l0 0.02z"/>
   <path class="fil8" d="M24146.14 13924.84l88.35 -109.37c410.4,-481.86 -212.21,-610.58 -258.2,-711.95 -15.93,-455.73 599.68,-253.18 143.89,-823.37 -364.88,-456.47 118.77,-855.8 161.13,-934.34l-25.74 -69.32c-232.19,21.46 -397.47,343.53 -401.16,620.36 -6.13,460.63 259.18,479.54 279.99,705.99 -116.54,142.24 -353.24,209.61 -296,482.81 48.25,230.28 265.57,222.63 382.37,399.14 0.61,313.05 -185.42,187.93 -208.74,434.72l134.11 5.36 0 -0.03z"/>
   <path class="fil2" d="M15252.92 9780.6c-172.06,-108.25 -583.03,256.34 -1474.64,287.59 -1141.8,40.02 -1252.65,-387.59 -1508.56,-347.38 15.35,353.79 1015.39,501.05 1437.94,493.08 306.22,-5.78 591.85,-43.32 876.75,-120.68l558.33 -182.61c158.19,-76.13 94.75,-15.7 110.18,-130z"/>
   <path class="fil9" d="M11801.33 17859.38l0.26 11.29c-627.17,-278.11 -1323.64,-481.61 -2041.29,-827.27 -177.66,-85.56 -527.35,-319.23 -671.28,-248.88 48.64,150.9 350.56,247.54 590.79,364.6 208.88,101.79 456.21,211.37 682.91,305.4 391.03,162.17 996.04,432.47 1398.31,524.42 70.8,-81.23 17.73,-6.43 40.3,-129.55l0 -0.01z"/>
   <path class="fil0" d="M14499.67 5509.9c-593.58,230.23 -510.95,860.39 4.34,691.83 501.14,-163.94 485.63,-881.86 -4.34,-691.83z"/>
   <path class="fil4" d="M23050.27 20777.95c51.01,62.3 -38.65,3.85 84.46,80.75 29.62,18.51 59.26,28.74 103.38,34.94 155.11,21.83 201.84,-15.26 201.92,-15.26 9.27,-2.05 25.76,2.25 32.38,-10.83 6.6,-13.03 21.88,-6.53 31.9,-11.85l-131.99 -14.19c53.96,-172.71 100.82,-103.53 170.32,-270.65 151.43,-364.16 -169.41,-551.37 182.91,-1125.84l130.88 25.67c24.32,-155.36 41.95,-103.17 54.69,-182.59 9.8,-61.09 3.02,-64.4 -13.05,-122.86l-213.06 -53.33c11.62,158.71 -138.41,162.35 -245.7,329.57 -91.22,142.15 -105.28,295.19 -84.88,484.11 38.49,356.3 107.53,887.73 -304.18,852.36l0.02 0z"/>
   <path class="fil8" d="M21855.4 9415.02l-174.01 -235.43c-227.96,-226.01 -524.09,-270.84 -844.08,-247.7 78.7,-362.32 914.06,-187.75 1114.6,164.3l112.04 -46.86c-39.4,-255.67 -415.1,-396.3 -727.64,-443.53 -166.03,-25.09 -353.19,-26.3 -494.4,52.75 -182.36,102.1 -255.92,445.36 3.83,431.17 176.11,-9.6 277.09,-67.27 522.67,50.73 255.79,122.91 288.43,314.6 417.7,382.62 68.09,-57.93 43.04,-8.16 69.27,-108.04l0.02 -0.01z"/>
   <path class="fil2" d="M15295.02 9303.27c79.58,-42.68 88.81,67.28 82.68,-333.53 -8.97,-587.26 57.12,-1279.91 139.43,-1857.61 49.39,-346.62 156.48,-546.88 24.83,-633.97 -162.72,81.1 -233.05,1156.27 -250.19,1317.56 -27.94,262.99 -149.48,1354.77 3.25,1507.54l0 0.01z"/>
   <path class="fil0" d="M1271.04 5705.44l23.27 -96.78c4.58,6.78 37.84,131.53 218.38,58.58 109.3,-44.16 71.9,-82.35 169.58,-166.31 -47.99,-261.85 -120.29,-714.91 -292.14,-820.71 -332.93,70.02 -292.37,849.82 -119.08,1025.23l-0.01 -0.01z"/>
   <path class="fil2" d="M14842.15 3324.79c-29.88,-92.22 -56.92,-105.9 -233.63,-159.55 -695.49,-211.21 -1383.62,50.87 -1887.05,-17.66 -461.9,-62.88 -256.72,-352.93 -319.2,-464.81 -309.63,67.93 -91.39,457.28 69.2,538.36 220.48,111.32 531.09,76.87 798.67,52.41 368.75,-33.71 861.97,-107.53 1226.13,2.49 164.4,49.67 220.11,134.04 345.9,48.74l-0.02 0.02z"/>
   <path class="fil2" d="M14761.12 10350.98c-687.38,349.15 -1826.83,377.7 -2288.5,-186.86 -148.51,30.18 -64.77,-46.07 -120.79,75.1 182.84,279.22 762.95,493.1 1184.85,523.3 351.73,25.18 1192.09,-116.83 1322.34,-346.92 -62.12,-92.02 5.14,-32.82 -97.89,-64.63l-0.01 0.01z"/>
   <path class="fil0" d="M17683.67 14130.96c80.73,95.78 159.36,162.05 128.42,280.88 -43.4,15.12 -15.33,48.22 -94.55,3.99l-146.09 -209.68c-101.08,-135.01 -175.36,-99.7 -205.91,-273.28 194.72,0.81 222.45,84.61 318.13,198.1l0 -0.01zm402.88 159.48c-150.85,-30.66 -94.54,-9.38 -153.78,-164.17 -32.66,-85.35 -51.29,-122.14 -92.38,-188.61 -78.82,-127.56 -149.84,-276.16 -276.2,-330.91 64.56,202.27 152.58,257.51 199.97,487.6 -133.88,-108.58 -429.82,-604.07 -645.51,-302.27 -4.27,8.81 -8.11,21.33 -9.31,27.83 -1.14,6.36 -6.53,19.93 -7.36,27.67 -0.07,0.68 -39.96,14.91 25.9,127.76 47.95,82.16 221.06,192.86 353.45,392.43 67.55,101.82 128.49,225.15 256.74,240.59 189.86,22.84 179.89,-144.75 153.85,-300.11 12.5,1.18 102.09,9.66 115.83,8.88 90.99,-5.11 25.07,2.97 78.75,-26.65l0.05 -0.04z"/>
   <path class="fil8" d="M24579.06 13677.96c152.27,9.27 217.85,-132.99 216.27,-335.14 -2.07,-265.8 -155.69,-205.96 -215.65,-387.24 67.37,-85.93 220.89,-191.14 257.41,-304.1 73.62,-227.72 -57.42,-267.77 -181.47,-343.76 -384.88,-235.76 -82.26,-516.85 -36.5,-776.62l-107.3 -28.73c-89.53,164.31 -237.5,359.11 -173.06,628.72 69.58,291.23 289.61,249.51 369.57,436.44 -88.42,231.51 -274.46,166.23 -281.27,458.61 82.75,163.72 135.55,120.15 218.85,246.94 23.41,218.59 -58.21,200.13 -66.85,404.87l0 0.01z"/>
   <path class="fil4" d="M18152.7 3677.16c58.31,55.98 -16.51,37.45 130.65,91.71 95.75,35.29 74.82,22.18 187.03,9.38 31.31,-57.15 46.35,-90.92 72.38,-150.92 -331.59,-45.11 -98.94,-504.9 35.03,-618.11 230.75,-195.02 364.11,-180.38 447.69,-541.21l126.11 12.36c-4.85,-9.46 -11.33,-34.29 -13.5,-28.9l-35.13 -84.49c-9.87,-24.65 -30.13,-83.74 -40.96,-99.91 -24.93,-37.24 -26.2,-50.99 -75.77,-61.67 -192.07,-41.37 -121.08,26.79 -137.98,39.75 225.08,186.07 -292.23,545.39 -386.97,612.79 -428.71,305.06 -197.29,408.64 -164.3,828.62l-144.3 -9.41 0.02 0.01z"/>
   <path class="fil3" d="M12440.78 4357.45l730.73 55.03c43.32,398.12 -100.31,583.68 -257.18,835.84 -141,226.63 -201.99,348.33 -25.27,588.07 106.19,144.09 7.15,102.65 191.05,107.72 -20.26,-193.57 -78.84,-177.75 -155.83,-326.26 20.95,-271.81 633.25,-918.73 324.66,-1303.21 -97.63,-85.76 -454.52,-72.69 -599.71,-72.48 -150.2,0.23 -202.63,-26.21 -208.44,115.31l-0.01 -0.02z"/>
   <path class="fil9" d="M16490.6 17365.32c-217.18,-93.15 -1716.4,896.36 -1634.83,1078.55 42.46,94.83 151.74,-23.11 189.14,-57.43l1272.66 -845.06c141.22,-56.57 165.02,-35.26 173.02,-176.08l0.01 0.02z"/>
   <path class="fil2" d="M12966.57 6505.26c56.17,-51.41 -9.8,-12.85 73.66,-45.42 71.25,-27.8 553.32,-63.39 638.9,-30.6 -57.07,213.48 -343.95,426.53 -712.56,76.03l0 -0.01zm-199.67 -141.73c111.08,630.21 1144.27,613.46 1048.69,-49.64 -170.2,-73.64 -877.77,-54.71 -1048.69,49.64z"/>
   <path class="fil3" d="M7455.29 14252.32l110.23 -26.79 -113.18 -421.12c-134.59,-372.22 -698.13,-1518.94 -1002.84,-1577.9 -66.76,132.85 101.96,248.59 254.58,465.14 576.82,818.53 454.84,861.21 751.23,1560.68l-0.02 -0.01z"/>
   <path class="fil0" d="M12012.55 6111.57c73.43,-73.04 42.97,100.52 65.67,-105.84 50.59,108.25 192.3,106.07 268.35,79.87 106.33,-36.63 155.8,-165.88 149.12,-284.13 -11.97,-212.07 -171,-438.88 -340.55,-503.4l-23.9 -206.59c-104.1,171.62 -109.35,770.54 -118.7,1020.1l0.01 -0.01z"/>
   <path class="fil0" d="M2573.9 5533.38c24.06,10.64 57.28,195.62 252.16,147.16 136.61,-33.98 -21.28,13.05 56.47,-22.88 10.24,-4.72 19.17,-10.99 28.41,-15.91 9.57,-5.07 20.81,-13.4 28.59,-17.89 7.94,-4.58 18.95,-12.98 28.69,-19.03l39.51 153.95 -177.25 -833.15c-51.69,-158.73 -45.21,-164.87 -164.86,-201.4 -215.27,157.04 -150.56,723.99 -91.71,809.15l-0.01 0z"/>
   <path class="fil8" d="M4811.57 20575.41c103.72,-437.09 194.55,-693.74 -156.6,-966.35 -414.17,-321.53 -377.42,-191.65 -405.76,-848.89 -146.72,23.91 -141.59,33.43 -141.21,226.01 0.6,288 84.84,500.45 313.6,645.29 531.83,336.77 305.55,551.02 255.72,908.81 97.13,62.93 10.41,31.2 134.29,35.1l-0.04 0.03z"/>
   <path class="fil4" d="M21917.55 4143.18l104.12 5.41c17.01,211.93 -30.41,204.42 170.42,287.52 234.3,96.98 683.27,298.5 511.88,739.01 92.96,-13.27 66.76,-4.55 146.88,-42.74 139.78,-66.65 -26.72,-31.13 154.06,-81.14 -23.37,-324.39 -5.48,-375.74 -276.88,-481.6 -221.47,-86.37 -379.83,-138.85 -333.82,-422.04 -51.62,51.45 -52.73,-63.77 -78.91,118.13 -170.56,-64.76 -166.65,-351.94 -397.74,-122.56l-0.01 0.01z"/>
   <path class="fil4" d="M21855.4 9415.02c51.48,-94.66 71.87,-92.2 91.53,-177.57 25.78,-111.85 -17.7,-69.27 4.99,-141.26 -200.54,-352.03 -1035.9,-526.62 -1114.6,-164.3 319.99,-23.14 616.11,21.68 844.08,247.7l174.01 235.43 -0.01 0z"/>
   <path class="fil8" d="M23050.27 20777.95c411.71,35.35 342.67,-496.06 304.18,-852.36 -20.4,-188.91 -6.34,-341.94 84.88,-484.11 107.28,-167.23 257.32,-170.86 245.7,-329.57 -240.45,-63.95 -500.26,371.66 -485.11,720.73 8.02,185.01 77.82,373.93 54.85,559.66 -40.7,329.15 -193.53,144.3 -204.5,385.64l0 0.01z"/>
   <path class="fil8" d="M18152.7 3677.16l144.3 9.41c-32.99,-419.98 -264.41,-523.56 164.3,-828.62 94.75,-67.42 612.06,-426.74 386.97,-612.79 -99.05,-5.48 -103.68,209.93 -220.62,319.86 -98.52,92.62 -244.35,165.75 -350.57,249.58 -387.62,305.82 -123.38,707.4 -124.37,862.56l-0.01 0z"/>
   <path class="fil4" d="M7512.79 4840.24l153.15 0.18c-38.08,247.15 -243.63,140.85 62.23,653.71 81.38,136.47 279.37,587 -15.59,636.87 51.94,47.48 -6.15,12.03 69.06,47.85 30.24,14.42 50.32,24.09 82.46,30.52 136.69,27.3 134.66,27.02 195.6,-42.32l-117.13 -4.23c72.71,-395.51 71.22,-325.82 -84.4,-659.24 -99.94,-214.13 -148.48,-471.54 36.14,-645.89 -64.86,-79 -154.39,-103.65 -277.16,-70.8 -77.71,20.79 -66.46,21.04 -104.3,53.41l-0.06 -0.06z"/>
   <path class="fil4" d="M9590.64 2624.96c-14.01,-130.71 -21.56,-46.09 24.69,-122.01 227.31,46.25 553.08,433.52 475.43,768.49l-139.05 -21.11c150.27,247.38 173.99,16.89 390.4,-145.98 -149.79,2.86 -118.63,-139.2 -189.61,-281.36 -60.19,-120.52 -151.97,-179.33 -239.73,-253.72 -82.09,-69.57 -489.62,-462.07 -153.08,-570.76 -230.33,-216.09 -296.72,341.62 -219.73,545.79 3.7,9.82 9.29,19.33 13.34,27.99 4.18,8.9 13.59,19.58 17.49,26.65 3.99,7.25 11.85,18.59 19.86,26.02l-0.01 0z"/>
   <path class="fil8" d="M5205.42 20296.47c96.99,-384.95 18.81,-504.23 -171.67,-747.87 -237.16,-303.38 -256.16,-220.61 -321.64,-711.16l-84.47 -15.86c-132.88,292.98 94.57,586.03 224.22,731.74 367.97,413.5 230.3,458.37 227.68,728.59l125.88 14.56z"/>
   <path class="fil8" d="M23504.32 20855.7c189.7,-190.05 242.82,-292.42 216.06,-667.89 -10.32,-145.05 -32.06,-313.03 7.29,-454.47 41.1,-147.79 119.94,-139.8 128.77,-262.62l-130.88 -25.67c-352.31,574.46 -31.48,761.67 -182.91,1125.84 -69.5,167.12 -116.38,97.94 -170.32,270.65l131.99 14.19 0 -0.03z"/>
   <path class="fil8" d="M18542.78 3627.33c89.46,-186.38 -203.22,-262.96 237.62,-590.76 196.16,-145.86 351.59,-232.86 371.21,-556.19l-126.11 -12.36c-83.58,360.81 -216.94,346.17 -447.69,541.21 -133.97,113.24 -366.62,573.01 -35.03,618.11l0 -0.01z"/>
   <path class="fil2" d="M15295.02 18833.09c94.62,-36.87 272.61,-294.74 538.98,-505.51 282.87,-223.84 675.79,-452.26 453.12,-484.58 -121.31,-17.61 -759.46,554.59 -880.11,692.72 -80.66,92.39 -214.9,189.05 -111.99,297.37z"/>
   <path class="fil8" d="M22703.97 5175.11c171.41,-440.49 -277.57,-642.01 -511.88,-739.01 -200.83,-83.12 -153.39,-75.59 -170.42,-287.52l-104.12 -5.41c-169.05,296.88 120.87,373.52 343.04,471.89 137.66,60.95 209.97,109.78 272.19,219.34 121.47,213.88 -15.73,263.45 171.18,340.71l0.01 0z"/>
   <path class="fil8" d="M7712.58 6130.95c294.97,-49.87 96.98,-500.38 15.59,-636.87 -305.85,-512.85 -100.31,-406.55 -62.23,-653.71l-153.15 -0.18c-289.4,691.81 385.01,694.27 152.3,1236.23l47.48 54.5 0.01 0.03z"/>
   <path class="fil0" d="M13581.45 7396.75l-7.64 -208.39c-173.06,-84.05 -669.39,-138.08 -600.52,146.98 56.49,233.83 446.73,179.82 608.16,61.4l0 0.01z"/>
   <path class="fil0" d="M388.65 7268.48c66.39,-104.09 -2.67,-13.01 96.94,-95.69 109.64,-91.02 32.17,-78.19 134.94,-73.45 -75.12,-222.96 -248.95,-564.4 -459.63,-598.96 -84.47,174.6 111.5,666.45 227.75,768.12l0 -0.02z"/>
   <path class="fil8" d="M8059.67 6166.98c135.55,-213.23 78.15,-406.73 -23.34,-627.21 -42.6,-92.53 -104.09,-196.95 -118.27,-311.88 -25.76,-208.82 47.85,-196.81 58.86,-338.86l-82.67 -31.43c-184.61,174.36 -136.06,431.78 -36.14,645.89 155.62,333.42 157.11,263.73 84.4,659.24l117.13 4.23 0.03 0.02z"/>
   <path class="fil8" d="M10342.11 3104.33c132.85,-457.72 -495.71,-625 -542.59,-914.89 -7.8,-48.16 -1.44,-60.03 -7.53,-96.19 -13.54,-80.12 10.24,-44.56 -32.29,-94.76 -336.55,108.69 70.99,501.19 153.08,570.76 87.76,74.4 179.54,133.18 239.73,253.72 70.99,142.15 39.81,284.22 189.61,281.36l-0.01 0z"/>
   <path class="fil8" d="M24919.49 8835.95c-32.87,-132.6 -48.16,-190.97 76.92,-242.57 236.09,52.54 215.57,315.97 -76.92,242.57zm17.84 -361.26c-355.37,138.15 -171.04,631.67 178.96,510.09 319.78,-111.08 157.15,-640.76 -178.96,-510.09z"/>
   <path class="fil8" d="M5271.3 3691.77c0.04,0.95 144.05,517.08 -229.17,325.27 -47.3,-164.93 -34.98,-179.1 100.8,-234.07l-14.57 -140.49c-133.16,46.13 -226.56,61.6 -257.78,229.14 -28.37,152.25 53.92,276.58 178.17,316.11 323.43,102.91 630.26,-412.59 222.57,-495.96l-0.02 0z"/>
   <path class="fil8" d="M6940.61 20746.04c131.97,385.6 -433.61,182.94 -111.22,-32.24l111.22 32.24zm-343.48 182.33c72.69,261.38 608.56,209.7 504.49,-162.45 -91.36,-326.68 -604.24,-196.09 -504.49,162.45z"/>
   <path class="fil0" d="M17423.17 13331.01c115.92,-5.53 177.89,46.65 257.64,130.57 39.89,41.96 137.31,178.34 179.8,244.59 112.92,176.09 228.44,337.19 255.16,576.32 76.84,-71.15 40.53,8.5 53.87,-126.7 10.41,-105.46 -184.65,-547.05 -233.05,-631.14 -52.55,-91.29 -129.27,-233.14 -213.76,-283.38 -156.46,-92.97 -218.45,-2.88 -299.67,89.74l0.01 0z"/>
   <path class="fil8" d="M23004.9 5051.24l104.12 28.6c175.8,-572.3 -435.42,-651.65 -520.45,-722.78 -139.96,-117.08 0.83,-199.64 -194.37,-209.46 -46,283.18 112.36,335.67 333.82,422.04 271.4,105.86 253.51,157.2 276.88,481.6z"/>
   <path class="fil4" d="M16584.84 7099.15l124.4 3.04c81.86,143.75 284.48,347.06 302.17,573.3l-111.64 13.15c44.63,45.09 19.98,46.09 104.3,74.99 37.93,12.99 80.4,16.86 119.57,7.06 110.85,-27.76 95.41,-85.74 108.2,-199.89 -152.64,-12.05 -286.77,-336.28 -281.89,-513.04l125.09 8.6c-8.23,-7.95 -22.19,-28.88 -27.6,-20.49l-107.53 -54.98c-132.13,-44.04 -188.84,-13.98 -282.82,50.95l-47.37 36.66c-6.22,4.74 -17.33,12.92 -24.86,20.63l-0.02 0.02z"/>
   <path class="fil2" d="M17423.17 13331.01l16.35 127.23c91.25,62.91 89.07,51.87 124.72,148.49 126.33,54.75 197.38,203.35 276.2,330.91 41.09,66.49 59.72,103.26 92.38,188.61 59.23,154.8 2.91,133.52 153.78,164.17l29.24 -7.95c-26.72,-239.11 -142.24,-400.21 -255.16,-576.32 -42.49,-66.27 -139.91,-202.64 -179.8,-244.59 -79.77,-83.91 -141.72,-136.1 -257.64,-130.57l-0.07 0.02z"/>
   <path class="fil8" d="M25625.92 16789.64c46.71,-183.31 66.13,-344.59 136.27,-528.72 59.35,-155.76 195.73,-281.24 181.06,-447.66 -164.1,35.47 -190.48,97.75 -301.46,364.48 -68.37,164.35 -141.57,390.73 -116.15,597.55l100.28 14.33 0 0.02z"/>
   <path class="fil8" d="M17342.98 366.03c132.57,-39.74 48.04,8.52 90.46,24.86l-11.71 83.26c-4.25,2.34 26.57,86.37 -102.75,18.75 -8.5,-4.44 -97.99,-90.32 24,-126.9l0 0.03zm-81.73 -147.7c-68.81,69.88 -145.89,125.35 -114.55,269.86 23.81,109.79 127.77,200.33 291.6,153.97 213,-60.24 261.13,-451.41 -177.04,-423.85l-0.01 0.02z"/>
   <path class="fil10" d="M12966.57 6505.26c368.62,350.5 655.5,137.45 712.56,-76.03 -85.6,-32.78 -567.65,2.79 -638.9,30.6 -83.46,32.57 -17.49,-5.99 -73.66,45.42l0 0.01z"/>
   <path class="fil2" d="M1671.37 7988.33c-72.46,-88.81 -91.15,-136.38 -219.61,-93.1 7.16,124.51 41.84,92.48 124.14,186.93 57.31,65.77 86.42,119.26 149.44,205.03 278.29,378.79 86.84,373.59 305.62,393.8 68.55,-200.98 -233.48,-538.1 -359.6,-692.65l0.01 -0.01z"/>
   <path class="fil8" d="M22539.55 17320.17c18.79,-92.76 25.32,-100.58 118.92,-123.51 -15.08,93.08 -20.67,126.69 -118.92,123.51zm15.8 -303.25c-205.37,161.22 -232.46,511.62 67.58,447.52 206.14,-44.04 298.58,-418.26 -67.58,-447.52z"/>
   <path class="fil8" d="M9590.64 2624.96c173.44,92.81 384.94,344.17 361.07,625.35l139.05 21.11c77.63,-334.95 -248.14,-722.24 -475.43,-768.49 -46.23,75.92 -38.7,-8.69 -24.69,122.01l0 0.02z"/>
   <path class="fil11" d="M13836.06 4383.14c110.48,164.21 71.76,8.8 506.3,72.87 192.25,28.34 272.3,115.69 430.8,79.65 -17.73,-108.65 16.77,-153.88 -398.46,-218.46l-421.67 -10.36c-184.96,44.35 -56.71,32.87 -116.98,76.31l0.01 -0.01z"/>
   <path class="fil4" d="M25625.92 16789.64c144.45,-48.09 7.9,-50.87 150.97,2.79 -33.15,-179.43 61.74,-378.79 128.77,-529.06 61.47,-137.8 123.03,-326.76 280.09,-320.85 -83.21,-79.31 5.2,-8.46 -118.08,-67.06 -41.07,-19.53 -84.49,-40.19 -124.42,-62.23 14.64,166.4 -121.73,291.89 -181.06,447.66 -70.15,184.14 -89.57,345.41 -136.27,528.72l0 0.03z"/>
   <path class="fil8" d="M25776.89 16792.43c164.86,-22.86 151.06,-215.39 226.29,-396.09 52.68,-126.47 207.74,-336.12 182.57,-453.8 -157.06,-5.92 -218.6,183.05 -280.09,320.85 -67.04,150.25 -161.93,349.63 -128.77,529.06l0 -0.02z"/>
   <path class="fil8" d="M12472.83 141.65c130.2,164.14 11.29,101.47 0,114.48 -68.34,-56.57 -22.05,21.33 -30.46,-66.27 -12.92,-134.48 -22.56,23.12 30.46,-48.23l0 0.02zm-170.62 183.79c73.41,47.21 114.13,72.15 247.93,65.86 419.42,-388.62 -343.6,-611.28 -247.93,-65.86z"/>
   <path class="fil8" d="M6452.41 8082.5c-68.72,174.13 -6.67,225.28 90.67,316.62 335.44,24.9 412.05,-290.1 177.53,-373.54l-108.63 15.8c53.17,227.73 89.95,12.31 62.77,205.63 -152.65,2.83 -79.66,-18.33 -142.93,-180.57l-79.43 16.08 0.02 -0.02z"/>
   <path class="fil11" d="M19775.3 20183.43c215.71,2.93 5.14,50.02 331.17,-512.85 7.11,-12.31 40.96,-83.6 43.3,-94.61 32.78,-154.57 9.04,-16.58 -7.53,-78.03 -112.01,-21.23 -116.27,5.85 -171.76,109.18 -69.6,129.67 -245.26,441.98 -195.18,576.31z"/>
   <path class="fil2" d="M9763.79 20341.88c-20.33,-231.62 30.1,-25.37 -254.46,-295.42 -136.24,-129.3 -108.07,-269.44 -298.83,-194.92 18.47,156.69 351.14,477.59 553.29,490.34z"/>
   <path class="fil8" d="M16899.77 7688.64l111.64 -13.15c-17.66,-226.24 -220.31,-429.55 -302.17,-573.3l-124.4 -3.04c20.51,163.96 89.48,196.08 162.29,311.21 66.88,105.77 89.5,167.28 152.64,278.29l0 -0.01z"/>
   <path class="fil8" d="M19326.38 5162.23c-53.68,40.17 -134.81,97.77 -58.22,218.81 42.09,66.51 146.63,99.17 237.43,41.12 165.05,-105.53 23,-411.29 -179.2,-259.94l-0.01 0.01z"/>
   <path class="fil3" d="M17812.1 14411.84c30.94,-118.84 -47.69,-185.1 -128.42,-280.88 -95.68,-113.5 -123.4,-197.29 -318.13,-198.1 30.55,173.58 104.82,138.27 205.91,273.28l146.09 209.68c79.22,44.23 51.17,11.13 94.55,-3.99l0 0.01z"/>
   <path class="fil4" d="M5271.3 3691.77c-27.27,-0.4 -31.27,3.28 -50.52,-4.02 -6.6,-2.51 -21.12,-6.78 -28.57,-9.89l-63.88 -35.38 14.57 140.49c-135.78,54.98 -148.11,69.15 -100.8,234.07 373.22,191.81 229.21,-324.32 229.17,-325.27l0.03 0z"/>
   <path class="fil8" d="M7318.7 17894.04c57.91,-337.21 -226.42,-289.38 -278.71,-166.91 -97.78,229.1 120.08,272.32 278.71,166.91z"/>
   <path class="fil8" d="M17231.86 7570.81c85.79,-143.8 -117.92,-320.13 -156.82,-504.44l-125.09 -8.6c-4.86,176.76 129.25,501.02 281.89,513.04l0.02 0z"/>
   <path class="fil3" d="M13871.01 2760.36c74.76,123.23 80.61,68.22 257.9,79.28 145,9.08 164.87,59.01 296.18,4 2.95,-132.78 -71.52,-121.14 -206.07,-138.1 -114.85,-14.49 -324.82,-52.22 -347.99,54.82l-0.02 0z"/>
   <path class="fil9" d="M7951.78 10290.58l-11.55 -103.35 -145.56 14.56 -116.9 143.82c-122.87,101.93 -97.63,18.66 -116.57,185.7 208.77,-8.45 238.8,-139.4 390.59,-240.73l-0.01 0z"/>
   <path class="fil4" d="M24919.49 8835.95c292.49,73.39 313.02,-190.05 76.92,-242.57 -125.09,51.62 -109.79,109.97 -76.92,242.57z"/>
   <path class="fil3" d="M15546.43 5832.31c53.62,18.84 286.4,-105.25 310.51,-254.32 -111.74,-34.54 -131.09,-11.47 -225.45,57.87 -252,185.21 -85.14,196.32 -85.05,196.45l-0.01 0z"/>
   <path class="fil8" d="M10050.11 5464.44l-2.3 143.73c68.64,50.73 83.09,68.81 204.14,61.05 128.27,-192.78 -15.63,-304.5 -201.84,-204.79l0 0.01z"/>
   <path class="fil9" d="M9378.73 20530.86c281.01,267.86 265.94,-199.76 -85.69,-207.02 2.05,146.58 -3.07,122.4 85.69,207.02z"/>
   <path class="fil3" d="M12684.5 5068.04c17.89,-7.66 135.22,14.5 113.87,-262.27 -9.87,-127.84 -6.81,-65.55 -43.32,-124.46 -86.7,40.44 -83.39,-9.96 -107.99,159.64 -0.09,0.67 -9.25,100.87 -8.67,107.25 13.22,148.32 11.57,69.15 46.11,119.84z"/>
   <path class="fil12" d="M14179.28 5229.7c26.95,-57.91 42.83,-135.69 46.13,-223.57 4.9,-130.37 18.82,-117.55 -86.35,-150.49 -61.91,77.29 -55.22,79.72 -65.42,215.72 -12.01,160.36 -21.42,127.83 105.67,158.34l-0.03 0z"/>
   <path class="fil4" d="M6940.61 20746.04l-111.22 -32.24c-322.39,215.18 243.19,417.84 111.22,32.24z"/>
   <path class="fil11" d="M15718.36 4389.79c0.32,-1.04 137.19,-10.03 66.86,-279.97 -109.95,10.78 -102.33,-14.17 -125.86,106.6 -28.73,147.46 -17.89,120.93 59,173.37z"/>
   <path class="fil4" d="M10251.95 5669.23c-121.07,7.76 -135.52,-10.32 -204.14,-61.05l2.3 -143.73c-80.12,42.16 -65.9,-106.53 -76.1,118.47 -2.72,60.19 53.61,184.51 167.67,172.58 153.64,-16.07 91.25,-51.75 110.27,-86.27z"/>
   <path class="fil4" d="M6452.41 8082.5l79.43 -16.08c63.26,162.24 -9.75,183.38 142.93,180.57 27.18,-193.3 -9.62,22.11 -62.77,-205.63l108.63 -15.8c-33.31,-43.76 -23.07,-53.1 -130.55,-39.75 -118.41,14.7 -103.53,38.17 -137.68,96.7l0.01 -0.01z"/>
   <path class="fil12" d="M2882.88 16708.43c7.18,-18.16 44.72,-65.18 -10.68,-151.16 -41.63,-64.62 -39.95,-58.93 -124.79,-61.82 -54.94,151.9 7.08,243.78 135.46,212.99l0.01 -0.01z"/>
   <path class="fil11" d="M15016.84 3360.07c15.15,88.16 -25.34,62.16 62.98,113.22 85.62,49.5 89.88,20.98 145.46,-7.37 -20.54,-123.96 -91.88,-175.11 -208.44,-105.83l0 -0.02z"/>
   <path class="fil12" d="M8274.78 11684.23c65.02,-15.94 65.84,12.98 98.22,-49.95 69.55,-135.2 -26.23,-133.34 -27.67,-135.48 -128.65,39.79 -163.15,62.47 -70.55,185.45l0 -0.02z"/>
   <path class="fil3" d="M21544.75 13202.55c-101.17,-64.76 -75.84,-70.08 -171.58,1.88 23.48,65.53 -18.26,120.45 94.17,109.23 118.52,-11.82 64.12,-28.22 77.43,-111.11l-0.02 0z"/>
   <path class="fil12" d="M16534.36 1807.21c131.55,9.6 183.56,-29.53 157.83,-160.8 -127.42,-3.44 -148.21,31.8 -157.83,160.8z"/>
   <path class="fil4" d="M17421.73 474.18l11.71 -83.26c-42.42,-16.35 42.09,-64.62 -90.46,-24.86 -122.01,36.57 -32.5,122.45 -24,126.9 129.34,67.62 98.5,-16.43 102.75,-18.75l0 -0.03z"/>
   <path class="fil13" d="M10669.93 8119.23c212.86,-2.25 160.56,-120.35 9.62,-131.27l-9.62 131.27z"/>
   <polygon class="fil14" points="950.33,5151.96 984.96,5228.07 943.12,5302.38 1016.44,5296.43 1022.48,5032.93 "/>
   <path class="fil4" d="M22539.55 17320.17c98.28,3.18 103.84,-30.43 118.92,-123.51 -93.6,22.93 -100.15,30.73 -118.92,123.51z"/>
   <path class="fil15" d="M5091.36 12473.28c27.3,52.76 7.55,22.33 40.17,65.07 2.48,3.25 15.01,19.96 16.94,14.8 1.9,-5.04 11.96,8.48 17.82,12.85l75.27 -33.33 -82.54 -35.96 10.89 -80.33c-20.82,16.84 -59.28,38.35 -78.56,56.91l0.01 -0.01z"/>
   <path class="fil4" d="M12472.83 256.15c11.29,-13.03 130.2,49.64 0,-114.48 -53.03,71.36 -43.4,-86.27 -30.46,48.23 8.41,87.58 -37.87,9.69 30.46,66.27l0 -0.02z"/>
  </g>
 </g>
</svg>
